<svg xmlns="http://www.w3.org/2000/svg" viewBox="0 0 500 500"><g id="freepik--Floor--inject-182"><path id="freepik--floor--inject-182" d="M83.69,254.29c-91.85,53-91.85,139,0,192s240.77,53,332.62,0,91.85-139,0-192S175.54,201.26,83.69,254.29Z" style="fill:#fafafa"></path></g><g id="freepik--Shadows--inject-182"><ellipse id="freepik--Shadow--inject-182" cx="291.61" cy="404.17" rx="80.32" ry="46.37" style="fill:#e0e0e0"></ellipse><ellipse id="freepik--shadow--inject-182" cx="166.54" cy="331.5" rx="80.32" ry="46.37" style="fill:#e0e0e0"></ellipse></g><g id="freepik--Sparkles--inject-182"><g id="freepik--sparkles--inject-182"><ellipse id="freepik--Sparkle--inject-182" cx="248.63" cy="143.31" rx="8.77" ry="13.29" style="fill:#BA68C8"></ellipse><ellipse id="freepik--sparkle--inject-182" cx="389.53" cy="104.93" rx="8.77" ry="13.29" style="fill:#BA68C8"></ellipse><ellipse id="freepik--sparkle--inject-182" cx="292.89" cy="40.73" rx="8.77" ry="13.29" style="fill:#e0e0e0"></ellipse><ellipse id="freepik--sparkle--inject-182" cx="432.05" cy="215.03" rx="8.77" ry="13.29" style="fill:#e0e0e0"></ellipse><ellipse id="freepik--sparkle--inject-182" cx="128.9" cy="93.27" rx="8.77" ry="13.29" style="fill:#e0e0e0"></ellipse><ellipse id="freepik--sparkle--inject-182" cx="265.78" cy="173.8" rx="4.44" ry="6.73" style="fill:#BA68C8"></ellipse><ellipse id="freepik--sparkle--inject-182" cx="54.29" cy="181.87" rx="6.58" ry="9.97" style="fill:#BA68C8"></ellipse><ellipse id="freepik--sparkle--inject-182" cx="382.87" cy="289.32" rx="6.58" ry="9.97" style="fill:#BA68C8"></ellipse><ellipse id="freepik--sparkle--inject-182" cx="369.31" cy="75.54" rx="4.44" ry="6.73" style="fill:#BA68C8"></ellipse><ellipse id="freepik--sparkle--inject-182" cx="265.78" cy="60.55" rx="4.44" ry="6.73" style="fill:#e0e0e0"></ellipse><ellipse id="freepik--sparkle--inject-182" cx="458.29" cy="233.28" rx="4.44" ry="6.73" style="fill:#e0e0e0"></ellipse><ellipse id="freepik--sparkle--inject-182" cx="155.43" cy="110.96" rx="4.44" ry="6.73" style="fill:#e0e0e0"></ellipse></g></g><g id="freepik--jar-2--inject-182"><g id="freepik--Jar--inject-182"><g id="freepik--medicine-bottle--inject-182"><path d="M218.54,185.67a74.48,74.48,0,0,0-9.88-4.75,16.81,16.81,0,0,1-10.76-15.54v-4.87H136v4.87a16.81,16.81,0,0,1-10.76,15.54,75.7,75.7,0,0,0-9.88,4.75C101.12,193.9,94,204.68,94,215.46v109.3c0,10.78,7.13,21.57,21.37,29.79,28.49,16.45,74.69,16.45,103.18,0,14.24-8.22,21.37-19,21.37-29.78V215.45C239.91,204.67,232.78,193.89,218.54,185.67Z" style="fill:#fafafa"></path><ellipse cx="167" cy="325.21" rx="72.91" ry="41.68" style="fill:#BA68C8;opacity:0.2"></ellipse><ellipse cx="167" cy="325.21" rx="72.91" ry="41.68" style="fill:#f0f0f0"></ellipse><path d="M167,359.68c-18.2,0-35.24-4.05-48-11.41-11.9-6.86-18.45-15.7-18.45-24.88V216.54c0-9.18,6.55-18,18.45-24.88a68.62,68.62,0,0,1,9-4.34,21.24,21.24,0,0,0,13.59-19.6h50.74a21.26,21.26,0,0,0,13.59,19.6,68.62,68.62,0,0,1,9,4.34c11.9,6.87,18.45,15.7,18.45,24.88V323.39c0,9.18-6.55,18-18.45,24.88C202.2,355.63,185.16,359.68,167,359.68Z" style="fill:#BA68C8"></path><path d="M167,359.68c-18.2,0-35.24-4.05-48-11.41-11.9-6.86-18.45-15.7-18.45-24.88V216.54c0-9.18,6.55-18,18.45-24.88a68.62,68.62,0,0,1,9-4.34,21.24,21.24,0,0,0,13.59-19.6h50.74a21.26,21.26,0,0,0,13.59,19.6,68.62,68.62,0,0,1,9,4.34c11.9,6.87,18.45,15.7,18.45,24.88V323.39c0,9.18-6.55,18-18.45,24.88C202.2,355.63,185.16,359.68,167,359.68Z" style="fill:#fff;opacity:0.4"></path><path d="M109.53,222.93c-.21,2.38-.23,4.87-.27,7.49q-.21,14.37-.23,28.74c0,19.16.19,27.17.68,46.33.13,5.11.29,10.33,2.08,15.13,4.15,11.12,16,17.4,27.4,20.6,15.05,4.23,31,4.32,46.42,1.73,16-2.69,27.86-6.88,34.2-16.45,2.77-4.19,2.48-13.81,2.53-18.83.12-11.35.12-13.56-.07-24.84-.3-17.22.4-34.43-.15-51.66-.26-8.18-1-17.11-6.58-23.06-5.39-5.71-13.84-7.09-21.66-7.78a250.28,250.28,0,0,0-45.64.14c-11.92,1.13-24-1.38-33.09,8.72C111.23,213.54,110,218,109.53,222.93Z" style="fill:#BA68C8"></path><g style="opacity:0.1"><path d="M167,359.68c18.21,0,35.25-4.05,48-11.41,11.9-6.86,18.45-15.7,18.45-24.88V319c-1.88-8-8.21-15.8-19-22-26.16-14.95-68.57-14.95-94.73,0-11,6.29-17.36,14.22-19.11,22.41v3.95c0,9.18,6.55,18,18.45,24.88C131.71,355.63,148.75,359.68,167,359.68Z"></path></g><path d="M197,161.46v3.92a17.71,17.71,0,0,0,11.35,16.42,74.84,74.84,0,0,1,9.76,4.69c13.47,7.78,20.89,18.07,20.89,29V324.77c0,10.9-7.42,21.18-20.89,29-13.64,7.88-31.79,12.21-51.12,12.21s-37.47-4.33-51.11-12.21c-13.48-7.78-20.9-18.07-20.9-29V215.46c0-10.9,7.42-21.19,20.9-29a74.08,74.08,0,0,1,9.75-4.69A17.72,17.72,0,0,0,137,165.38v-3.92h60m.94-1H136v4.87a16.81,16.81,0,0,1-10.76,15.54,75.7,75.7,0,0,0-9.88,4.75C101.12,193.9,94,204.68,94,215.46v109.3c0,10.78,7.13,21.57,21.37,29.79s32.92,12.34,51.59,12.34,37.34-4.11,51.59-12.34,21.37-19,21.37-29.78V215.45c0-10.78-7.13-21.56-21.37-29.78a74.48,74.48,0,0,0-9.88-4.75,16.81,16.81,0,0,1-10.76-15.54v-4.87Z" style="fill:#e0e0e0"></path><path d="M218.54,185.67a74.48,74.48,0,0,0-9.88-4.75,16.81,16.81,0,0,1-10.76-15.54v-4.87h-6.76V171.8c0,5.85,3.33,13.12,9.15,16.3s22.54,10.41,26.86,19.29,2.59,24.84,2.59,61.05v50c0,12.82-1.36,31.36-25.16,42.5a81.29,81.29,0,0,0,14-6.25c14.25-8.22,21.36-18.57,21.36-29.91V215.45C239.91,204.67,232.79,193.89,218.54,185.67Z" style="fill:#fff;opacity:0.4"></path></g><path d="M228.91,175.64a21.23,21.23,0,0,0,.26-3.28c0-9.19-6.07-18.39-18.22-25.4-24.3-14-63.7-14-88,0-12.15,7-18.22,16.21-18.22,25.4a21.23,21.23,0,0,0,.26,3.28,20.88,20.88,0,0,0,0,6.57,21.23,21.23,0,0,0-.26,3.28c0,9.19,6.07,18.39,18.22,25.4,24.3,14,63.7,14,88,0,12.15-7,18.22-16.21,18.22-25.4a21.23,21.23,0,0,0-.26-3.28,20.88,20.88,0,0,0,0-6.57Z" style="fill:#f0f0f0"></path><path d="M167,137.38c16.46,0,31.91,3.7,43.52,10.4,11.45,6.61,17.76,15.34,17.76,24.58a20,20,0,0,1-.26,3.14l0,.14,0,.15a19,19,0,0,1,0,6.27l0,.15,0,.14a20,20,0,0,1,.26,3.14c0,9.24-6.31,18-17.75,24.58-11.61,6.7-27.07,10.39-43.53,10.39s-31.91-3.69-43.52-10.39c-11.45-6.61-17.75-15.34-17.75-24.58a20,20,0,0,1,.25-3.14l0-.14,0-.15a19.78,19.78,0,0,1,0-6.27l0-.15,0-.15a19.79,19.79,0,0,1-.25-3.13c0-9.24,6.3-18,17.75-24.58,11.61-6.7,27.06-10.4,43.52-10.4m0-.94c-15.92,0-31.85,3.5-44,10.52s-18.22,16.21-18.22,25.4a21.23,21.23,0,0,0,.26,3.28,20.88,20.88,0,0,0,0,6.57,21.23,21.23,0,0,0-.26,3.28c0,9.19,6.07,18.39,18.22,25.4s28.08,10.52,44,10.52,31.85-3.51,44-10.52,18.22-16.21,18.22-25.4a21.23,21.23,0,0,0-.26-3.28,20.88,20.88,0,0,0,0-6.57,21.23,21.23,0,0,0,.26-3.28c0-9.19-6.07-18.39-18.22-25.4s-28.08-10.52-44-10.52Z" style="fill:#e0e0e0"></path><path d="M123,147c-12.15,7-18.22,16.21-18.22,25.4s6.07,18.39,18.22,25.4c24.3,14,63.7,14,88,0,12.15-7,18.22-16.21,18.22-25.4S223.1,154,211,147C186.65,132.93,147.25,132.93,123,147Z" style="fill:#fafafa"></path><path d="M167,137.38c16.46,0,31.91,3.7,43.52,10.4,11.45,6.61,17.76,15.34,17.76,24.58s-6.31,18-17.75,24.58c-11.61,6.71-27.07,10.4-43.53,10.4s-31.91-3.69-43.52-10.4c-11.45-6.61-17.75-15.34-17.75-24.58s6.3-18,17.75-24.58c11.61-6.7,27.06-10.4,43.52-10.4m0-.94c-15.92,0-31.85,3.5-44,10.52s-18.22,16.21-18.22,25.4,6.07,18.39,18.22,25.4,28.08,10.52,44,10.52,31.85-3.5,44-10.52,18.22-16.21,18.22-25.4S223.1,154,211,147s-28.08-10.52-44-10.52Z" style="fill:#e0e0e0"></path><path d="M129.09,192.89c-20.91-11.35-20.91-29.73,0-41.07s54.8-11.34,75.71,0,20.91,29.72,0,41.07S150,204.23,129.09,192.89Z" style="fill:#BA68C8"></path><g style="opacity:0.6000000000000001"><path d="M129.09,192.89c-20.91-11.35-20.91-29.73,0-41.07s54.8-11.34,75.71,0,20.91,29.72,0,41.07S150,204.23,129.09,192.89Z" style="fill:#fff"></path></g><path d="M123.9,199.4c24,13,56.92,13.52,81.72,2.28a110.61,110.61,0,0,0,13.41-8,1.56,1.56,0,0,1,1.9,2.45c-25,21.52-70.79,22.38-98.92,6.55a1.89,1.89,0,0,1,1.89-3.28Z" style="fill:#BA68C8"></path><path d="M212.42,208.24c-28.19,16.43-73.6,16.11-98.95-5.66a1.56,1.56,0,0,1,1.93-2.43,106.46,106.46,0,0,0,10.65,6.57c18.67,9.42,40.78,11.42,61.12,7A83.55,83.55,0,0,0,210.55,205a1.89,1.89,0,0,1,1.87,3.29Z" style="fill:#BA68C8"></path><path d="M123.9,199.4c24,13,56.92,13.52,81.72,2.28a110.61,110.61,0,0,0,13.41-8,1.56,1.56,0,0,1,1.9,2.45c-25,21.52-70.79,22.38-98.92,6.55a1.89,1.89,0,0,1,1.89-3.28Z" style="fill:#fff;opacity:0.30000000000000004"></path><path d="M212.42,208.24c-28.19,16.43-73.6,16.11-98.95-5.66a1.56,1.56,0,0,1,1.93-2.43,106.46,106.46,0,0,0,10.65,6.57c18.67,9.42,40.78,11.42,61.12,7A83.55,83.55,0,0,0,210.55,205a1.89,1.89,0,0,1,1.87,3.29Z" style="fill:#fff;opacity:0.30000000000000004"></path><path d="M228.91,182.21c-.6,4.21-2.3,12-12,18.83-3.48,2,1.52-2,4.09-5.11,3-3.55,6.43-8.66,7.18-15.35Z" style="fill:#e0e0e0"></path><path d="M105.05,182.21c.6,4.21,2.3,12,12,18.83,3.48,2-1.53-2-4.09-5.11-3-3.55-6.44-8.66-7.18-15.35Z" style="fill:#e0e0e0"></path><path d="M115.2,179.78c2.33,4.8,7,9.34,13.89,13.11,20.9,11.34,54.8,11.34,75.71,0,6.94-3.77,11.56-8.31,13.89-13.11-.41-7.11-5.45-14.15-15.13-19.58-20.22-11.34-53-11.34-73.24,0C120.64,165.63,115.61,172.67,115.2,179.78Z" style="fill:#BA68C8"></path><path d="M203.56,160.2c-20.22-11.34-53-11.34-73.24,0-9.68,5.43-14.71,12.47-15.12,19.58,2.33,4.8,7,9.34,13.89,13.11q.91.5,1.86,1c-9.81-6.44-16.75-19.29-2.2-29.83,16.43-11.91,43.67-13.78,65-3.89,23.29,10.79,17.43,39.38-34,40.91l.08.09c15.95,1.15,32.67-1.6,44.93-8.24,6.94-3.77,11.56-8.31,13.89-13.11C218.28,172.67,213.24,165.63,203.56,160.2Z" style="opacity:0.2"></path><path d="M127.92,170.17a9.47,9.47,0,0,0-1.66,5.43c.1,4,3.35,6.07,7,4.56,2.18-.9,3.89-2.63,5.66-4.19a51.13,51.13,0,0,1,6.92-5.15,13.28,13.28,0,0,0,3.23-2.41,3.85,3.85,0,0,0,.92-3.74c-.53-1.42-2.09-2.16-3.56-2.5-6.35-1.47-14.42,2.42-18.2,7.58Z" style="fill:#fff;opacity:0.6000000000000001"></path><path d="M152,159.06a2.27,2.27,0,0,0-.75,2.29,3.3,3.3,0,0,0,1.8,2.19A5.64,5.64,0,0,0,156,164c2.36-.14,4.87-1.31,3.55-4C158.43,157.85,153.89,157.44,152,159.06Z" style="fill:#fff;opacity:0.6000000000000001"></path><path d="M188.3,207.37h0a98.78,98.78,0,0,1-53.7-3.21h0c-5.56-.84-3.26,3.39,6.72,6.12a104.58,104.58,0,0,0,46,1.28C193,210.17,197.52,206.29,188.3,207.37Zm23.51-9.06-.08,0c-2,1.2-4,2.32-6.11,3.33l-.86.37-.1.06c-4.45,3.29,4,1.56,7.5-1.51S211.81,198.31,211.81,198.31Z" style="fill:#fff;opacity:0.30000000000000004"></path><path d="M187.17,213.68a95,95,0,0,1-49.76-2.27h0c-4.17-1.51-3.79,2,3.34,4.39s24.39,4.54,39.48,2.16S187.17,213.68,187.17,213.68Zm18.43-6.17h0a80.63,80.63,0,0,1-7.7,3.14l-.76.4c-3.14,1.61,1,2.58,5.73.53S208.92,206.78,205.6,207.51Z" style="fill:#fff;opacity:0.30000000000000004"></path><path d="M129.09,192.89c-10.41-5.28-20.15-16.17-14.07-28.28,5.62-10.64,17.64-15.82,28.71-18.84,18.88-4.76,39.54-3.9,57.51,3.85,10.23,4.48,22,14,19,26.51-2,7.77-8.69,13.12-15.45,16.76a40.67,40.67,0,0,0,9.31-6.95c9.6-9.74,7.26-21.84-3.25-29.73-12.46-9.32-28.63-12.25-43.92-12.43-15.28.17-31.45,3.11-43.92,12.43-15.89,12.35-9.87,28.14,6.07,36.68Z" style="fill:#BA68C8"></path><path d="M111.29,212.89c-1.55-.66-3.06-.89-4,.16-2.71,3,2.57,7.74,4.54,9.45,6.31,5.5,14.3,8.5,22.44,10a110.06,110.06,0,0,0,12.1,2c2,.16,13.25-.34,7.39-4.6a8.84,8.84,0,0,0-3.13-1.21,163.4,163.4,0,0,1-23.21-7.77q-5.66-2.37-11.11-5.16A57.63,57.63,0,0,0,111.29,212.89Z" style="fill:#fff;opacity:0.6000000000000001"></path><path d="M164.62,229.6c-2.83-.19-6.1,1-4.83,3.38a2.34,2.34,0,0,0,1.32,1,8.64,8.64,0,0,0,3,.5,5.12,5.12,0,0,0,3-.66,2.25,2.25,0,0,0,.93-2.7C167.6,230.21,166.18,229.71,164.62,229.6Z" style="fill:#fff;opacity:0.6000000000000001"></path><path d="M108,329.18a16,16,0,0,0,3.4,4.46c1.93,1.76,6.23,5.32,9,3.51,2-1.32-1.37-5.41-2.11-6.86q-2-4-3.75-8.06c-1-2.29-1.89-4.61-2.68-7-.5-1.52-.93-4-3.07-4-2.77.05-2.68,4.26-2.83,6.16a23.44,23.44,0,0,0,.82,8.74A17.27,17.27,0,0,0,108,329.18Z" style="fill:#fff;opacity:0.6000000000000001"></path><path d="M215.34,255.5c-.23,3,1.07,5.81,4.47,5.34,6.2-.86,7.45-13,.28-11.95C217.34,249.3,215.58,252.5,215.34,255.5Z" style="fill:#fff;opacity:0.6000000000000001"></path><path d="M210.68,340.48c6.27-3,9.47-4.76,13.2-12.15,1.56-3.1,2.05-7.7,2.06-11.18.09-18.49.27-30.64,0-46-.08-4.65-3.77-5.55-6.59-2.92-1.66,1.55-1.83,4.06-1.84,6.32-.06,9.67,0,17.8.14,27.46.15,12.55.74,23.16-8,30a52.44,52.44,0,0,1-6.6,4.33c-1.14.66-2.3,1.3-3.46,1.91-.89.47-2.26.88-2,2.2a2.71,2.71,0,0,0,2.37,1.71A22.28,22.28,0,0,0,210.68,340.48Z" style="fill:#fff;opacity:0.6000000000000001"></path><path d="M246.47,207.42c-2.08-5.6-15.17-17.3-15.17-17.3,1.68-4.19,2-10,1.07-19.31,0-.46-.09-.93-.15-1.39,0-.14,0-.27-.05-.4h0c-1.32-8.52-7.61-16.83-18.9-23.35-25.56-14.75-67-14.75-92.55,0-11.36,6.56-17.65,14.94-18.91,23.51h0c-2.23,12.3.24,20.94.24,20.94s-20.49,15.57-14.93,25.61c3,5.49,13.76,2.67,13.76,2.67,9.44,3,9.65,9.82,13.53,16.16A14.48,14.48,0,0,0,130,241.51a27.52,27.52,0,0,0,11.78-6.76s8.59,5.84,16.31,7.14,13.31-8.6,23.61-8.41,5.59,4.11,15.94,6,14.93-11.64,21-13.72c0,0,9.05,9.54,13.74,8,11-3.52,9.28-16.38,9.28-16.38S248.55,213,246.47,207.42Z" style="fill:#f0f0f0"></path><path d="M232.37,170.81c0-.46-.09-.93-.15-1.39,0-.14,0-.27-.05-.4h0c-1.32-8.52-7.61-16.83-18.9-23.35-25.56-14.75-67-14.75-92.55,0-11.36,6.56-17.65,14.94-18.91,23.51h0c-2.23,12.3.24,20.94.24,20.94,5.18,16.73,25.41,31.63,64.47,31.63s59.58-15.19,64.79-31.63q.3-.93.66-2C233.06,184.13,233.2,178.76,232.37,170.81Z" style="fill:#ebebeb"></path><path d="M120.68,145.65c-12.78,7.37-19.17,17-19.17,26.71s6.39,19.34,19.17,26.71c25.56,14.76,67,14.76,92.54,0,12.78-7.37,19.17-17,19.17-26.71S226,153,213.22,145.65C187.67,130.89,146.23,130.89,120.68,145.65Z" style="fill:#fafafa"></path><path d="M134.89,197c-33-24.16-11.22-50.34,18.41-57.13a102.61,102.61,0,0,1,51.79,1.76c-25.58-10.61-61.42-9.29-84.41,4-12.78,7.37-19.17,17-19.17,26.71s6.39,19.34,19.17,26.71c16.53,9.55,39.7,12.91,60.92,10.11-3.5-.47-7-.73-10.56-1.09C155.43,206.52,144.72,204.24,134.89,197Z" style="fill:#f5f5f5"></path><path d="M159.52,242.5a9.42,9.42,0,0,1-1.48-.12c-7-1.17-14.47-5.88-16.17-7a27.65,27.65,0,0,1-11.72,6.6A14.92,14.92,0,0,1,114,234.82a45.39,45.39,0,0,1-2.56-5.06c-2.1-4.64-3.92-8.66-10.57-10.84-1.37.34-11.15,2.53-14.17-2.95-5.42-9.78,12.29-24.09,14.8-26a52.44,52.44,0,0,1-.17-20.84l.06-.32c1.44-8.89,8.21-17.24,19.11-23.53,25.65-14.81,67.39-14.81,93,0,10.79,6.23,17.54,14.48,19.07,23.28h0l.1.84c.06.47.12.94.16,1.41.94,9.1.66,14.89-1,19.21,1.9,1.72,13.08,12,15,17.26s-3.42,9.55-4.7,10.45c.18,2,.67,13.32-9.64,16.61-4.57,1.47-12.54-6.41-14-7.93-2,.84-4,3.1-6.07,5.49-3.82,4.41-8.14,9.4-14.91,8.14-5.05-.94-6.62-2.34-8-3.59s-2.61-2.33-7.84-2.43h-.29c-5,0-8.76,2.38-12.43,4.68C165.87,240.63,162.88,242.5,159.52,242.5Zm-17.78-8.39.35.23c.09.06,8.59,5.8,16.12,7,3.59.61,6.69-1.33,10.27-3.58s7.86-4.89,13.26-4.82c5.61.1,6.95,1.3,8.49,2.68,1.3,1.16,2.76,2.47,7.53,3.35,6.2,1.16,10.33-3.61,14-7.81,2.25-2.61,4.38-5.07,6.79-5.89l.3-.11.22.24c2.46,2.59,9.62,9.06,13.23,7.9,10.49-3.34,9-15.33,8.94-15.83l-.05-.32.27-.17c.06,0,6.48-4.28,4.56-9.44-2-5.42-14.9-17-15-17.1l-.26-.23.13-.32c1.68-4.2,2-9.91,1-19.08,0-.47-.09-.92-.15-1.37l-.05-.4c-1.33-8.65-7.95-16.81-18.65-23-25.38-14.65-66.67-14.65-92.05,0-10.76,6.22-17.39,14.44-18.67,23.15l-.08.43c-2.06,11.83.28,20.22.3,20.31l.09.32-.27.21c-.2.15-20.08,15.42-14.79,25,2.81,5.09,13.09,2.46,13.19,2.43l.14,0,.14.05c7.18,2.3,9.19,6.73,11.31,11.42a44.08,44.08,0,0,0,2.5,4.94A13.93,13.93,0,0,0,129.91,241a27.29,27.29,0,0,0,11.54-6.62Z" style="fill:#e0e0e0"></path><path d="M241.27,217.7c-1.36-7.85,2-13.83,4.68-11.4S245.47,215.28,241.27,217.7Z" style="fill:#e0e0e0"></path><path d="M218.47,225.4s3.95-2.39,6.76,0c2.62,2.27,2.5,7.48,7.2,8.38C228.89,233.83,227.35,234,218.47,225.4Z" style="fill:#e0e0e0"></path><path d="M226.23,228a.51.51,0,0,1-.46-.31c-1-2.34-6.67-8.08-11.88-11.42a.5.5,0,1,1,.54-.84c5,3.22,11.09,9.1,12.26,11.87a.5.5,0,0,1-.26.66A.71.71,0,0,1,226.23,228Z" style="fill:#e0e0e0"></path><path d="M142.33,234.5c-3.38-3.21-6.83-7.61-9.37-6.45s3.55,11.65-4.06,13.68C132.37,241.53,136.58,239.44,142.33,234.5Z" style="fill:#e0e0e0"></path><path d="M133.18,228.93a.5.5,0,0,1-.27-.08.49.49,0,0,1-.16-.69,25,25,0,0,1,6.93-7.19.5.5,0,0,1,.69.15.51.51,0,0,1-.16.69,24.69,24.69,0,0,0-6.61,6.89A.51.51,0,0,1,133.18,228.93Z" style="fill:#e0e0e0"></path><path d="M102.21,218.4c-9.57-4.52-15-4.2-14.08-1.35S99.11,219.44,102.21,218.4Z" style="fill:#e0e0e0"></path><path d="M101.51,172.36c1.59,19.24,23.83,29.13,40.32,33,19.7,4.36,40.79,3.72,59.95-2.81,7.86-2.83,15.6-6.68,21.66-12.52,4.91-4.63,8.51-10.8,8.95-17.67a23.06,23.06,0,0,1-1.82,10.2c-4.2,9.83-13.42,16.52-22.8,21-25,11.72-59.39,11.5-84-1.19-11.31-5.78-22.93-16.28-22.27-30Z" style="fill:#f5f5f5"></path><path d="M166.5,221.38c-36,0-61.43-12.22-68-32.68a1.5,1.5,0,0,1,2.86-.91c6.11,19.15,30.45,30.59,65.1,30.59,40.87,0,60.61-15.81,65.45-30.6a1.5,1.5,0,1,1,2.85.94C229.63,204.5,209,221.38,166.5,221.38Z" style="fill:#BA68C8"></path><g style="opacity:0.45"><path d="M166.5,221.38c-36,0-61.43-12.22-68-32.68a1.5,1.5,0,0,1,2.86-.91c6.11,19.15,30.45,30.59,65.1,30.59,40.87,0,60.61-15.81,65.45-30.6a1.5,1.5,0,1,1,2.85.94C229.63,204.5,209,221.38,166.5,221.38Z"></path></g><path d="M126.15,214l-2-.17c-23.32-1.92-33.47-16-34.38-24.48-.49-4.47,1.41-7.92,5-9,2-.63,4.57-.1,7.48,1.59,9.5,5.47,21.7,22.11,23.53,30.07ZM96.46,183.07a2.84,2.84,0,0,0-.9.13c-3,.93-3,4.38-2.85,5.82.84,7.75,10.51,19.24,29.41,21.58-3-7.9-13.5-21.5-21.45-26.09A9.08,9.08,0,0,0,96.46,183.07Z" style="fill:#BA68C8"></path><path d="M152.66,225.63c-10.17,0-22-3.53-29.57-12.33l-1.49-1.73,2.18-.68c11.3-3.49,37.1-6.3,45.56,3.05a4.72,4.72,0,0,1,1.29,4.85c-.93,2.78-4.69,5-10.34,6.13A40,40,0,0,1,152.66,225.63ZM127,213.1c8.93,8.75,22.93,10.8,32.7,8.87,4.95-1,7.62-2.77,8.07-4.12.07-.21.28-.86-.66-1.9C160.36,208.49,139,210,127,213.1Z" style="fill:#BA68C8"></path><path d="M119.45,271.68a1.5,1.5,0,0,1-1.5-1.5c0-5-.08-9.83-.16-14.49-.23-13.68-.42-25.33,1.48-34.29-4.2,9.74-4.8,24.92-4.8,36.78a1.5,1.5,0,0,1-3,0c0-16.66,1.23-39.67,11.9-47.09a1.51,1.51,0,0,1,1.89.15,1.49,1.49,0,0,1,.25,1.87c-5.29,8.6-5,23.57-4.72,42.53.08,4.68.16,9.51.16,14.54A1.5,1.5,0,0,1,119.45,271.68Z" style="fill:#BA68C8"></path><path d="M169.34,213.94c-8.12-9-32.17-6.75-44.09-3.47-2.85-8.4-14.16-23.41-23.09-28.55-2.91-1.69-5.43-2.22-7.48-1.59-3.54,1.09-5.44,4.54-5,9,.87,8,10.08,21.17,31,24.1-8.24,9.13-9.27,29.56-9.27,44.74a1.5,1.5,0,0,0,3,0c0-11.86.6-27,4.8-36.78-1.9,9-1.71,20.61-1.48,34.29.08,4.66.16,9.49.16,14.49a1.5,1.5,0,0,0,3,0c0-5-.08-9.86-.16-14.54-.29-17.72-.53-32,3.75-40.76,7.57,7.65,18.58,10.75,28.12,10.75a40,40,0,0,0,7.63-.71c5.65-1.12,9.41-3.35,10.34-6.13A4.72,4.72,0,0,0,169.34,213.94ZM92.71,189c-.16-1.44-.19-4.89,2.85-5.82a2.84,2.84,0,0,1,.9-.13,9.08,9.08,0,0,1,4.21,1.44c8,4.59,18.42,18.19,21.45,26.09C103.22,208.26,93.55,196.77,92.71,189Zm75.07,28.83c-.45,1.35-3.12,3.15-8.07,4.12-9.77,1.93-23.77-.12-32.7-8.87,12-3.1,33.35-4.61,40.11,2.85C168.06,217,167.85,217.64,167.78,217.85Z" style="fill:#BA68C8"></path><g style="opacity:0.30000000000000004"><path d="M169.34,213.94c-8.12-9-32.17-6.75-44.09-3.47-2.85-8.4-14.16-23.41-23.09-28.55-2.91-1.69-5.43-2.22-7.48-1.59-3.54,1.09-5.44,4.54-5,9,.87,8,10.08,21.17,31,24.1-8.24,9.13-9.27,29.56-9.27,44.74a1.5,1.5,0,0,0,3,0c0-11.86.6-27,4.8-36.78-1.9,9-1.71,20.61-1.48,34.29.08,4.66.16,9.49.16,14.49a1.5,1.5,0,0,0,3,0c0-5-.08-9.86-.16-14.54-.29-17.72-.53-32,3.75-40.76,7.57,7.65,18.58,10.75,28.12,10.75a40,40,0,0,0,7.63-.71c5.65-1.12,9.41-3.35,10.34-6.13A4.72,4.72,0,0,0,169.34,213.94ZM92.71,189c-.16-1.44-.19-4.89,2.85-5.82a2.84,2.84,0,0,1,.9-.13,9.08,9.08,0,0,1,4.21,1.44c8,4.59,18.42,18.19,21.45,26.09C103.22,208.26,93.55,196.77,92.71,189Zm75.07,28.83c-.45,1.35-3.12,3.15-8.07,4.12-9.77,1.93-23.77-.12-32.7-8.87,12-3.1,33.35-4.61,40.11,2.85C168.06,217,167.85,217.64,167.78,217.85Z"></path></g></g></g><g id="freepik--jar-1--inject-182"><g id="freepik--jar--inject-182"><g id="freepik--medicine-bottle--inject-182"><path d="M343.2,260.2a77.7,77.7,0,0,0-9.88-4.75,16.8,16.8,0,0,1-10.76-15.53v-4.87h-61.9v4.87a16.8,16.8,0,0,1-10.76,15.53A78.36,78.36,0,0,0,240,260.2c-14.24,8.23-21.37,19-21.37,29.79V399.3c0,10.78,7.13,21.56,21.37,29.79,28.49,16.44,74.69,16.44,103.18,0,14.24-8.23,21.37-19,21.37-29.79V290C364.57,279.21,357.44,268.43,343.2,260.2Z" style="fill:#fafafa"></path><ellipse cx="291.66" cy="399.74" rx="72.91" ry="41.68" style="fill:#BA68C8;opacity:0.2"></ellipse><ellipse cx="291.66" cy="399.74" rx="72.91" ry="41.68" style="fill:#f0f0f0"></ellipse><path d="M291.61,434.21c-18.2,0-35.24-4-48-11.4-11.9-6.87-18.45-15.71-18.45-24.89V291.08c0-9.18,6.55-18,18.45-24.89a71.24,71.24,0,0,1,9-4.34,21.24,21.24,0,0,0,13.59-19.59H317a21.25,21.25,0,0,0,13.59,19.59,71.91,71.91,0,0,1,9,4.34c11.9,6.87,18.45,15.71,18.45,24.88V397.93c0,9.17-6.55,18-18.45,24.88C326.86,430.16,309.82,434.21,291.61,434.21Z" style="fill:#BA68C8"></path><path d="M291.61,434.21c-18.2,0-35.24-4-48-11.4-11.9-6.87-18.45-15.71-18.45-24.89V291.08c0-9.18,6.55-18,18.45-24.89a71.24,71.24,0,0,1,9-4.34,21.24,21.24,0,0,0,13.59-19.59H317a21.25,21.25,0,0,0,13.59,19.59,71.91,71.91,0,0,1,9,4.34c11.9,6.87,18.45,15.71,18.45,24.88V397.93c0,9.17-6.55,18-18.45,24.88C326.86,430.16,309.82,434.21,291.61,434.21Z" style="fill:#fff;opacity:0.4"></path><path d="M234.19,297.47c-.21,2.38-.23,4.86-.27,7.48q-.21,14.37-.23,28.75c0,19.16.19,27.16.68,46.32.13,5.11.29,10.34,2.08,15.13,4.15,11.12,16,17.4,27.4,20.61,15,4.22,31,4.31,46.42,1.73,16-2.69,27.86-6.89,34.2-16.46,2.77-4.19,2.48-13.81,2.53-18.83.12-11.35.12-13.56-.07-24.84-.3-17.22.4-34.43-.15-51.66-.26-8.17-1-17.1-6.58-23.05-5.39-5.71-13.84-7.09-21.66-7.79a250.28,250.28,0,0,0-45.64.14c-11.92,1.13-24-1.38-33.09,8.72C235.89,288.07,234.63,292.55,234.19,297.47Z" style="fill:#BA68C8"></path><g style="opacity:0.1"><path d="M291.61,434.21c18.21,0,35.25-4,48-11.4,11.9-6.87,18.45-15.71,18.45-24.88v-4.39c-1.88-8-8.21-15.8-19-22-26.16-15-68.57-15-94.73,0-11,6.28-17.36,14.21-19.11,22.41v3.94c0,9.18,6.55,18,18.45,24.89C256.37,430.16,273.41,434.21,291.61,434.21Z"></path></g><path d="M321.62,236v3.93A17.7,17.7,0,0,0,333,256.33a74.84,74.84,0,0,1,9.76,4.69c13.47,7.78,20.89,18.07,20.89,29V399.3c0,10.9-7.42,21.19-20.89,29-13.64,7.87-31.8,12.21-51.12,12.21s-37.48-4.34-51.11-12.21c-13.48-7.79-20.9-18.07-20.9-29V290c0-10.9,7.42-21.19,20.9-29a75.37,75.37,0,0,1,9.75-4.69,17.7,17.7,0,0,0,11.35-16.41V236h60m.94-.94h-61.9v4.87a16.8,16.8,0,0,1-10.76,15.53A78.36,78.36,0,0,0,240,260.2c-14.24,8.23-21.37,19-21.37,29.79V399.3c0,10.78,7.13,21.56,21.37,29.79s32.92,12.33,51.59,12.33,37.34-4.11,51.59-12.33,21.37-19,21.37-29.79V290c0-10.78-7.13-21.56-21.37-29.79a77.7,77.7,0,0,0-9.88-4.75,16.8,16.8,0,0,1-10.76-15.53v-4.87Z" style="fill:#e0e0e0"></path><path d="M343.2,260.2a77.7,77.7,0,0,0-9.88-4.75,16.8,16.8,0,0,1-10.76-15.53v-4.87H315.8v11.29c0,5.84,3.33,13.12,9.15,16.3s22.54,10.4,26.86,19.28,2.59,24.85,2.59,61.06v50c0,12.82-1.36,31.37-25.16,42.51a82.86,82.86,0,0,0,14-6.25c14.25-8.23,21.36-18.58,21.36-29.92V290C364.57,279.21,357.44,268.43,343.2,260.2Z" style="fill:#fff;opacity:0.4"></path></g><path d="M353.57,250.18a21.36,21.36,0,0,0,.26-3.29c0-9.19-6.07-18.38-18.22-25.4-24.3-14-63.7-14-88,0-12.15,7-18.22,16.21-18.22,25.4a21.45,21.45,0,0,0,.26,3.29,20.82,20.82,0,0,0,0,6.56,21.33,21.33,0,0,0-.26,3.28c0,9.2,6.07,18.39,18.22,25.4,24.3,14,63.7,14,88,0,12.15-7,18.22-16.2,18.22-25.4a21.33,21.33,0,0,0-.26-3.28,20.82,20.82,0,0,0,0-6.56Z" style="fill:#f0f0f0"></path><path d="M291.61,211.92c16.46,0,31.91,3.69,43.52,10.39,11.45,6.61,17.76,15.34,17.76,24.58a20,20,0,0,1-.26,3.14l0,.15,0,.14a20,20,0,0,1,.26,3.14,19.82,19.82,0,0,1-.26,3.13l0,.15,0,.15a19.92,19.92,0,0,1,.26,3.13c0,9.24-6.31,18-17.75,24.58-11.61,6.71-27.07,10.4-43.53,10.4s-31.91-3.69-43.52-10.4C236.64,278,230.34,269.26,230.34,260a19.89,19.89,0,0,1,.25-3.13l0-.15,0-.15a19.78,19.78,0,0,1,0-6.27l0-.14,0-.15a20,20,0,0,1-.25-3.14c0-9.24,6.3-18,17.75-24.58,11.61-6.7,27.06-10.39,43.52-10.39m0-.95c-15.92,0-31.85,3.51-44,10.52s-18.22,16.21-18.22,25.4a21.45,21.45,0,0,0,.26,3.29,20.82,20.82,0,0,0,0,6.56,21.33,21.33,0,0,0-.26,3.28c0,9.2,6.07,18.39,18.22,25.4s28.08,10.52,44,10.52,31.85-3.5,44-10.52,18.22-16.2,18.22-25.4a21.33,21.33,0,0,0-.26-3.28,20.82,20.82,0,0,0,0-6.56,21.36,21.36,0,0,0,.26-3.29c0-9.19-6.07-18.38-18.22-25.4S307.53,211,291.61,211Z" style="fill:#e0e0e0"></path><path d="M247.61,221.49c-12.15,7-18.22,16.21-18.22,25.4s6.07,18.39,18.22,25.41c24.3,14,63.7,14,88,0,12.15-7,18.22-16.21,18.22-25.41s-6.07-18.38-18.22-25.4C311.31,207.46,271.91,207.46,247.61,221.49Z" style="fill:#fafafa"></path><path d="M291.61,211.92c16.46,0,31.91,3.69,43.52,10.39,11.45,6.61,17.76,15.34,17.76,24.58s-6.31,18-17.75,24.59c-11.61,6.7-27.07,10.39-43.53,10.39s-31.91-3.69-43.52-10.39c-11.45-6.61-17.75-15.34-17.75-24.59s6.3-18,17.75-24.58c11.61-6.7,27.06-10.39,43.52-10.39m0-.95c-15.92,0-31.85,3.51-44,10.52s-18.22,16.21-18.22,25.4,6.07,18.39,18.22,25.41,28.08,10.52,44,10.52,31.85-3.51,44-10.52,18.22-16.21,18.22-25.41-6.07-18.38-18.22-25.4S307.53,211,291.61,211Z" style="fill:#e0e0e0"></path><path d="M253.75,267.42c-20.91-11.34-20.91-29.73,0-41.07s54.8-11.34,75.71,0,20.91,29.73,0,41.07S274.65,278.76,253.75,267.42Z" style="fill:#BA68C8"></path><g style="opacity:0.6000000000000001"><path d="M253.75,267.42c-20.91-11.34-20.91-29.73,0-41.07s54.8-11.34,75.71,0,20.91,29.73,0,41.07S274.65,278.76,253.75,267.42Z" style="fill:#fff"></path></g><path d="M248.56,273.94c24,13,56.92,13.51,81.72,2.27a110.61,110.61,0,0,0,13.41-8,1.56,1.56,0,0,1,1.9,2.45c-25,21.52-70.79,22.39-98.92,6.56a1.89,1.89,0,0,1,1.89-3.28Z" style="fill:#BA68C8"></path><path d="M337.08,282.77c-28.19,16.43-73.6,16.11-98.95-5.66a1.55,1.55,0,0,1,1.93-2.42,106.37,106.37,0,0,0,10.65,6.56c18.67,9.43,40.78,11.43,61.12,7a83.55,83.55,0,0,0,23.38-8.73,1.89,1.89,0,0,1,1.87,3.29Z" style="fill:#BA68C8"></path><path d="M248.56,273.94c24,13,56.92,13.51,81.72,2.27a110.61,110.61,0,0,0,13.41-8,1.56,1.56,0,0,1,1.9,2.45c-25,21.52-70.79,22.39-98.92,6.56a1.89,1.89,0,0,1,1.89-3.28Z" style="fill:#fff;opacity:0.30000000000000004"></path><path d="M337.08,282.77c-28.19,16.43-73.6,16.11-98.95-5.66a1.55,1.55,0,0,1,1.93-2.42,106.37,106.37,0,0,0,10.65,6.56c18.67,9.43,40.78,11.43,61.12,7a83.55,83.55,0,0,0,23.38-8.73,1.89,1.89,0,0,1,1.87,3.29Z" style="fill:#fff;opacity:0.30000000000000004"></path><path d="M353.57,256.74c-.6,4.22-2.3,12-12,18.84-3.49,2,1.52-2.05,4.09-5.12,3-3.55,6.43-8.65,7.18-15.35Z" style="fill:#e0e0e0"></path><path d="M229.71,256.74c.6,4.22,2.3,12,12,18.84,3.49,2-1.52-2.05-4.08-5.12-3-3.55-6.44-8.65-7.18-15.35Z" style="fill:#e0e0e0"></path><path d="M239.86,254.32c2.33,4.8,6.95,9.34,13.89,13.1,20.9,11.34,54.8,11.34,75.71,0,6.94-3.76,11.56-8.3,13.89-13.1-.41-7.12-5.45-14.16-15.13-19.59-20.22-11.34-53-11.34-73.24,0C245.3,240.16,240.27,247.2,239.86,254.32Z" style="fill:#BA68C8"></path><path d="M328.22,234.73c-20.22-11.34-53-11.34-73.24,0-9.68,5.43-14.71,12.47-15.12,19.59,2.33,4.8,6.95,9.34,13.89,13.1q.92.49,1.86,1c-9.81-6.43-16.75-19.28-2.2-29.83,16.43-11.91,43.67-13.77,65-3.89,23.29,10.8,17.43,39.39-34,40.92l.08.09c16,1.14,32.67-1.6,44.93-8.25,6.94-3.76,11.56-8.3,13.89-13.1C342.94,247.2,337.9,240.16,328.22,234.73Z" style="opacity:0.2"></path><path d="M252.58,244.71a9.45,9.45,0,0,0-1.66,5.43c.1,4,3.35,6.07,7,4.56,2.18-.91,3.89-2.64,5.66-4.2a51.13,51.13,0,0,1,6.92-5.15,13.28,13.28,0,0,0,3.23-2.41,3.85,3.85,0,0,0,.92-3.74c-.53-1.42-2.09-2.16-3.57-2.5-6.34-1.47-14.41,2.42-18.19,7.59Z" style="fill:#fff;opacity:0.6000000000000001"></path><path d="M276.69,233.59a2.27,2.27,0,0,0-.75,2.29,3.34,3.34,0,0,0,1.8,2.2,5.86,5.86,0,0,0,2.87.49c2.36-.15,4.87-1.32,3.55-4C283.09,232.38,278.55,232,276.69,233.59Z" style="fill:#fff;opacity:0.6000000000000001"></path><path d="M313,281.91h0c-17.6,3.85-37,2.84-53.7-3.21h0c-5.56-.83-3.26,3.39,6.71,6.12a104.63,104.63,0,0,0,46,1.28C317.63,284.71,322.18,280.82,313,281.91Zm23.51-9.07-.08.05c-2,1.19-4,2.32-6.11,3.32l-.86.38-.11.05c-4.44,3.29,4.05,1.56,7.51-1.5S336.47,272.84,336.47,272.84Z" style="fill:#fff;opacity:0.30000000000000004"></path><path d="M311.83,288.21a95,95,0,0,1-49.76-2.27h0c-4.17-1.5-3.79,2,3.34,4.39s24.39,4.54,39.48,2.16S311.83,288.21,311.83,288.21ZM330.26,282l-.05,0a80.56,80.56,0,0,1-7.7,3.13l-.76.4c-3.14,1.61,1,2.59,5.73.53S333.58,281.32,330.26,282Z" style="fill:#fff;opacity:0.30000000000000004"></path><path d="M253.75,267.42c-10.41-5.27-20.15-16.17-14.07-28.28,5.62-10.64,17.64-15.81,28.71-18.84,18.88-4.75,39.54-3.89,57.51,3.85,10.23,4.48,22,14,19,26.51-2,7.77-8.69,13.13-15.45,16.76a40.67,40.67,0,0,0,9.31-6.95c9.6-9.74,7.26-21.84-3.25-29.72-12.46-9.33-28.63-12.26-43.92-12.43-15.28.17-31.45,3.1-43.92,12.43-15.89,12.34-9.87,28.13,6.07,36.67Z" style="fill:#BA68C8"></path><path d="M236,287.42c-1.55-.66-3.06-.89-4,.16-2.71,3,2.57,7.75,4.54,9.46,6.31,5.49,14.3,8.49,22.44,10a110.09,110.09,0,0,0,12.1,2c2.05.15,13.25-.35,7.39-4.61a8.84,8.84,0,0,0-3.13-1.21,163.36,163.36,0,0,1-23.21-7.76q-5.65-2.38-11.11-5.17C239.86,289.73,237.87,288.24,236,287.42Z" style="fill:#fff;opacity:0.6000000000000001"></path><path d="M289.28,304.14c-2.83-.19-6.1.95-4.83,3.38a2.38,2.38,0,0,0,1.31,1,8.51,8.51,0,0,0,3,.5,5.12,5.12,0,0,0,3-.66,2.25,2.25,0,0,0,.93-2.7C292.26,304.75,290.84,304.24,289.28,304.14Z" style="fill:#fff;opacity:0.6000000000000001"></path><path d="M232.64,403.72a16.1,16.1,0,0,0,3.4,4.46c1.93,1.75,6.23,5.31,9,3.5,2-1.31-1.37-5.41-2.11-6.85q-2-4-3.75-8.07c-1-2.29-1.89-4.61-2.68-7-.5-1.52-.94-4-3.08-4-2.76,0-2.67,4.25-2.82,6.15a23.44,23.44,0,0,0,.82,8.74A17.69,17.69,0,0,0,232.64,403.72Z" style="fill:#fff;opacity:0.6000000000000001"></path><path d="M340,330c-.24,3,1.07,5.81,4.47,5.34,6.2-.85,7.45-13,.28-11.95C342,323.83,340.24,327,340,330Z" style="fill:#fff;opacity:0.6000000000000001"></path><path d="M335.34,415c6.27-3,9.47-4.76,13.2-12.14,1.56-3.11,2-7.71,2.06-11.19.09-18.49.27-30.64,0-46-.08-4.64-3.77-5.55-6.59-2.91-1.66,1.54-1.83,4.06-1.84,6.32-.06,9.67,0,17.79.14,27.46.15,12.55.74,23.15-8,30a54.75,54.75,0,0,1-6.6,4.33c-1.14.65-2.3,1.29-3.46,1.91-.89.46-2.26.87-2,2.19a2.71,2.71,0,0,0,2.37,1.71A22.28,22.28,0,0,0,335.34,415Z" style="fill:#fff;opacity:0.6000000000000001"></path></g></g><g id="freepik--Plants--inject-182"><g id="freepik--plants--inject-182"><g id="freepik--plants--inject-182"><path d="M73.62,343.12a10.18,10.18,0,0,0-10.31-3.37c-5.17,1.11-9.64,4.59-9.71,5.22s4.7,3.65,10.87,3.1A11.89,11.89,0,0,0,73.62,343.12Z" style="fill:#455a64"></path><path d="M85.27,349.17a10.17,10.17,0,0,0-10.71,1.7c-4.09,3.35-6.48,8.49-6.25,9.08s5.85,1.1,11.08-2.21A11.86,11.86,0,0,0,85.27,349.17Z" style="fill:#455a64"></path><path d="M92.9,342.56a10.18,10.18,0,0,0-3.53-10.26c-4-3.45-8.93-5.09-9.47-4.76s-.13,6.57,3.32,10.94C87,343.25,91.37,342.44,92.9,342.56Z" style="fill:#455a64"></path><path d="M131.62,365.47c-2.93-3.75-7-6.52-11-9a80.71,80.71,0,0,0-11.81-6.06,103.9,103.9,0,0,0-26.66-7.09c-5.81-.73-12-1.27-17.8-.09-.12,0-.13.34,0,.33a83.21,83.21,0,0,1,16.1,1.25,99,99,0,0,1,14.15,2.91,100.08,100.08,0,0,1,22.54,9.67c4.72,2.71,8.89,6.13,13.25,9.36C131.29,367.42,132.36,366.42,131.62,365.47Z" style="fill:#37474f"></path><path d="M95.54,345.94a32,32,0,0,0-3.74-6.13,18.34,18.34,0,0,0-5-4.74c-.27-.16-.09.29,0,.44a52,52,0,0,1,3.83,4.8,23,23,0,0,1,2.93,5.81,1.47,1.47,0,0,0,1.36.95A.77.77,0,0,0,95.54,345.94Z" style="fill:#37474f"></path><path d="M94.64,345.91c-3.36.08-6,1-9.67,2.49a31.43,31.43,0,0,0-4.1,2.06,18.07,18.07,0,0,0-4.21,3.41c0,.06-.19.49-.08.41a49.31,49.31,0,0,1,4.54-2.78,27.57,27.57,0,0,1,4.42-2,43.27,43.27,0,0,1,9.36-2.31C95.57,347.13,95.23,345.89,94.64,345.91Z" style="fill:#37474f"></path><path d="M104.11,354.6A10.14,10.14,0,0,0,93.28,354c-4.7,2.42-8.11,7-8,7.57s5.48,2.3,11.3.16A11.89,11.89,0,0,0,104.11,354.6Z" style="fill:#455a64"></path><path d="M114,353.36c-3.31-.61-6.11-.26-10,.43A29.58,29.58,0,0,0,99.53,355a18.26,18.26,0,0,0-4.84,2.45c0,.05-.28.44-.15.38a48.21,48.21,0,0,1,5-1.76,27.16,27.16,0,0,1,4.74-1,43.49,43.49,0,0,1,9.64-.31C114.6,354.75,114.52,353.47,114,353.36Z" style="fill:#37474f"></path><path d="M139.06,370.09c-4.71-5.33-14.15-12.35-27.46-9s-21.79,15.13-23.22,21.24c-.47,2.58,1.41,1.41,4.63,2.22,1.61.4,7.21,2.22,15.13,4.88C117.75,392.68,138.7,391,139.06,370.09Z" style="fill:#BA68C8"></path><path d="M139.06,370.09c-4.71-5.33-14.15-12.35-27.46-9s-21.79,15.13-23.22,21.24c-.47,2.58,1.41,1.41,4.63,2.22,1.61.4,7.21,2.22,15.13,4.88C117.75,392.68,138.7,391,139.06,370.09Z" style="opacity:0.2"></path><path d="M136.9,371c-4.77-2.9-11.13-3.4-16.59-3.09a42.91,42.91,0,0,0-15.86,3.89,23.56,23.56,0,0,0-3.68,2.2,20.74,20.74,0,0,0-3.15,2.92c-.1.11-.1.58.14.48,6.3-2.74,12.6-5.52,19.47-6.47a43.86,43.86,0,0,1,9.65-.24c1.52.13,3.05.33,4.56.56,1.83.27,3.63.75,5.49.9C137.56,372.21,137.2,371.19,136.9,371Z" style="opacity:0.2"></path><path d="M233.5,409.76c-7.94-2.07-33.43-.85-44.3,13.69-11,14.71-3.42,35.32,1.59,42.06,2.23,2.71,2.65-.21,6.27-2.81,1.8-1.29,4.51-5.27,18.05-11.2C227.54,446.05,251.94,432.16,233.5,409.76Z" style="fill:#BA68C8"></path><path d="M233.5,409.76c-7.94-2.07-33.43-.85-44.3,13.69-11,14.71-3.42,35.32,1.59,42.06,2.23,2.71,2.65-.21,6.27-2.81,1.8-1.29,4.51-5.27,18.05-11.2C227.54,446.05,251.94,432.16,233.5,409.76Z" style="fill:#fff;opacity:0.30000000000000004"></path><path d="M229.56,410.77c-7.42.91-14.5,5.65-20,10.51a57.55,57.55,0,0,0-13.42,17.23,32.21,32.21,0,0,0-2,5.37,28.5,28.5,0,0,0-.89,5.67c0,.2.38.69.54.38,4.35-8.09,8.65-16.23,15.07-22.92a59,59,0,0,1,9.93-8.26c1.71-1.12,3.47-2.18,5.24-3.19,2.16-1.23,4.45-2.22,6.51-3.61C231.23,411.48,230,410.71,229.56,410.77Z" style="fill:#BA68C8;opacity:0.7000000000000001"></path><path d="M140.91,423.46a11.41,11.41,0,0,0-12,2.21c-4.51,3.88-7.05,9.72-6.78,10.37s6.6,1.08,12.39-2.78A13.32,13.32,0,0,0,140.91,423.46Z" style="fill:#455a64"></path><path d="M155.67,423.17A11.41,11.41,0,0,0,146,430.6c-2.24,5.51-1.84,11.86-1.29,12.32s6.36-2.05,9.75-8.13A13.33,13.33,0,0,0,155.67,423.17Z" style="fill:#455a64"></path><path d="M161.07,412.29a11.43,11.43,0,0,0-9.72-7.36c-5.9-.71-11.52.84-11.82,1.49s4,6.21,9.95,8.13C156,416.65,159.57,413.13,161.07,412.29Z" style="fill:#455a64"></path><path d="M210.18,414.36c-4.91-2.12-10.46-2.65-15.75-3a90.55,90.55,0,0,0-14.91.37,116.74,116.74,0,0,0-30.13,7.33c-6.12,2.4-12.55,5.2-17.62,9.47-.1.09.06.4.18.33a93,93,0,0,1,16.56-7.42A110.53,110.53,0,0,1,164,416.73a112.82,112.82,0,0,1,27.45-2.57c6.12.14,12.07,1.28,18.12,2.12A1,1,0,0,0,210.18,414.36Z" style="fill:#37474f"></path><path d="M165.65,413.79a36.61,36.61,0,0,0-7.33-3.38,20.54,20.54,0,0,0-7.59-1.31c-.36,0,.09.33.31.38a60.53,60.53,0,0,1,6.58,2.08,25.65,25.65,0,0,1,6.37,3.59,1.64,1.64,0,0,0,1.87,0A.86.86,0,0,0,165.65,413.79Z" style="fill:#37474f"></path><path d="M163.17,414.91c-3.28,1.9-5.41,4.25-8.21,7.67a33.27,33.27,0,0,0-2.94,4.23,20.42,20.42,0,0,0-2.33,5.64c0,.07.08.57.14.43a54.38,54.38,0,0,1,3-5.17,30.66,30.66,0,0,1,3.31-4.32,48.34,48.34,0,0,1,8-7.32C164.74,415.62,163.73,414.59,163.17,414.91Z" style="fill:#37474f"></path><path d="M177.18,418.41a11.43,11.43,0,0,0-11,5.26c-3.34,4.91-4.27,11.21-3.84,11.78s6.65-.68,11.24-5.92A13.38,13.38,0,0,0,177.18,418.41Z" style="fill:#455a64"></path><path d="M186.23,411.9c-3.6,1.17-6.17,3-9.63,5.79a32.83,32.83,0,0,0-3.75,3.52,20.39,20.39,0,0,0-3.46,5c0,.07,0,.57.05.45a57.56,57.56,0,0,1,4-4.43,31.59,31.59,0,0,1,4.14-3.54,48,48,0,0,1,9.35-5.48C187.62,412.92,186.85,411.7,186.23,411.9Z" style="fill:#37474f"></path></g><g id="freepik--Flower--inject-182"><path d="M149.29,367.38a15.2,15.2,0,0,1-.29-3.66c.07-2.23-.47-9-3.68-12.61s-11.84-7.48-15-6.59a4.83,4.83,0,0,0-3.34,5.83c.43,1.76.71,2.39-1.84,3.94s-.12,3.53-.28,4.38-3.67,1.48-2.73,5.32,6.94,6.06,12.2,6.47C142.63,371.1,147.43,366.78,149.29,367.38Z" style="fill:#BA68C8"></path><path d="M149.29,367.38a15.2,15.2,0,0,1-.29-3.66c.07-2.23-.47-9-3.68-12.61s-11.84-7.48-15-6.59a4.83,4.83,0,0,0-3.34,5.83c.43,1.76.71,2.39-1.84,3.94s-.12,3.53-.28,4.38-3.67,1.48-2.73,5.32,6.94,6.06,12.2,6.47C142.63,371.1,147.43,366.78,149.29,367.38Z" style="fill:#fff;opacity:0.9"></path><path d="M150.42,366.23s-2.26-3.48-4.89-6.75-7.8-12.79-6.24-16.06c1.48-3.09,4.87-.08,6.19-1.14s1.33-3.6,3.4-2.11,3.71,7.21,4.18,11.13A48.44,48.44,0,0,1,152,363.09C151.37,365.79,150.42,366.23,150.42,366.23Z" style="fill:#BA68C8"></path><path d="M150.42,366.23s-2.26-3.48-4.89-6.75-7.8-12.79-6.24-16.06c1.48-3.09,4.87-.08,6.19-1.14s1.33-3.6,3.4-2.11,3.71,7.21,4.18,11.13A48.44,48.44,0,0,1,152,363.09C151.37,365.79,150.42,366.23,150.42,366.23Z" style="fill:#fff;opacity:0.8"></path><path d="M145.53,359.48c-2-2.46-5.4-8.47-6.3-12.69a21.34,21.34,0,0,1,6.09,4.32c3.21,3.64,3.75,10.38,3.68,12.61v.42C148.1,362.86,146.87,361.14,145.53,359.48Z" style="fill:#BA68C8;opacity:0.2"></path><path d="M151.16,366.27a12.06,12.06,0,0,0,.34-6.67A98.46,98.46,0,0,0,149,349.22c-1-3,.46-5.05,2.17-4.42s2.8,1,2.8,1-1.07-3.56,1.1-4.95,3.58-.28,4.58.2,1.2-1.15,3.09-1.47,4.37.18,7.55,3.22,3.32,5.85,2.56,7.48-3.65,3.33-4,5-.26,5.59-4.08,8.23S155,365,152.88,366.37,151.16,366.27,151.16,366.27Z" style="fill:#BA68C8"></path><path d="M151.16,366.27a12.06,12.06,0,0,0,.34-6.67A98.46,98.46,0,0,0,149,349.22c-1-3,.46-5.05,2.17-4.42s2.8,1,2.8,1-1.07-3.56,1.1-4.95,3.58-.28,4.58.2,1.2-1.15,3.09-1.47,4.37.18,7.55,3.22,3.32,5.85,2.56,7.48-3.65,3.33-4,5-.26,5.59-4.08,8.23S155,365,152.88,366.37,151.16,366.27,151.16,366.27Z" style="fill:#fff;opacity:0.9"></path><path d="M152,363.09a8.9,8.9,0,0,1-.33,1.14,13.29,13.29,0,0,0-.16-4.63A98.46,98.46,0,0,0,149,349.22c-1-3,.46-5.05,2.17-4.42l.48.18a33.18,33.18,0,0,1,1.44,6.32A49,49,0,0,1,152,363.09Z" style="fill:#BA68C8;opacity:0.2"></path><path d="M152.72,366.46s1.63-3,7.23-6.1,11.47-4,14.21-3.46,5.38,4.05,5.41,5.19,1.35,2.35.85,3.37-2.16.93-2.43,2.14,1.55,2.71.46,5.58a6,6,0,0,1-3.85,3.55s1.57,3.77-1.74,5.55-8.19.45-11.91-3.12C154.26,372.74,152.72,366.46,152.72,366.46Z" style="fill:#BA68C8"></path><path d="M152.72,366.46s1.63-3,7.23-6.1,11.47-4,14.21-3.46,5.38,4.05,5.41,5.19,1.35,2.35.85,3.37-2.16.93-2.43,2.14,1.55,2.71.46,5.58a6,6,0,0,1-3.85,3.55s1.57,3.77-1.74,5.55-8.19.45-11.91-3.12C154.26,372.74,152.72,366.46,152.72,366.46Z" style="fill:#fff;opacity:0.8"></path><path d="M152.88,366.37l-.15.09h0s1.63-3,7.23-6.1a31.33,31.33,0,0,1,8.49-3.16,8.93,8.93,0,0,1-3.75,6.29C160.87,366.14,155,365,152.88,366.37Z" style="fill:#BA68C8;opacity:0.2"></path><path d="M151.82,369.42s5.41-.18,9,1.55,9.25,6.62,9.79,11-1.78,7.84-7.63,7.23a3.32,3.32,0,0,1-2.57,2.83c-2.43.67-4.3-2.21-4.63-3.76,0,0-.95.56-2.1-1.84s.94-7.4-1.3-12.1S150.82,369.42,151.82,369.42Z" style="fill:#BA68C8"></path><path d="M151.82,369.42s5.41-.18,9,1.55,9.25,6.62,9.79,11-1.78,7.84-7.63,7.23a3.32,3.32,0,0,1-2.57,2.83c-2.43.67-4.3-2.21-4.63-3.76,0,0-.95.56-2.1-1.84s.94-7.4-1.3-12.1S150.82,369.42,151.82,369.42Z" style="fill:#fff;opacity:0.7000000000000001"></path><path d="M170.61,381.93c0,.36.06.71.07,1.05-3.06.44-6.77-1-9.73-3.82a32.8,32.8,0,0,1-7.08-9.69,19.54,19.54,0,0,1,6.95,1.5C164.42,372.7,170.07,377.59,170.61,381.93Z" style="fill:#BA68C8;opacity:0.2"></path><path d="M151.19,369.51a36.09,36.09,0,0,1,4.13,7.6c2.14,5.75-.07,12.72-.08,14.35s-2.87,4.6-6.43,4-4.38-2.6-6.93-2.06-3.83-.36-4.93-2.86-4.2-.53-5.76-2.91,3.49-9.3,7.9-12.67A31.47,31.47,0,0,1,151.19,369.51Z" style="fill:#BA68C8"></path><path d="M151.19,369.51a36.09,36.09,0,0,1,4.13,7.6c2.14,5.75-.07,12.72-.08,14.35s-2.87,4.6-6.43,4-4.38-2.6-6.93-2.06-3.83-.36-4.93-2.86-4.2-.53-5.76-2.91,3.49-9.3,7.9-12.67A31.47,31.47,0,0,1,151.19,369.51Z" style="fill:#fff;opacity:0.9"></path><path d="M150,368.49c-1-.19-3.18-1.91-5.87-1.82s-5.47-1.11-7.75-1.2-3.88,2-4.71,3.91-2,1.4-4.46,2.15-4.23,2.33-3.73,4.33c.27,1.08,1.08,1.12,1.19,2.55s-.65,3.34,1.59,3.85,4.06.13,5.5,1.46,4.91,2.84,6.94.14,2.6-5,4.61-5.76a13.57,13.57,0,0,0,6.08-5.47C150.64,370.28,151.08,368.71,150,368.49Z" style="fill:#BA68C8"></path><path d="M150,368.49c-1-.19-3.18-1.91-5.87-1.82s-5.47-1.11-7.75-1.2-3.88,2-4.71,3.91-2,1.4-4.46,2.15-4.23,2.33-3.73,4.33c.27,1.08,1.08,1.12,1.19,2.55s-.65,3.34,1.59,3.85,4.06.13,5.5,1.46,4.91,2.84,6.94.14,2.6-5,4.61-5.76a13.57,13.57,0,0,0,6.08-5.47C150.64,370.28,151.08,368.71,150,368.49Z" style="fill:#fff;opacity:0.8"></path><path d="M134.29,370.46a24.55,24.55,0,0,1-3-.43,3.86,3.86,0,0,0,.37-.65c.83-1.91,2.44-4,4.71-3.91s5.06,1.29,7.75,1.2a8.33,8.33,0,0,1,3.72.87C145.36,368.32,141,371,134.29,370.46Z" style="fill:#BA68C8;opacity:0.2"></path><path d="M131.73,383.72a28,28,0,0,1,7.36-8.75,31.39,31.39,0,0,1,11.48-5.32,10.07,10.07,0,0,1-1.22,3,13.57,13.57,0,0,1-6.08,5.47c-2,.74-2.58,3.07-4.61,5.76S133.17,385,131.73,383.72Z" style="fill:#BA68C8;opacity:0.2"></path><path d="M140.92,360.77c-.92-.34-2.2-1.13-3.19-.77-.12,0-.26.13-.24.26a.21.21,0,0,0,.07.14,2.09,2.09,0,0,0,1,.55,15.82,15.82,0,0,1,3.67,2c.24.17,1,.67.8,1.05a.37.37,0,0,1-.31.13,8.5,8.5,0,0,0-2.14,0,.26.26,0,0,0-.18.12.19.19,0,0,0,.08.22.53.53,0,0,0,.24.08c.39.06,3.42.24,2.83,1.15a.58.58,0,0,1-.4.21c-1.86.42-3.78.51-5.62,1-.29.07-.61.19-.7.47a3.62,3.62,0,0,0,1.76,0c.68-.09,1.37-.16,2.06-.22a26.52,26.52,0,0,1,3.08-.19c.42,0,2.68.07,2.22.92a1.12,1.12,0,0,1-.64.43c-.87.31-1.76.57-2.6.93a14.4,14.4,0,0,0-3.2,2,.46.46,0,0,0-.16.18.16.16,0,0,0,.07.21.22.22,0,0,0,.14,0,10,10,0,0,0,1.59-.67,19.9,19.9,0,0,1,1.88-.66c.66-.2,2.65-1,2.22.35a3.65,3.65,0,0,1-1.09,1.4l-1.62,1.61-2,2a1,1,0,0,0-.29.37c-.36.83.77.36,1.05.17.44-.3.81-.7,1.23-1,1.29-1,2.54-2,3.77-3,.36-.3.68-.87,1.23-.89,1.6-.05,0,1.84-.23,2.47-.28.92-.56,1.84-.81,2.76-.12.46-.25.92-.35,1.39-.06.26-.09.88.16,1.07s.74-1.08.84-1.31c.28-.64.56-1.29.8-2s.38-1.07.6-1.6c.13-.3.39-1.26.79-1.29a.51.51,0,0,1,.42.26,1.2,1.2,0,0,1,.14.49,18.32,18.32,0,0,1-.14,5.38.56.56,0,0,0,.64-.12,1.42,1.42,0,0,0,.3-.63,12.76,12.76,0,0,0,.45-3.59,23.67,23.67,0,0,0-.19-3.57c-.06-.43,1,.6,1.13.66a9.91,9.91,0,0,1,1.82,1.84c.77,1,1.49,2,2.27,2.92.18.21.41.18.47-.1a.78.78,0,0,0,0-.37,9.93,9.93,0,0,0-2-3.78c-.38-.51-1.87-1.94-1.25-2.6,1.21-1.28,3.83,1.11,4.69,1.86s1.8,1.55,2.7,2.32c.49.42.81,1.09,1.36,1.4a.35.35,0,0,0,.22.06.24.24,0,0,0,.18-.2c.09-.4-.25-.68-.45-1s-.53-.72-.82-1.08a15.81,15.81,0,0,0-1.83-1.92c-.11-.09-2.61-2.09-2.23-2.17a4.45,4.45,0,0,1,2.31.29c.63.2,1.54.72,2.17.41a.22.22,0,0,0,.09-.07.17.17,0,0,0,0-.14c-.16-.48-1-.66-1.38-.81s-1.11-.37-1.65-.6c-1.66-.72.48-.81,1.13-.77,2.38.13,4.75.49,7.11.8.62.08,1.65.65,2.21.29a.11.11,0,0,0,.07-.06.17.17,0,0,0,0-.12c-.12-.54-1.06-.8-1.52-1a19.29,19.29,0,0,0-1.95-.51,33.52,33.52,0,0,0-3.6-.37c-.79-.08-1.57-.18-2.34-.32-.29-.05-.6-.05-.77-.31s.05-.71.37-.94c.61-.43,1.23-.84,1.87-1.22.14-.08.29-.2.28-.35a.29.29,0,0,0-.26-.24,1,1,0,0,0-.38.05c-1.36.42-2.74.79-4.13,1.1-.42.1-.74,0-.44-.45s.5-.54.74-.81a16.54,16.54,0,0,0,1.58-2.13,15.68,15.68,0,0,0,1.9-4.57c.19-.74.6-1.94.15-2.64a.29.29,0,0,0-.24-.16.29.29,0,0,0-.12.07,2,2,0,0,0-.47,1,7.43,7.43,0,0,1-.46,1.27,20.73,20.73,0,0,1-1.79,2.86,61.6,61.6,0,0,1-3.89,4.79,4.19,4.19,0,0,0,.33-1.09l.42-1.21a12.35,12.35,0,0,0,.33-1.23,1.78,1.78,0,0,0-.18-1.08.34.34,0,0,0-.09-.14.21.21,0,0,0-.25,0,.65.65,0,0,0-.13.23c-.23.62-1.33,5.19-2.37,4.38-.47-.36-.46-1.94-.52-2.43-.16-1.29-.18-2.92-1.12-3.92-.1-.11-.24-.22-.38-.17s-.16.31-.13.48a13.22,13.22,0,0,1,.53,3.52c-.09,1.31-1.11-.36-1.31-.74-1-1.74-1.5-3.62-3.14-4.88-.13-.1-.36-.17-.43,0a.28.28,0,0,0,.06.26,22.52,22.52,0,0,1,2.47,4.93c.14.49.81,2,.44,2.39s-1.37-.45-1.62-.65a19.29,19.29,0,0,0-2.1-1.75.94.94,0,0,0-.23-.1.27.27,0,0,0-.23.07.25.25,0,0,0,0,.25.68.68,0,0,0,.17.21,7,7,0,0,1,.92,1c.15.23.26.51.4.75s.63,1.12,0,1.29c-.41.11-1.52-1.06-1.87-1.3A14.35,14.35,0,0,0,140.92,360.77Z" style="fill:#BA68C8;opacity:0.4"></path><path d="M154.42,373.64a1.68,1.68,0,0,1-.37-1.05c0-.28,0-.55,0-.82a.69.69,0,0,0-.59-.31.6.6,0,0,0-.16.05,2.57,2.57,0,0,1,0,.48c-.06.31-.35.7-.13,1,.11.14-.13.2-.21.1a.87.87,0,0,1-.19-.51c-.12-.08-.28-.35-.48-.46l-.13,0a3.19,3.19,0,0,0,.08.62,1.93,1.93,0,0,0,.56.94c0,.05-.08.09-.11.08a1.29,1.29,0,0,1-.66-.66,3.53,3.53,0,0,1-.28-1h-.09a1.48,1.48,0,0,0-.41.12s0,.1,0,.15a5,5,0,0,1-.18,1.08c0,.13-.27.08-.26-.05s0-.42,0-.62c-.21-.23-.25-.62-.51-.82l-.17.17a1.62,1.62,0,0,0-.51,1,2.91,2.91,0,0,0,0,.59c0,.14.09.34-.05.43a0,0,0,0,1,0,0c-.17-.08-.19-.3-.23-.46a2.26,2.26,0,0,1-.09-.58,2,2,0,0,1,.31-1.16l.12-.15-.17,0c-.31.07-.4.05-.56-.09a2.39,2.39,0,0,1-.56,1.64c-.09.08-.33-.05-.24-.16a2.73,2.73,0,0,0,.39-1.53,1.48,1.48,0,0,1,0-.21,3.27,3.27,0,0,0-.33.14,1.48,1.48,0,0,0-.51.39,1,1,0,0,0-.14.68c0,.09-.17.1-.2,0a1,1,0,0,1-.11-.42,1,1,0,0,1,.08-.39,1.37,1.37,0,0,1,.5-.59,2,2,0,0,1,.37-.22,1.29,1.29,0,0,0,0-.23.66.66,0,0,0-.28-.36,4.63,4.63,0,0,0-.61.79,4.25,4.25,0,0,1-.64.87,1.56,1.56,0,0,1-1.07.4c-.09,0-.16-.12-.05-.15.81-.25,1.16-1.2,1.56-1.86a3.3,3.3,0,0,1,.3-.43.61.61,0,0,1-.14-.34l-.37.17a1.48,1.48,0,0,0-.5.3c-.1.09-.36,0-.27-.14a2,2,0,0,1,.35-.41,4.32,4.32,0,0,1,.5-.33l.17-.11a.76.76,0,0,0-.09-.18h-.15a8.27,8.27,0,0,0-1.39.33,2.13,2.13,0,0,1-1.12.07c-.09,0-.11-.12,0-.14a4.63,4.63,0,0,0,1.36-.66,3,3,0,0,1,.89-.25.05.05,0,0,1,0,0,.38.38,0,0,1,0-.18l-.14,0c-.45.08-1.43.26-1.65-.31,0,0,.06-.06.08,0a.72.72,0,0,0,.77.05c.34-.12.66-.26,1-.35a.7.7,0,0,0-.06-.34.43.43,0,0,1,0-.07,4.86,4.86,0,0,1-1-.5.09.09,0,0,1,0-.17,1.61,1.61,0,0,1,.79.23s0,0,0-.05.31-.09.41-.26a.92.92,0,0,0,.08-.49l-.37-.08a2.83,2.83,0,0,0-1.16.09,2.62,2.62,0,0,1-1.11.11c-.13,0-.16-.2,0-.19.45,0,.82-.42,1.22-.58a2.33,2.33,0,0,1,1.11-.09c0-.05,0-.1,0-.2s.51-.28.76-.38a3.57,3.57,0,0,1-1.77-.72c-.08-.07.08-.12.14-.08a2.2,2.2,0,0,0,1.28.31,4,4,0,0,1,.78.14c.12-.23.15-.5.25-.74a6.8,6.8,0,0,0-1.13-1c-.06-.05-.1-.15,0-.21s.18,0,.25,0,.37.1.53.15a1.4,1.4,0,0,1,.41.19,1.9,1.9,0,0,1,.48.54l.15,0c.33,0,.23-.22.35-.42a.17.17,0,0,1,.14-.1,1.21,1.21,0,0,1,.13-.82c0-.05.15-.07.16,0,0,.32,0,.63.05.95l0,0a.43.43,0,0,0,.5-.06.5.5,0,0,0,.15-.19,3.76,3.76,0,0,0,0-.75,1.48,1.48,0,0,0-.44-.81c-.12-.15.08-.26.21-.16a2.17,2.17,0,0,1,.62.76,1.46,1.46,0,0,1,.15.53c.24.2.53.41.72.37h0a2.74,2.74,0,0,1,.21-.67c.09-.17.36,0,.34.17l-.06.3c.14.25.26.51.62.54a.47.47,0,0,0,.38-.13,4,4,0,0,0,0-.6,1.27,1.27,0,0,0-.67-1c-.14-.1,0-.21.16-.14a1.85,1.85,0,0,1,.77.82,2.44,2.44,0,0,1,.15.69,1.68,1.68,0,0,1,.23.38c.09.21.14.71.44.77a4.4,4.4,0,0,1,.08-.89,1.94,1.94,0,0,1,.32-.77c.08-.09.33,0,.25.12a2,2,0,0,0-.16,1.12c0,.12,0,.23,0,.35a.65.65,0,0,1,.2.28c.12.22.1.57.25.78h0a4.16,4.16,0,0,1,.38-.83,1.17,1.17,0,0,1,.62-.56c.07,0,.24.05.17.14s-.21.26-.3.41a2.53,2.53,0,0,0-.19.45c-.06.19-.12.39-.17.58.29.09.28.28.23.5l.53-.26a.64.64,0,0,0,.3-.24,1.17,1.17,0,0,0,.13-.44c0-.09.19-.11.19,0a1.43,1.43,0,0,1-.12.64,1.88,1.88,0,0,1-.61.76,3.78,3.78,0,0,1-.43.26c.19.29.56.29.56.62.11,0,.22,0,.33-.08a1.75,1.75,0,0,0,.43-.22,1,1,0,0,0,.22-.36c0-.07.21-.08.21,0a1.48,1.48,0,0,1-1.15,1.19l-.3.08,0,0c0,.24.24.51.37.65h0a2.14,2.14,0,0,1,1.58.5c.12.13-.13.18-.22.1-.46-.41-1.16-.15-1.71,0a.15.15,0,0,0-.06.05.91.91,0,0,0-.06.65.54.54,0,0,0,0,.15l.07,0a1.12,1.12,0,0,0,.79-.18c.13-.08.36.12.24.25a1.65,1.65,0,0,1-1.28.42,1.73,1.73,0,0,0-.51.33c-.16.19,0,.38,0,.58a2,2,0,0,0,.6,1.05c.07.06-.09.13-.14.09a2,2,0,0,1-.63-.74c-.06-.12-.11-.25-.17-.38s-.33-.38-.54-.17a.78.78,0,0,0-.11.2l.07.18a4,4,0,0,1,0,1.24,1.91,1.91,0,0,0,.21,1.2C154.72,373.68,154.48,373.71,154.42,373.64Z" style="fill:#37474f"></path><path d="M155.88,372.89a.45.45,0,0,1,.33-.54.45.45,0,0,1,.21.87A.46.46,0,0,1,155.88,372.89Z" style="fill:#37474f"></path><path d="M147,373.75a.45.45,0,0,1,.87-.21.45.45,0,0,1-.87.21Z" style="fill:#37474f"></path><path d="M156.29,370.56a.44.44,0,1,1,.54.33A.45.45,0,0,1,156.29,370.56Z" style="fill:#37474f"></path><path d="M158.47,369.14a.44.44,0,0,1,.86-.21.44.44,0,1,1-.86.21Z" style="fill:#37474f"></path><path d="M157.49,367a.44.44,0,0,1,.86-.21.44.44,0,1,1-.86.21Z" style="fill:#37474f"></path><path d="M157.41,364.82a.45.45,0,1,1,.54.33A.44.44,0,0,1,157.41,364.82Z" style="fill:#37474f"></path><path d="M145.3,371.17a.44.44,0,0,1,.32-.54.45.45,0,0,1,.54.33.44.44,0,0,1-.33.53A.43.43,0,0,1,145.3,371.17Z" style="fill:#37474f"></path><path d="M144.12,365a.43.43,0,0,1,.32-.53.44.44,0,0,1,.54.32.45.45,0,0,1-.33.54A.44.44,0,0,1,144.12,365Z" style="fill:#37474f"></path><path d="M156.49,362.9a.44.44,0,1,1,.86-.21.44.44,0,0,1-.86.21Z" style="fill:#37474f"></path><path d="M154.86,362.84a.45.45,0,1,1,.54.32A.45.45,0,0,1,154.86,362.84Z" style="fill:#37474f"></path><path d="M146.57,363.62a.43.43,0,0,1,.33-.53.43.43,0,0,1,.53.32.44.44,0,0,1-.32.54A.45.45,0,0,1,146.57,363.62Z" style="fill:#37474f"></path><path d="M153.42,360.92a.44.44,0,1,1,.53.32A.44.44,0,0,1,153.42,360.92Z" style="fill:#37474f"></path><path d="M143.77,368.67a.45.45,0,1,1,.87-.21.45.45,0,0,1-.87.21Z" style="fill:#37474f"></path><path d="M150.72,361.12a.45.45,0,0,1,.33-.54.44.44,0,0,1,.21.86A.45.45,0,0,1,150.72,361.12Z" style="fill:#37474f"></path><path d="M153,374a.45.45,0,1,1,.87-.21.45.45,0,0,1-.87.21Z" style="fill:#37474f"></path><path d="M149.83,374.36a.44.44,0,0,1,.33-.53.43.43,0,0,1,.53.32.44.44,0,0,1-.32.54A.45.45,0,0,1,149.83,374.36Z" style="fill:#37474f"></path><path d="M147.19,361.64a.44.44,0,0,1,.32-.54.46.46,0,0,1,.54.33.45.45,0,0,1-.33.54A.43.43,0,0,1,147.19,361.64Z" style="fill:#37474f"></path></g><g id="freepik--flower--inject-182"><path d="M210.14,381.14a23.13,23.13,0,0,1,1.29-5.6c1.14-3.3,3.48-13.63.38-20.58s-14.19-16.72-19.39-16.87-7.54,4.31-7.72,7.14-.06,3.9-4.6,5-1.83,5.21-2.46,6.41-6.18.49-6.57,6.68,7.54,12.3,15.21,15.37C198.44,383.59,207.64,379.38,210.14,381.14Z" style="fill:#BA68C8"></path><path d="M210.14,381.14a23.13,23.13,0,0,1,1.29-5.6c1.14-3.3,3.48-13.63.38-20.58s-14.19-16.72-19.39-16.87-7.54,4.31-7.72,7.14-.06,3.9-4.6,5-1.83,5.21-2.46,6.41-6.18.49-6.57,6.68,7.54,12.3,15.21,15.37C198.44,383.59,207.64,379.38,210.14,381.14Z" style="fill:#fff;opacity:0.9"></path><path d="M212.36,379.94s-1.75-6.25-4.15-12.36-5.67-22.77-1.81-26.92c3.66-3.94,7.31,2.14,9.79,1.18s3.66-4.76,6.06-1.56,2.17,12.51,1,18.58c-.64,3.42-4.27,12.33-7.1,17.14C214,379.73,212.36,379.94,212.36,379.94Z" style="fill:#BA68C8"></path><path d="M212.36,379.94s-1.75-6.25-4.15-12.36-5.67-22.77-1.81-26.92c3.66-3.94,7.31,2.14,9.79,1.18s3.66-4.76,6.06-1.56,2.17,12.51,1,18.58c-.64,3.42-4.27,12.33-7.1,17.14C214,379.73,212.36,379.94,212.36,379.94Z" style="fill:#fff;opacity:0.8"></path><path d="M208.21,367.58c-1.81-4.61-4.11-15.19-3.48-21.91a33,33,0,0,1,7.08,9.29c3.1,7,.76,17.28-.38,20.58-.08.22-.14.42-.21.62C210.48,373.82,209.43,370.68,208.21,367.58Z" style="fill:#BA68C8;opacity:0.2"></path><path d="M213.46,380.35a18.78,18.78,0,0,0,3.62-9.81,149.55,149.55,0,0,0,1.07-16.7c-.1-4.92,3-7.33,5.31-5.58S227.2,351,227.2,351s.06-5.82,4-6.88,5.49,1.26,6.75,2.44,2.35-1.15,5.31-.76,6.45,2.32,9.78,8.36,2.23,10.28.34,12.37-7,3.27-8.4,5.59-3,8.24-10,10.4-15.22-2.28-19-1.21S213.46,380.35,213.46,380.35Z" style="fill:#BA68C8"></path><path d="M213.46,380.35a18.78,18.78,0,0,0,3.62-9.81,149.55,149.55,0,0,0,1.07-16.7c-.1-4.92,3-7.33,5.31-5.58S227.2,351,227.2,351s.06-5.82,4-6.88,5.49,1.26,6.75,2.44,2.35-1.15,5.31-.76,6.45,2.32,9.78,8.36,2.23,10.28.34,12.37-7,3.27-8.4,5.59-3,8.24-10,10.4-15.22-2.28-19-1.21S213.46,380.35,213.46,380.35Z" style="fill:#fff;opacity:0.9"></path><path d="M216.19,376a17.34,17.34,0,0,1-1,1.55,20.92,20.92,0,0,0,1.92-7,149.55,149.55,0,0,0,1.07-16.7c-.1-4.92,3-7.33,5.31-5.58l.64.49a51.66,51.66,0,0,1-.81,10.11C222.65,362.28,219,371.19,216.19,376Z" style="fill:#BA68C8;opacity:0.2"></path><path d="M215.71,381.37s3.84-3.76,13.64-5.74,19-.64,22.87,1.47,6.15,8.58,5.67,10.29.91,4.15-.32,5.44-3.66.39-4.63,2.06,1.06,4.78-1.92,8.56a9.32,9.32,0,0,1-7.42,3.5s.59,6.37-5.19,7.49-12.46-3.16-16.35-10.23C215.06,391.47,215.71,381.37,215.71,381.37Z" style="fill:#BA68C8"></path><path d="M215.71,381.37s3.84-3.76,13.64-5.74,19-.64,22.87,1.47,6.15,8.58,5.67,10.29.91,4.15-.32,5.44-3.66.39-4.63,2.06,1.06,4.78-1.92,8.56a9.32,9.32,0,0,1-7.42,3.5s.59,6.37-5.19,7.49-12.46-3.16-16.35-10.23C215.06,391.47,215.71,381.37,215.71,381.37Z" style="fill:#fff;opacity:0.8"></path><path d="M216,381.32l-.27.06h0s3.84-3.76,13.64-5.74a48.61,48.61,0,0,1,14.18-.74,14,14,0,0,1-8.55,7.64C228,384.7,219.76,380.25,216,381.32Z" style="fill:#BA68C8;opacity:0.2"></path><path d="M213,385.38s8.17,2.26,12.73,6.53,10.73,14.21,9.5,21-6.32,10.88-14.78,7.24a5.18,5.18,0,0,1-5.16,3c-4-.13-5.4-5.31-5.16-7.78,0,0-1.68.39-2.29-3.74s4.86-10.62,3.72-18.69S211.47,384.91,213,385.38Z" style="fill:#BA68C8"></path><path d="M213,385.38s8.17,2.26,12.73,6.53,10.73,14.21,9.5,21-6.32,10.88-14.78,7.24a5.18,5.18,0,0,1-5.16,3c-4-.13-5.4-5.31-5.16-7.78,0,0-1.68.39-2.29-3.74s4.86-10.62,3.72-18.69S211.47,384.91,213,385.38Z" style="fill:#fff;opacity:0.7000000000000001"></path><path d="M235.2,412.87a13.19,13.19,0,0,1-.39,1.59c-4.77-.76-9.65-4.61-12.75-10.25A51.57,51.57,0,0,1,216,386.4c2.79,1.05,6.91,2.91,9.69,5.5C230.27,396.17,236.43,406.12,235.2,412.87Z" style="fill:#BA68C8;opacity:0.2"></path><path d="M212,385.22a55.79,55.79,0,0,1,2.63,13.3c.5,9.58-6.06,19-6.83,21.4s-6.44,5.54-11.49,3-5.33-5.93-9.4-6.31-5.56-2.35-6-6.6-6-2.74-7.24-7,9.56-12.26,17.73-15.24A49.1,49.1,0,0,1,212,385.22Z" style="fill:#BA68C8"></path><path d="M212,385.22a55.79,55.79,0,0,1,2.63,13.3c.5,9.58-6.06,19-6.83,21.4s-6.44,5.54-11.49,3-5.33-5.93-9.4-6.31-5.56-2.35-6-6.6-6-2.74-7.24-7,9.56-12.26,17.73-15.24A49.1,49.1,0,0,1,212,385.22Z" style="fill:#fff;opacity:0.9"></path><path d="M210.63,383.12c-1.38-.74-3.87-4.34-7.93-5.47s-7.66-4.21-11-5.42-6.74,1.18-8.88,3.65-3.71,1.12-7.66,1.12-7.41,1.51-7.61,4.72c-.1,1.75,1.1,2.19.59,4.39s-2.53,4.67.58,6.49,6,2.09,7.55,4.75,6,6.54,10.29,3.46,6.23-6.3,9.6-6.46,8.59-2.42,11.63-5.33S212.19,384,210.63,383.12Z" style="fill:#BA68C8"></path><path d="M210.63,383.12c-1.38-.74-3.87-4.34-7.93-5.47s-7.66-4.21-11-5.42-6.74,1.18-8.88,3.65-3.71,1.12-7.66,1.12-7.41,1.51-7.61,4.72c-.1,1.75,1.1,2.19.59,4.39s-2.53,4.67.58,6.49,6,2.09,7.55,4.75,6,6.54,10.29,3.46,6.23-6.3,9.6-6.46,8.59-2.42,11.63-5.33S212.19,384,210.63,383.12Z" style="fill:#fff;opacity:0.8"></path><path d="M186.28,378.73a40.64,40.64,0,0,1-4.33-2.06,5.07,5.07,0,0,0,.85-.79c2.14-2.47,5.52-4.86,8.88-3.65s7,4.29,11,5.42a13.25,13.25,0,0,1,5.15,3C203.82,380.71,196,382.62,186.28,378.73Z" style="fill:#BA68C8;opacity:0.2"></path><path d="M176.25,397.35a43.68,43.68,0,0,1,15.1-9.63A49.19,49.19,0,0,1,211,385.13a15.27,15.27,0,0,1-3.22,3.89c-3,2.91-8.27,5.18-11.63,5.33s-5.31,3.39-9.6,6.46S177.79,400,176.25,397.35Z" style="fill:#BA68C8;opacity:0.2"></path><path d="M200.71,367.35c-1.2-.94-2.76-2.72-4.4-2.65-.2,0-.45.08-.48.28a.37.37,0,0,0,0,.23,3.39,3.39,0,0,0,1.18,1.29,24.6,24.6,0,0,1,4.57,4.66c.27.36,1.21,1.48.7,1.94a.58.58,0,0,1-.52,0c-1.09-.3-2.09-1-3.22-1a.41.41,0,0,0-.31.09.3.3,0,0,0,0,.37.82.82,0,0,0,.32.23c.56.28,5,2,3.7,3a1,1,0,0,1-.71.13c-3-.24-5.88-1-8.85-1.17a1.39,1.39,0,0,0-1.27.38,5.54,5.54,0,0,0,2.64.76c1.07.18,2.13.41,3.19.64a44.12,44.12,0,0,1,4.7,1.15c.61.21,4,1.37,2.88,2.42a1.68,1.68,0,0,1-1.16.34c-1.44.06-2.89,0-4.32.18a22.18,22.18,0,0,0-5.72,1.52.74.74,0,0,0-.32.19.26.26,0,0,0,0,.35.41.41,0,0,0,.22.07,16.21,16.21,0,0,0,2.68-.26,27.28,27.28,0,0,1,3.13-.1c1.07,0,4.45-.32,3.15,1.56a5.66,5.66,0,0,1-2.28,1.57l-3.18,1.65-3.93,2a2,2,0,0,0-.61.43c-.92,1.08,1,.9,1.49.75.8-.25,1.53-.67,2.32-1,2.38-.85,4.7-1.74,7-2.72.68-.28,1.43-1,2.26-.75,2.41.67-.92,2.72-1.5,3.58-.84,1.24-1.69,2.48-2.5,3.75-.4.63-.8,1.26-1.17,1.91-.21.37-.55,1.28-.27,1.68.41.58,1.61-1.27,1.87-1.57.73-.83,1.45-1.67,2.11-2.55.54-.72,1.08-1.43,1.66-2.12.32-.38,1.16-1.7,1.77-1.55a.77.77,0,0,1,.51.58,2.15,2.15,0,0,1,0,.8,28.71,28.71,0,0,1-2.73,8,.84.84,0,0,0,1,.12,2.33,2.33,0,0,0,.74-.79,20.84,20.84,0,0,0,2.36-5.17,37.11,37.11,0,0,0,1.38-5.42c.11-.67,1.28,1.38,1.38,1.52a15.12,15.12,0,0,1,1.86,3.59c.71,1.8,1.31,3.64,2,5.44.15.39.52.46.74.06a1.15,1.15,0,0,0,.14-.55,15.6,15.6,0,0,0-1.22-6.59c-.34-.94-1.89-3.78-.66-4.47,2.42-1.34,5.21,3.44,6.14,5s2,3.17,3,4.74c.53.85.7,2,1.38,2.73a.5.5,0,0,0,.29.18.39.39,0,0,0,.37-.21c.31-.56-.05-1.14-.22-1.66-.23-.67-.46-1.34-.72-2a23.82,23.82,0,0,0-1.84-3.72c-.11-.19-2.92-4.35-2.31-4.29a7,7,0,0,1,3.32,1.51c.84.59,2,1.79,3.05,1.62a.28.28,0,0,0,.16-.06.26.26,0,0,0,.07-.21c0-.79-1.14-1.43-1.68-1.85-.73-.56-1.49-1.07-2.19-1.67-2.15-1.85,1.1-1,2.05-.63,3.5,1.31,6.87,3,10.25,4.52.89.42,2.16,1.75,3.17,1.48a.27.27,0,0,0,.14-.07.25.25,0,0,0,.06-.17c.07-.87-1.22-1.68-1.83-2.13a26.32,26.32,0,0,0-2.68-1.69,50.83,50.83,0,0,0-5.2-2.23c-1.13-.49-2.26-1-3.35-1.57-.41-.21-.86-.36-1-.84-.22-.71.41-1,1-1.22,1.11-.35,2.24-.67,3.37-.95.24-.06.52-.16.58-.4a.46.46,0,0,0-.28-.48,1.27,1.27,0,0,0-.58-.09c-2.24,0-4.47-.11-6.7-.29-.67-.05-1.08-.4-.44-.87.46-.34,1-.58,1.48-.88a26.55,26.55,0,0,0,3.36-2.43,24.72,24.72,0,0,0,5-5.95c.63-1,1.8-2.63,1.46-3.88-.05-.15-.13-.32-.29-.35a.39.39,0,0,0-.21,0,3.1,3.1,0,0,0-1.16,1.27,11.7,11.7,0,0,1-1.29,1.68,32.2,32.2,0,0,1-4,3.43,93.47,93.47,0,0,1-8,5.35c.35-.22.74-1.12,1-1.47.4-.54.81-1.07,1.2-1.61s.74-1.1,1.07-1.68a2.77,2.77,0,0,0,.24-1.71.44.44,0,0,0-.08-.25.32.32,0,0,0-.38-.06.92.92,0,0,0-.31.28c-.64.83-4.41,7.15-5.59,5.45-.53-.77.22-3.12.36-3.89.37-2,1.09-4.43.16-6.38-.09-.21-.26-.43-.49-.42s-.39.37-.42.66a20.42,20.42,0,0,1-.85,5.5c-.75,1.92-1.49-1.06-1.62-1.71-.6-3.05-.54-6.13-2.41-8.77-.15-.21-.45-.43-.62-.24s-.07.27,0,.42a34.62,34.62,0,0,1,1.38,8.51c0,.8.28,3.37-.45,3.78s-1.83-1.31-2.11-1.72a30.07,30.07,0,0,0-2.33-3.61,1.21,1.21,0,0,0-.3-.25.39.39,0,0,0-.38,0,.41.41,0,0,0-.14.36,1.43,1.43,0,0,0,.15.39,10.36,10.36,0,0,1,.93,1.89c.12.41.15.87.25,1.3s.42,2-.55,1.94c-.67,0-1.77-2.29-2.19-2.81A22.3,22.3,0,0,0,200.71,367.35Z" style="fill:#BA68C8;opacity:0.4"></path><path d="M214.88,392.89a2.6,2.6,0,0,1-.06-1.74c.12-.41.27-.81.39-1.22a1.08,1.08,0,0,0-.74-.73.61.61,0,0,0-.27,0,3.75,3.75,0,0,1-.25.71c-.23.43-.84.87-.65,1.41.09.26-.3.23-.37.05a1.31,1.31,0,0,1,0-.85c-.15-.18-.26-.66-.51-.91a1,1,0,0,0-.17-.12,6.25,6.25,0,0,0-.18,1,3.27,3.27,0,0,0,.4,1.67c0,.09-.15.1-.2.06a2,2,0,0,1-.68-1.29,6,6,0,0,1,.06-1.64h0l-.14,0a2.21,2.21,0,0,0-.68,0c0,.07,0,.15-.06.23A7.2,7.2,0,0,1,210,391c-.11.18-.44,0-.37-.2s.21-.61.32-.91c-.2-.44-.08-1-.38-1.47-.12.06-.22.13-.34.18a2.5,2.5,0,0,0-1.24,1.32,5.33,5.33,0,0,0-.25.89c0,.22,0,.54-.27.62h-.06c-.2-.2-.14-.53-.12-.8a3.51,3.51,0,0,1,.14-.9,3.08,3.08,0,0,1,1-1.59l.26-.17-.27,0c-.5,0-.62-.12-.8-.4a3.8,3.8,0,0,1-1.6,2.2c-.17.07-.47-.23-.28-.36a4.29,4.29,0,0,0,1.29-2.1c0-.1.07-.21.11-.31a5.32,5.32,0,0,0-.56.06,2.15,2.15,0,0,0-.94.35,1.39,1.39,0,0,0-.53.94c0,.13-.3.06-.31-.06a1.94,1.94,0,0,1,0-.68,1.83,1.83,0,0,1,.3-.55,2.35,2.35,0,0,1,1-.65,4.74,4.74,0,0,1,.65-.16,2,2,0,0,0,.07-.35,1.09,1.09,0,0,0-.25-.67,7.19,7.19,0,0,0-1.28.9,6.62,6.62,0,0,1-1.36,1,2.46,2.46,0,0,1-1.79.1c-.14,0-.19-.26,0-.25,1.34,0,2.3-1.25,3.2-2.06a4.43,4.43,0,0,1,.65-.49,1,1,0,0,1-.05-.58l-.63.08a2.25,2.25,0,0,0-.89.22c-.18.09-.53-.16-.33-.33a2.66,2.66,0,0,1,.71-.45,5.65,5.65,0,0,1,.89-.26l.32-.09a1.64,1.64,0,0,0,0-.32l-.23-.07a13.73,13.73,0,0,0-2.22-.15,3.32,3.32,0,0,1-1.72-.42c-.12-.07-.1-.23.07-.21a7.18,7.18,0,0,0,2.34-.35,4.42,4.42,0,0,1,1.45,0s0,0,0-.07a1,1,0,0,1,0-.3l-.22,0c-.71-.09-2.25-.27-2.31-1.23,0-.06.11-.07.14,0a1.1,1.1,0,0,0,1.13.45c.55,0,1.1-.08,1.66-.06a1.14,1.14,0,0,0,.08-.53l0-.13a7.57,7.57,0,0,1-1.2-1.2.14.14,0,0,1,.13-.23,2.49,2.49,0,0,1,1.06.71l.05-.07c.2-.14.51,0,.74-.19a1.45,1.45,0,0,0,.35-.69,5.24,5.24,0,0,0-.51-.3,4.63,4.63,0,0,0-1.79-.41,4,4,0,0,1-1.7-.35c-.18-.1-.14-.37.09-.29.66.25,1.42-.24,2.09-.29a3.52,3.52,0,0,1,1.71.39.29.29,0,0,1,.1-.29c.27-.28.9-.2,1.32-.22a5.73,5.73,0,0,1-2.32-1.91c-.07-.14.19-.14.25-.05a3.47,3.47,0,0,0,1.77,1.06,6,6,0,0,1,1.1.57,10,10,0,0,0,.72-1,9.77,9.77,0,0,0-1.22-2c-.07-.11-.07-.28.06-.33s.28.05.35.15.51.33.74.48a2.11,2.11,0,0,1,.51.48,3.23,3.23,0,0,1,.48,1,.63.63,0,0,0,.2.1c.51.12.45-.23.73-.47a.32.32,0,0,1,.25-.09,2,2,0,0,1,.58-1.16c.06-.05.25,0,.23.08-.08.49-.3.94-.36,1.44l.06.06a.66.66,0,0,0,.77.14.65.65,0,0,0,.32-.22,5.37,5.37,0,0,0,.34-1.12,2.27,2.27,0,0,0-.28-1.41c-.11-.28.24-.35.38-.15a3.74,3.74,0,0,1,.59,1.43,2.54,2.54,0,0,1,0,.87c.26.4.6.85.9.88h0a4.31,4.31,0,0,1,.62-.91c.21-.21.53.2.43.42a4.36,4.36,0,0,1-.24.41c.11.44.16.9.68,1.1a.79.79,0,0,0,.64,0,7.32,7.32,0,0,0,.35-.88,2,2,0,0,0-.54-1.77c-.16-.22.17-.29.3-.14a2.83,2.83,0,0,1,.76,1.58,3.3,3.3,0,0,1-.09,1.1,3,3,0,0,1,.16.69c0,.36-.12,1.13.31,1.35a6,6,0,0,1,.53-1.29,2.8,2.8,0,0,1,.84-1c.16-.1.5.13.32.29a3,3,0,0,0-.76,1.6c-.05.18-.12.35-.17.53a1,1,0,0,1,.19.51c.07.39-.13.9,0,1.29h0a6.92,6.92,0,0,1,.95-1.07,1.91,1.91,0,0,1,1.19-.55c.11,0,.34.18.2.29a7.24,7.24,0,0,0-.65.48,4,4,0,0,0-.49.59c-.18.25-.36.51-.53.77.4.28.3.56.1.86l.92-.13a1,1,0,0,0,.57-.23,1.68,1.68,0,0,0,.39-.6c.05-.13.34-.07.3.07a2.25,2.25,0,0,1-.47.89,2.92,2.92,0,0,1-1.28.85,5.2,5.2,0,0,1-.75.2c.15.51.69.69.54,1.18a4.73,4.73,0,0,0,.53,0,2.31,2.31,0,0,0,.74-.14,1.48,1.48,0,0,0,.51-.42c.07-.09.35,0,.29.11a2.31,2.31,0,0,1-2.27,1.25,3.85,3.85,0,0,1-.48,0,.1.1,0,0,0-.05,0c-.15.35.12.87.26,1.14h0a3.3,3.3,0,0,1,2.12,1.49c.12.24-.27.2-.37,0-.49-.83-1.67-.76-2.57-.76l-.12.05a1.46,1.46,0,0,0-.4.94,1,1,0,0,0,0,.25l.09.06a1.79,1.79,0,0,0,1.27.1c.23-.06.49.35.24.49a2.58,2.58,0,0,1-2.11,0,2.6,2.6,0,0,0-.91.25c-.33.21-.22.56-.31.85a3.2,3.2,0,0,0,.41,1.87c.08.12-.19.15-.26.06a3.35,3.35,0,0,1-.59-1.4c0-.22,0-.44-.07-.65-.19-.33-.32-.72-.72-.51a1.07,1.07,0,0,0-.27.25c0,.1,0,.2,0,.3a5.85,5.85,0,0,1-.52,1.88,3,3,0,0,0-.25,1.89C215.32,393.1,214.94,393,214.88,392.89Z" style="fill:#37474f"></path><path d="M217.42,392.46a.7.7,0,0,1,1.39.09.71.71,0,0,1-.74.65A.69.69,0,0,1,217.42,392.46Z" style="fill:#37474f"></path><path d="M203.69,389.58a.68.68,0,0,1,.74-.65.7.7,0,0,1,.65.74.71.71,0,0,1-.74.65A.69.69,0,0,1,203.69,389.58Z" style="fill:#37474f"></path><path d="M219.12,389.17a.69.69,0,0,1,.73-.65.71.71,0,0,1,.66.74.7.7,0,0,1-.74.65A.68.68,0,0,1,219.12,389.17Z" style="fill:#37474f"></path><path d="M223,388.07a.7.7,0,0,1,.74-.65.71.71,0,0,1,.65.74.69.69,0,0,1-.74.65A.68.68,0,0,1,223,388.07Z" style="fill:#37474f"></path><path d="M222.57,384.41a.71.71,0,0,1,.74-.65.69.69,0,0,1,.65.74.68.68,0,0,1-.74.65A.7.7,0,0,1,222.57,384.41Z" style="fill:#37474f"></path><path d="M223.48,381.12a.71.71,0,0,1,.74-.65.7.7,0,1,1-.74.65Z" style="fill:#37474f"></path><path d="M202.4,384.94a.69.69,0,0,1,.74-.65.69.69,0,0,1,.65.73.7.7,0,1,1-1.39-.08Z" style="fill:#37474f"></path><path d="M203.54,375.1a.69.69,0,0,1,.74-.65.68.68,0,0,1,.65.74.7.7,0,0,1-.74.65A.71.71,0,0,1,203.54,375.1Z" style="fill:#37474f"></path><path d="M223,377.81a.68.68,0,0,1,.74-.65.7.7,0,0,1,.65.74.71.71,0,0,1-.74.65A.69.69,0,0,1,223,377.81Z" style="fill:#37474f"></path><path d="M220.6,377a.7.7,0,0,1,.74-.66.7.7,0,0,1-.09,1.4A.69.69,0,0,1,220.6,377Z" style="fill:#37474f"></path><path d="M207.83,374.25a.71.71,0,0,1,.74-.65.69.69,0,0,1,.65.74.68.68,0,0,1-.74.65A.7.7,0,0,1,207.83,374.25Z" style="fill:#37474f"></path><path d="M219.33,373.41a.7.7,0,0,1,.74-.65.68.68,0,0,1,.65.74.7.7,0,0,1-.74.65A.71.71,0,0,1,219.33,373.41Z" style="fill:#37474f"></path><path d="M201.29,380.49a.7.7,0,1,1,.65.74A.7.7,0,0,1,201.29,380.49Z" style="fill:#37474f"></path><path d="M215.21,372.45a.68.68,0,0,1,.74-.65.7.7,0,0,1,.65.74.71.71,0,0,1-.74.65A.69.69,0,0,1,215.21,372.45Z" style="fill:#37474f"></path><path d="M212.65,392.71a.7.7,0,0,1,1.39.09.69.69,0,0,1-.74.65A.7.7,0,0,1,212.65,392.71Z" style="fill:#37474f"></path><path d="M207.68,391.84a.69.69,0,0,1,.74-.65.68.68,0,0,1,.65.74.7.7,0,0,1-.74.65A.71.71,0,0,1,207.68,391.84Z" style="fill:#37474f"></path><path d="M209.68,371.58a.7.7,0,1,1,.65.74A.7.7,0,0,1,209.68,371.58Z" style="fill:#37474f"></path></g></g></g><g id="freepik--honey-stick--inject-182"><g id="freepik--honey-stick--inject-182"><path d="M363.28,108.62c1.55-10.57-6-20.29-11.37-21.34-7.2-9.4-18.24-14.31-36.51-11.43a53.49,53.49,0,0,0-39.32,28c-9.06,17.59-.58,30.89-.58,30.89s-2.08,13.7,9.4,19.79c.6,11.18,9.28,13.25,8.46,22-.35,3.81-3.76,10.19-3.08,14.38.55,3.35,2.78,6.17,7,6.17,4.94,0,6.46-3.62,6.9-5.77,1.1-5.42-2.29-10.64-1.53-14.61.88-4.67,16.65-4.8,23.8-10.38a23,23,0,0,0,8.35-13.26S367.22,136.79,363.28,108.62Z" style="fill:#fff;opacity:0.1"></path><path d="M456.27,312c4.87,8,1.84,17.52-6.12,22.39s-17.85,3.22-22.72-4.74A16.91,16.91,0,0,1,456.27,312Z" style="fill:#37474f"></path><path d="M456.31,322.36c.64-4-.71-8.77-3.92-11.41a4.29,4.29,0,0,0-4.41-.83,3.92,3.92,0,0,0-1.75,1.78,5.12,5.12,0,0,0-.24,4,12.88,12.88,0,0,0,2.22,3.34,24.47,24.47,0,0,1,2.55,4,5.58,5.58,0,0,0,1,1.64C453.91,326.92,456,324.38,456.31,322.36Z" style="fill:#455a64"></path><path d="M355.33,163.91c-.61-1-1.89-1.61-3.69-1.56a12.47,12.47,0,0,0-9.63,5.89c-.86,1.58-.91,3-.29,4,.37.61,88,143.79,88.36,144.4.61,1,1.89,1.6,3.69,1.56a12.49,12.49,0,0,0,9.63-5.9,4,4,0,0,0,.3-4C443.32,307.69,355.71,164.52,355.33,163.91Z" style="fill:#263238"></path><path d="M342,168.24c-.86,1.58-.91,3-.29,4s1.89,1.6,3.69,1.56a12.47,12.47,0,0,0,9.63-5.89c.86-1.59.91-3,.29-4s-1.89-1.61-3.69-1.56A12.47,12.47,0,0,0,342,168.24Z" style="fill:#455a64"></path><path d="M350.59,120.42c-8.51.14-17.86,3.41-26,8.54-8.27,4.91-15.44,11.75-19.44,19.27-3.89,7.29-4.06,13.83-1.19,18.52,1.74,2.84,5.9,6,11.68,8.59a44.83,44.83,0,0,0,20.94,3.07c7.37-.63,10.46-1.93,15.28-4.89s7.39-5.1,11.31-11.37A44.86,44.86,0,0,0,370,142.1c.36-6.32-.59-11.47-2.33-14.32C364.76,123.1,358.86,120.27,350.59,120.42Z" style="fill:#37474f"></path><path d="M359.67,154a2.43,2.43,0,0,0,.09,2.36,1.84,1.84,0,0,0,.65.48,3.61,3.61,0,0,0,3.14-.13,5.79,5.79,0,0,0,2.28-2.27,5.23,5.23,0,0,0,.79-2.59,3,3,0,0,0-1.1-2.4C363,147.48,360.35,152.07,359.67,154Z" style="fill:#455a64"></path><path d="M305.32,148.12c-4,7.36-4.23,13.94-1.36,18.63s8.83,7.48,17.21,7.26c16.76-.43,36.84-12.71,44.84-27.44,4-7.37,4.24-13.95,1.37-18.63s-8.83-7.48-17.21-7.26C333.41,121.1,313.33,133.39,305.32,148.12Z" style="fill:#263238"></path><path d="M362.63,110.12c-3.27-5.35-10.08-8.54-19.64-8.29-19.13.49-42.05,14.51-51.19,31.32-4.57,8.4-4.83,15.91-1.55,21.26a33.57,33.57,0,0,0,8.94,9.67c5.08,3.67,13.4,6.48,22.92,5.59,16.55-1.56,32.51-12.14,39.91-24.42,4.94-8.2,5.54-13.88,5.06-20.13A34.69,34.69,0,0,0,362.63,110.12Z" style="fill:#37474f"></path><path d="M355.4,140.17a2.46,2.46,0,0,0,.09,2.36,1.9,1.9,0,0,0,.65.48,3.63,3.63,0,0,0,3.15-.13,5.7,5.7,0,0,0,2.27-2.27,5.23,5.23,0,0,0,.79-2.59,3,3,0,0,0-1.1-2.4C358.7,133.68,356.09,138.28,355.4,140.17Z" style="fill:#455a64"></path><path d="M291.8,133.15c-4.57,8.4-4.83,15.91-1.55,21.26s10.07,8.53,19.64,8.29c19.13-.49,42-14.51,51.18-31.32,4.58-8.41,4.84-15.92,1.56-21.27s-10.08-8.53-19.64-8.28C323.86,102.32,300.94,116.34,291.8,133.15Z" style="fill:#263238"></path><path d="M351.75,92.68c-4.15-4.66-9.13-7.18-18.65-6.94-19,.49-41.86,14.45-51,31.19-4.55,8.36-4.83,13.78-2.41,19.53,1.49,3.54,4.59,10.2,7,13.16,4,4.83,11.09,8.75,20.61,8.51,19-.49,41.86-14.45,51-31.19,4.55-8.36,4.36-16.53,1.81-22.22C358.41,100.92,354,95.27,351.75,92.68Z" style="fill:#37474f"></path><path d="M282.14,116.93c-4.55,8.36-4.81,15.84-1.55,21.16s10,8.5,19.56,8.26c19-.49,41.85-14.45,51-31.19,4.55-8.36,4.81-15.84,1.56-21.16s-10-8.5-19.56-8.26C314.06,86.23,291.24,100.19,282.14,116.93Z" style="fill:#263238"></path><path d="M338.7,85.82c-2.66-4.35-8.21-6.95-16-6.75-15.57.4-34.24,11.82-41.68,25.51-3.73,6.85-3.94,13-1.27,17.32l5.83,9.53c2.66,4.35,8.21,6.95,16,6.75,15.58-.4,34.24-11.82,41.68-25.51,3.73-6.85,3.94-13,1.27-17.32Z" style="fill:#263238"></path><path d="M329.78,79.78a26,26,0,0,0-7.08-.71c-15.57.4-34.24,11.82-41.68,25.51a31.69,31.69,0,0,0-2.58,6.57c-1.64,5.71-1.44,13.8-1.07,16.56a14.58,14.58,0,0,0,2,5.65c3.16,5.15,9.71,8.22,18.93,8,18.43-.47,40.51-14,49.32-30.18,4.4-8.1,4.65-15.33,1.5-20.48a14.65,14.65,0,0,0-5.42-5.13C341.62,84.38,334.12,80.38,329.78,79.78Z" style="fill:#37474f"></path><path d="M281,104.58c-3.73,6.85-3.94,13-1.27,17.32s8.21,6.95,16,6.75c15.57-.4,34.24-11.82,41.68-25.51,3.73-6.85,3.94-13,1.27-17.32s-8.21-6.95-16-6.75C307.13,79.47,288.46,90.89,281,104.58Z" style="fill:#455a64"></path><path d="M298.85,115.17c-3.33,0-5.78-1-7-3-1.38-2.26-.94-5.43,1.24-8.91,4.39-7,14.67-13.31,22.91-14,4.1-.36,7.12.69,8.5,3s.94,5.43-1.24,8.92c-4.39,7-14.66,13.3-22.91,14C299.84,115.15,299.33,115.17,298.85,115.17Zm18.68-25.25c-.46,0-.95,0-1.45.07-8,.69-18.05,6.82-22.33,13.66-2,3.22-2.45,6.1-1.23,8.1s4,2.92,7.77,2.59c8-.7,18-6.83,22.33-13.66,2-3.23,2.45-6.11,1.23-8.1C322.79,90.84,320.57,89.92,317.53,89.92Z" style="fill:#37474f"></path><path d="M363.28,108.62c1.55-10.57-6-20.29-11.37-21.34-7.2-9.4-18.24-14.31-36.51-11.43a53.49,53.49,0,0,0-39.32,28c-9.06,17.59-.58,30.89-.58,30.89s-2.08,13.7,9.4,19.79c.6,11.18,9.28,13.25,8.46,22-.35,3.81-3.76,10.19-3.08,14.38.55,3.35,2.78,6.17,7,6.17,4.94,0,6.46-3.62,6.9-5.77,1.1-5.42-2.29-10.64-1.53-14.61.88-4.67,16.65-4.8,23.8-10.38a23,23,0,0,0,8.35-13.26S367.22,136.79,363.28,108.62Z" style="fill:#BA68C8;opacity:0.4"></path><path d="M354.66,136.8c5.81-7.23,10.22-16.72,8.62-28.18,1.55-10.57-6-20.29-11.37-21.34-7.2-9.4-18.24-14.31-36.51-11.43a55.18,55.18,0,0,0-10.71,2.84,32.15,32.15,0,0,1,3.8.1c6.53.62,13.1,3.79,16.47,9.43S328,101,327.59,107.63c3-2.18,6.45-4.21,10.19-4.28a10.53,10.53,0,0,1,9.58,15.32c3-2.16,7.56,0,9,3.38s.7,7.3-.5,10.79A37.86,37.86,0,0,0,354.66,136.8Z" style="fill:#fff;opacity:0.1"></path><path d="M297.27,197.61c-4,0-6.81-2.46-7.48-6.59-.43-2.65.64-6,1.68-9.17a27.49,27.49,0,0,0,1.39-5.34c.39-4.15-1.43-6.71-3.54-9.67s-4.53-6.37-4.9-12c-10.67-5.85-9.63-18.32-9.44-20-.92-1.58-7.9-14.61.66-31.22a54.06,54.06,0,0,1,39.68-28.28c16.79-2.64,28.85,1.11,36.87,11.48,5.7,1.29,13.13,11.06,11.6,21.8,3.7,26.9-25.67,43.25-28.55,44.78a23.49,23.49,0,0,1-8.49,13.33c-3.49,2.73-8.94,4.17-13.75,5.44s-9.47,2.51-9.87,4.64c-.33,1.71.19,3.75.73,5.92.67,2.64,1.42,5.65.8,8.7C304.28,193.29,302.8,197.61,297.27,197.61Zm27.8-122.07a62.29,62.29,0,0,0-9.59.8,53.06,53.06,0,0,0-39,27.75c-8.84,17.14-.69,30.26-.61,30.39l.1.16,0,.18c0,.14-1.88,13.43,9.14,19.27l.25.14,0,.28c.29,5.51,2.55,8.68,4.74,11.75s4.14,5.82,3.72,10.35a28.63,28.63,0,0,1-1.44,5.54c-.95,2.95-2,6.3-1.64,8.71.58,3.6,3,5.75,6.49,5.75,4.62,0,6-3.36,6.41-5.37.58-2.83-.12-5.59-.79-8.26-.57-2.27-1.11-4.42-.74-6.34.52-2.75,5.19-4,10.59-5.42,4.72-1.25,10.06-2.66,13.39-5.27A22.68,22.68,0,0,0,334.3,153l0-.26.23-.11c.32-.16,32.06-16.47,28.22-43.95v-.14c1.47-10-5.59-19.73-11-20.78l-.18,0-.12-.15C345.34,79.52,336.64,75.54,325.07,75.54Z" style="fill:#BA68C8"></path><path d="M290.11,163.17a7.34,7.34,0,0,0,1.2,2,26.13,26.13,0,0,1,2.9,4,14.78,14.78,0,0,1,1.05,12c-.5,1.64-1.21,3.21-1.68,4.85a9.09,9.09,0,0,0-.17,5.06,4.07,4.07,0,0,0,2.64,2.55,4.27,4.27,0,0,0,5.53-3.78c.42-2.78-.47-5.51-1.12-8.18-.57-2.38-1.22-5.33.67-7.34a26,26,0,0,1,2.81-1.94c1.09-.89.65-1.67-.08-2.71l-1.21-1.7a5.76,5.76,0,0,0-1.31-1.47,7.84,7.84,0,0,0-1.8-.78,15.76,15.76,0,0,1-5.33-3.33,22.76,22.76,0,0,1-2.18-2.32c-.43-.53-.91-2.06-1.84-1.75a1.1,1.1,0,0,0-.58.94A7.23,7.23,0,0,0,290.11,163.17Z" style="fill:#BA68C8;opacity:0.6000000000000001"></path><path d="M303.31,166.05c-.1-.75-2.35-1.64-2.78-1.88a33,33,0,0,1-4.27-2.84,16.91,16.91,0,0,1-5.33-7.4c-.56-1.46-.81-3-1.86-4.21-1.39-1.6-3.13-2.85-4.46-4.5a17.38,17.38,0,0,1-3-5.65,16.19,16.19,0,0,0-.83-2.43c-.1-.22-.27-.47-.52-.47s-.47.4-.52.71a13.77,13.77,0,0,0,1.26,8c1.32,2.74,3.44,4.23,5.57,6.24,1.71,1.61,1.93,4.17,3,6.14a21.17,21.17,0,0,0,4.89,6.15,12.33,12.33,0,0,0,4.09,2.22c.94.29,3.72,1,4.58.32A.41.41,0,0,0,303.31,166.05Z" style="fill:#fff"></path><path d="M331.41,103.56a63.41,63.41,0,0,1-17.17,16.33,43,43,0,0,0-6.89,4.87c-.58.55-1.15,1.39-.74,2.08a1.66,1.66,0,0,0,1,.67c4,1.42,8.53-.2,12.47-1.77a42.43,42.43,0,0,0,13.47-8.86c4-3.82,8.2-8.81,8.21-14.57,0-2.41-1-4.41-3.61-4.19C335,98.4,333.11,101.18,331.41,103.56Z" style="fill:#fff;opacity:0.1"></path><path d="M345.59,119.09a70.87,70.87,0,0,1-20.07,17.34c-2.72,1.57-5.57,3-7.94,5-.68.59-1.36,1.5-1,2.31a1.94,1.94,0,0,0,1.05.83c4.32,1.86,9.43.34,13.89-1.19A46.79,46.79,0,0,0,347,134.31c4.7-4.05,9.65-9.43,10-15.94.18-2.73-.82-5.07-3.7-5C349.85,113.49,347.63,116.52,345.59,119.09Z" style="fill:#fff;opacity:0.1"></path><path d="M328.84,108.38a2.45,2.45,0,0,0,.1,2.37,1.81,1.81,0,0,0,.65.47,3.61,3.61,0,0,0,3.14-.13,5.7,5.7,0,0,0,2.27-2.27,5.11,5.11,0,0,0,.79-2.59,3,3,0,0,0-1.09-2.4C332.14,101.89,329.53,106.49,328.84,108.38Z" style="fill:#fff"></path><path d="M344,123.52a2.45,2.45,0,0,0,.09,2.37,1.84,1.84,0,0,0,.65.48,3.61,3.61,0,0,0,3.14-.14,5.72,5.72,0,0,0,2.28-2.27,5.2,5.2,0,0,0,.79-2.58,3,3,0,0,0-1.1-2.41C347.28,117,344.67,121.63,344,123.52Z" style="fill:#fff"></path><path d="M298.1,185.92a3,3,0,0,0,1.14,2.23,1.89,1.89,0,0,0,2.38-.1,2.64,2.64,0,0,0,.54-1,3.5,3.5,0,0,0,.28-1.31C302.38,182.48,297.83,182.48,298.1,185.92Z" style="fill:#fff"></path></g></g><g id="freepik--Bees--inject-182"><g id="freepik--Bee--inject-182"><path d="M194.63,62.38h0l0,.15C193.25,69.5,197,75,203.22,75l8.41.07-2.46-8c-1.81-5.93-8.11-8-14.41-4.72l-.13.07Z" style="fill:#BA68C8"></path><path d="M194.79,68.63a12.75,12.75,0,0,1-.18-6.09v-.16l.15-.06a12.74,12.74,0,0,1,5.86-1.56,7.8,7.8,0,0,0-5.84,7.87Z"></path><path d="M206.53,75a7.73,7.73,0,0,0,3.62-4.85l1.49,4.9Z"></path><path d="M211.63,75.07l-2.46-8c0-.12-.08-.22-.12-.34A6.37,6.37,0,0,0,202.86,75l.36,0Z"></path><path d="M206.05,76.42c-1.69-1.26-1.88-3.87-.42-5.83s4-2.52,5.71-1.26a4.16,4.16,0,0,1,.42,5.83C210.29,77.12,207.74,77.69,206.05,76.42Z" style="fill:#BA68C8"></path><path d="M196.28,71.61a8.22,8.22,0,0,0,2.8,2.41,10.67,10.67,0,0,1,8-10.67,8.23,8.23,0,0,0-3.09-2,13.32,13.32,0,0,0-7.69,10.27Z"></path><path d="M210.7,80.43a4.85,4.85,0,1,1,6.79-1A4.86,4.86,0,0,1,210.7,80.43Z"></path><path d="M214.29,71.76c1-4.17,1.57-8.53.59-12.52a8.53,8.53,0,0,0-3-4.85,6.58,6.58,0,0,0-2.57-1,9.6,9.6,0,0,0-1.42-.12,6.89,6.89,0,0,0-1.31.23A5.53,5.53,0,0,0,203,57.35a11.19,11.19,0,0,0-.07,5.89c.95,4,3.63,7.5,6.79,10.4-3.6-2.29-6.93-5.6-8.27-10a12.22,12.22,0,0,1-.24-6.84A7.4,7.4,0,0,1,206,51.57a8.9,8.9,0,0,1,1.86-.29,11.93,11.93,0,0,1,1.78.18A8.1,8.1,0,0,1,213,52.89a9.78,9.78,0,0,1,3.42,6C217.18,63.43,216,67.82,214.29,71.76Z" style="fill:#e0e0e0"></path><path d="M209.22,78.56c-3.3,2.73-7.17,5.14-11.73,5.66a9.77,9.77,0,0,1-6.74-1.56,8,8,0,0,1-2.32-2.79,10.91,10.91,0,0,1-.68-1.66,9,9,0,0,1-.25-1.86,7.37,7.37,0,0,1,3.66-6.07,12.18,12.18,0,0,1,6.62-1.72c4.59,0,8.72,2.28,11.94,5.08-3.69-2.19-7.81-3.77-11.91-3.55a11.18,11.18,0,0,0-5.62,1.75,5.52,5.52,0,0,0-2.72,4.51,6.78,6.78,0,0,0,.15,1.33,11.68,11.68,0,0,0,.52,1.32,6.68,6.68,0,0,0,1.73,2.17,8.51,8.51,0,0,0,5.51,1.52C201.48,82.49,205.49,80.68,209.22,78.56Z" style="fill:#e0e0e0"></path><path d="M222.66,78.27h-.12l-5.46-1.32a.49.49,0,0,1-.36-.59.49.49,0,0,1,.59-.37l5.47,1.32a.5.5,0,0,1,.36.6A.49.49,0,0,1,222.66,78.27Z"></path><path d="M217.37,85.36a.49.49,0,0,1-.43-.24l-2.82-4.86a.5.5,0,0,1,.86-.5l2.82,4.86a.51.51,0,0,1-.18.68A.57.57,0,0,1,217.37,85.36Z"></path></g><g id="freepik--bee--inject-182"><path d="M452.26,161.87h0l.05-.13c2-6.49-1-12.09-6.86-12.82l-8-1,1.47,7.92c1.08,5.85,6.86,8.49,13.21,6l.13,0Z" style="fill:#BA68C8"></path><path d="M452.79,155.91a12.24,12.24,0,0,1-.49,5.82l0,.14-.15,0a12.25,12.25,0,0,1-5.74.85,7.5,7.5,0,0,0,6.41-6.86Z"></path><path d="M442.3,148.54a7.51,7.51,0,0,0-2.41,1.7,7.74,7.74,0,0,0-1.56,2.52l-.88-4.82Z"></path><path d="M437.45,148l1.47,7.92c0,.12.05.22.08.34a6.1,6.1,0,0,0,6.79-7.23c-.12,0-.22,0-.34-.06Z"></path><path d="M442.91,147.27a4.28,4.28,0,1,1-5.57.58A4,4,0,0,1,442.91,147.27Z" style="fill:#BA68C8"></path><path d="M451.69,152.9a7.82,7.82,0,0,0-2.4-2.59,10.25,10.25,0,0,1-8.75,9.3,7.78,7.78,0,0,0,2.72,2.24,12.71,12.71,0,0,0,8.43-8.95Z"></path><path d="M438.91,143a4.64,4.64,0,1,1-6.57.2A4.66,4.66,0,0,1,438.91,143Z"></path><path d="M434.56,150.81c-1.37,3.87-2.42,8-1.92,11.86a8.16,8.16,0,0,0,2.35,5,6.26,6.26,0,0,0,2.34,1.26,8.37,8.37,0,0,0,1.34.27,6,6,0,0,0,1.27-.07,5.32,5.32,0,0,0,3.81-3.32,10.68,10.68,0,0,0,.7-5.6c-.47-3.91-2.65-7.53-5.33-10.64,3.18,2.57,6,6.08,6.79,10.41a11.61,11.61,0,0,1-.52,6.53,7,7,0,0,1-5.11,4.47,7.82,7.82,0,0,1-1.81.08,10.94,10.94,0,0,1-1.68-.36,7.77,7.77,0,0,1-3-1.73,9.34,9.34,0,0,1-2.6-6.1C430.9,158.43,432.54,154.38,434.56,150.81Z" style="fill:#e0e0e0"></path><path d="M440.13,144.89c3.44-2.24,7.38-4.12,11.78-4.12a9.36,9.36,0,0,1,6.25,2.22,7.66,7.66,0,0,1,1.9,2.9,10.49,10.49,0,0,1,.47,1.66,8.32,8.32,0,0,1,0,1.8,7.07,7.07,0,0,1-4.15,5.38,11.69,11.69,0,0,1-6.49.92c-4.37-.53-8.05-3.12-10.81-6.13,3.27,2.49,7,4.43,10.95,4.67a10.75,10.75,0,0,0,5.55-1.06,5.27,5.27,0,0,0,3.07-4,6.08,6.08,0,0,0,0-1.28,9.86,9.86,0,0,0-.35-1.32,6.44,6.44,0,0,0-1.41-2.25,8.16,8.16,0,0,0-5.08-2C447.92,142,443.91,143.28,440.13,144.89Z" style="fill:#e0e0e0"></path><path d="M432.3,146.49a.45.45,0,0,1-.16,0l-5.06-1.85a.47.47,0,0,1,.32-.88l5.06,1.85a.46.46,0,0,1,.28.6A.47.47,0,0,1,432.3,146.49Z"></path><path d="M435.21,143.4a.49.49,0,0,1-.44-.28l-2.15-4.94a.46.46,0,0,1,.24-.62.47.47,0,0,1,.62.24l2.16,4.94a.48.48,0,0,1-.24.62A.46.46,0,0,1,435.21,143.4Z"></path></g><g id="freepik--bee--inject-182"><path d="M52.67,126.45h0l.13.06c6.15,3,12.13.77,13.68-5l2.1-7.8-8.07.33c-5.95.25-9.39,5.61-7.87,12.25l0,.14Z" style="fill:#BA68C8"></path><path d="M58.51,127.82a12.2,12.2,0,0,1-5.7-1.31l-.14-.05,0-.15a12.18,12.18,0,0,1,0-5.82,7.49,7.49,0,0,0,5.89,7.33Z"></path><path d="M67.31,118.46a7.48,7.48,0,0,0-3.63-4.54l4.91-.19Z"></path><path d="M68.58,113.73l-8.07.33-.34,0a6.1,6.1,0,0,0,6.2,7.75c0-.11.08-.21.11-.32Z"></path><path d="M68.48,119.25a4.29,4.29,0,0,1-5.3-6.64,4.29,4.29,0,0,1,5.3,6.64Z" style="fill:#BA68C8"></path><path d="M61.65,127.16a8.08,8.08,0,0,0,2.91-2,10.26,10.26,0,0,1-8-10A7.94,7.94,0,0,0,54,117.52a12.77,12.77,0,0,0,7.68,9.64Z"></path><path d="M73.34,115.89a4.66,4.66,0,1,1,.72-6.55A4.66,4.66,0,0,1,73.34,115.89Z"></path><path d="M66.15,110.46c-3.64-1.91-7.55-3.53-11.49-3.58a8.11,8.11,0,0,0-5.24,1.63,6.3,6.3,0,0,0-1.59,2.13,11.1,11.1,0,0,0-.46,1.3,6.8,6.8,0,0,0-.1,1.27A5.28,5.28,0,0,0,50,117.45a10.7,10.7,0,0,0,5.46,1.5c3.94.08,7.84-1.56,11.31-3.79-3,2.79-6.89,5.08-11.29,5.27A11.74,11.74,0,0,1,49.09,119a7,7,0,0,1-3.71-5.7,8.33,8.33,0,0,1,.18-1.8,10.91,10.91,0,0,1,.6-1.62,7.88,7.88,0,0,1,2.13-2.74,9.37,9.37,0,0,1,6.42-1.71C59.11,105.75,62.9,108,66.15,110.46Z" style="fill:#e0e0e0"></path><path d="M71.24,116.82c1.73,3.73,3,7.91,2.41,12.27A9.34,9.34,0,0,1,70.57,135a7.74,7.74,0,0,1-3.15,1.48,11,11,0,0,1-1.71.23,7.69,7.69,0,0,1-1.79-.22,7,7,0,0,1-4.75-4.87,11.65,11.65,0,0,1,0-6.57c1.15-4.26,4.24-7.54,7.62-9.86-2.93,2.89-5.4,6.34-6.18,10.21a10.79,10.79,0,0,0,.25,5.65,5.3,5.3,0,0,0,3.54,3.61,5.89,5.89,0,0,0,1.27.18,8.86,8.86,0,0,0,1.36-.16,6.2,6.2,0,0,0,2.43-1.08,8.1,8.1,0,0,0,2.74-4.75C73,125,72.3,120.8,71.24,116.82Z" style="fill:#e0e0e0"></path><path d="M71.22,109.37a.46.46,0,0,1-.22-.06.48.48,0,0,1-.2-.64l2.55-4.75a.48.48,0,0,1,.65-.2.48.48,0,0,1,.19.64l-2.55,4.76A.48.48,0,0,1,71.22,109.37Z"></path><path d="M73.88,112.69a.48.48,0,0,1-.46-.35.47.47,0,0,1,.33-.58l5.2-1.44a.47.47,0,0,1,.58.33.47.47,0,0,1-.33.58L74,112.67Z"></path></g><g id="freepik--bee--inject-182"><path d="M92,53h0l0-.08c1-3.78-.83-6.93-4.24-7.21l-4.62-.38,1,4.52c.76,3.34,4.14,4.73,7.74,3.18L92,53Z" style="fill:#f0f0f0"></path><path d="M92.15,49.52A7,7,0,0,1,92,52.87V53l-.09,0a6.93,6.93,0,0,1-3.28.61,4.21,4.21,0,0,0,2.48-1.41A4.27,4.27,0,0,0,92.15,49.52Z" style="fill:#e0e0e0"></path><path d="M86,45.52a4.15,4.15,0,0,0-1.34,1A4.36,4.36,0,0,0,83.76,48l-.61-2.75Z"></path><path d="M83.15,45.29l1,4.52.06.19a3.48,3.48,0,0,0,3-1.19A3.55,3.55,0,0,0,88,45.69l-.2,0Z" style="fill:#e0e0e0"></path><path d="M86.27,44.77a2.46,2.46,0,1,1-3.19.46A2.29,2.29,0,0,1,86.27,44.77Z" style="fill:#f0f0f0"></path><path d="M91.45,47.81A4.47,4.47,0,0,0,90,46.38a5.89,5.89,0,0,1-4.82,5.54,4.56,4.56,0,0,0,1.62,1.23,7.34,7.34,0,0,0,4.64-5.34Z" style="fill:#e0e0e0"></path><path d="M83.87,42.38a2.67,2.67,0,1,1-3.77.27A2.67,2.67,0,0,1,83.87,42.38Z" style="fill:#e0e0e0"></path><path d="M81.55,47a15.13,15.13,0,0,0-.84,6.87,4.81,4.81,0,0,0,1.47,2.78,3.58,3.58,0,0,0,2.88.73,3.06,3.06,0,0,0,2.12-2,6.32,6.32,0,0,0,.28-3.24,11.87,11.87,0,0,0-3.32-6A10.39,10.39,0,0,1,88.28,52a6.64,6.64,0,0,1-.14,3.77,4.07,4.07,0,0,1-2.84,2.69,4.52,4.52,0,0,1-3.78-1A5.31,5.31,0,0,1,79.89,54,12.61,12.61,0,0,1,81.55,47Z" style="fill:#e0e0e0"></path><path d="M84.62,43.47a12.49,12.49,0,0,1,6.68-2.63A5.29,5.29,0,0,1,94.94,42a4.58,4.58,0,0,1,1.53,3.61,4,4,0,0,1-2.26,3.18,6.61,6.61,0,0,1-3.71.68,10.41,10.41,0,0,1-6.36-3.28,11.83,11.83,0,0,0,6.41,2.44,6.17,6.17,0,0,0,3.16-.74,3,3,0,0,0,1.68-2.37,3.62,3.62,0,0,0-1.13-2.75,4.79,4.79,0,0,0-3-1.06A15.14,15.14,0,0,0,84.62,43.47Z" style="fill:#e0e0e0"></path><path d="M80.42,44.31a.19.19,0,0,1,0,.07.27.27,0,0,1-.34.18l-3-1a.28.28,0,0,1-.18-.34.27.27,0,0,1,.34-.18l3,.95A.29.29,0,0,1,80.42,44.31Z" style="fill:#e0e0e0"></path><path d="M82,42.46a.27.27,0,0,1-.51.11l-1.36-2.78a.28.28,0,0,1,.13-.37.27.27,0,0,1,.36.13L82,42.34A.17.17,0,0,1,82,42.46Z" style="fill:#e0e0e0"></path></g><g id="freepik--bee--inject-182"><path d="M42.54,244.71h0l0-.1c-1.28-4.73,1-8.68,5.31-9l5.79-.47-1.29,5.66c-1,4.18-5.18,5.92-9.69,4l-.09,0Z" style="fill:#f0f0f0"></path><path d="M42.33,240.4a8.83,8.83,0,0,0,.18,4.21l0,.1.11,0a8.77,8.77,0,0,0,4.11.78,5.35,5.35,0,0,1-3.11-1.78A5.42,5.42,0,0,1,42.33,240.4Z" style="fill:#e0e0e0"></path><path d="M50.1,235.4a5.33,5.33,0,0,1,1.68,1.29,5.67,5.67,0,0,1,1.06,1.86l.77-3.45Z"></path><path d="M53.61,235.11l-1.29,5.66a1.68,1.68,0,0,1-.07.24,4.39,4.39,0,0,1-4.68-5.39l.25,0Z" style="fill:#e0e0e0"></path><path d="M49.69,234.46a3.09,3.09,0,1,0,4,.58A2.88,2.88,0,0,0,49.69,234.46Z" style="fill:#f0f0f0"></path><path d="M43.21,238.27a5.63,5.63,0,0,1,1.8-1.8,7.4,7.4,0,0,0,6,6.95A5.71,5.71,0,0,1,49,245a9.29,9.29,0,0,1-3.77-2.61A9.1,9.1,0,0,1,43.21,238.27Z" style="fill:#e0e0e0"></path><path d="M52.7,231.46a3.35,3.35,0,1,0,4.72.34A3.36,3.36,0,0,0,52.7,231.46Z" style="fill:#e0e0e0"></path><path d="M55.61,237.25c.86,2.83,1.54,5.8,1,8.6a6,6,0,0,1-1.85,3.5,4.51,4.51,0,0,1-3.6.91,3.83,3.83,0,0,1-2.65-2.5,7.93,7.93,0,0,1-.36-4.06,14.91,14.91,0,0,1,4.16-7.51,13,13,0,0,0-5.18,7.31,8.27,8.27,0,0,0,.18,4.72,5.07,5.07,0,0,0,3.55,3.36,5.69,5.69,0,0,0,4.74-1.26,6.67,6.67,0,0,0,2-4.32A15.78,15.78,0,0,0,55.61,237.25Z" style="fill:#e0e0e0"></path><path d="M51.77,232.83a15.79,15.79,0,0,0-8.37-3.3,6.74,6.74,0,0,0-4.57,1.41,5.72,5.72,0,0,0-1.91,4.51,5.09,5.09,0,0,0,2.83,4,8.32,8.32,0,0,0,4.65.84,13,13,0,0,0,8-4.1,14.94,14.94,0,0,1-8,3.06,7.86,7.86,0,0,1-4-.93,3.81,3.81,0,0,1-2.1-3,4.5,4.5,0,0,1,1.41-3.44,5.9,5.9,0,0,1,3.72-1.33C46.24,230.49,49.09,231.58,51.77,232.83Z" style="fill:#e0e0e0"></path><path d="M57,233.88a.29.29,0,0,0,0,.09.33.33,0,0,0,.42.22l3.7-1.19a.34.34,0,0,0-.2-.64l-3.7,1.19A.33.33,0,0,0,57,233.88Z" style="fill:#e0e0e0"></path><path d="M55,231.57a.31.31,0,0,0,.19.29.32.32,0,0,0,.45-.15l1.7-3.49a.34.34,0,0,0-.16-.46.34.34,0,0,0-.45.16l-1.7,3.49A.41.41,0,0,0,55,231.57Z" style="fill:#e0e0e0"></path></g><g id="freepik--bee--inject-182"><path d="M428.86,60.86h0l0-.08c-1-3.78.83-6.93,4.24-7.21l4.62-.38-1,4.52c-.75,3.34-4.14,4.73-7.73,3.18l-.08,0h0Z" style="fill:#f0f0f0"></path><path d="M428.7,57.42a7,7,0,0,0,.14,3.35l0,.09.08,0a7,7,0,0,0,3.29.61,4.21,4.21,0,0,1-2.48-1.41A4.27,4.27,0,0,1,428.7,57.42Z" style="fill:#e0e0e0"></path><path d="M434.9,53.42a4.26,4.26,0,0,1,2.18,2.52l.62-2.76Z"></path><path d="M437.7,53.19l-1,4.52a1.05,1.05,0,0,1-.05.19,3.5,3.5,0,0,1-3.74-4.31l.2,0Z" style="fill:#e0e0e0"></path><path d="M434.57,52.67a2.47,2.47,0,1,0,3.19.46A2.3,2.3,0,0,0,434.57,52.67Z" style="fill:#f0f0f0"></path><path d="M429.4,55.71a4.47,4.47,0,0,1,1.44-1.43,5.87,5.87,0,0,0,4.82,5.54A4.56,4.56,0,0,1,434,61.05a7.34,7.34,0,0,1-4.64-5.34Z" style="fill:#e0e0e0"></path><path d="M437,50.28a2.68,2.68,0,1,0,3.78.27A2.68,2.68,0,0,0,437,50.28Z" style="fill:#e0e0e0"></path><path d="M439.3,54.9a15.23,15.23,0,0,1,.83,6.86,4.69,4.69,0,0,1-1.47,2.79,3.56,3.56,0,0,1-2.88.73,3,3,0,0,1-2.11-2,6.18,6.18,0,0,1-.28-3.23,11.81,11.81,0,0,1,3.31-6,10.37,10.37,0,0,0-4.13,5.83,6.56,6.56,0,0,0,.14,3.77,4.07,4.07,0,0,0,2.84,2.69,4.52,4.52,0,0,0,3.78-1A5.36,5.36,0,0,0,441,61.88,12.61,12.61,0,0,0,439.3,54.9Z" style="fill:#e0e0e0"></path><path d="M436.23,51.37a12.52,12.52,0,0,0-6.68-2.63,5.29,5.29,0,0,0-3.64,1.12,4.52,4.52,0,0,0-1.53,3.6,4.05,4.05,0,0,0,2.26,3.19,6.7,6.7,0,0,0,3.71.68,10.38,10.38,0,0,0,6.35-3.28,11.9,11.9,0,0,1-6.4,2.44,6.25,6.25,0,0,1-3.16-.74,3,3,0,0,1-1.68-2.37,3.59,3.59,0,0,1,1.12-2.75,4.84,4.84,0,0,1,3-1.06A15.15,15.15,0,0,1,436.23,51.37Z" style="fill:#e0e0e0"></path><path d="M440.43,52.21a.19.19,0,0,0,0,.07.27.27,0,0,0,.34.18l2.95-1a.27.27,0,0,0-.17-.52l-2.95.95A.28.28,0,0,0,440.43,52.21Z" style="fill:#e0e0e0"></path><path d="M438.83,50.36a.27.27,0,0,0,.16.24.27.27,0,0,0,.36-.13l1.35-2.78a.28.28,0,0,0-.12-.37.28.28,0,0,0-.37.13l-1.35,2.78A.35.35,0,0,0,438.83,50.36Z" style="fill:#e0e0e0"></path></g></g></svg>
