<svg xmlns="http://www.w3.org/2000/svg" viewBox="0 0 500 500"><g id="freepik--background-complete--inject-16"><path d="M319.74,248.09,196,246.93l-37.51-.18-10.2,0-2.65,0a6.38,6.38,0,0,0-.91.05,5.27,5.27,0,0,0,.9.06l2.66.06,10.19.12,37.51.2,123.78.08c48.31,0,92.06.05,123.73.28,15.84.11,28.65.26,37.51.43,4.43.08,7.87.17,10.2.25a20.09,20.09,0,0,1,3.55.26,17.87,17.87,0,0,1-3.56.23c-2.33.07-5.77.12-10.2.16-8.85.07-21.67.09-37.51,0C411.79,249,368.05,248.57,319.74,248.09Z" style="fill:#f5f5f5"></path><path d="M318.78,258.69,196.69,238.84l-37-5.84-10.08-1.51-2.63-.36a5.06,5.06,0,0,0-.9-.09,6,6,0,0,0,.88.19l2.61.47,10.06,1.66,37,5.87L318.89,258c47.73,7.28,90.94,13.95,122.19,18.95,15.62,2.5,28.26,4.59,37,6.09,4.36.75,7.74,1.36,10,1.8a18.37,18.37,0,0,1,3.47.8,20.37,20.37,0,0,1-3.55-.31c-2.32-.29-5.72-.76-10.1-1.39-8.77-1.26-21.43-3.17-37.06-5.61C409.57,273.45,366.42,266.47,318.78,258.69Z" style="fill:#f5f5f5"></path><path d="M316.12,269,198.77,230.72l-35.61-11.43-9.71-3-2.54-.76a5.81,5.81,0,0,0-.87-.22,5,5,0,0,0,.84.33l2.5.85,9.66,3.19,35.61,11.46,117.7,37.23c45.95,14.5,87.54,27.69,117.58,37.42,15,4.86,27.17,8.85,35.54,11.67,4.18,1.41,7.43,2.53,9.61,3.31a17.83,17.83,0,0,1,3.3,1.33,18.8,18.8,0,0,1-3.46-.85c-2.24-.64-5.53-1.62-9.75-2.91-8.45-2.58-20.65-6.41-35.69-11.21C403.39,297.49,361.9,284,316.12,269Z" style="fill:#f5f5f5"></path><path d="M311.82,278.79,202.14,223,168.81,206.3l-9.09-4.48-2.38-1.14a4.49,4.49,0,0,0-.83-.36,4.57,4.57,0,0,0,.78.45l2.33,1.23,9,4.62L202,223.38l110.2,54.78c43,21.35,82,40.74,110.06,54.94,14.05,7.1,25.4,12.89,33.21,17,3.9,2,6.92,3.63,9,4.74a19.82,19.82,0,0,1,3,1.8,17.62,17.62,0,0,1-3.27-1.37c-2.11-1-5.2-2.44-9.16-4.36-7.93-3.85-19.35-9.5-33.43-16.54C393.4,320.25,354.61,300.58,311.82,278.79Z" style="fill:#f5f5f5"></path><path d="M306,287.79l-99.37-71.73-30.22-21.59-8.27-5.81L166,187.17a6.58,6.58,0,0,0-.76-.48,4.66,4.66,0,0,0,.69.57l2.11,1.56,8.17,5.94,30.2,21.61,100,70.85c39.07,27.62,74.4,52.69,99.87,71,12.74,9.15,23,16.6,30.07,21.8,3.53,2.6,6.26,4.63,8.09,6a17.12,17.12,0,0,1,2.71,2.25,19.59,19.59,0,0,1-3-1.85c-1.93-1.28-4.74-3.21-8.35-5.71-7.2-5-17.58-12.32-30.35-21.41C379.9,341.14,344.76,315.81,306,287.79Z" style="fill:#f5f5f5"></path><path d="M298.81,295.8l-86.69-85.88L185.72,184l-7.23-7-1.9-1.79a6.69,6.69,0,0,0-.67-.59,4.14,4.14,0,0,0,.59.66l1.83,1.87,7.12,7.1,26.38,25.91,87.48,85.11c34.17,33.19,65.07,63.29,87.3,85.22,11.12,11,20.07,19.87,26.21,26.07,3.08,3.1,5.44,5.53,7,7.19a19,19,0,0,1,2.32,2.63,17.74,17.74,0,0,1-2.68-2.28c-1.7-1.56-4.17-3.88-7.33-6.9-6.32-6-15.4-14.82-26.56-25.74C363.27,359.67,332.61,329.34,298.81,295.8Z" style="fill:#f5f5f5"></path><path d="M290.42,302.62l-71.88-97.93L196.6,175.11l-6-8L189,165.05a5.23,5.23,0,0,0-.58-.68,6.62,6.62,0,0,0,.49.75l1.51,2.12,5.89,8.08,21.91,29.59,72.8,97.3c28.45,38,54.15,72.36,72.6,97.38,9.23,12.5,16.65,22.66,21.72,29.71,2.54,3.53,4.49,6.29,5.79,8.17a17.49,17.49,0,0,1,1.87,2.95,18.15,18.15,0,0,1-2.28-2.66c-1.43-1.79-3.5-4.47-6.14-7.92-5.28-6.92-12.84-17-22.12-29.44C343.88,375.46,318.45,340.87,290.42,302.62Z" style="fill:#f5f5f5"></path><path d="M281,308.09,225.8,200.44l-16.91-32.55-4.66-8.81L203,156.8a5.21,5.21,0,0,0-.46-.76,7.53,7.53,0,0,0,.36.81l1.15,2.32,4.52,8.89,16.88,32.55,56.25,107.16c22,41.81,41.84,79.7,56,107.21,7.11,13.76,12.8,24.92,16.68,32.66,1.94,3.87,3.42,6.88,4.4,8.94a17.16,17.16,0,0,1,1.37,3.2,18.7,18.7,0,0,1-1.83-3c-1.12-2-2.73-4.94-4.78-8.76-4.11-7.63-10-18.71-17.12-32.44C322.13,388.16,302.57,350.13,281,308.09Z" style="fill:#f5f5f5"></path><path d="M270.9,312.07,233.77,197.3l-11.43-34.72c-1.37-4.07-2.44-7.23-3.18-9.42-.36-1-.65-1.86-.85-2.44a5.17,5.17,0,0,0-.33-.82,5.27,5.27,0,0,0,.22.86l.76,2.47c.7,2.19,1.72,5.37,3,9.46,2.71,8.23,6.6,20.09,11.4,34.73l38.21,114.43c15,44.65,28.42,85.1,38,114.44,4.79,14.67,8.61,26.56,11.18,34.8,1.29,4.12,2.26,7.32,2.9,9.51a18.2,18.2,0,0,1,.84,3.37,17.85,17.85,0,0,1-1.33-3.22c-.79-2.14-1.9-5.3-3.31-9.38-2.82-8.16-6.8-20-11.65-34.65C298.51,397.42,285.35,356.87,270.9,312.07Z" style="fill:#f5f5f5"></path><path d="M260.23,314.44l-18.08-119c-2.39-15.2-4.32-27.5-5.67-36-.69-4.23-1.24-7.52-1.61-9.79-.2-1.09-.35-1.93-.45-2.54a7.74,7.74,0,0,0-.19-.86,4.17,4.17,0,0,0,.08.88c.08.61.2,1.45.35,2.55.33,2.28.82,5.58,1.45,9.81,1.34,8.55,3.26,20.85,5.64,36.05,4.92,30.44,11.7,72.43,19.2,118.84s14.29,88.39,19,118.83c2.35,15.22,4.2,27.54,5.41,36.07.6,4.26,1,7.58,1.32,9.83a17.19,17.19,0,0,1,.28,3.46,17.17,17.17,0,0,1-.79-3.38c-.43-2.23-1-5.53-1.75-9.77-1.46-8.49-3.47-20.79-5.89-36C273.68,403,267.25,360.89,260.23,314.44Z" style="fill:#f5f5f5"></path><path d="M249.31,315.16c.44-47,.83-89.49,1.12-120.3.07-15.37.12-27.81.16-36.45,0-4.28,0-7.62,0-9.92,0-1.11,0-2,0-2.57a6,6,0,0,0-.05-.88,5,5,0,0,0-.06.88c0,.61,0,1.46-.06,2.57,0,2.3-.07,5.63-.12,9.91,0,8.65-.11,21.09-.18,36.46,0,30.81,0,73.32,0,120.3s0,89.47-.21,120.25c-.11,15.39-.25,27.85-.41,36.45-.09,4.31-.17,7.65-.26,9.92a17.29,17.29,0,0,1-.27,3.45,17.28,17.28,0,0,1-.24-3.46c-.06-2.26-.12-5.61-.16-9.91-.09-8.61-.11-21.06-.08-36.46C248.49,404.62,248.84,362.11,249.31,315.16Z" style="fill:#f5f5f5"></path><path d="M238.41,314.23c7.94-46.34,15.13-88.27,20.34-118.67,2.52-15.17,4.56-27.46,6-36l1.55-9.79c.16-1.1.29-1.95.38-2.55s.1-.88.09-.88a4.78,4.78,0,0,0-.2.86c-.12.6-.27,1.44-.48,2.53-.39,2.27-1,5.56-1.71,9.78-1.42,8.53-3.47,20.81-6,36-4.92,30.44-11.71,72.44-19.22,118.84s-14.3,88.39-19.43,118.76c-2.56,15.19-4.7,27.47-6.24,35.95-.77,4.24-1.39,7.53-1.84,9.75a18,18,0,0,1-.82,3.37,17.12,17.12,0,0,1,.31-3.45c.3-2.25.78-5.56,1.42-9.82,1.29-8.52,3.25-20.82,5.75-36C223.27,402.48,230.43,360.54,238.41,314.23Z" style="fill:#f5f5f5"></path><path d="M227.78,311.65c15.36-44.54,29.26-84.85,39.33-114.07,4.95-14.6,8.95-26.42,11.74-34.62,1.34-4.08,2.39-7.25,3.11-9.44l.79-2.47a4,4,0,0,0,.22-.85,6.79,6.79,0,0,0-.33.82l-.88,2.43c-.76,2.18-1.86,5.34-3.28,9.39-2.78,8.21-6.8,20-11.76,34.62-9.8,29.3-23.31,69.73-38.24,114.41S200.05,397,190.06,426.18c-5,14.6-9.09,26.41-12,34.54-1.45,4.07-2.6,7.22-3.4,9.35a17.74,17.74,0,0,1-1.36,3.2,16.36,16.36,0,0,1,.87-3.36c.65-2.18,1.66-5.37,3-9.48,2.65-8.21,6.58-20.07,11.51-34.69C198.54,396.48,212.4,356.16,227.78,311.65Z" style="fill:#f5f5f5"></path><path d="M217.72,307.48c22.38-41.64,42.62-79.32,57.3-106.64l17.19-32.4c2-3.82,3.54-6.79,4.61-8.84q.76-1.48,1.17-2.31a5.17,5.17,0,0,0,.37-.81,6.08,6.08,0,0,0-.46.76l-1.27,2.27-4.75,8.77-17.22,32.38L218.37,307.8c-21.94,41.84-41.87,79.69-56.46,107-7.3,13.66-13.25,24.69-17.43,32.29-2.09,3.79-3.73,6.73-4.87,8.71a17.57,17.57,0,0,1-1.86,3,18.64,18.64,0,0,1,1.41-3.19c1-2.05,2.51-5.05,4.49-8.9,3.95-7.71,9.76-18.81,17-32.5C175.11,386.79,195.33,349.08,217.72,307.48Z" style="fill:#f5f5f5"></path><path d="M208.46,301.83c28.79-37.73,54.85-71.88,73.74-96.62l22.19-29.39,6-8,1.53-2.11a6.14,6.14,0,0,0,.49-.74,5.23,5.23,0,0,0-.58.68l-1.61,2-6.1,8L281.88,205c-18.66,24.91-44.4,59.28-72.84,97.27s-54.16,72.34-73,97.11c-9.4,12.38-17.06,22.37-22.41,29.23-2.67,3.44-4.76,6.09-6.21,7.87a18,18,0,0,1-2.31,2.64,18.5,18.5,0,0,1,1.9-2.93c1.32-1.88,3.3-4.61,5.87-8.12,5.14-7,12.66-17.09,22-29.52C153.61,373.69,179.65,339.52,208.46,301.83Z" style="fill:#f5f5f5"></path><path d="M200.21,294.84l88.31-84.3c11.22-10.82,20.31-19.59,26.63-25.67l7.18-7,1.85-1.85a6.8,6.8,0,0,0,.61-.66,4.75,4.75,0,0,0-.69.58l-1.91,1.78-7.3,6.92-26.65,25.66-87.52,85.08c-34.13,33.23-65.08,63.27-87.62,84.89-11.27,10.81-20.44,19.52-26.82,25.49-3.19,3-5.68,5.29-7.39,6.83a17.83,17.83,0,0,1-2.71,2.26,18.47,18.47,0,0,1,2.35-2.61c1.6-1.65,4-4,7.09-7.12,6.21-6.15,15.25-15,26.47-25.83C134.53,357.54,165.72,327.72,200.21,294.84Z" style="fill:#f5f5f5"></path><path d="M193.18,286.7l100.73-69.93,30.41-21.33,8.23-5.86,2.12-1.55a5.93,5.93,0,0,0,.7-.56,7.81,7.81,0,0,0-.77.47l-2.18,1.47-8.32,5.73-30.43,21.32L193.61,287.27c-39,27.67-74.42,52.67-100.15,70.62-12.86,9-23.31,16.19-30.56,21.13-3.63,2.47-6.46,4.36-8.4,5.63a19,19,0,0,1-3,1.82,17.24,17.24,0,0,1,2.73-2.22c1.85-1.39,4.59-3.4,8.15-6,7.11-5.14,17.45-12.49,30.28-21.52C118.27,338.7,153.85,314,193.18,286.7Z" style="fill:#f5f5f5"></path><path d="M187.55,277.59l110.73-53.76,33.48-16.45,9.06-4.54,2.35-1.21a8,8,0,0,0,.78-.44,5.13,5.13,0,0,0-.83.34l-2.39,1.12-9.14,4.4L298.1,223.48,187.88,278.22c-43,21.4-82,40.71-110.28,54.53C63.46,339.66,52,345.21,44,349c-4,1.88-7.08,3.33-9.2,4.28a19.66,19.66,0,0,1-3.29,1.34,18.46,18.46,0,0,1,3.06-1.78c2.05-1.09,5.09-2.67,9-4.66,7.85-4,19.25-9.68,33.37-16.65C105.19,317.56,144.31,298.53,187.55,277.59Z" style="fill:#f5f5f5"></path><path d="M183.46,267.73l118-36.16,35.72-11.12,9.69-3.1,2.51-.84a4.63,4.63,0,0,0,.84-.32,8.07,8.07,0,0,0-.87.22l-2.55.74-9.73,2.95-35.73,11.1L183.68,268.4C137.75,283,96.13,296.08,66,305.4c-15.09,4.66-27.32,8.38-35.8,10.88-4.24,1.26-7.53,2.21-9.78,2.83a19.36,19.36,0,0,1-3.46.81,19.17,19.17,0,0,1,3.31-1.29c2.19-.76,5.44-1.85,9.64-3.22,8.4-2.74,20.58-6.62,35.65-11.34C95.65,294.61,137.37,281.8,183.46,267.73Z" style="fill:#f5f5f5"></path><path d="M181,257.36l122.44-17.65,37.08-5.53,10.06-1.57,2.62-.44a5.22,5.22,0,0,0,.88-.19,5.51,5.51,0,0,0-.9.08l-2.63.34-10.09,1.43-37.08,5.5L181.12,258.06C133.4,265.41,90.19,272,58.87,276.59c-15.66,2.3-28.34,4.1-37.12,5.28-4.38.59-7.79,1-10.11,1.29a19.23,19.23,0,0,1-3.55.28,18,18,0,0,1,3.47-.77c2.29-.42,5.68-1,10-1.71,8.74-1.42,21.39-3.39,37-5.75C90,270.49,133.22,264.22,181,257.36Z" style="fill:#f5f5f5"></path><path d="M180.26,246.75l123.78,1,37.51.13,10.19,0,2.66,0a6.3,6.3,0,0,0,.9,0,5.27,5.27,0,0,0-.9-.06l-2.66-.05-10.19-.12L304,247.39l-123.78.07c-48.31.07-92.06.06-123.73-.13-15.84-.09-28.65-.22-37.51-.38-4.43-.08-7.87-.16-10.2-.25a19.65,19.65,0,0,1-3.55-.25,17.81,17.81,0,0,1,3.55-.23c2.34-.07,5.78-.13,10.2-.17,8.86-.09,21.68-.12,37.51-.1C88.21,246,132,246.33,180.26,246.75Z" style="fill:#f5f5f5"></path><path d="M181.21,236.15l122.11,19.7,37,5.79,10.08,1.5,2.63.36a5.06,5.06,0,0,0,.9.09,5.09,5.09,0,0,0-.88-.2l-2.61-.46-10.06-1.65-37-5.82L181.09,236.85c-47.73-7.22-90.95-13.83-122.2-18.8-15.63-2.48-28.27-4.55-37-6-4.37-.75-7.75-1.35-10-1.79a20.17,20.17,0,0,1-3.47-.79,18.41,18.41,0,0,1,3.55.3c2.32.29,5.72.75,10.11,1.37,8.76,1.25,21.43,3.15,37.07,5.57C90.39,221.5,133.56,228.43,181.21,236.15Z" style="fill:#f5f5f5"></path><path d="M183.86,225.83,301.25,264l35.63,11.39,9.72,3,2.53.76a5.41,5.41,0,0,0,.88.22,5.57,5.57,0,0,0-.84-.33l-2.51-.85L337,275l-35.62-11.42L183.63,226.51c-46-14.44-87.58-27.58-117.64-37.28-15-4.84-27.18-8.81-35.55-11.62-4.19-1.41-7.43-2.52-9.62-3.31a19.47,19.47,0,0,1-3.3-1.31,17.17,17.17,0,0,1,3.46.84c2.24.63,5.53,1.61,9.76,2.9,8.45,2.57,20.65,6.38,35.7,11.17C96.55,197.45,138.05,210.9,183.86,225.83Z" style="fill:#f5f5f5"></path><path d="M188.14,216.05,297.9,271.66l33.34,16.69,9.1,4.48,2.39,1.14a5,5,0,0,0,.82.35,4.67,4.67,0,0,0-.77-.45l-2.34-1.23-9-4.61-33.33-16.72L187.81,216.67c-43.06-21.29-82-40.64-110.13-54.8C63.62,154.79,52.26,149,44.45,145c-3.91-2-6.93-3.62-9-4.73a18,18,0,0,1-3-1.8,18.57,18.57,0,0,1,3.27,1.37c2.11,1,5.2,2.43,9.17,4.35,7.93,3.84,19.36,9.47,33.45,16.5C106.51,174.68,145.32,194.31,188.14,216.05Z" style="fill:#f5f5f5"></path><path d="M194,207l99.46,71.6,30.25,21.56c3.58,2.5,6.35,4.45,8.27,5.8l2.17,1.48a5.15,5.15,0,0,0,.76.48,6.43,6.43,0,0,0-.69-.56l-2.11-1.57-8.18-5.92-30.23-21.58L193.52,207.61c-39.1-27.58-74.47-52.6-100-70.87-12.74-9.13-23-16.56-30.09-21.75-3.53-2.6-6.26-4.63-8.1-6a17.52,17.52,0,0,1-2.71-2.24,18.59,18.59,0,0,1,3,1.85c1.93,1.28,4.75,3.2,8.35,5.69,7.22,5,17.6,12.3,30.39,21.38C120,153.78,155.15,179.06,194,207Z" style="fill:#f5f5f5"></path><path d="M201.13,199l86.8,85.77,26.43,25.86,7.24,7,1.9,1.79a7.33,7.33,0,0,0,.68.59,5.23,5.23,0,0,0-.6-.67l-1.83-1.86c-1.66-1.64-4.05-4-7.13-7.09l-26.41-25.88-87.6-85c-34.21-33.15-65.14-63.22-87.4-85.12-11.13-10.94-20.1-19.84-26.25-26-3.07-3.1-5.44-5.52-7-7.18a18,18,0,0,1-2.33-2.63,18.22,18.22,0,0,1,2.69,2.28c1.7,1.56,4.17,3.88,7.34,6.89,6.32,6,15.41,14.81,26.59,25.71C136.58,135.23,167.28,165.52,201.13,199Z" style="fill:#f5f5f5"></path><path d="M209.51,192.18l72,97.85,22,29.55,6,8,1.59,2.06a5.89,5.89,0,0,0,.57.68,4.45,4.45,0,0,0-.48-.75l-1.51-2.11-5.91-8.08-22-29.57c-18.68-24.89-44.45-59.24-72.92-97.2s-54.24-72.3-72.72-97.29c-9.25-12.5-16.68-22.64-21.77-29.69-2.54-3.53-4.49-6.28-5.79-8.16a18.12,18.12,0,0,1-1.88-3,18.49,18.49,0,0,1,2.29,2.66c1.43,1.79,3.5,4.46,6.15,7.91,5.28,6.91,12.86,17,22.15,29.42C156,119.41,181.43,154,209.51,192.18Z" style="fill:#f5f5f5"></path><path d="M218.88,186.7c21.63,42,41.2,80,55.38,107.59l16.95,32.52c2,3.8,3.59,6.77,4.68,8.81.53,1,.94,1.74,1.24,2.28a6.08,6.08,0,0,0,.46.76,5.06,5.06,0,0,0-.36-.81l-1.15-2.33c-1.05-2.06-2.58-5-4.53-8.87l-16.93-32.54L218.23,187c-22-41.78-41.95-79.64-56.18-107.14-7.12-13.75-12.83-24.9-16.72-32.63-1.94-3.87-3.43-6.89-4.41-8.94a17.8,17.8,0,0,1-1.38-3.2,18.17,18.17,0,0,1,1.84,3c1.12,2,2.74,4.94,4.79,8.75,4.12,7.63,10,18.7,17.16,32.42C177.69,106.68,197.3,144.69,218.88,186.7Z" style="fill:#f5f5f5"></path><path d="M229,182.72c14.56,44.79,27.73,85.33,37.27,114.71l11.48,34.71,3.19,9.41c.37,1.05.66,1.86.86,2.44a4.67,4.67,0,0,0,.33.82,5.68,5.68,0,0,0-.22-.85c-.18-.59-.44-1.41-.76-2.47l-3-9.46c-2.71-8.23-6.62-20.08-11.45-34.72-9.82-29.3-23.38-69.71-38.36-114.38S199.79,97.87,190.19,68.54C185.38,53.87,181.55,42,179,33.75c-1.29-4.11-2.27-7.32-2.91-9.5a17.2,17.2,0,0,1-.84-3.37,18.35,18.35,0,0,1,1.33,3.22c.79,2.13,1.91,5.29,3.32,9.37,2.83,8.16,6.83,20,11.7,34.64C201.3,97.4,214.51,137.93,229,182.72Z" style="fill:#f5f5f5"></path><path d="M239.68,180.33c7.12,46.46,13.57,88.51,18.24,119,2.41,15.19,4.36,27.49,5.71,36,.71,4.23,1.25,7.51,1.63,9.78.2,1.1.35,1.94.45,2.54a4.22,4.22,0,0,0,.2.86,5.22,5.22,0,0,0-.08-.87c-.09-.61-.21-1.46-.36-2.56-.34-2.27-.83-5.57-1.47-9.81-1.34-8.54-3.28-20.84-5.68-36-5-30.43-11.8-72.42-19.36-118.82s-14.4-88.37-19.14-118.8c-2.37-15.22-4.23-27.54-5.45-36.07-.61-4.27-1.06-7.58-1.34-9.83a18.93,18.93,0,0,1-.29-3.46,17.8,17.8,0,0,1,.8,3.38c.43,2.23,1,5.52,1.76,9.77,1.47,8.49,3.5,20.79,5.94,36C226.12,91.84,232.6,133.89,239.68,180.33Z" style="fill:#f5f5f5"></path><path d="M250.6,179.6c-.38,47-.72,89.48-1,120.29,0,15.38-.09,27.82-.11,36.46,0,4.28,0,7.61,0,9.91,0,1.11,0,2,0,2.58a6,6,0,0,0,0,.88,5,5,0,0,0,.06-.88q0-.91.06-2.58c0-2.3.06-5.63.11-9.91,0-8.64.07-21.08.13-36.45,0-30.82-.09-73.33-.15-120.3s-.12-89.48.06-120.26c.08-15.39.21-27.84.36-36.45.08-4.3.16-7.65.25-9.91a19.11,19.11,0,0,1,.26-3.46A17.28,17.28,0,0,1,251,13c.07,2.27.13,5.61.18,9.91.1,8.61.14,21.07.12,36.46C251.31,90.13,251,132.65,250.6,179.6Z" style="fill:#f5f5f5"></path><path d="M261.51,180.51c-7.89,46.35-15,88.29-20.19,118.69-2.5,15.18-4.53,27.47-5.94,36-.66,4.23-1.18,7.52-1.53,9.8-.16,1.1-.29,1.94-.37,2.55a4.79,4.79,0,0,0-.09.88,6.23,6.23,0,0,0,.2-.86l.47-2.54c.39-2.27,1-5.55,1.69-9.77,1.42-8.53,3.45-20.82,6-36,4.88-30.44,11.62-72.44,19.06-118.86S275,92,280.06,61.62c2.54-15.19,4.66-27.48,6.19-36,.76-4.24,1.38-7.53,1.83-9.75a19,19,0,0,1,.81-3.38,17.15,17.15,0,0,1-.31,3.46c-.29,2.25-.76,5.56-1.4,9.82-1.28,8.52-3.23,20.83-5.71,36C276.52,92.24,269.42,134.2,261.51,180.51Z" style="fill:#f5f5f5"></path><path d="M272.13,183.08C256.84,227.64,243,268,233,297.2l-11.69,34.64-3.11,9.44q-.49,1.59-.78,2.46a5.68,5.68,0,0,0-.22.85,6.08,6.08,0,0,0,.33-.81l.88-2.44,3.26-9.39,11.72-34.63c9.75-29.32,23.21-69.77,38.08-114.46S299.76,97.72,309.71,68.5c5-14.61,9.05-26.42,11.94-34.56,1.44-4.07,2.58-7.22,3.39-9.35a17.39,17.39,0,0,1,1.35-3.2,16.81,16.81,0,0,1-.86,3.36c-.65,2.18-1.66,5.37-3,9.48-2.64,8.22-6.56,20.08-11.47,34.71C301.27,98.21,287.46,138.55,272.13,183.08Z" style="fill:#f5f5f5"></path><path d="M282.2,187.24c-22.32,41.66-42.51,79.37-57.15,106.7l-17.16,32.42c-2,3.83-3.53,6.8-4.6,8.85l-1.16,2.32a4.9,4.9,0,0,0-.37.8,5.38,5.38,0,0,0,.46-.75l1.26-2.27c1.1-2,2.7-5,4.74-8.78,4.07-7.68,9.94-18.74,17.18-32.41,14.38-27.46,34.23-65.34,56.15-107.21s41.76-79.73,56.32-107.07c7.28-13.67,13.22-24.7,17.39-32.3,2.08-3.8,3.72-6.74,4.86-8.72a17.23,17.23,0,0,1,1.85-3,18,18,0,0,1-1.4,3.19c-1,2.05-2.51,5.05-4.48,8.9-3.94,7.71-9.73,18.83-16.95,32.52C324.71,107.87,304.54,145.6,282.2,187.24Z" style="fill:#f5f5f5"></path><path d="M291.47,192.88l-73.61,96.71L195.7,319l-6,8-1.53,2.11a4.86,4.86,0,0,0-.49.74,6.86,6.86,0,0,0,.58-.67c.38-.49.91-1.17,1.61-2.05l6.09-7.95,22.18-29.4,72.7-97.36c28.35-38,54.08-72.41,72.85-97.2,9.39-12.4,17-22.4,22.37-29.27,2.67-3.43,4.76-6.09,6.2-7.87a18,18,0,0,1,2.31-2.64,17.59,17.59,0,0,1-1.9,2.93c-1.31,1.88-3.29,4.62-5.85,8.12-5.14,7-12.64,17.12-22,29.55C346.22,121,320.23,155.15,291.47,192.88Z" style="fill:#f5f5f5"></path><path d="M299.73,199.85l-88.2,84.41L184.94,310c-3.1,3-5.52,5.4-7.18,7l-1.85,1.85a4.87,4.87,0,0,0-.6.66,8,8,0,0,0,.68-.58c.45-.43,1.09-1,1.92-1.79l7.29-6.93,26.61-25.69,87.4-85.18c34.09-33.27,65-63.36,87.52-85C398,103.52,407.14,94.8,413.51,88.82c3.19-3,5.68-5.3,7.39-6.84a18.8,18.8,0,0,1,2.7-2.26,18.47,18.47,0,0,1-2.35,2.61c-1.59,1.65-4,4.06-7.08,7.13-6.19,6.16-15.22,15-26.43,25.87C365.32,137.08,334.18,166.93,299.73,199.85Z" style="fill:#f5f5f5"></path><path d="M306.77,208,206.14,278l-30.39,21.37-8.22,5.87-2.12,1.55a7.61,7.61,0,0,0-.7.56,4.7,4.7,0,0,0,.77-.47l2.17-1.47L176,299.7l30.41-21.35,100-70.94c39-27.71,74.35-52.75,100.05-70.74,12.85-9,23.29-16.22,30.54-21.16,3.63-2.48,6.46-4.38,8.39-5.64a18.74,18.74,0,0,1,3-1.83,18.23,18.23,0,0,1-2.73,2.23c-1.84,1.39-4.59,3.4-8.14,6-7.1,5.15-17.44,12.52-30.25,21.56C381.61,155.89,346.06,180.68,306.77,208Z" style="fill:#f5f5f5"></path><path d="M312.41,217.09,201.75,271,168.3,287.48,159.24,292l-2.35,1.21a6,6,0,0,0-.78.45,9.1,9.1,0,0,0,.84-.35l2.38-1.12,9.14-4.41,33.46-16.47,110.15-54.88c43-21.45,81.92-40.82,110.2-54.67,14.14-6.93,25.61-12.49,33.57-16.27,4-1.89,7.08-3.34,9.2-4.29a17.64,17.64,0,0,1,3.29-1.34,19.4,19.4,0,0,1-3.06,1.78c-2,1.09-5.08,2.67-9,4.67-7.84,4-19.24,9.71-33.35,16.69C394.72,177,355.62,196.09,312.41,217.09Z" style="fill:#f5f5f5"></path><path d="M316.52,227l-118,36.3L162.8,274.42l-9.68,3.11-2.51.84a4.63,4.63,0,0,0-.84.32,8.5,8.5,0,0,0,.88-.22l2.54-.74,9.73-3,35.71-11.15L316.3,226.27c45.91-14.61,87.5-27.78,117.67-37.14,15.09-4.68,27.32-8.42,35.79-10.93,4.23-1.26,7.53-2.22,9.77-2.84a19,19,0,0,1,3.47-.82,18.55,18.55,0,0,1-3.31,1.3c-2.19.77-5.45,1.86-9.64,3.23-8.4,2.76-20.57,6.65-35.63,11.39C404.29,200,362.59,212.81,316.52,227Z" style="fill:#f5f5f5"></path><path d="M319,237.31l-122.42,17.8-37.07,5.57-10.06,1.59-2.62.44a6,6,0,0,0-.88.19,5.51,5.51,0,0,0,.9-.08l2.63-.34L159.55,261l37.07-5.54,122.25-18.89c47.7-7.41,90.91-14.06,122.22-18.68,15.66-2.32,28.34-4.14,37.11-5.33,4.39-.59,7.8-1,10.11-1.3a18.2,18.2,0,0,1,3.56-.28,19.61,19.61,0,0,1-3.48.77c-2.29.42-5.68,1-10,1.72-8.74,1.43-21.39,3.42-37,5.79C410,224.07,366.76,230.39,319,237.31Z" style="fill:#f5f5f5"></path><path d="M157.34,74.31a7.54,7.54,0,0,0-9,2.32,7.09,7.09,0,0,0-11.12,6,5.08,5.08,0,0,0-1.8,5.94,7.16,7.16,0,0,0,4.92,4.18,12.43,12.43,0,0,0,6.62-.32,10.3,10.3,0,0,0,14.4-.26C165,88.17,167.26,79.21,157.34,74.31Z" style="fill:#ebebeb"></path><path d="M164.43,84.53a10.56,10.56,0,0,1-.52,1.9,5.68,5.68,0,0,1-3.38,3.48,2.17,2.17,0,0,1-2.7-2,3.5,3.5,0,1,1-7,.16,3.34,3.34,0,0,1-6.44-.63c-1.19,1.91-4.17,2.18-6,.8s-1.71-3.43-1.23-5.64a5.08,5.08,0,0,0-1.8,5.94,7.16,7.16,0,0,0,4.92,4.18,12.43,12.43,0,0,0,6.62-.32,10.3,10.3,0,0,0,14.4-.26A12.35,12.35,0,0,0,164.43,84.53Z" style="fill:#e0e0e0"></path><g style="opacity:0.30000000000000004"><path d="M146.65,77.35c0,.08-.6-.2-1.57-.35a5.94,5.94,0,0,0-6.27,3.2c-.45.87-.55,1.49-.63,1.47a2.72,2.72,0,0,1,.3-1.62,5.72,5.72,0,0,1,6.67-3.41A2.83,2.83,0,0,1,146.65,77.35Z" style="fill:#fff"></path></g><g style="opacity:0.30000000000000004"><path d="M152.63,75.36c0,.15-.73.29-1.5.72s-1.29,1-1.41.88.26-.84,1.16-1.34S152.64,75.22,152.63,75.36Z" style="fill:#fff"></path></g><path d="M106.62,301.53a7.54,7.54,0,0,0-9,2.32,7.1,7.1,0,0,0-11.12,6,5.05,5.05,0,0,0-1.8,5.93A7.13,7.13,0,0,0,89.62,320a12.33,12.33,0,0,0,6.62-.32,10.29,10.29,0,0,0,14.4-.26C114.25,315.4,116.55,306.44,106.62,301.53Z" style="fill:#ebebeb"></path><path d="M113.72,311.75a10.56,10.56,0,0,1-.52,1.9,5.7,5.7,0,0,1-3.38,3.48,2.17,2.17,0,0,1-2.71-2,3.49,3.49,0,1,1-7,.16,3.34,3.34,0,0,1-6.44-.63c-1.2,1.92-4.17,2.18-6,.81s-1.71-3.44-1.22-5.64a5.05,5.05,0,0,0-1.8,5.93A7.13,7.13,0,0,0,89.62,320a12.33,12.33,0,0,0,6.62-.32,10.29,10.29,0,0,0,14.4-.26A12.32,12.32,0,0,0,113.72,311.75Z" style="fill:#e0e0e0"></path><g style="opacity:0.30000000000000004"><path d="M95.94,304.57c0,.08-.6-.2-1.57-.34a5.9,5.9,0,0,0-6.27,3.2c-.45.86-.55,1.48-.64,1.47a2.92,2.92,0,0,1,.31-1.63,5.73,5.73,0,0,1,6.67-3.4A2.93,2.93,0,0,1,95.94,304.57Z" style="fill:#fff"></path></g><g style="opacity:0.30000000000000004"><path d="M101.92,302.58c0,.15-.73.29-1.5.72s-1.29,1-1.42.88.26-.84,1.17-1.33S101.93,302.44,101.92,302.58Z" style="fill:#fff"></path></g><path d="M386.18,63.71a7.54,7.54,0,0,0-9.12,1.84,7.09,7.09,0,0,0-11.42,5.39,5.05,5.05,0,0,0-2.11,5.83,7.09,7.09,0,0,0,4.69,4.43,12.33,12.33,0,0,0,6.63,0,10.29,10.29,0,0,0,14.39.5C393.05,78,395.83,69.13,386.18,63.71Z" style="fill:#ebebeb"></path><path d="M392.72,74.29a10.78,10.78,0,0,1-.62,1.87,5.69,5.69,0,0,1-3.56,3.29,2.17,2.17,0,0,1-2.6-2.12,3.49,3.49,0,1,1-7-.21,3.34,3.34,0,0,1-6.4-1c-1.29,1.85-4.28,1.95-6,.49s-1.52-3.52-.92-5.7a5.05,5.05,0,0,0-2.11,5.83,7.09,7.09,0,0,0,4.69,4.43,12.33,12.33,0,0,0,6.63,0,10.29,10.29,0,0,0,14.39.5A12.35,12.35,0,0,0,392.72,74.29Z" style="fill:#e0e0e0"></path><g style="opacity:0.30000000000000004"><path d="M375.34,66.18c0,.07-.59-.24-1.54-.43a5.91,5.91,0,0,0-6.43,2.86c-.5.84-.63,1.45-.72,1.43a2.86,2.86,0,0,1,.39-1.6,5.74,5.74,0,0,1,6.85-3C374.88,65.7,375.38,66.13,375.34,66.18Z" style="fill:#fff"></path></g><g style="opacity:0.30000000000000004"><path d="M381.42,64.5c0,.15-.74.25-1.53.65s-1.35.89-1.46.8.3-.83,1.23-1.27S381.44,64.37,381.42,64.5Z" style="fill:#fff"></path></g><path d="M272.51,134.39a3.8,3.8,0,1,1-.25.1" style="fill:#e0e0e0"></path><g style="opacity:0.30000000000000004"><path d="M270.9,138.65c-.06,0-.21-.15-.29-.51a2.23,2.23,0,0,1,1.2-2.39c.34-.15.57-.13.58-.06s-.71.44-1.12,1.29S271,138.6,270.9,138.65Z" style="fill:#fff"></path></g><path d="M103.75,63a3.92,3.92,0,1,1-.25.11" style="fill:#e0e0e0"></path><g style="opacity:0.30000000000000004"><path d="M102.15,67.28c-.06,0-.22-.15-.3-.51a2.19,2.19,0,0,1,.2-1.39,2.22,2.22,0,0,1,1-1c.34-.15.57-.13.59-.06s-.72.44-1.12,1.29S102.28,67.23,102.15,67.28Z" style="fill:#fff"></path></g><path d="M461.18,291.11a7.58,7.58,0,0,0,.57-7.79,4.27,4.27,0,0,0,2.47-4.4,8.25,8.25,0,0,0-2.46-4.73c-2.76-2.9-6.75-4-10.66-4.88s-8.21-2.28-10.6-3.89c-3.24-2.18.18-3.25,2.91-5.21,2.17-1.55,4.13-3.31,6.35-4.77a15.31,15.31,0,0,0,5.33-5.28,7.47,7.47,0,0,0,.21-7.24,6.75,6.75,0,0,0-4.51-12.56,5,5,0,0,0-7.43-5.65l-.5-.71a65.51,65.51,0,0,0-19.1-7.55,13.08,13.08,0,0,0-5.59-.34,5.15,5.15,0,0,0-4,3.51c-.62,2.59,1.47,5,3.4,6.81l12.75,12.22a6.2,6.2,0,0,0-4.83,7.95,4.86,4.86,0,0,0-5.37,7c-4.31,1.63-8.61,3.93-11.13,7.79s-2.62,9.6.84,12.64a13.89,13.89,0,0,0,14,18,9.23,9.23,0,0,0,16.82,5.22A8.47,8.47,0,0,0,454,294.11,7.59,7.59,0,0,0,461.18,291.11Z" style="fill:#ebebeb"></path><path d="M437.07,249.32a6.58,6.58,0,0,1-1.39-4.37,2.44,2.44,0,0,1-2.88-.89,9.67,9.67,0,0,1-1.11-3.39c-.27-1.06-1-1.49-1.79-2.24l-.1.08a1.31,1.31,0,0,1,.39,1.41,10,10,0,0,1-.64,1.42,4.26,4.26,0,0,0,4.65,5.94A4.87,4.87,0,0,0,441,251.7,6.61,6.61,0,0,1,437.07,249.32Z" style="fill:#e0e0e0"></path><path d="M428,236.44s3.41,3.26,3.4,3.88a12,12,0,0,0,.09,3,3.24,3.24,0,0,0,4.15,2.07,5.71,5.71,0,0,0,6,6.07" style="fill:#ebebeb"></path><path d="M441.58,251.46a1.53,1.53,0,0,1-.74.07,5.34,5.34,0,0,1-2-.45,5.73,5.73,0,0,1-2.41-2,6.09,6.09,0,0,1-1.07-3.73l.36.25a3.27,3.27,0,0,1-2,.1,3.42,3.42,0,0,1-2.6-3.58c0-.35,0-.69,0-1l0-.48a1.53,1.53,0,0,0,0-.38,7.1,7.1,0,0,0-.95-1.3c-1.36-1.55-2.27-2.47-2.22-2.53a3.4,3.4,0,0,1,.72.56c.43.39,1.05,1,1.77,1.72a6.76,6.76,0,0,1,1.09,1.41,1.83,1.83,0,0,1,0,.54l0,.48c0,.33,0,.66,0,1a2.94,2.94,0,0,0,2.25,3.09,2.92,2.92,0,0,0,1.71-.07l.37-.15,0,.4a5.63,5.63,0,0,0,.93,3.45,5.57,5.57,0,0,0,2.17,1.91A8.49,8.49,0,0,0,441.58,251.46Z" style="fill:#e0e0e0"></path><path d="M441,230.82a3.44,3.44,0,0,1,2.43,6.38,6.35,6.35,0,0,1,3.64,2,4.92,4.92,0,0,1,1.09,5,3.35,3.35,0,0,1-4.42,1.79" style="fill:#ebebeb"></path><path d="M443.76,246c0-.05.34.13.94.19a3.47,3.47,0,0,0,2.35-.8,3.51,3.51,0,0,0,1.13-3.36,5.47,5.47,0,0,0-2.54-3.68,6.21,6.21,0,0,0-2.23-.87l-.72-.13.64-.35a3.35,3.35,0,0,0,1.69-3,3.11,3.11,0,0,0-1.39-2.47,3.73,3.73,0,0,0-1.87-.65,7.15,7.15,0,0,1-.74,0,1.48,1.48,0,0,1,.74-.18,3.62,3.62,0,0,1,2.05.55,3.45,3.45,0,0,1,1.66,2.73,3.82,3.82,0,0,1-1.9,3.5l-.08-.47a6.58,6.58,0,0,1,2.43.93,5.86,5.86,0,0,1,2.73,4.05,4.28,4.28,0,0,1-.22,2.18,3.59,3.59,0,0,1-3.76,2.25A1.75,1.75,0,0,1,443.76,246Z" style="fill:#e0e0e0"></path><path d="M422,267.7a8.43,8.43,0,0,0-2.52,4.9,5.65,5.65,0,0,0,1.95,5,4.26,4.26,0,0,0,5.2.06,7.84,7.84,0,0,0,1.62,6.56,6.2,6.2,0,0,0,6.31,1.95,5.15,5.15,0,0,0,3.59-5.33,3.17,3.17,0,0,0,6.05-1.9" style="fill:#ebebeb"></path><path d="M444.17,279s0,.05.07.16a2.17,2.17,0,0,1,.1.51,3.25,3.25,0,0,1-.47,1.93,3.14,3.14,0,0,1-2.63,1.59,3.47,3.47,0,0,1-3.31-2.22l.4-.09a5.35,5.35,0,0,1-3.27,5.42,6.36,6.36,0,0,1-7.09-1.92,8.06,8.06,0,0,1-1.61-6.7l.4.24a4.32,4.32,0,0,1-3.53.81,4.65,4.65,0,0,1-2.8-1.75,6.1,6.1,0,0,1-1-5.22,8.18,8.18,0,0,1,1.63-3.12,6.82,6.82,0,0,1,.64-.69c.16-.15.24-.21.25-.2s-.28.34-.76,1a8.56,8.56,0,0,0-1.45,3.09,5.84,5.84,0,0,0,1,4.89,4.25,4.25,0,0,0,2.56,1.55,3.81,3.81,0,0,0,3.12-.74L427,277l-.13.68a7.64,7.64,0,0,0,1.52,6.28,5.9,5.9,0,0,0,6.5,1.8,5,5,0,0,0,3.05-4.92l-.26-2,.66,1.89a3.18,3.18,0,0,0,2.92,2,2.9,2.9,0,0,0,2.43-1.39,3.39,3.39,0,0,0,.55-1.79C444.21,279.19,444.14,279,444.17,279Z" style="fill:#e0e0e0"></path><g style="opacity:0.30000000000000004"><path d="M419.69,253.78l-.25,0-.17.06Z"></path></g><path d="M451,292.5a4.56,4.56,0,0,1-9.08-.57c-1.41,2.26-3.16,4.54-5.7,5.34s-5.9-.72-6-3.38a6,6,0,0,1-6.71-5.89,12.86,12.86,0,0,1-4.88.89,4.69,4.69,0,0,1-4-2.51c-.67-1.53.13-3.65,1.76-4a5.08,5.08,0,0,1-3.67-9.38,5.05,5.05,0,0,1,2.48-9.68c-2.19-.91-2.65-4.08-1.39-6.09a6,6,0,0,1,1-1.12,17.12,17.12,0,0,0-5.7,5.23c-2.52,3.86-2.62,9.6.84,12.64a13.89,13.89,0,0,0,14,18,9.23,9.23,0,0,0,16.82,5.22A8.47,8.47,0,0,0,454,294.11a7.63,7.63,0,0,0,5.48-1.32c.21-.39.4-.78.57-1.18A9.18,9.18,0,0,1,451,292.5Z" style="fill:#e0e0e0"></path><g style="opacity:0.4"><path d="M432.62,263.4c1.77,1.67,2.92,3.23,3,5.36a6,6,0,0,1,7.52,2.92,5.65,5.65,0,0,1,8.36,1.92,4,4,0,0,1,7.19,1,5.71,5.71,0,0,1,5.15,2.81,9.71,9.71,0,0,0-2.09-3.18c-2.76-2.9-6.75-4-10.66-4.88s-8.21-2.28-10.6-3.89c-1-.65-1.33-1.2-1.31-1.71a4.25,4.25,0,0,1-3,1.43C434.79,265.18,434,264.48,432.62,263.4Z" style="fill:#fff"></path></g><g style="opacity:0.4"><path d="M451,233.25a3.36,3.36,0,0,1,2.28,2.44c.22,1.37-.69,2.66-.8,4.05-.07.83.16,1.65.16,2.48a2.2,2.2,0,0,1-1.08,2.09,6.37,6.37,0,0,1,2.73,5.79,6.08,6.08,0,0,1-.65,2.12,10.3,10.3,0,0,0,1.47-2.06,7.47,7.47,0,0,0,.21-7.24,6.75,6.75,0,0,0-4.51-12.56,5,5,0,0,0-7.43-5.65l-.5-.71a65.51,65.51,0,0,0-19.1-7.55l-.5-.11a47.15,47.15,0,0,1,16.21,11,5.05,5.05,0,0,1,8,5.63A8.57,8.57,0,0,1,451,233.25Z" style="fill:#fff"></path></g><g style="opacity:0.30000000000000004"><path d="M416.27,260c-.07,0-.12-.44.09-1.1a3.91,3.91,0,0,1,4.24-2.67c.68.1,1,.33,1,.39s-.43,0-1.06,0a4.16,4.16,0,0,0-3.87,2.44C416.42,259.62,416.35,260,416.27,260Z" style="fill:#fff"></path></g><g style="opacity:0.30000000000000004"><path d="M411.89,266.17c-.12-.08.37-.87,1.37-1.31s1.92-.26,1.89-.12-.81.21-1.68.6S412,266.27,411.89,266.17Z" style="fill:#fff"></path></g><g style="opacity:0.30000000000000004"><path d="M431.24,269c-.15,0-.47-1.15-1.66-1.94a6.87,6.87,0,0,0-2.41-.83c0-.07.29-.2.81-.21a3.42,3.42,0,0,1,1.9.61,3.5,3.5,0,0,1,1.26,1.55C431.32,268.71,431.3,269,431.24,269Z" style="fill:#fff"></path></g><g style="opacity:0.30000000000000004"><path d="M432.41,270.6c-.14,0-.32-.05-.53-.11s-.41-.08-.49-.2.2-.43.65-.29S432.55,270.56,432.41,270.6Z" style="fill:#fff"></path></g><g style="opacity:0.30000000000000004"><path d="M438.66,271.89a7.7,7.7,0,0,0-2.76-1.21,7.22,7.22,0,0,0-3,.55c0-.05.19-.35.73-.64a4,4,0,0,1,4.43.52C438.55,271.51,438.71,271.86,438.66,271.89Z" style="fill:#fff"></path></g><g style="opacity:0.30000000000000004"><path d="M439.85,273.4c0,.14-.48.18-1,.09s-.95-.28-.93-.42.48-.19,1-.1S439.87,273.25,439.85,273.4Z" style="fill:#fff"></path></g><g style="opacity:0.30000000000000004"><path d="M445.07,250.92c-.1-.11.27-.61.41-1.31s0-1.31.16-1.37.54.59.35,1.47S445.15,251,445.07,250.92Z" style="fill:#fff"></path></g><g style="opacity:0.30000000000000004"><path d="M446.6,243.23c-.1-.11.14-.48.14-1s-.19-.89-.08-1,.63.28.6,1S446.67,243.36,446.6,243.23Z" style="fill:#fff"></path></g><g style="opacity:0.30000000000000004"><path d="M443.35,233.67c-.12-.09,0-.39,0-.75s-.07-.66.05-.75.48.22.47.76S443.45,233.77,443.35,233.67Z" style="fill:#fff"></path></g><g style="opacity:0.30000000000000004"><path d="M435.58,228c-.14.07-.9-1.5-2.36-3s-3-2.38-2.88-2.51a8.63,8.63,0,0,1,5.24,5.52Z" style="fill:#fff"></path></g><path d="M50.53,156.07a7.62,7.62,0,0,0-2.28,7.47,4.26,4.26,0,0,0-3.37,3.76,8.15,8.15,0,0,0,1.35,5.15c2,3.44,5.68,5.43,9.31,7.12s7.51,4,9.48,6.13c2.68,2.85-.89,3.13-4,4.44-2.45,1-4.76,2.32-7.25,3.25a15.43,15.43,0,0,0-6.37,4,7.52,7.52,0,0,0-1.8,7,6.74,6.74,0,0,0,1.62,13.24,5,5,0,0,0,6,7.16l.33.8a65.72,65.72,0,0,0,17,11.58,13.05,13.05,0,0,0,5.37,1.57,5.13,5.13,0,0,0,4.71-2.53c1.18-2.39-.34-5.17-1.81-7.4l-9.73-14.74a6.18,6.18,0,0,0,6.47-6.67,4.86,4.86,0,0,0,6.77-5.61c4.56-.64,9.27-1.93,12.58-5.13s4.68-8.79,2-12.52a13.9,13.9,0,0,0-9.69-20.69,9.23,9.23,0,0,0-15.25-8.81,8.47,8.47,0,0,0-13.69.12A7.62,7.62,0,0,0,50.53,156.07Z" style="fill:#ebebeb"></path><path d="M64.81,202.17a6.53,6.53,0,0,1,.38,4.56,2.44,2.44,0,0,1,2.61,1.5,9.61,9.61,0,0,1,.34,3.56c0,1.09.65,1.67,1.25,2.58l.11-.05a1.33,1.33,0,0,1-.06-1.47,10.11,10.11,0,0,1,.94-1.24,4.27,4.27,0,0,0-3.22-6.83,4.86,4.86,0,0,0-5.65-5.8A6.57,6.57,0,0,1,64.81,202.17Z" style="fill:#e0e0e0"></path><path d="M70.82,216.73s-2.6-3.93-2.46-4.54a11.53,11.53,0,0,0,.58-2.93,3.24,3.24,0,0,0-3.59-2.95,5.71,5.71,0,0,0-4.47-7.23" style="fill:#ebebeb"></path><path d="M60.88,199.08a1.56,1.56,0,0,1,.74.09,5.59,5.59,0,0,1,1.85.89,5.68,5.68,0,0,1,1.91,2.45,6,6,0,0,1,.22,3.87l-.29-.32a3.26,3.26,0,0,1,2,.35,3.76,3.76,0,0,1,1.66,1.8,3.7,3.7,0,0,1,.08,2.27c-.08.34-.17.67-.26,1,0,.16-.08.31-.13.46s-.11.36-.08.38a6.9,6.9,0,0,0,.64,1.48c1,1.81,1.67,2.91,1.6,2.95s-.24-.23-.57-.7-.82-1.17-1.35-2.07a6.36,6.36,0,0,1-.75-1.61,1.5,1.5,0,0,1,.08-.54l.12-.47c.08-.31.16-.63.23-1a3.16,3.16,0,0,0-.09-2,3.2,3.2,0,0,0-1.42-1.54,2.78,2.78,0,0,0-1.68-.3l-.4.05.11-.38a5.68,5.68,0,0,0-.14-3.57,5.56,5.56,0,0,0-1.7-2.34A8.63,8.63,0,0,0,60.88,199.08Z" style="fill:#e0e0e0"></path><path d="M56.87,219.33a3.44,3.44,0,0,1-1-6.75,6.41,6.41,0,0,1-3.1-2.76,4.9,4.9,0,0,1,0-5.1,3.34,3.34,0,0,1,4.7-.77" style="fill:#ebebeb"></path><path d="M57.54,204s-.3-.2-.87-.39a3.4,3.4,0,0,0-2.47.26,3.49,3.49,0,0,0-1.84,3A5.47,5.47,0,0,0,54,211a6,6,0,0,0,2,1.34l.67.29-.7.19a3.39,3.39,0,0,0-2.32,2.59,3.12,3.12,0,0,0,.81,2.71,3.56,3.56,0,0,0,1.68,1c.46.13.73.13.73.17s-.27.09-.77,0a3.56,3.56,0,0,1-1.87-1,3.39,3.39,0,0,1-1-3,3.8,3.8,0,0,1,2.62-3l0,.48a6.61,6.61,0,0,1-2.15-1.44,5.87,5.87,0,0,1-1.77-4.56,4.26,4.26,0,0,1,.7-2.08A3.57,3.57,0,0,1,54,203.49a3.46,3.46,0,0,1,2.7-.12A1.64,1.64,0,0,1,57.54,204Z" style="fill:#e0e0e0"></path><path d="M83.59,187.58a8.38,8.38,0,0,0,3.54-4.23,5.62,5.62,0,0,0-.79-5.32,4.26,4.26,0,0,0-5.06-1.2,7.83,7.83,0,0,0-.12-6.75,6.18,6.18,0,0,0-5.72-3.3,5.14,5.14,0,0,0-4.69,4.4,3.17,3.17,0,0,0-6.32.52" style="fill:#ebebeb"></path><path d="M64.43,171.7s0-.06,0-.18a2.33,2.33,0,0,1,0-.52,3.29,3.29,0,0,1,.89-1.77,3.13,3.13,0,0,1,2.91-1,3.52,3.52,0,0,1,2.75,2.9h-.42a5.36,5.36,0,0,1,4.39-4.57A6.36,6.36,0,0,1,81.42,170a8.1,8.1,0,0,1,.09,6.9l-.34-.33a4.32,4.32,0,0,1,3.62,0,4.64,4.64,0,0,1,2.35,2.33,6.11,6.11,0,0,1-.2,5.3,8.16,8.16,0,0,1-2.28,2.69,6.79,6.79,0,0,1-.78.53,1.08,1.08,0,0,1-.29.14s.36-.27,1-.8a8.52,8.52,0,0,0,2.11-2.7,5.84,5.84,0,0,0,.1-5A4.18,4.18,0,0,0,84.6,177a3.81,3.81,0,0,0-3.2,0l-.62.31.28-.63a7.69,7.69,0,0,0-.1-6.46A5.88,5.88,0,0,0,75,167.08,4.92,4.92,0,0,0,71,171.2l-.19,2-.23-2a3.16,3.16,0,0,0-2.4-2.62,2.89,2.89,0,0,0-2.67.82,3.31,3.31,0,0,0-.93,1.62C64.44,171.45,64.46,171.7,64.43,171.7Z" style="fill:#e0e0e0"></path><g style="opacity:0.30000000000000004"><path d="M82.74,201.65l.26,0,.17,0Z"></path></g><path d="M60.8,157a4.55,4.55,0,0,1,8.72,2.56c1.88-1.89,4.09-3.73,6.75-3.94s5.59,2,5.13,4.63a6,6,0,0,1,5.24,7.22,13.11,13.11,0,0,1,5,.21A4.75,4.75,0,0,1,95,171c.31,1.64-.94,3.54-2.61,3.5a5.08,5.08,0,0,1,1.51,10,5.05,5.05,0,0,1-4.56,8.9c1.93,1.37,1.68,4.56,0,6.24a6,6,0,0,1-1.18.89,17.13,17.13,0,0,0,6.72-3.84c3.31-3.21,4.68-8.79,2-12.52a13.9,13.9,0,0,0-9.69-20.69,9.23,9.23,0,0,0-15.25-8.81,8.47,8.47,0,0,0-13.69.12,7.63,7.63,0,0,0-5.64.07,11.46,11.46,0,0,0-.81,1A9.15,9.15,0,0,1,60.8,157Z" style="fill:#e0e0e0"></path><g style="opacity:0.4"><path d="M72.26,189.42c-1.36-2-2.14-3.8-1.76-5.89A6,6,0,0,1,63.82,179a5.66,5.66,0,0,1-7.73-3.73,4,4,0,0,1-6.79-2.53,5.7,5.7,0,0,1-4.41-3.87,9.63,9.63,0,0,0,1.34,3.56c2,3.44,5.68,5.43,9.31,7.12s7.51,4,9.48,6.13c.8.85,1,1.47.9,2a4.27,4.27,0,0,1,3.27-.73C70.54,187.2,71.14,188.06,72.26,189.42Z" style="fill:#fff"></path></g><g style="opacity:0.4"><path d="M47.69,214.76A3.36,3.36,0,0,1,46,211.88c.09-1.39,1.27-2.45,1.68-3.77.25-.79.21-1.65.39-2.46a2.21,2.21,0,0,1,1.52-1.8,6.34,6.34,0,0,1-1.38-6.24,6.1,6.1,0,0,1,1.09-1.94,12.09,12.09,0,0,0-1.89,1.69,7.52,7.52,0,0,0-1.8,7,6.74,6.74,0,0,0,1.62,13.24,5,5,0,0,0,6,7.16l.33.8a65.72,65.72,0,0,0,17,11.58l.47.22a47,47,0,0,1-13.38-14.31A5.05,5.05,0,0,1,51,215.8,8.61,8.61,0,0,1,47.69,214.76Z" style="fill:#fff"></path></g><g style="opacity:0.30000000000000004"><path d="M87.46,196.34c.06,0,0,.45-.33,1a3.92,3.92,0,0,1-4.73,1.67c-.65-.25-1-.56-.92-.61s.41.12,1,.26a4.43,4.43,0,0,0,2.39-.12,4.49,4.49,0,0,0,1.94-1.41C87.22,196.69,87.38,196.31,87.46,196.34Z" style="fill:#fff"></path></g><g style="opacity:0.30000000000000004"><path d="M93.09,191.3c.09.1-.55.76-1.63,1s-1.92-.17-1.87-.3.83,0,1.77-.21S93,191.18,93.09,191.3Z" style="fill:#fff"></path></g><g style="opacity:0.30000000000000004"><path d="M74.86,184.22a4.82,4.82,0,0,0,3.34,3.6c0,.07-.32.14-.82,0A3.53,3.53,0,0,1,74.77,185C74.7,184.53,74.79,184.21,74.86,184.22Z" style="fill:#fff"></path></g><g style="opacity:0.30000000000000004"><path d="M74.06,182.44c.14,0,.29.12.48.22s.39.17.44.31-.29.37-.69.14S73.91,182.44,74.06,182.44Z" style="fill:#fff"></path></g><g style="opacity:0.30000000000000004"><path d="M68.25,179.8a7.37,7.37,0,0,0,2.42,1.79,7.62,7.62,0,0,0,3,.13c0,.05-.27.29-.85.45a4,4,0,0,1-2.34-.09,4,4,0,0,1-1.88-1.39C68.27,180.19,68.19,179.82,68.25,179.8Z" style="fill:#fff"></path></g><g style="opacity:0.30000000000000004"><path d="M67.42,178.07c0-.13.51-.07,1,.14s.87.48.82.61-.51.07-1-.13S67.36,178.2,67.42,178.07Z" style="fill:#fff"></path></g><g style="opacity:0.30000000000000004"><path d="M57.35,198.84c.08.13-.39.53-.68,1.19s-.31,1.26-.46,1.29-.39-.69,0-1.51S57.3,198.71,57.35,198.84Z" style="fill:#fff"></path></g><g style="opacity:0.30000000000000004"><path d="M54.17,206c.07.13-.25.44-.36.93s0,.92-.14,1-.56-.41-.37-1.13S54.13,205.85,54.17,206Z" style="fill:#fff"></path></g><g style="opacity:0.30000000000000004"><path d="M55.22,216c.09.12-.06.4-.13.74s-.09.67-.22.72-.42-.31-.29-.84S55.14,215.92,55.22,216Z" style="fill:#fff"></path></g><g style="opacity:0.30000000000000004"><path d="M61.53,223.33c.16,0,.55,1.66,1.64,3.46s2.36,3,2.26,3.09a8.64,8.64,0,0,1-3.9-6.55Z" style="fill:#fff"></path></g><ellipse cx="250" cy="457.72" rx="96.84" ry="33.03" style="fill:#e0e0e0"></ellipse></g><g id="freepik--Floor--inject-16"><path d="M475,350.92c0,.14-100.73.26-225,.26s-225-.12-225-.26,100.71-.26,225-.26S475,350.78,475,350.92Z" style="fill:#263238"></path></g><g id="freepik--Bucket--inject-16"><path d="M123.24,279.2c0,1.9,29.8,171.7,29.8,171.7h.71c0,10.89,43.14,19.72,96.37,19.72s96.37-8.83,96.37-19.72L376.76,275Z" style="fill:#fff"></path><path d="M146.08,298.06l-21.66-11.54C130,319.3,153,450.9,153,450.9h.71c0,4.46,7.23,8.57,19.43,11.87C168.28,433,146.48,300.79,146.08,298.06Z" style="fill:#FF725E"></path><path d="M206.68,297.52,180,295.13c.36,1.56,10.89,126.69,14.69,171.89,7.82,1.13,16.49,2,25.78,2.64Z" style="fill:#FF725E"></path><path d="M264.17,470.41V299H237V470.44c4.29.11,8.67.18,13.13.18Q257.27,470.62,264.17,470.41Z" style="fill:#FF725E"></path><path d="M320.76,296.75l-24.95,2.8-14.12,170c8.57-.6,16.58-1.45,23.86-2.5Z" style="fill:#FF725E"></path><path d="M354.24,292.7,352,294.45,326.08,463c12.79-3.34,20.41-7.56,20.41-12.13l28.28-164.37Z" style="fill:#FF725E"></path><path d="M123.24,279.2l253.52-4.49h.29L377,275c-7.89,45.91-16.57,96.36-25.65,149.2-1.55,9-3.09,17.94-4.6,26.75v0a5.5,5.5,0,0,1-1.33,3.37,12.56,12.56,0,0,1-2.66,2.39,32.81,32.81,0,0,1-6.24,3.26A90.75,90.75,0,0,1,323.21,464a229,229,0,0,1-27,4.46,431.54,431.54,0,0,1-52.54,2.35,387.18,387.18,0,0,1-49.24-3.59,177.35,177.35,0,0,1-22.87-4.67A65,65,0,0,1,161,458.65a23.71,23.71,0,0,1-4.73-3,9.82,9.82,0,0,1-1.87-2.09,5.18,5.18,0,0,1-.85-2.68l.22.21h-.89l0-.18c-9-51.94-16.5-94.86-21.71-124.8-2.56-15-4.56-26.69-5.93-34.68-.65-4-1.16-7.05-1.5-9.11-.17-1-.27-1.83-.35-2.35l-.1-.79c0,.22.19,1.13.52,3.12s.87,5.12,1.56,9.11c1.39,8,3.43,19.7,6,34.66l21.89,124.77-.21-.18H154v.22a6.24,6.24,0,0,0,2.58,4.44,22.94,22.94,0,0,0,4.63,2.92,64.41,64.41,0,0,0,10.55,3.87,175.58,175.58,0,0,0,22.8,4.64,386.48,386.48,0,0,0,49.19,3.56A432.38,432.38,0,0,0,296.18,468a231.54,231.54,0,0,0,26.91-4.46,91,91,0,0,0,13.23-4.07,32.56,32.56,0,0,0,6.14-3.2,11.92,11.92,0,0,0,2.55-2.3,4.94,4.94,0,0,0,1.22-3v0l4.61-26.75c9.09-52.84,17.78-103.28,25.68-149.19l.24.28Z" style="fill:#263238"></path><ellipse cx="250.69" cy="276.08" rx="127.42" ry="20.67" style="fill:#FF725E"></ellipse><ellipse cx="250.69" cy="276.08" rx="127.42" ry="20.67" style="opacity:0.30000000000000004"></ellipse><path d="M124.59,287.2s30,24.84,128,24.31,122.25-25.08,122.25-25.08l-121.15,9.36L205,292.33Z" style="opacity:0.30000000000000004"></path><path d="M250,252.8c-73.65,0-132.08,10.1-133.35,22.42-2.23,21.53,59.7,26.32,133.35,26.32s133.35-7.12,133.35-26.32C383.38,262.84,323.68,252.8,250,252.8Zm0,39.9c-68.22,0-123.53-7.95-123.53-17.75S181.81,257.19,250,257.19,373.56,265.14,373.56,275,318.25,292.7,250,292.7Z" style="fill:#e0e0e0"></path><path d="M250,252.8c-73.65,0-132.08,10.1-133.35,22.42-2.23,21.53,59.7,26.32,133.35,26.32s133.35-7.12,133.35-26.32C383.38,262.84,323.68,252.8,250,252.8Zm0,39.9c-68.22,0-123.53-7.95-123.53-17.75S181.81,257.19,250,257.19,373.56,265.14,373.56,275,318.25,292.7,250,292.7Z" style="fill:none"></path><path d="M250,292.7l1.31,0,3.86,0c3.38,0,8.38-.1,14.81-.26s14.3-.44,23.43-.94,19.51-1.25,30.94-2.49c5.72-.63,11.7-1.39,17.89-2.39a157.52,157.52,0,0,0,19.1-4.13c1.61-.48,3.23-1,4.82-1.66a24.41,24.41,0,0,0,4.59-2.32,8.3,8.3,0,0,0,1.88-1.71,2.78,2.78,0,0,0,.61-2.3,4.15,4.15,0,0,0-1.37-2.09,12.24,12.24,0,0,0-2.15-1.52A46.9,46.9,0,0,0,359.57,267c-3.56-1-7.23-1.78-11-2.49-14.95-2.78-30.86-4.34-47.37-5.45s-33.65-1.58-51.2-1.58-34.69.51-51.21,1.58-32.43,2.67-47.38,5.45c-3.73.71-7.4,1.51-11,2.49a46.22,46.22,0,0,0-10.18,3.85,11.34,11.34,0,0,0-2.16,1.52,4.12,4.12,0,0,0-1.36,2.08,2.78,2.78,0,0,0,.61,2.3,7.92,7.92,0,0,0,1.89,1.71,24.45,24.45,0,0,0,4.59,2.33c1.58.63,3.2,1.17,4.81,1.65a157.52,157.52,0,0,0,19.1,4.13c6.2,1,12.18,1.76,17.89,2.39,11.44,1.24,21.82,2,30.95,2.49s17,.77,23.42.94,11.43.22,14.81.26l3.86,0,1.31,0-1.31,0h-3.86c-3.38,0-8.38,0-14.82-.17s-14.3-.37-23.43-.85-19.52-1.19-31-2.41c-5.72-.62-11.7-1.37-17.91-2.36a159.06,159.06,0,0,1-19.16-4.11c-1.62-.49-3.25-1-4.86-1.67a24.09,24.09,0,0,1-4.67-2.36,8.57,8.57,0,0,1-2-1.81,3.21,3.21,0,0,1-.69-2.66,4.53,4.53,0,0,1,1.5-2.33,12,12,0,0,1,2.23-1.58,47.3,47.3,0,0,1,10.28-3.9c3.58-1,7.26-1.79,11-2.51,15-2.8,30.91-4.37,47.43-5.49s33.69-1.59,51.25-1.6,34.71.52,51.23,1.6,32.45,2.69,47.43,5.49c3.74.72,7.41,1.52,11,2.51a46.3,46.3,0,0,1,10.28,3.9,12.34,12.34,0,0,1,2.23,1.58,4.6,4.6,0,0,1,1.5,2.32A3.23,3.23,0,0,1,373,277a8.76,8.76,0,0,1-2,1.81,25.67,25.67,0,0,1-4.68,2.36c-1.61.64-3.23,1.18-4.86,1.66A157.09,157.09,0,0,1,342.34,287c-6.21,1-12.2,1.74-17.92,2.36-11.44,1.22-21.84,1.92-31,2.41s-17,.71-23.44.85-11.43.16-14.82.17h-3.86Z" style="fill:#263238"></path><path d="M250,252.8l1.45,0h4.25c3.73,0,9.24.06,16.33.24s15.76.5,25.82,1.14,21.5,1.58,34.09,3.2c6.28.83,12.86,1.81,19.66,3.15a129.87,129.87,0,0,1,20.85,5.61,42.43,42.43,0,0,1,5.16,2.34,16,16,0,0,1,4.6,3.49,5.65,5.65,0,0,1,1.32,2.68,8.12,8.12,0,0,1-.27,3,11.67,11.67,0,0,1-3.08,5.1,32,32,0,0,1-10.3,6.35,87.49,87.49,0,0,1-11.83,3.86,211.1,211.1,0,0,1-25.34,4.65c-8.71,1.13-17.64,1.94-26.75,2.56-18.21,1.22-37.12,1.68-56.47,1.68s-38.26-.33-56.49-1.34c-9.11-.51-18.06-1.21-26.79-2.22a201,201,0,0,1-25.39-4.36A79.11,79.11,0,0,1,129,290c-3.73-1.64-7.39-3.67-10-6.77a11,11,0,0,1-2.5-5.41,9.61,9.61,0,0,1,0-3,5.69,5.69,0,0,1,1.36-2.66,16.87,16.87,0,0,1,4.6-3.49,45.9,45.9,0,0,1,5.15-2.38,129.73,129.73,0,0,1,20.82-5.69c6.8-1.36,13.37-2.37,19.66-3.21,12.58-1.65,24-2.6,34.07-3.25s18.73-1,25.82-1.16,12.6-.22,16.34-.23h4.24l1.45,0-1.45,0-4.24,0c-3.74,0-9.24.12-16.33.34s-15.76.57-25.81,1.24-21.48,1.65-34,3.33c-6.28.84-12.85,1.87-19.63,3.23a130.26,130.26,0,0,0-20.75,5.7,44.89,44.89,0,0,0-5.08,2.36,16.44,16.44,0,0,0-4.48,3.4,5.24,5.24,0,0,0-1.26,2.45,9,9,0,0,0,0,2.84,10.44,10.44,0,0,0,2.41,5.18c2.53,3,6.14,5,9.84,6.63A77.63,77.63,0,0,0,141,293.41a199.87,199.87,0,0,0,25.34,4.34c8.72,1,17.65,1.69,26.76,2.2,18.22,1,37.11,1.31,56.46,1.33s38.24-.45,56.44-1.67c9.09-.61,18-1.42,26.72-2.54A214.11,214.11,0,0,0,358,292.45a89,89,0,0,0,11.77-3.83,31.7,31.7,0,0,0,10.15-6.24,11.19,11.19,0,0,0,3-4.9,7.88,7.88,0,0,0,.27-2.8,5.2,5.2,0,0,0-1.22-2.46,15.77,15.77,0,0,0-4.48-3.4,43.2,43.2,0,0,0-5.1-2.32,130,130,0,0,0-20.77-5.61c-6.78-1.35-13.35-2.35-19.63-3.18-12.57-1.65-24-2.61-34.06-3.28s-18.72-1-25.81-1.23-12.59-.28-16.33-.33l-4.24,0Z" style="fill:#263238"></path><path d="M347.73,199.89a8.52,8.52,0,0,0-6.38-3.82,15.24,15.24,0,0,0-4.86,0c1.62-1.91,1.88-4.64-.18-7.82-1.37-2.1-4.18-3.22-7.52-2.93a12.09,12.09,0,0,0-6.91,2.94,10,10,0,0,0-3.22,4.92c-.92,3.85.19,5.76,1.39,7.34-1.74,1.18-14.23,11.86-16,13l10.22,12.08c2.64-2.36,13.84-12.54,16.47-14.9,2.63,2.21,4.08,3.31,7.51,3.39a11.42,11.42,0,0,0,9-4.63C349.36,206.77,349.92,203.75,347.73,199.89Z" style="fill:#f5f5f5"></path><path d="M347.73,199.89a9.1,9.1,0,0,1,.93,1.86,8.24,8.24,0,0,1,.55,2.45,7.34,7.34,0,0,1-.6,3.37,11.73,11.73,0,0,1-6.73,6.14,10.54,10.54,0,0,1-5.72.41,8.4,8.4,0,0,1-2.92-1.2,27.26,27.26,0,0,1-2.6-2h.28l-16.45,14.94-.19.17-.17-.2-10.23-12.07-.18-.22.23-.17c.52-.36,1.07-.81,1.62-1.25,5-4.05,9.67-8.15,14.36-11.78l-.06.36a8.71,8.71,0,0,1-1.44-2.62,7.93,7.93,0,0,1-.31-2.93,11.06,11.06,0,0,1,.58-2.81,9.34,9.34,0,0,1,1.38-2.45,12.11,12.11,0,0,1,4.1-3.43,12.61,12.61,0,0,1,4.88-1.34,9.91,9.91,0,0,1,4.68.77,6.48,6.48,0,0,1,3.18,3,7.6,7.6,0,0,1,1,3.89,5.45,5.45,0,0,1-1.34,3.38l-.13-.24a13,13,0,0,1,9,1.53,7.29,7.29,0,0,1,1.8,1.69,3.68,3.68,0,0,1,.44.73,8,8,0,0,0-2.33-2.29,13,13,0,0,0-8.9-1.36l-.39.06.26-.31a5.13,5.13,0,0,0,1.24-3.2,7.27,7.27,0,0,0-1-3.7,6.09,6.09,0,0,0-3-2.85,9.46,9.46,0,0,0-4.49-.7,11.8,11.8,0,0,0-8.64,4.63,8.54,8.54,0,0,0-1.3,2.32,10.9,10.9,0,0,0-.54,2.68,7.32,7.32,0,0,0,.29,2.75,8.14,8.14,0,0,0,1.37,2.47l.15.2-.21.16c-4.6,3.58-9.31,7.72-14.31,11.76-.56.45-1.1.89-1.65,1.28l0-.38c3.54,4.19,7,8.25,10.21,12.09l-.36,0,16.5-14.87.14-.13.14.12c1.68,1.44,3.36,2.8,5.33,3.15a10.26,10.26,0,0,0,5.53-.35,11.53,11.53,0,0,0,6.61-5.92,7.5,7.5,0,0,0,.16-5.68,12.4,12.4,0,0,0-.59-1.42A2.75,2.75,0,0,1,347.73,199.89Z" style="fill:#263238"></path><path d="M313.59,214.44c4-4.11.57-8-2.47-6.92C304.76,211,298.43,205.11,292,218a10.74,10.74,0,0,0-13.86.22,8.33,8.33,0,0,0-11.83,9h0a3,3,0,0,0-1.88-1c-4.65-.6-9.77-.76-13.06,2.46-1.73,1.68-2.72,4.13-4.78,5.38-1.87,1.13-4.22,1-6.29,1.7-3.91,1.26-6.41,5.06-8,8.83a29.11,29.11,0,0,0-2.55,15.33c.7,5.21,3.47,10.26,7.95,13,2.1,1.28,4.61,2.12,6.06,4.11,1.91,2.64.33,6.49,4.33,8.56,1.8.93,5.22,1,7.17.88a2.89,2.89,0,0,1,2.29,1c1.69,2,3.78,3.22,7.58,2.84,3-.29,6.28-5.41,6.28-5.41s3.14,2.34,9,.86c3.79-.95,7.25-3.73,8-7.58,5.95,1.47,12.62-3.43,13-9.55.09-1.47-.12-3,.43-4.39s2-2.54,3.16-3.7a13.55,13.55,0,0,0,3.82-10.17c-.12-2.19-.78-4.42-.2-6.53.47-1.73,1.71-3.12,2.64-4.66s1.52-3.52.64-5.08c3.31-4.63,8.69-5.53,8.69-14.29C318.55,217.36,313.59,214.44,313.59,214.44Z" style="fill:#ff9a6c"></path><g style="opacity:0.30000000000000004"><path d="M271.68,257.75a14.11,14.11,0,0,0,9.86,4.48,10.43,10.43,0,0,0,9.21-5.21,8.34,8.34,0,0,0-1.79-10.1,6.68,6.68,0,0,0,3.54-12.33"></path></g><path d="M270.29,256.36a14.11,14.11,0,0,0,9.86,4.48,10.46,10.46,0,0,0,9.2-5.21,8.35,8.35,0,0,0-1.78-10.11,6.67,6.67,0,0,0,3.54-12.32" style="fill:#ff9a6c"></path><path d="M291.11,233.2s.11,0,.29.15a4.78,4.78,0,0,1,.76.58,6.79,6.79,0,0,1,1.91,3,6.61,6.61,0,0,1-.6,5.38,7.13,7.13,0,0,1-5.9,3.44l.15-.44a8.34,8.34,0,0,1,2.77,7.48,8.6,8.6,0,0,1-2.13,4.69,10.57,10.57,0,0,1-3.95,2.74,11.33,11.33,0,0,1-4.26.82,12.59,12.59,0,0,1-3.73-.64,14.36,14.36,0,0,1-4.73-2.65c-.49-.42-.84-.77-1.07-1a2.12,2.12,0,0,1-.33-.4s.53.48,1.53,1.25a15.06,15.06,0,0,0,4.72,2.46,11.22,11.22,0,0,0,7.69-.27,10.29,10.29,0,0,0,3.75-2.63,8.25,8.25,0,0,0,2-4.42,7.89,7.89,0,0,0-2.57-7l-.53-.44h.69a6.73,6.73,0,0,0,5.54-3.17,6.26,6.26,0,0,0,.66-5.07,7,7,0,0,0-1.72-3C291.47,233.46,291.09,233.23,291.11,233.2Z" style="fill:#263238"></path><g style="opacity:0.30000000000000004"><path d="M244.34,256.07a8.15,8.15,0,0,0,10.49,11.05A6.46,6.46,0,0,0,265.74,274"></path></g><path d="M244.81,254.78a8.14,8.14,0,0,0,10.48,11,6.71,6.71,0,0,0,2.08,8.79c2.82,1.78,7.57,1,9.42-1.77" style="fill:#ff9a6c"></path><path d="M266.79,272.85a1.4,1.4,0,0,1-.21.36,2,2,0,0,1-.31.39,3.61,3.61,0,0,1-.48.48,7.43,7.43,0,0,1-4,1.64,7.9,7.9,0,0,1-3-.24,6,6,0,0,1-2.93-1.87,7,7,0,0,1-1-7.58l.18-.34.32.38a8.63,8.63,0,0,1-7.59-.61,7.63,7.63,0,0,1-2.48-2.33,8.46,8.46,0,0,1-1.13-6.93,6.55,6.55,0,0,1,.41-1.08c.12-.23.19-.35.21-.34s-.2.51-.42,1.47a8.46,8.46,0,0,0,.09,4.08,7.67,7.67,0,0,0,3.56,4.72,8.23,8.23,0,0,0,7.15.54l.67-.28-.34.65-.17.31a6.58,6.58,0,0,0,.88,7,5.46,5.46,0,0,0,2.69,1.76,7.49,7.49,0,0,0,2.85.29,7.41,7.41,0,0,0,3.89-1.43A14.26,14.26,0,0,0,266.79,272.85Z" style="fill:#263238"></path><path d="M300.34,219.43A2.29,2.29,0,0,1,302,219a4,4,0,0,1,3.56,6c-.53,1-1.17,1.26-1.19,1.21a13.63,13.63,0,0,0,.86-1.37,3.82,3.82,0,0,0-3.25-5.5A14.8,14.8,0,0,0,300.34,219.43Z" style="fill:#263238"></path><g style="opacity:0.4"><path d="M238.25,241.16a13.6,13.6,0,0,1,13.51-.69,4,4,0,0,1,4.13-6.24c-.5-3.1,2.47-6.11,5.6-6a7.08,7.08,0,0,1,6.44,5.82,7.82,7.82,0,0,1,9.74-8.34,4.31,4.31,0,1,1,8-2.57A5.47,5.47,0,0,1,294,221c1.05-5.26,4.41-10.75,12.2-12.11-4.71.39-9.42-.4-14.17,9.2a10.74,10.74,0,0,0-13.86.22,8.33,8.33,0,0,0-11.83,9h0a3,3,0,0,0-1.88-1c-4.65-.6-9.77-.76-13.06,2.46-1.73,1.68-2.72,4.13-4.78,5.38-1.87,1.13-4.22,1-6.29,1.7-3.91,1.26-6.41,5.06-8,8.83a29.11,29.11,0,0,0-2.55,15.33,20,20,0,0,0,1.27,4.82,26.18,26.18,0,0,1-.45-12.06A18,18,0,0,1,238.25,241.16Z" style="fill:#fff"></path></g><polygon points="308.1 208.59 308.1 208.59 308.09 208.59 308.1 208.59" style="fill:#fff"></polygon><g style="opacity:0.30000000000000004"><path d="M319.81,220.82c-2,.34-2.85,2.65-3.63,4.52s-2.64,3.9-4.47,3a6.43,6.43,0,0,1-2.88,7.12,8,8,0,0,1-3.65,7.43,6.93,6.93,0,0,1-1.44,10,8.94,8.94,0,0,1-7.88,10,5.88,5.88,0,0,1-7.49,8.91,3.25,3.25,0,0,1-4.22,3.54,9,9,0,0,1-14.83,5.33,5.16,5.16,0,0,1-10.26.93,9.29,9.29,0,0,1-14.82-3.94l0,.11c1.2,2.57.27,5.89,3.88,7.76,2.6,1.35,8.63.8,8.63.8,1.88,2.61,4,4.34,8.41,3.9,3-.29,6.28-5.41,6.28-5.41s3.14,2.34,9,.86c3.79-.95,7.25-3.73,8-7.58,5.95,1.47,12.62-3.43,13-9.55.09-1.47-.12-3,.43-4.39s2-2.54,3.16-3.7a13.55,13.55,0,0,0,3.82-10.17c-.12-2.19-.78-4.42-.2-6.53.47-1.73,1.71-3.12,2.64-4.66s1.52-3.52.64-5.08c3.17-4.44,8.23-5.46,8.65-13.25A3,3,0,0,0,319.81,220.82Z"></path></g><path d="M336.77,191.18a5.38,5.38,0,0,0-1.16-2.46c-1.7-1.95-4.71-2-6.53-1.86l-.23,0a19.72,19.72,0,0,0-4.24,1.61,7.55,7.55,0,0,0-3.2,3.13,3.2,3.2,0,0,0-.39,1.81,1.74,1.74,0,0,0,1.06,1.45c1,.36,2-.56,2.84-1.33a9.32,9.32,0,0,1,3.4-2.25,4.78,4.78,0,0,1,4,.26c.56.33,1,.8,1.57,1.16a2.22,2.22,0,0,0,1.85.37A1.82,1.82,0,0,0,336.77,191.18Z" style="fill:#fff"></path><g style="opacity:0.30000000000000004"><path d="M234.74,268.34a13.59,13.59,0,0,1-3.05-10.6,38.54,38.54,0,0,0,.9,5.48A40.33,40.33,0,0,0,234.74,268.34Z" style="fill:#fff"></path></g><g style="opacity:0.30000000000000004"><path d="M249.89,263.21c0,.06-.43,0-1-.39a4.84,4.84,0,0,1-1.63-2,4.78,4.78,0,0,1-.41-2.52c.09-.66.29-1,.35-1a6.41,6.41,0,0,0,2.67,5.89Z" style="fill:#fff"></path></g><g style="opacity:0.30000000000000004"><path d="M256.89,263.24c.08.11-.51.57-1.37.49s-1.36-.64-1.26-.74.62.17,1.31.22S256.82,263.1,256.89,263.24Z" style="fill:#fff"></path></g><g style="opacity:0.30000000000000004"><path d="M258,272.33c-.05.05-.31-.11-.6-.49a3.57,3.57,0,0,1-.65-1.76,3.46,3.46,0,0,1,.32-1.84c.22-.43.45-.63.51-.59a5.54,5.54,0,0,0,.42,4.68Z" style="fill:#fff"></path></g><g style="opacity:0.30000000000000004"><path d="M277.13,257.15c0,.07-.39.12-1,0a5.09,5.09,0,0,1-3.58-3.08c-.22-.59-.22-1-.16-1a11,11,0,0,0,1.91,2.58A10.59,10.59,0,0,0,277.13,257.15Z" style="fill:#fff"></path></g><g style="opacity:0.30000000000000004"><path d="M289.11,242.88c0,.05-.26.36-.89.65a5.18,5.18,0,0,1-5.12-.52c-.56-.41-.79-.78-.74-.82a6.84,6.84,0,0,0,6.75.69Z" style="fill:#fff"></path></g><path d="M177.67,189a7.69,7.69,0,0,0-5.22,4.25A14,14,0,0,0,171,197.4c-1.12-2-3.36-3-6.7-2.27-2.21.52-4,2.56-4.82,5.5a11,11,0,0,0,.36,6.79,9.09,9.09,0,0,0,3.2,4.26c3,2,5,1.61,6.68,1.09.46,1.84,5.69,15.77,6.16,17.62l13.44-5c-1.2-3-6.4-15.65-7.59-18.63,2.69-1.55,4.07-2.44,5.21-5.33a10.42,10.42,0,0,0-1.15-9.13C184,189.74,181.64,188.33,177.67,189Z" style="fill:#f5f5f5"></path><path d="M177.67,189a8.24,8.24,0,0,1,1.88-.23,7.35,7.35,0,0,1,2.26.29,6.59,6.59,0,0,1,2.68,1.55,10.63,10.63,0,0,1,3.16,7.63,9.5,9.5,0,0,1-1.42,5,7.75,7.75,0,0,1-1.93,2.12,25.52,25.52,0,0,1-2.51,1.6l.09-.27c2.26,5.51,4.85,11.82,7.63,18.62l.1.24-.24.09-13.44,5-.27.1-.08-.28c-.15-.55-.36-1.16-.56-1.76-1.9-5.52-3.94-10.75-5.59-15.86l.32.18a7.68,7.68,0,0,1-2.69.41,7,7,0,0,1-2.6-.65,10.34,10.34,0,0,1-2.22-1.36,8.21,8.21,0,0,1-1.65-1.94,11,11,0,0,1-1.66-4.56,11.6,11.6,0,0,1,.37-4.57,9,9,0,0,1,2.11-3.76,5.83,5.83,0,0,1,3.57-1.77,6.85,6.85,0,0,1,3.64.32,4.93,4.93,0,0,1,2.47,2.19l-.27,0a11.78,11.78,0,0,1,4.1-7.21,6.42,6.42,0,0,1,2-1,3.07,3.07,0,0,1,.75-.14,6.88,6.88,0,0,0-2.65,1.27,11.77,11.77,0,0,0-3.91,7.15l-.07.39-.2-.35a4.69,4.69,0,0,0-2.34-2,6.56,6.56,0,0,0-3.46-.27,5.52,5.52,0,0,0-3.35,1.69,8.63,8.63,0,0,0-2,3.59,10.7,10.7,0,0,0,1.27,8.77,7.8,7.8,0,0,0,1.57,1.82,10,10,0,0,0,2.11,1.29,6.78,6.78,0,0,0,2.42.6,7.63,7.63,0,0,0,2.52-.4l.24-.08.08.25c1.63,5,3.69,10.31,5.59,15.82.21.61.42,1.21.58,1.8l-.34-.18,13.44-5-.14.33-7.56-18.64-.07-.17.16-.09c1.74-1,3.41-2,4.32-3.55a9.28,9.28,0,0,0,1.41-4.81,10.39,10.39,0,0,0-3-7.45,6.69,6.69,0,0,0-4.77-1.89C178.32,188.9,177.68,189,177.67,189Z" style="fill:#263238"></path><path d="M225.94,263.7c3.09-4.62,1-11.81-4.11-14a12.65,12.65,0,0,1-3.61-1.72c-1.1-1-1.54-2.5-2.17-3.84a12.31,12.31,0,0,0-7.48-6.4c-1.9-.56-4-.69-5.62-1.84-1.32-.94-2.12-2.42-3.15-3.68s-2.52-2.39-4.12-2.12c-2.92-4.25-2-9.11-9.48-11.82-2.68,1-6.69,4.3-6.69,4.3-2.26-4.68-6.61-2.94-6.65,0,1,6.5-6,10.06,3,19.49a9.74,9.74,0,0,0-4.09,11.87,7.54,7.54,0,0,0,4,12.84,2.65,2.65,0,0,0-1.45,1.28c-2,3.77-3.22,6.84-1.5,10.63l0,.06a10.46,10.46,0,0,0,10.62,6.08l42.92-4.55s3-2,3.53-7.4C230.29,269.29,229,265.49,225.94,263.7Z" style="fill:#FF725E"></path><g style="opacity:0.30000000000000004"><path d="M203.43,271.62a12.84,12.84,0,0,0,6.86-7,9.49,9.49,0,0,0-1.59-9.45,7.57,7.57,0,0,0-9.16-1.6,6,6,0,0,0-9.4-6.82"></path></g><path d="M201.81,272.37a12.79,12.79,0,0,0,6.86-7,9.47,9.47,0,0,0-1.59-9.45,7.54,7.54,0,0,0-9.15-1.6,6,6,0,0,0-9.4-6.83" style="fill:#FF725E"></path><path d="M188.53,247.49s.06-.08.22-.2a4.2,4.2,0,0,1,.72-.48,6.23,6.23,0,0,1,3.17-.69,6,6,0,0,1,4.41,2.17,6.49,6.49,0,0,1,1.11,6.11l-.36-.29a7.57,7.57,0,0,1,7.25-.05,7.93,7.93,0,0,1,3.34,3.27,9.59,9.59,0,0,1,1.11,4.22,10.41,10.41,0,0,1-2.32,6.87,13,13,0,0,1-3.73,3.2,11.9,11.9,0,0,1-1.2.6c-.28.12-.43.17-.44.15s.56-.3,1.53-.92a13.64,13.64,0,0,0,3.55-3.26,10.16,10.16,0,0,0,2.13-6.62,9.11,9.11,0,0,0-1.08-4,7.4,7.4,0,0,0-3.13-3.06,7.13,7.13,0,0,0-6.76,0l-.59.35.23-.65a6.05,6.05,0,0,0-1-5.67,5.68,5.68,0,0,0-4.1-2.13,6.36,6.36,0,0,0-3.08.53C188.87,247.27,188.55,247.52,188.53,247.49Z" style="fill:#263238"></path><path d="M179.66,235.38a2,2,0,0,1,.11-1.53,3.65,3.65,0,0,1,6.26-1.17c.64.75.7,1.39.65,1.39s-.27-.53-.92-1.14a3.7,3.7,0,0,0-3.11-1,3.66,3.66,0,0,0-2.54,2.05C179.72,234.79,179.75,235.38,179.66,235.38Z" style="fill:#263238"></path><polygon points="172.83 225.43 172.83 225.43 172.83 225.43 172.83 225.43" style="fill:#fff"></polygon><g style="opacity:0.30000000000000004"><path d="M225.94,263.7c3.09-4.62,1-11.81-4.11-14a12.65,12.65,0,0,1-3.61-1.72c-1.1-1-1.54-2.5-2.17-3.84a12.31,12.31,0,0,0-7.48-6.4c-1.9-.56-4-.69-5.62-1.84-1.32-.94-2.12-2.42-3.15-3.68s-2.52-2.39-4.12-2.12c-2.8-4.07-2.11-8.7-8.61-11.46a2.91,2.91,0,0,0-.21.63c-.32,1.8,1.38,3.24,2.73,4.48s2.5,3.45,1.21,4.75a5.82,5.82,0,0,1,5.17,4.65,7.23,7.23,0,0,1,5.19,5.4,6.28,6.28,0,0,1,8.07,4.32,8.09,8.09,0,0,1,6.06,9.8,5.33,5.33,0,0,1,5.28,9.13,2.93,2.93,0,0,1,1.7,4.68,8.14,8.14,0,0,1,0,14.27l4.17-.5s3-2,3.53-7.4C230.29,269.29,229,265.49,225.94,263.7Z"></path></g><path d="M166.88,195.64a4.8,4.8,0,0,0-2.46.23c-2.18.84-3.13,3.39-3.6,5l0,.21a18.12,18.12,0,0,0,.05,4.1,6.93,6.93,0,0,0,1.68,3.69,3,3,0,0,0,1.42.9,1.6,1.6,0,0,0,1.56-.46c.63-.77.16-1.91-.25-2.82a8.55,8.55,0,0,1-.87-3.6,4.36,4.36,0,0,1,1.46-3.3c.45-.37,1-.62,1.46-1a2,2,0,0,0,.89-1.46A1.64,1.64,0,0,0,166.88,195.64Z" style="fill:#fff"></path><g style="opacity:0.30000000000000004"><path d="M204.6,266.79c.06,0,0,.38-.3.87a4.55,4.55,0,0,1-3.74,2.1c-.57,0-.91-.13-.9-.19a10.66,10.66,0,0,0,2.78-.85A10.51,10.51,0,0,0,204.6,266.79Z" style="fill:#fff"></path></g><g style="opacity:0.30000000000000004"><path d="M196.16,252.19c.05,0,.23.33.29.95a4.63,4.63,0,0,1-.45,2.38,4.69,4.69,0,0,1-1.58,1.84c-.53.34-.92.42-.94.36a9,9,0,0,0,2.05-2.42A9.4,9.4,0,0,0,196.16,252.19Z" style="fill:#fff"></path></g><path d="M370.25,268.19a12.83,12.83,0,0,0-18.41-12.69c.26-7.62-6.34-14.81-14-15.21S323,246.35,322.41,254a6,6,0,0,0-10.11,6,11.08,11.08,0,0,0-17.12,8.86L295,290.3a211.58,211.58,0,0,0,68.66-8.19c3.44-1,7.1-2.27,9.1-5.23S373.76,268.85,370.25,268.19Z" style="fill:#ff9a6c"></path><g style="opacity:0.30000000000000004"><path d="M370.25,268.19a13,13,0,0,0-1.58-7.34,8.14,8.14,0,0,1-3.25,6.48,6.29,6.29,0,0,1-8.34,9.33,7.88,7.88,0,0,1-13.25,6c.82,1.53-.66,3.47-2.37,3.76s-3.39-.51-4.91-1.33-3.14-1.69-4.87-1.56-3.44,1.78-2.92,3.43a19.22,19.22,0,0,0-17.93,2.27A27,27,0,0,0,308,272.92a18.21,18.21,0,0,0-11.49-8.9,10.89,10.89,0,0,0-1.37,4.81L295,290.3a211.58,211.58,0,0,0,68.66-8.19c3.21-.93,6.6-2.12,8.66-4.68a14.72,14.72,0,0,0,1.22-2.28C374.32,272.26,373.14,268.73,370.25,268.19Z"></path></g><path d="M302.47,289.61a16.14,16.14,0,0,0-16.36-26.55,21.17,21.17,0,0,0-35.19-15.48,18.88,18.88,0,0,0-32.62,7.24,25.64,25.64,0,0,0-34.81,15.65L216,291.91c.17,1.23,51.21.64,65.83-.26S302.47,289.61,302.47,289.61Z" style="fill:#FF725E"></path><path d="M285.8,263.64a.72.72,0,0,1,0-.23c0-.18,0-.41,0-.69a11.19,11.19,0,0,0-.1-1.12c-.06-.44-.11-1-.24-1.51a22,22,0,0,0-4-9,21.59,21.59,0,0,0-4.94-4.81,19.61,19.61,0,0,0-7.32-3.16,21.88,21.88,0,0,0-8.94,0,21.07,21.07,0,0,0-8.83,4.1l-.18.14-.16-.17a19.79,19.79,0,0,0-14.28-6.08,17.58,17.58,0,0,0-6.34,1.18,21.67,21.67,0,0,0-5.4,3.21,22.46,22.46,0,0,0-7,9.5l-.09.25-.24-.11a25.91,25.91,0,0,0-7.8-2.2,22.88,22.88,0,0,0-7.36.4,25.41,25.41,0,0,0-10.78,5.42,28.45,28.45,0,0,0-5.39,5.83c-.52.76-.9,1.36-1.13,1.78l-.28.47c-.06.11-.1.16-.11.16a16.74,16.74,0,0,1,1.39-2.5,27.27,27.27,0,0,1,5.33-6A25.55,25.55,0,0,1,202.48,253a23.09,23.09,0,0,1,7.49-.45,25.94,25.94,0,0,1,8,2.21l-.32.14a22.82,22.82,0,0,1,7.1-9.74,21.79,21.79,0,0,1,5.53-3.3,17.78,17.78,0,0,1,6.53-1.22,20.26,20.26,0,0,1,14.65,6.26l-.34,0a21.43,21.43,0,0,1,9-4.16,22.26,22.26,0,0,1,9.13,0A20.07,20.07,0,0,1,276.7,246a21.87,21.87,0,0,1,8.85,14.06A15.78,15.78,0,0,1,285.8,263.64Z" style="fill:#263238"></path><g style="opacity:0.30000000000000004"><path d="M272.64,272.23a7.5,7.5,0,0,0-7.93-1.63,11.6,11.6,0,0,0-22.55-3,11.31,11.31,0,0,0-17.5-1.28l49.5,13.81A7.45,7.45,0,0,0,272.64,272.23Z"></path></g><path d="M223.09,267.84a11.3,11.3,0,0,1,17.5,1.27,11.6,11.6,0,0,1,22.56,3,7.28,7.28,0,0,1,9.44,9.58" style="fill:#FF725E"></path><path d="M272.59,281.65s.14-.41.3-1.19a7.52,7.52,0,0,0-.11-3.4,7,7,0,0,0-3-4.17,7.32,7.32,0,0,0-6.54-.61l-.29.11,0-.3a11.41,11.41,0,0,0-3.32-7.1,11.09,11.09,0,0,0-8-3.45,11.8,11.8,0,0,0-6.81,2.34,11.5,11.5,0,0,0-4,5.31l-.15.44-.26-.38A11.43,11.43,0,0,0,234,264.8a11.1,11.1,0,0,0-6.15.21,11.88,11.88,0,0,0-3.59,1.89c-.75.59-1.1,1-1.13.94a1.87,1.87,0,0,1,.24-.3,10.57,10.57,0,0,1,.79-.75,11.15,11.15,0,0,1,3.6-2.05,11.28,11.28,0,0,1,6.34-.32,11.67,11.67,0,0,1,6.72,4.56l-.41.06a11.85,11.85,0,0,1,4.12-5.57,12.23,12.23,0,0,1,7.12-2.45,11.55,11.55,0,0,1,8.35,3.62,11.85,11.85,0,0,1,3.41,7.42l-.31-.2a7.7,7.7,0,0,1,6.9.72A7.18,7.18,0,0,1,273,277a7.42,7.42,0,0,1,0,3.49,6.41,6.41,0,0,1-.29.88A1.35,1.35,0,0,1,272.59,281.65Z" style="fill:#263238"></path><g style="opacity:0.30000000000000004"><path d="M300.6,279.08a10.37,10.37,0,0,1-8.24,4.68,7.65,7.65,0,0,1-7.4-5.37c-.53,4.49-4.67,8.05-9.16,8.66s-9.05-1.35-12.34-4.45a10.69,10.69,0,0,1-20.54,2.1,9.25,9.25,0,0,1-16.45-3.62c-2.36,2.25-6.34,1.86-9,0s-4.4-4.77-6-7.6L208.28,282a36.16,36.16,0,0,0,2.48,6.5l5.24,3.46c.17,1.23,51.21.64,65.83-.26,10.8-.67,16.86-1.46,19.33-1.83a18.08,18.08,0,0,0,2-1.06,16.83,16.83,0,0,0,2.64-15.84,34.76,34.76,0,0,0-2.68-3.19A16.48,16.48,0,0,1,300.6,279.08Z"></path></g><path d="M222.79,292.27c.13-3-.1-4.07-2-6a7.46,7.46,0,0,0-7.43-1.9,12.34,12.34,0,0,0-17.78-14.27,13.45,13.45,0,0,0-18.8-11.68c-2.8-9.16-13.23-15.24-22.58-13.17s-16.24,12-14.93,21.46a9.52,9.52,0,0,0-11.58,11.23s13.12,8.49,47.46,11.14S222.79,292.27,222.79,292.27Z" style="fill:#ff9a6c"></path><g style="opacity:0.30000000000000004"><path d="M149.05,267a10,10,0,0,0,17.26,9.66,7.94,7.94,0,0,0,15.53-.23Z"></path></g><path d="M149.94,264.17a10,10,0,0,0,17.27,9.66,7.94,7.94,0,0,0,15.53-.23" style="fill:#ff9a6c"></path><path d="M182.74,273.6a2.16,2.16,0,0,1-.06.42,5.42,5.42,0,0,1-.36,1.18,8.22,8.22,0,0,1-2.88,3.54,8.49,8.49,0,0,1-2.95,1.31,7.52,7.52,0,0,1-3.72-.15,8.44,8.44,0,0,1-5.81-6l.45.1a9.52,9.52,0,0,1-2.61,2.35,10.74,10.74,0,0,1-9.57.83,10,10,0,0,1-5.36-5.78,10.19,10.19,0,0,1-.52-5.33,6.8,6.8,0,0,1,.39-1.42,2.35,2.35,0,0,1,.2-.46c.06,0-.22.67-.39,1.91a10.56,10.56,0,0,0,.66,5.17,9.74,9.74,0,0,0,5.21,5.47,10.32,10.32,0,0,0,9.1-.83,9.16,9.16,0,0,0,2.48-2.22l.33-.43.13.53a8,8,0,0,0,5.44,5.69,7,7,0,0,0,3.51.19,8.17,8.17,0,0,0,2.83-1.19,8.43,8.43,0,0,0,2.91-3.33C182.59,274.17,182.69,273.59,182.74,273.6Z" style="fill:#263238"></path><g style="opacity:0.30000000000000004"><path d="M213.4,284.36a12.34,12.34,0,0,0-17.78-14.27,13.45,13.45,0,0,0-18.8-11.68c-2.8-9.16-13.23-15.24-22.58-13.17a19.19,19.19,0,0,0-11.19,7.58h0a31.68,31.68,0,0,1,12.59-5.53,17.08,17.08,0,0,1,13.16,2.89c3.65,2.83,5.7,7.86,4.37,12.29a4.33,4.33,0,0,1,6.92,4.6,7,7,0,0,1,11.55,7.43,14.43,14.43,0,0,1,5-1.69,4.89,4.89,0,0,1,4.62,2,7.6,7.6,0,0,1,10.33,10.87,6.82,6.82,0,0,1,9.25,6.47l1.91.09c.13-3-.1-4.07-2-6A7.46,7.46,0,0,0,213.4,284.36Z" style="fill:#fff"></path></g><g style="opacity:0.30000000000000004"><path d="M341.45,266.68a8.54,8.54,0,1,0-16.62,3.65A7.68,7.68,0,0,0,314,278.21l33.52-11.82C345.66,265.3,342.56,264.84,341.45,266.68Z"></path></g><path d="M314.42,279.36a7.68,7.68,0,0,1,10.84-7.88,8.54,8.54,0,1,1,16.62-3.65,4.3,4.3,0,0,1,5.64-1.44" style="fill:#ff9a6c"></path><path d="M347.52,266.39a5.67,5.67,0,0,0-1.61-.41,4.61,4.61,0,0,0-1.93.31,4,4,0,0,0-2,1.63l-.25.43-.06-.5A8.59,8.59,0,0,0,337,261.6a8.13,8.13,0,0,0-4.78-.87,7.76,7.76,0,0,0-4.6,2.48,9.31,9.31,0,0,0-2.18,4,8.14,8.14,0,0,0,.07,4.22l.15.51-.49-.22a7.7,7.7,0,0,0-6.17,0,7.42,7.42,0,0,0-3.6,3.36,8,8,0,0,0-.91,3.15c-.06.77,0,1.19-.05,1.19a1.21,1.21,0,0,1-.06-.3,4.38,4.38,0,0,1-.05-.9,7.77,7.77,0,0,1,4.5-6.87,8.05,8.05,0,0,1,6.55,0l-.34.29a8.59,8.59,0,0,1-.1-4.48,9.76,9.76,0,0,1,2.3-4.21,8.13,8.13,0,0,1,4.91-2.63,8.54,8.54,0,0,1,5.07.95,8.87,8.87,0,0,1,4.85,6.63l-.32-.07a4.17,4.17,0,0,1,2.16-1.7,4.47,4.47,0,0,1,2-.24,3.83,3.83,0,0,1,1.23.35A1.29,1.29,0,0,1,347.52,266.39Z" style="fill:#263238"></path><ellipse cx="250.69" cy="381.25" rx="56.51" ry="30.91" style="fill:#fff"></ellipse><path d="M307.2,381.25s0-.25-.06-.73c0-.24,0-.54-.06-.88s-.11-.76-.18-1.22a19.11,19.11,0,0,0-.9-3.32,22.79,22.79,0,0,0-2.15-4.17,32.56,32.56,0,0,0-9.19-8.91,60.39,60.39,0,0,0-15.4-7.25,90.41,90.41,0,0,0-20.3-3.89,102.29,102.29,0,0,0-23.7.87,85.17,85.17,0,0,0-12.51,2.89,65.57,65.57,0,0,0-12.31,5.21,39.41,39.41,0,0,0-10.79,8.54,18.5,18.5,0,0,0,0,25.71,39.71,39.71,0,0,0,10.79,8.54,65.27,65.27,0,0,0,12.32,5.21,85.17,85.17,0,0,0,12.51,2.89,102.29,102.29,0,0,0,23.7.87,90.31,90.31,0,0,0,20.3-3.89,61,61,0,0,0,15.41-7.24,32.79,32.79,0,0,0,9.18-8.92,22.79,22.79,0,0,0,2.15-4.17,19.11,19.11,0,0,0,.9-3.32c.07-.45.13-.86.18-1.21s0-.65.06-.89c0-.48.06-.72.06-.72s0,.24,0,.72c0,.25,0,.54,0,.89s-.1.77-.15,1.23a20.17,20.17,0,0,1-.87,3.36,21.89,21.89,0,0,1-2.12,4.22,32.7,32.7,0,0,1-9.19,9.05,60.66,60.66,0,0,1-15.45,7.35A89.82,89.82,0,0,1,259,412a102.15,102.15,0,0,1-23.82-.83,84.09,84.09,0,0,1-12.58-2.89,64.89,64.89,0,0,1-12.41-5.24,39.64,39.64,0,0,1-10.94-8.65,23.31,23.31,0,0,1-3.82-6.07,17.65,17.65,0,0,1,0-14.24,23.62,23.62,0,0,1,3.82-6.06,39.93,39.93,0,0,1,10.94-8.65,65.54,65.54,0,0,1,12.41-5.24,84.09,84.09,0,0,1,12.58-2.89,102.61,102.61,0,0,1,23.81-.83,90.26,90.26,0,0,1,20.38,4,60.57,60.57,0,0,1,15.46,7.36,32.68,32.68,0,0,1,9.19,9,22.25,22.25,0,0,1,2.12,4.23,20.09,20.09,0,0,1,.87,3.35c.05.46.11.87.15,1.23l0,.89C307.21,381,307.2,381.25,307.2,381.25Z" style="fill:#263238"></path><rect x="219.9" y="375.58" width="60.47" height="10.42" rx="5.06" style="fill:#e0e0e0"></rect><rect x="236.39" y="361.13" width="26.1" height="10.42" rx="5.06" style="fill:#e0e0e0"></rect><rect x="237.09" y="390.95" width="26.1" height="10.42" rx="5.06" style="fill:#e0e0e0"></rect></g><g id="freepik--fried-chicken--inject-16"><path d="M146.64,203a6.26,6.26,0,0,0-5.17,5.76,5.9,5.9,0,0,0-4.93,9.28A4.21,4.21,0,0,0,138,223a5.94,5.94,0,0,0,5.33.62,10.2,10.2,0,0,0,4.44-3.27,8.56,8.56,0,0,0,9.85-6.82C158.31,209.06,155.78,201.79,146.64,203Z" style="fill:#FF725E"></path><g style="opacity:0.30000000000000004"><path d="M156.27,206.78a9.2,9.2,0,0,1,.51,1.56,4.73,4.73,0,0,1-.73,4,1.81,1.81,0,0,1-2.79-.13,2.91,2.91,0,1,1-4.76,3.33,2.78,2.78,0,0,1-4.75,2.54,3.54,3.54,0,0,1-3.76,3.31c-1.88-.12-2.77-1.59-3.45-3.34A4.21,4.21,0,0,0,138,223a5.94,5.94,0,0,0,5.33.62,10.2,10.2,0,0,0,4.44-3.27,8.56,8.56,0,0,0,9.85-6.82A10.28,10.28,0,0,0,156.27,206.78Z"></path></g><g style="opacity:0.30000000000000004"><path d="M140.64,210c0,.09-.51.16-1.23.51a5,5,0,0,0-2.85,5.08c.08.8.28,1.28.21,1.32s-.39-.41-.57-1.27a4.75,4.75,0,0,1,3.07-5.47C140.09,209.9,140.64,210,140.64,210Z" style="fill:#fff"></path></g><g style="opacity:0.30000000000000004"><path d="M143.86,205.87c.09.12-.33.57-.66,1.22s-.47,1.24-.62,1.24-.25-.72.15-1.48S143.79,205.75,143.86,205.87Z" style="fill:#fff"></path></g><path d="M332.17,122.86a6.28,6.28,0,0,0-7.33-2.48,5.91,5.91,0,0,0-10.48-.89,4.21,4.21,0,0,0-3.95,3.31,6,6,0,0,0,1.52,5.16,10.36,10.36,0,0,0,4.76,2.79,8.55,8.55,0,0,0,10.14,6.37C331.16,136,336.85,130.8,332.17,122.86Z" style="fill:#FF725E"></path><g style="opacity:0.30000000000000004"><path d="M332.45,133.21a8.6,8.6,0,0,1-1.22,1.09,4.72,4.72,0,0,1-3.94.88,1.8,1.8,0,0,1-1-2.61,2.91,2.91,0,1,1-4.94-3.07,2.78,2.78,0,0,1-4.2-3.37,3.52,3.52,0,0,1-4.52-2.15c-.63-1.78.37-3.17,1.71-4.49a4.21,4.21,0,0,0-3.95,3.31,6,6,0,0,0,1.52,5.16,10.36,10.36,0,0,0,4.76,2.79,8.55,8.55,0,0,0,10.14,6.37A10.16,10.16,0,0,0,332.45,133.21Z"></path></g><g style="opacity:0.30000000000000004"><path d="M323.34,120.12c-.08,0-.35-.41-1-.94a4.94,4.94,0,0,0-5.78-.62c-.71.39-1.07.77-1.13.71s.22-.52.93-1a4.76,4.76,0,0,1,6.24.67C323.23,119.57,323.39,120.09,323.34,120.12Z" style="fill:#fff"></path></g><g style="opacity:0.30000000000000004"><path d="M328.41,121.45c-.08.13-.65-.09-1.38-.13s-1.32.06-1.38-.08.56-.51,1.42-.44S328.49,121.34,328.41,121.45Z" style="fill:#fff"></path></g><path d="M130.83,241.18a4.29,4.29,0,0,0-3.12-8,2.27,2.27,0,0,0-1.9-.61,4.56,4.56,0,0,0-3.73,5.64,5.09,5.09,0,1,0,1.66,8.78,4.67,4.67,0,1,0,7.09-5.81Z" style="fill:#FF725E"></path><g style="opacity:0.30000000000000004"><path d="M130.79,248.37a4.87,4.87,0,0,0,0-7.19,4.45,4.45,0,0,0,2.36-5.46,2.67,2.67,0,0,1-1.42.78,2.62,2.62,0,0,1-3.21,3.51,7.86,7.86,0,0,1,2.24,2,2.72,2.72,0,0,1,.26,2.83,1.67,1.67,0,0,1-2.55.39,2.76,2.76,0,0,1-5.1-1,4.25,4.25,0,0,1-7.9-2,5.07,5.07,0,0,0,8.23,4.74A4.88,4.88,0,0,0,130.79,248.37Z"></path></g><g style="opacity:0.30000000000000004"><path d="M124.15,235.31c0,.14-.62.49-1,1.28s-.24,1.53-.38,1.57-.2-.14-.27-.48a2.06,2.06,0,0,1,.18-1.31,2.11,2.11,0,0,1,.91-1C123.9,235.24,124.12,235.25,124.15,235.31Z" style="fill:#fff"></path></g><g style="opacity:0.30000000000000004"><path d="M120.5,239.42c-.07.13-.85-.22-1.79,0s-1.47.91-1.59.83,0-.27.22-.56a2.29,2.29,0,0,1,1.24-.77A2.37,2.37,0,0,1,120,239C120.38,239.18,120.54,239.36,120.5,239.42Z" style="fill:#fff"></path></g><g style="opacity:0.30000000000000004"><path d="M123.39,242.56c-.1.1-.6-.48-.43-1.32s.85-1.19.91-1.06-.29.53-.4,1.16S123.52,242.48,123.39,242.56Z" style="fill:#fff"></path></g><path d="M375.49,232.19a4.29,4.29,0,0,0,4.46-7.33,2.26,2.26,0,0,0-.67-1.88,4.56,4.56,0,0,0-6.74.45,5.09,5.09,0,1,0-6,6.65,4.67,4.67,0,1,0,8.92,2.11Z" style="fill:#FF725E"></path><g style="opacity:0.30000000000000004"><path d="M369.75,236.53a4.88,4.88,0,0,0,5.74-4.34,4.46,4.46,0,0,0,5.78-1.43,2.61,2.61,0,0,1-1.48-.66,2.69,2.69,0,0,1-2.51,1.3,2.66,2.66,0,0,1-2.23-1.72,8,8,0,0,1-.22,3,2.72,2.72,0,0,1-2.09,1.93,1.66,1.66,0,0,1-1.85-1.79,2.83,2.83,0,0,1-2.8-1.5,2.86,2.86,0,0,1,.48-3.15,4.25,4.25,0,0,1-3.23-7.47,5.06,5.06,0,0,0,1.23,9.41A4.88,4.88,0,0,0,369.75,236.53Z"></path></g><g style="opacity:0.30000000000000004"><path d="M376.1,223.32c-.08.12-.76-.2-1.62,0s-1.36.74-1.48.66,0-.25.22-.52a2.16,2.16,0,0,1,1.15-.65,2.19,2.19,0,0,1,1.32.14C376,223.09,376.14,223.26,376.1,223.32Z" style="fill:#fff"></path></g><g style="opacity:0.30000000000000004"><path d="M370.62,222.92c-.14,0-.34-.81-1.12-1.4s-1.61-.62-1.63-.77.21-.17.59-.16a2.43,2.43,0,0,1,1.36.52,2.3,2.3,0,0,1,.82,1.2C370.74,222.67,370.69,222.91,370.62,222.92Z" style="fill:#fff"></path></g><g style="opacity:0.30000000000000004"><path d="M369.88,227.12c-.15,0,0-.77.79-1.15s1.46,0,1.39.08-.6.1-1.16.39S370,227.17,369.88,227.12Z" style="fill:#fff"></path></g><path d="M109,201.86a3.93,3.93,0,1,1-.25.11" style="fill:#FF725E"></path><g style="opacity:0.30000000000000004"><path d="M107.43,206.13c-.06,0-.21-.15-.29-.51a2.15,2.15,0,0,1,.2-1.4,2.11,2.11,0,0,1,1-1c.34-.15.57-.13.58-.07s-.71.45-1.12,1.29S107.57,206.08,107.43,206.13Z" style="fill:#fff"></path></g><path d="M329.28,166.89a3.93,3.93,0,1,1-.25.11" style="fill:#FF725E"></path><g style="opacity:0.30000000000000004"><path d="M327.68,171.15c-.06,0-.22-.15-.3-.51a2.12,2.12,0,0,1,.2-1.39,2.18,2.18,0,0,1,1-1c.34-.14.57-.12.59-.06s-.72.44-1.12,1.29S327.81,171.1,327.68,171.15Z" style="fill:#fff"></path></g><path d="M219,101.6a8.53,8.53,0,0,0-6.38-3.82,15.53,15.53,0,0,0-4.86,0c1.63-1.91,1.89-4.64-.18-7.81-1.36-2.1-4.17-3.23-7.51-2.93A12.11,12.11,0,0,0,193.18,90,10,10,0,0,0,190,94.91c-.92,3.86.19,5.76,1.39,7.34-1.75,1.18-14.23,11.86-16,13l10.22,12.08c2.64-2.36,13.83-12.54,16.47-14.9,2.62,2.21,4.08,3.31,7.5,3.4a11.48,11.48,0,0,0,9-4.64C220.66,108.48,221.23,105.46,219,101.6Z" style="fill:#f5f5f5"></path><path d="M219,101.6a9.38,9.38,0,0,1,.94,1.86,8.66,8.66,0,0,1,.54,2.46,7.19,7.19,0,0,1-.6,3.36,11.71,11.71,0,0,1-6.72,6.14,10.44,10.44,0,0,1-5.72.41,8.07,8.07,0,0,1-2.92-1.2,27,27,0,0,1-2.61-2h.28c-4.86,4.42-10.44,9.47-16.44,14.93l-.2.17-.16-.2c-3.25-3.82-6.69-7.89-10.23-12.07l-.19-.22.24-.17c.51-.36,1.07-.81,1.62-1.25,5-4,9.67-8.14,14.35-11.77l-.05.35a8.41,8.41,0,0,1-1.45-2.62,7.92,7.92,0,0,1-.3-2.93A11.59,11.59,0,0,1,190,94a9.09,9.09,0,0,1,1.39-2.45,12.11,12.11,0,0,1,4.1-3.43,12.54,12.54,0,0,1,4.88-1.33,9.78,9.78,0,0,1,4.68.76,6.42,6.42,0,0,1,3.17,3,7.65,7.65,0,0,1,1.05,3.9,5.47,5.47,0,0,1-1.34,3.38l-.13-.25a13.05,13.05,0,0,1,9,1.53,7,7,0,0,1,1.79,1.69,3.39,3.39,0,0,1,.44.73,7.65,7.65,0,0,0-2.32-2.28,12.93,12.93,0,0,0-8.9-1.37l-.39.06.26-.31a5.11,5.11,0,0,0,1.23-3.19,7.21,7.21,0,0,0-1-3.71,6,6,0,0,0-3-2.84,9.48,9.48,0,0,0-4.49-.71,11.82,11.82,0,0,0-8.64,4.63,8.84,8.84,0,0,0-1.31,2.32,11.37,11.37,0,0,0-.53,2.68,7.32,7.32,0,0,0,.29,2.75,7.73,7.73,0,0,0,1.37,2.47l.15.2-.21.16c-4.61,3.59-9.31,7.72-14.31,11.76-.56.45-1.1.89-1.66,1.29l.06-.39,10.21,12.09-.36,0,16.5-14.87.14-.12.14.12c1.67,1.43,3.35,2.79,5.33,3.14a10.07,10.07,0,0,0,5.53-.35,11.49,11.49,0,0,0,6.61-5.92,7.5,7.5,0,0,0,.16-5.68,11.85,11.85,0,0,0-.6-1.42A3.49,3.49,0,0,1,219,101.6Z" style="fill:#263238"></path><path d="M184.9,116.15c4-4.11.57-8-2.47-6.92-6.36,3.51-12.69-2.4-19.08,10.52a10.78,10.78,0,0,0-13.87.22,8.34,8.34,0,0,0-11.83,9h0a2.89,2.89,0,0,0-1.87-1c-4.65-.6-9.77-.75-13.06,2.46-1.73,1.68-2.72,4.13-4.79,5.39-1.86,1.13-4.21,1-6.29,1.7-3.9,1.26-6.4,5.05-8,8.82a29.27,29.27,0,0,0-2.56,15.34c.71,5.2,3.48,10.25,8,13,2.1,1.28,4.61,2.12,6,4.11,1.91,2.64.34,6.49,4.34,8.56,1.79.93,5.21,1,7.17.89a2.85,2.85,0,0,1,2.28,1c1.7,2,3.78,3.22,7.58,2.84,3-.29,6.29-5.41,6.29-5.41s3.14,2.34,9,.86c3.8-.95,7.25-3.73,8-7.58,6,1.47,12.63-3.42,13-9.54.1-1.48-.11-3,.43-4.4s2-2.53,3.16-3.7A13.55,13.55,0,0,0,180.12,152c-.13-2.19-.79-4.42-.2-6.53.47-1.73,1.71-3.12,2.63-4.65s1.53-3.52.65-5.09c3.3-4.63,8.69-5.52,8.69-14.29C189.85,119.07,184.9,116.15,184.9,116.15Z" style="fill:#FF725E"></path><g style="opacity:0.30000000000000004"><path d="M143,159.47a14.16,14.16,0,0,0,9.86,4.48,10.46,10.46,0,0,0,9.2-5.21,8.35,8.35,0,0,0-1.78-10.11,6.68,6.68,0,0,0,3.54-12.33"></path></g><path d="M141.6,158.07a14.11,14.11,0,0,0,9.85,4.48,10.43,10.43,0,0,0,9.21-5.21,8.33,8.33,0,0,0-1.79-10.1,6.68,6.68,0,0,0,3.55-12.33" style="fill:#FF725E"></path><path d="M162.42,134.91a1.36,1.36,0,0,1,.29.15,4.78,4.78,0,0,1,.76.58,6.79,6.79,0,0,1,1.9,3,6.57,6.57,0,0,1-.59,5.38,7.12,7.12,0,0,1-5.91,3.44l.16-.43a8.32,8.32,0,0,1,2.77,7.47,8.67,8.67,0,0,1-2.13,4.7,10.81,10.81,0,0,1-3.95,2.74,11.37,11.37,0,0,1-4.27.81,12.92,12.92,0,0,1-3.72-.63,14.36,14.36,0,0,1-4.73-2.66,10.22,10.22,0,0,1-1.07-1c-.23-.25-.35-.39-.33-.4s.52.48,1.53,1.25a14.88,14.88,0,0,0,4.71,2.46,11.24,11.24,0,0,0,7.7-.27,10.25,10.25,0,0,0,3.74-2.63,8.18,8.18,0,0,0,2-4.42,7.86,7.86,0,0,0-2.56-7l-.54-.43h.69a6.73,6.73,0,0,0,5.55-3.17,6.34,6.34,0,0,0,.66-5.07,7.06,7.06,0,0,0-1.72-3C162.78,135.18,162.39,134.94,162.42,134.91Z" style="fill:#263238"></path><g style="opacity:0.30000000000000004"><path d="M115.65,157.78a8.14,8.14,0,0,0,10.49,11.05,6.46,6.46,0,0,0,10.91,6.91"></path></g><path d="M116.11,156.49a8.15,8.15,0,0,0,10.49,11,6.71,6.71,0,0,0,2.08,8.79c2.81,1.78,7.57,1,9.42-1.76" style="fill:#FF725E"></path><path d="M138.1,174.57a1.47,1.47,0,0,1-.21.35,2,2,0,0,1-.31.39,3.74,3.74,0,0,1-.49.48,7.28,7.28,0,0,1-4,1.64,7.9,7.9,0,0,1-3-.24,5.88,5.88,0,0,1-2.93-1.87,7,7,0,0,1-1-7.58l.18-.34.32.38a8.59,8.59,0,0,1-7.59-.6,7.87,7.87,0,0,1-2.49-2.33,8.47,8.47,0,0,1-1.18-2.71,8.24,8.24,0,0,1,.06-4.23,6,6,0,0,1,.41-1.07,1.42,1.42,0,0,1,.2-.35s-.2.52-.42,1.47a8.65,8.65,0,0,0,.1,4.09,7.66,7.66,0,0,0,3.56,4.72,8.26,8.26,0,0,0,7.15.53l.67-.28-.35.65-.16.31a6.57,6.57,0,0,0,.87,7,5.64,5.64,0,0,0,2.69,1.77,7.5,7.5,0,0,0,2.85.28,7.34,7.34,0,0,0,3.89-1.43C137.75,175,138.05,174.53,138.1,174.57Z" style="fill:#263238"></path><path d="M171.65,121.14a2.27,2.27,0,0,1,1.63-.45,4,4,0,0,1,3.55,6c-.52,1-1.16,1.26-1.18,1.21a11.54,11.54,0,0,0,.85-1.37,3.81,3.81,0,0,0-3.24-5.5A14.58,14.58,0,0,0,171.65,121.14Z" style="fill:#263238"></path><g style="opacity:0.4"><path d="M109.55,142.88a13.61,13.61,0,0,1,13.51-.7,4,4,0,0,1,4.14-6.24c-.51-3.09,2.46-6.11,5.6-6.05a7.09,7.09,0,0,1,6.44,5.82,7.8,7.8,0,0,1,9.73-8.33,4.31,4.31,0,1,1,8-2.58,5.49,5.49,0,0,1,8.36-2.14c1.05-5.26,4.41-10.75,12.2-12.11-4.72.39-9.43-.39-14.17,9.2a10.78,10.78,0,0,0-13.87.22,8.34,8.34,0,0,0-11.83,9h0a2.89,2.89,0,0,0-1.87-1c-4.65-.6-9.77-.75-13.06,2.46-1.73,1.68-2.72,4.13-4.79,5.39-1.86,1.13-4.21,1-6.29,1.7-3.9,1.26-6.4,5.05-8,8.82a29.27,29.27,0,0,0-2.56,15.34,20.59,20.59,0,0,0,1.28,4.81,26.18,26.18,0,0,1-.46-12.06A18.07,18.07,0,0,1,109.55,142.88Z" style="fill:#fff"></path></g><polygon points="179.4 110.3 179.4 110.3 179.4 110.3 179.4 110.3" style="fill:#fff"></polygon><g style="opacity:0.30000000000000004"><path d="M191.11,122.53c-2,.35-2.84,2.65-3.62,4.52s-2.64,3.9-4.47,3a6.43,6.43,0,0,1-2.89,7.12,8,8,0,0,1-3.64,7.43,6.93,6.93,0,0,1-1.45,10,8.93,8.93,0,0,1-7.88,10,5.89,5.89,0,0,1-7.49,8.92,3.23,3.23,0,0,1-4.22,3.53,9,9,0,0,1-14.82,5.33,5.16,5.16,0,0,1-10.26.94,9.3,9.3,0,0,1-14.82-3.94l0,.1c1.19,2.57.27,5.89,3.88,7.76,2.6,1.35,8.63.8,8.63.8,1.87,2.62,4,4.34,8.4,3.9,3-.29,6.29-5.41,6.29-5.41s3.14,2.34,9,.86c3.8-.95,7.25-3.73,8-7.58,6,1.47,12.63-3.42,13-9.54.1-1.48-.11-3,.43-4.4s2-2.53,3.16-3.7A13.55,13.55,0,0,0,180.12,152c-.13-2.19-.79-4.42-.2-6.53.47-1.73,1.71-3.12,2.63-4.65s1.53-3.52.65-5.09c3.17-4.43,8.23-5.46,8.65-13.25A3.08,3.08,0,0,0,191.11,122.53Z"></path></g><path d="M208.08,92.89a5.4,5.4,0,0,0-1.17-2.46c-1.69-1.94-4.7-2-6.52-1.86l-.24,0a20.1,20.1,0,0,0-4.24,1.6,7.64,7.64,0,0,0-3.19,3.13,3.3,3.3,0,0,0-.4,1.81,1.75,1.75,0,0,0,1.06,1.45c1,.37,2.05-.55,2.84-1.32a9.39,9.39,0,0,1,3.4-2.26,4.81,4.81,0,0,1,4,.27c.56.33,1,.8,1.57,1.15a2.18,2.18,0,0,0,1.85.37A1.83,1.83,0,0,0,208.08,92.89Z" style="fill:#fff"></path><g style="opacity:0.30000000000000004"><path d="M106.05,170.05a11.15,11.15,0,0,1-2.66-5,11.31,11.31,0,0,1-.4-5.63,41.74,41.74,0,0,0,.9,5.48A38.74,38.74,0,0,0,106.05,170.05Z" style="fill:#fff"></path></g><g style="opacity:0.30000000000000004"><path d="M121.2,164.93s-.43,0-1-.4a4.88,4.88,0,0,1-2-4.5c.09-.66.29-1,.35-1a8.52,8.52,0,0,0,.53,3.31A8.64,8.64,0,0,0,121.2,164.93Z" style="fill:#fff"></path></g><g style="opacity:0.30000000000000004"><path d="M128.2,165c.08.11-.51.58-1.37.49s-1.36-.64-1.26-.73.62.16,1.31.21S128.13,164.82,128.2,165Z" style="fill:#fff"></path></g><g style="opacity:0.30000000000000004"><path d="M129.31,174c-.05.05-.31-.1-.6-.49a3.44,3.44,0,0,1-.65-1.75,3.48,3.48,0,0,1,.32-1.85c.22-.43.45-.63.5-.59a10.09,10.09,0,0,0-.3,2.39A9.49,9.49,0,0,0,129.31,174Z" style="fill:#fff"></path></g><g style="opacity:0.30000000000000004"><path d="M148.44,158.87c0,.06-.39.12-1,0a5.09,5.09,0,0,1-3.58-3.08c-.21-.59-.22-1-.16-1a11,11,0,0,0,1.91,2.58A11.33,11.33,0,0,0,148.44,158.87Z" style="fill:#fff"></path></g><g style="opacity:0.30000000000000004"><path d="M160.42,144.6s-.27.35-.89.65a5.15,5.15,0,0,1-2.63.41,5.1,5.1,0,0,1-2.5-.94c-.55-.41-.78-.77-.74-.81a9.37,9.37,0,0,0,3.29,1.23A9.23,9.23,0,0,0,160.42,144.6Z" style="fill:#fff"></path></g><path d="M355.33,87A7.71,7.71,0,0,0,351,92.19a14.09,14.09,0,0,0-.69,4.36c-1.47-1.73-3.89-2.36-7-1-2.08.93-3.5,3.29-3.72,6.32a11,11,0,0,0,1.64,6.63,9.15,9.15,0,0,0,3.95,3.6c3.32,1.38,5.19.66,6.78-.19.81,1.73,8.58,14.47,9.39,16.21l12.31-7.43c-1.74-2.7-9.25-14.22-11-16.92,2.36-2,3.56-3.18,4.13-6.24a10.41,10.41,0,0,0-2.84-8.78C361.73,86.55,359.11,85.61,355.33,87Z" style="fill:#f5f5f5"></path><path d="M355.33,87a8.13,8.13,0,0,1,1.8-.57,7.27,7.27,0,0,1,2.28-.14,6.45,6.45,0,0,1,2.93,1,10.63,10.63,0,0,1,4.55,6.92,9.61,9.61,0,0,1-.45,5.21,7.57,7.57,0,0,1-1.51,2.45,25,25,0,0,1-2.17,2l0-.28c3.26,5,7,10.73,11,16.91l.14.22-.22.13-12.31,7.43-.24.15-.13-.26c-.25-.51-.57-1.08-.89-1.63-2.91-5.08-5.9-9.85-8.49-14.58l.35.11a7.83,7.83,0,0,1-2.57.92,7.29,7.29,0,0,1-2.68-.15,10.23,10.23,0,0,1-2.45-.93,8,8,0,0,1-2-1.6,11,11,0,0,1-2.5-4.18,11.64,11.64,0,0,1-.49-4.58,9,9,0,0,1,1.37-4.09,5.87,5.87,0,0,1,3.19-2.42,7,7,0,0,1,3.65-.37,5,5,0,0,1,2.84,1.7l-.26.08a11.77,11.77,0,0,1,2.69-7.87,6.1,6.1,0,0,1,1.78-1.36,2.82,2.82,0,0,1,.72-.29,7.16,7.16,0,0,0-2.39,1.76,11.82,11.82,0,0,0-2.5,7.78V97l-.26-.31a4.67,4.67,0,0,0-2.69-1.56,6.55,6.55,0,0,0-3.46.39,5.46,5.46,0,0,0-3,2.29,8.54,8.54,0,0,0-1.27,3.91,10.65,10.65,0,0,0,2.9,8.4,7.9,7.9,0,0,0,1.89,1.51,9.9,9.9,0,0,0,2.32.86,6.53,6.53,0,0,0,2.49.14,7.21,7.21,0,0,0,2.41-.87l.22-.12.13.24c2.55,4.64,5.58,9.46,8.48,14.53.32.56.64,1.11.92,1.67l-.38-.11,12.32-7.42-.08.35-10.95-17-.11-.16.15-.12c1.53-1.29,3-2.6,3.58-4.31a9.17,9.17,0,0,0,.49-5,10.48,10.48,0,0,0-4.35-6.79,6.8,6.8,0,0,0-5.06-1C356,86.8,355.34,87.06,355.33,87Z" style="fill:#263238"></path><path d="M363.44,119.74c-3.1-4.2-7.06-1.66-6.56,1.22,2.23,6.21-4,11,6.68,18.63a9.78,9.78,0,0,0-1.8,12.47A7.57,7.57,0,0,0,368.08,164h0a2.64,2.64,0,0,0-1.19,1.53c-1.21,4.08-2.09,8.65.32,12.07,1.26,1.79,3.31,3,4.14,5.07.74,1.84.31,3.93.61,5.89.57,3.68,3.61,6.47,6.76,8.48a26.56,26.56,0,0,0,13.39,4.51,16.41,16.41,0,0,0,12.8-5.26c1.45-1.7,2.57-3.83,4.56-4.84,2.65-1.33,5.88.64,8.31-2.65,1.09-1.48,1.61-4.54,1.83-6.31a2.59,2.59,0,0,1,1.21-1.9c2-1.24,3.42-2.93,3.64-6.39.16-2.71-3.95-6.42-3.95-6.42s2.55-2.48,2.08-8c-.31-3.54-2.3-7-5.65-8.23,2.17-5.13-1.25-11.82-6.69-13.05a13,13,0,0,1-3.88-1c-1.27-.76-2-2.17-2.86-3.37a12.33,12.33,0,0,0-8.57-4.9c-2-.2-4.08.07-5.89-.76-1.48-.68-2.55-2-3.79-3s-2.94-1.88-4.47-1.31c-3.67-3.64-3.7-8.59-11.56-9.86C366.78,115.72,363.44,119.74,363.44,119.74Z" style="fill:#ff9a6c"></path><g style="opacity:0.30000000000000004"><path d="M396.24,163.59a12.85,12.85,0,0,0,5.45-8.19,9.53,9.53,0,0,0-3.35-9,7.58,7.58,0,0,0-9.32.15,6.07,6.07,0,0,0-10.55-5"></path></g><path d="M394.79,164.64a12.85,12.85,0,0,0,5.45-8.2,9.51,9.51,0,0,0-3.35-9,7.58,7.58,0,0,0-9.32.14A6.07,6.07,0,0,0,377,142.62" style="fill:#ff9a6c"></path><path d="M377,142.62s.05-.1.18-.25a4.17,4.17,0,0,1,.63-.6,6.2,6.2,0,0,1,3-1.28,6.05,6.05,0,0,1,4.75,1.31,6.49,6.49,0,0,1,2.24,5.81l-.4-.22a7.58,7.58,0,0,1,7.13-1.41,7.93,7.93,0,0,1,3.91,2.6,9.7,9.7,0,0,1,1.89,3.94,10.47,10.47,0,0,1-1,7.21,13.25,13.25,0,0,1-3.07,3.86,9.65,9.65,0,0,1-1.07.81,2,2,0,0,1-.41.24s.5-.41,1.34-1.2a13.7,13.7,0,0,0,2.88-3.88,10.17,10.17,0,0,0,.86-6.93,9.27,9.27,0,0,0-1.82-3.73,7.42,7.42,0,0,0-3.66-2.42,7.16,7.16,0,0,0-6.66,1.28l-.51.46.11-.68a6.11,6.11,0,0,0-2-5.42,5.71,5.71,0,0,0-4.44-1.32,6.29,6.29,0,0,0-2.93,1.1C377.32,142.33,377.05,142.64,377,142.62Z" style="fill:#263238"></path><g style="opacity:0.30000000000000004"><path d="M390.79,187.87a7.4,7.4,0,0,0,11.42-7.81,5.87,5.87,0,0,0,7.78-8.79"></path></g><path d="M389.7,187.27a7.4,7.4,0,0,0,11.42-7.81,6.09,6.09,0,0,0,8.18-.6c2-2.27,2-6.64-.22-8.7" style="fill:#ff9a6c"></path><path d="M409.08,170.16s.11.07.3.23a4.25,4.25,0,0,1,.67.84,6.76,6.76,0,0,1,.9,3.82,7.19,7.19,0,0,1-.65,2.67,5.38,5.38,0,0,1-2.11,2.37,6.39,6.39,0,0,1-7-.22l-.28-.21.42-.26a7.84,7.84,0,0,1-1.64,6.74,7.25,7.25,0,0,1-5.07,2.57,7.42,7.42,0,0,1-3.78-.68,5.06,5.06,0,0,1-.91-.52q-.29-.22-.27-.24s.43.25,1.26.58a7.61,7.61,0,0,0,3.67.49,7,7,0,0,0,4.73-2.5,7.43,7.43,0,0,0,1.5-6.32l-.16-.7.59.44.25.19a5.93,5.93,0,0,0,6.4.23,5.77,5.77,0,0,0,2.64-4.65,6.81,6.81,0,0,0-.71-3.7C409.44,170.54,409,170.2,409.08,170.16Z" style="fill:#263238"></path><path d="M366,132.35a2,2,0,0,1-.19-1.53,3.82,3.82,0,0,1,2.3-2.91,3.78,3.78,0,0,1,3.65.58c.78.62,1,1.23.91,1.25s-.37-.47-1.12-1a3.47,3.47,0,0,0-5.38,2.1C366,131.76,366.1,132.33,366,132.35Z" style="fill:#263238"></path><g style="opacity:0.4"><path d="M376.53,191.19A12.35,12.35,0,0,1,377.86,179a3.6,3.6,0,0,1-5-4.61c-2.85,0-5.12-3.1-4.62-5.9a6.44,6.44,0,0,1,6.15-4.94,7.09,7.09,0,0,1-6.06-9.93,3.91,3.91,0,1,1-1.16-7.54,5,5,0,0,1-.71-7.81c-4.57-1.7-9-5.51-9.11-12.69-.32,4.29-1.71,8.4,6.21,14a9.78,9.78,0,0,0-1.8,12.47A7.57,7.57,0,0,0,368.08,164h0a2.64,2.64,0,0,0-1.19,1.53c-1.21,4.08-2.09,8.65.32,12.07,1.26,1.79,3.31,3,4.14,5.07.74,1.84.31,3.93.61,5.89.57,3.68,3.61,6.47,6.76,8.48a26.56,26.56,0,0,0,13.39,4.51,18.94,18.94,0,0,0,4.5-.45,23.77,23.77,0,0,1-10.88-1.34A16.4,16.4,0,0,1,376.53,191.19Z" style="fill:#fff"></path></g><polygon points="357.4 123.82 357.4 123.82 357.4 123.83 357.4 123.82" style="fill:#fff"></polygon><g style="opacity:0.30000000000000004"><path d="M370.07,115.09c0,1.83,2,2.93,3.53,3.9s3.11,2.93,2.08,4.45a5.84,5.84,0,0,1,6,3.62,7.22,7.22,0,0,1,6.13,4.34,6.31,6.31,0,0,1,8.77,2.74,8.11,8.11,0,0,1,7.82,8.51,5.35,5.35,0,0,1,6.91,8,2.94,2.94,0,0,1,2.57,4.29A8.17,8.17,0,0,1,416.49,169a4.69,4.69,0,0,1-.65,9.34,8.43,8.43,0,0,1-5.67,12.72l.09,0c2.48-.7,5.32.61,7.52-2.36,1.58-2.14,2-7.63,2-7.63,2.62-1.3,4.47-2.93,4.72-7,.16-2.71-3.95-6.42-3.95-6.42s2.55-2.48,2.08-8c-.31-3.54-2.3-7-5.65-8.23,2.17-5.13-1.25-11.82-6.69-13.05a13,13,0,0,1-3.88-1c-1.27-.76-2-2.17-2.86-3.37a12.33,12.33,0,0,0-8.57-4.9c-2-.2-4.08.07-5.89-.76-1.48-.68-2.55-2-3.79-3s-2.94-1.88-4.47-1.31c-3.52-3.48-3.71-8.17-10.63-9.67A2.34,2.34,0,0,0,370.07,115.09Z"></path></g><path d="M345.93,95.59a4.9,4.9,0,0,0-2.37.69c-2,1.24-2.46,3.93-2.62,5.58v.22a18.38,18.38,0,0,0,.83,4,6.87,6.87,0,0,0,2.34,3.32,3,3,0,0,0,1.57.62,1.59,1.59,0,0,0,1.45-.74c.48-.89-.2-1.92-.77-2.74a8.45,8.45,0,0,1-1.54-3.38,4.39,4.39,0,0,1,.82-3.53c.37-.45.86-.8,1.26-1.24a2,2,0,0,0,.6-1.6A1.64,1.64,0,0,0,345.93,95.59Z" style="fill:#fff"></path><g style="opacity:0.30000000000000004"><path d="M400.4,198.26a12.06,12.06,0,0,1-9.94,1.2,38.48,38.48,0,0,0,5,0A41.58,41.58,0,0,0,400.4,198.26Z" style="fill:#fff"></path></g><g style="opacity:0.30000000000000004"><path d="M398,183.93c.05,0-.08.38-.49.83a4.49,4.49,0,0,1-2,1.19,4.37,4.37,0,0,1-2.34,0c-.57-.18-.87-.41-.84-.47a8.37,8.37,0,0,0,3,0A8.55,8.55,0,0,0,398,183.93Z" style="fill:#fff"></path></g><g style="opacity:0.30000000000000004"><path d="M399,177.65c.12-.06.47.54.27,1.31s-.79,1.13-.87,1,.21-.54.36-1.14S398.89,177.7,399,177.65Z" style="fill:#fff"></path></g><g style="opacity:0.30000000000000004"><path d="M407.34,178c0,.05-.13.27-.52.48a3.1,3.1,0,0,1-1.67.34,3.16,3.16,0,0,1-1.62-.57c-.35-.26-.49-.5-.45-.55a10.57,10.57,0,0,0,2.1.6A10.91,10.91,0,0,0,407.34,178Z" style="fill:#fff"></path></g><g style="opacity:0.30000000000000004"><path d="M396.49,158.61c.07,0,.07.37-.13.91a4.54,4.54,0,0,1-1.3,1.8,4.42,4.42,0,0,1-2,1c-.56.1-.92,0-.92,0a10.85,10.85,0,0,0,2.58-1.36A10.31,10.31,0,0,0,396.49,158.61Z" style="fill:#fff"></path></g><g style="opacity:0.30000000000000004"><path d="M385.42,145.81c.06,0,.3.28.48.89a4.62,4.62,0,0,1,0,2.43,4.52,4.52,0,0,1-1.21,2.1c-.45.44-.82.59-.85.54a9.12,9.12,0,0,0,1.56-2.78A8.86,8.86,0,0,0,385.42,145.81Z" style="fill:#fff"></path></g><path d="M314.11,62.89a9.76,9.76,0,0,0-8.24-5.72c.43-2.29-1.16-4.61-3.26-5.6a10.5,10.5,0,0,0-6.83-.37c-5,1.15-8.87,4.81-12.36,8.59S275.53,67.38,272.2,69c-4.54,2.16-3.48-2.32-3.86-6.62-.3-3.4-1-6.72-1.12-10.13a19.84,19.84,0,0,0-2.36-9.35c-1.66-2.78-4.62-5-7.87-5a8.66,8.66,0,0,0-16.83-3.23,6.41,6.41,0,0,0-11.1,4.53l-1.11.08a84.29,84.29,0,0,0-20.83,16.2,16.81,16.81,0,0,0-4,6,6.57,6.57,0,0,0,1.24,6.75c2.46,2.38,6.46,1.62,9.76.7l21.83-6.12c-1.84,4.2,1.12,9.74,5.63,10.53a6.25,6.25,0,0,0,4.19,10.49c-1,5.83-1.28,12.09,1.33,17.4s8.91,9.16,14.53,7.32a17.84,17.84,0,0,0,29.1-3.71A11.86,11.86,0,0,0,307.47,89.6a10.87,10.87,0,0,0,5.24-16.78A9.76,9.76,0,0,0,314.11,62.89Z" style="fill:#FF725E"></path><g style="opacity:0.30000000000000004"><path d="M252.15,62.24a8.46,8.46,0,0,1-5.73-1.33,3.16,3.16,0,0,1-2.86,2.61c-1.39.18-3.14-.6-4.48-1s-2.3.14-3.65.52l0,.16a1.66,1.66,0,0,1,1.82.49,12.67,12.67,0,0,1,1.15,1.64A5.48,5.48,0,0,0,248,64.08a6.25,6.25,0,0,0,9.31-4.62A8.41,8.41,0,0,1,252.15,62.24Z"></path></g><path d="M232,63.87s5.83-1.64,6.52-1.22a15.58,15.58,0,0,0,3.36,1.86,4.16,4.16,0,0,0,5-3.24,7.35,7.35,0,0,0,10.6-2.62" style="fill:#FF725E"></path><path d="M257.47,58.65a2.64,2.64,0,0,1-.42.85,7.39,7.39,0,0,1-1.82,1.89,7.27,7.27,0,0,1-3.73,1.35,7.65,7.65,0,0,1-4.78-1.25l.4-.18a4.07,4.07,0,0,1-1.2,2.27,4.28,4.28,0,0,1-5.56.52c-.39-.22-.76-.46-1.1-.69l-.52-.35c-.15-.09-.37-.26-.44-.25a9,9,0,0,0-2.09.21c-1.3.25-2.35.49-3.08.65a5.52,5.52,0,0,1-1.15.2,5,5,0,0,1,1.1-.4c.71-.22,1.75-.52,3.06-.81a7.9,7.9,0,0,1,2.24-.27,1.86,1.86,0,0,1,.6.3l.53.33c.35.23.71.45,1.09.66a4.26,4.26,0,0,0,2.48.69,4.16,4.16,0,0,0,2.48-1.17,3.65,3.65,0,0,0,1.06-2l.06-.39.33.22a7.32,7.32,0,0,0,4.46,1.23A7.09,7.09,0,0,0,255,61.11,9.93,9.93,0,0,0,257.47,58.65Z" style="fill:#263238"></path><path d="M252.82,52.65a10.14,10.14,0,0,0,.85-.89,4.32,4.32,0,0,0,.67-3.15,4.16,4.16,0,0,0-.9-2,5.12,5.12,0,0,0-2.09-1.48,7.13,7.13,0,0,0-5.79.4,7.73,7.73,0,0,0-2.44,1.92l-.48.55,0-.73a4.42,4.42,0,0,0-2.29-3.91,4.07,4.07,0,0,0-3.69-.06A4.74,4.74,0,0,0,234.75,45c-.33.52-.43.85-.47.84a.66.66,0,0,1,0-.25,3.15,3.15,0,0,1,.28-.68A4.53,4.53,0,0,1,236.54,43a4.31,4.31,0,0,1,4,0,4.81,4.81,0,0,1,2.6,4.32l-.45-.17a8.2,8.2,0,0,1,2.59-2.05,7.49,7.49,0,0,1,6.2-.38,5.44,5.44,0,0,1,2.25,1.64,4.62,4.62,0,0,1,.94,2.25,4.41,4.41,0,0,1-.88,3.32,3.32,3.32,0,0,1-.71.63A1.21,1.21,0,0,1,252.82,52.65Z" style="fill:#263238"></path><g style="opacity:0.30000000000000004"><path d="M264.09,93.65a10.81,10.81,0,0,0,3.78,6,7.24,7.24,0,0,0,6.82,1.12,5.48,5.48,0,0,0,3.46-5.7,10.06,10.06,0,0,0,8.3,2.49,8,8,0,0,0,6.28-5.7,6.6,6.6,0,0,0-3.54-7.45A4.08,4.08,0,0,0,291,76.46"></path></g><path d="M262.61,90.93a10.74,10.74,0,0,0,3.77,6A7.24,7.24,0,0,0,273.2,98a5.47,5.47,0,0,0,3.46-5.7,10.06,10.06,0,0,0,8.3,2.49,8,8,0,0,0,6.28-5.7,6.61,6.61,0,0,0-3.53-7.45,4.08,4.08,0,0,0,1.84-7.94" style="fill:#FF725E"></path><path d="M289.55,73.74a2.53,2.53,0,0,1,.85.28,4.13,4.13,0,0,1,1.8,1.77,4,4,0,0,1,0,3.91,4.44,4.44,0,0,1-4.57,2.18l.13-.4a6.82,6.82,0,0,1,3.81,7.1,8.1,8.1,0,0,1-6.7,6.52,10.35,10.35,0,0,1-8.41-2.58l.42-.22a5.46,5.46,0,0,1-1.39,4.37,5.94,5.94,0,0,1-3.73,2,7.82,7.82,0,0,1-6.36-2.31,10.41,10.41,0,0,1-2.4-3.82,7.81,7.81,0,0,1-.35-1.15,1.23,1.23,0,0,1-.07-.41s.17.55.57,1.5a11,11,0,0,0,2.46,3.66,7.52,7.52,0,0,0,6.1,2.1,5.43,5.43,0,0,0,3.43-1.83,5,5,0,0,0,1.24-4l-.11-.69.52.46a9.9,9.9,0,0,0,8,2.44,7.66,7.66,0,0,0,6.29-6.08,6.39,6.39,0,0,0-3.49-6.64l-1.83-.78,2,.38a4.09,4.09,0,0,0,4.19-1.94,3.74,3.74,0,0,0,0-3.63,4.19,4.19,0,0,0-1.64-1.77C289.84,73.84,289.54,73.77,289.55,73.74Z" style="fill:#263238"></path><g style="opacity:0.30000000000000004"><path d="M245.74,84.36l-.13.31a1.7,1.7,0,0,0,0,.22Z"></path></g><g style="opacity:0.30000000000000004"><path d="M309,75.08a5.86,5.86,0,0,1-6.56,9.67c1.58,3,2.95,6.46,2.17,9.79s-4.65,6-7.67,4.46A7.75,7.75,0,0,1,286,102.56a16.77,16.77,0,0,1-2.21,6,6.06,6.06,0,0,1-5.42,2.82c-2.12-.25-3.95-2.53-3.25-4.55a6.53,6.53,0,0,1-12.77-2.08,6.48,6.48,0,0,1-9.08-9.06c-2.44,1.82-6.25.26-7.63-2.44a7.2,7.2,0,0,1-.63-1.79,22.07,22.07,0,0,0,2.05,9.73c2.62,5.3,8.91,9.16,14.53,7.32a17.84,17.84,0,0,0,29.1-3.71A11.86,11.86,0,0,0,307.47,89.6a10.87,10.87,0,0,0,5.24-16.78,9.77,9.77,0,0,0,2.12-6.92c-.29-.48-.6-1-.93-1.4A11.75,11.75,0,0,1,309,75.08Z"></path></g><g style="opacity:0.4"><path d="M264.81,76.35c3-.86,5.48-1.11,7.89.17a7.68,7.68,0,0,1,8.14-6.39,7.26,7.26,0,0,1,7.6-8,5.17,5.17,0,0,1,5.75-7.32A7.33,7.33,0,0,1,300.66,51a12.37,12.37,0,0,0-4.88.24c-5,1.15-8.87,4.81-12.36,8.59S275.53,67.38,272.2,69c-1.36.65-2.21.69-2.75.33a5.48,5.48,0,0,1-.4,4.29C268.2,75.12,266.91,75.53,264.81,76.35Z" style="fill:#fff"></path></g><g style="opacity:0.4"><path d="M243.48,36.36a4.33,4.33,0,0,1,4.19-.93c1.65.65,2.49,2.51,3.94,3.54.88.61,1.94.9,2.86,1.44a2.82,2.82,0,0,1,1.6,2.56,8.15,8.15,0,0,1,8.18.77,7.85,7.85,0,0,1,1.93,2.09,14.32,14.32,0,0,0-1.32-3c-1.66-2.78-4.62-5-7.87-5a8.66,8.66,0,0,0-16.83-3.23,6.41,6.41,0,0,0-11.1,4.53l-1.11.08a84.29,84.29,0,0,0-20.83,16.2l-.45.48a60.53,60.53,0,0,1,22.76-10.73A6.48,6.48,0,0,1,240.9,40,11.22,11.22,0,0,1,243.48,36.36Z" style="fill:#fff"></path></g><g style="opacity:0.30000000000000004"><path d="M250.38,92.22s-.54-.18-1.11-.85A5.07,5.07,0,0,1,248,88.22a5.21,5.21,0,0,1,1-3.22c.54-.7,1-1,1.07-.91s-.34.42-.76,1.11a5.3,5.3,0,0,0,.17,6C250,91.82,250.43,92.15,250.38,92.22Z" style="fill:#fff"></path></g><g style="opacity:0.30000000000000004"><path d="M254.33,101.08a2.89,2.89,0,0,1-.47-2.36,2.94,2.94,0,0,1,1-2.18c.13.08-.36,1-.51,2.24S254.47,101,254.33,101.08Z" style="fill:#fff"></path></g><g style="opacity:0.30000000000000004"><path d="M270.15,81.57c0,.08-.41,0-1,0a5.31,5.31,0,0,0-4.08,1.91c-.38.46-.56.8-.64.77s0-.43.34-1a4.57,4.57,0,0,1,1.91-1.66,4.5,4.5,0,0,1,2.5-.4C269.82,81.3,270.17,81.52,270.15,81.57Z" style="fill:#fff"></path></g><g style="opacity:0.30000000000000004"><path d="M272.64,81.29c0,.15-.29.24-.52.46s-.35.46-.49.47-.27-.48.14-.85S272.68,81.15,272.64,81.29Z" style="fill:#fff"></path></g><g style="opacity:0.30000000000000004"><path d="M278.15,75.23c0,.08-.43.19-1.08.5A5.76,5.76,0,0,0,273.86,80c-.13.7-.12,1.16-.2,1.17s-.21-.45-.17-1.21a5.14,5.14,0,0,1,3.44-4.53C277.66,75.15,278.14,75.17,278.15,75.23Z" style="fill:#fff"></path></g><g style="opacity:0.30000000000000004"><path d="M280.58,74.9c.11.09-.16.6-.62,1.13s-.9.9-1,.81.16-.61.62-1.14S280.48,74.8,280.58,74.9Z" style="fill:#fff"></path></g><g style="opacity:0.30000000000000004"><path d="M259.15,54.43c-.15,0-.43-.72-1.14-1.36s-1.47-.86-1.45-1,1-.14,1.81.63S259.29,54.43,259.15,54.43Z" style="fill:#fff"></path></g><g style="opacity:0.30000000000000004"><path d="M251.65,47.73c-.15,0-.38-.52-1-.88s-1.17-.35-1.2-.49.13-.18.42-.21a1.68,1.68,0,0,1,1.06.26,1.74,1.74,0,0,1,.7.85C251.75,47.53,251.71,47.71,251.65,47.73Z" style="fill:#fff"></path></g><g style="opacity:0.30000000000000004"><path d="M239,45.07c-.14.06-.4-.27-.81-.52s-.82-.34-.83-.48.53-.31,1.1,0S239.1,45,239,45.07Z" style="fill:#fff"></path></g><g style="opacity:0.30000000000000004"><path d="M227.56,49.92a44.31,44.31,0,0,0-4.89.57A42.58,42.58,0,0,0,218,52.11,9.47,9.47,0,0,1,222.55,50,9.7,9.7,0,0,1,227.56,49.92Z" style="fill:#fff"></path></g><path d="M211.89,204.37a9.76,9.76,0,0,0,10,1.25c.68,2.22,3.17,3.54,5.49,3.45a10.56,10.56,0,0,0,6.23-2.84c3.9-3.34,5.62-8.38,7-13.34s3.47-10.38,5.69-13.33c3-4,4.15.44,6.49,4.07,1.84,2.88,4,5.51,5.69,8.46a19.78,19.78,0,0,0,6.42,7.19c2.76,1.69,6.4,2.24,9.28.74a8.66,8.66,0,0,0,16.4-5,6.41,6.41,0,0,0,7.74-9.15l.95-.59a84.69,84.69,0,0,0,10.94-24,16.91,16.91,0,0,0,.8-7.14c-.39-2.38-1.91-4.72-4.23-5.4-3.28-1-6.47,1.56-9,3.91l-16.51,15.54c-.31-4.57-5.5-8.11-9.87-6.72a6.24,6.24,0,0,0-8.57-7.34c-1.81-5.64-4.47-11.31-9.25-14.8s-12.14-4-16.27.24a17.84,17.84,0,0,0-24.06,16.79,11.85,11.85,0,0,0-7.8,21.23,10.88,10.88,0,0,0,3.14,17.3A9.75,9.75,0,0,0,211.89,204.37Z" style="fill:#FF725E"></path><g style="opacity:0.4"><path d="M267.09,176.21a8.45,8.45,0,0,1,5.69-1.48,3.13,3.13,0,0,1,1.33-3.63c1.14-.81,3.06-.93,4.43-1.2s2-1.2,3-2.16l-.09-.13a1.67,1.67,0,0,1-1.84.41,12.5,12.5,0,0,1-1.78-.92,5.48,5.48,0,0,0-7.93,5.57,6.25,6.25,0,0,0-6.11,8.41A8.51,8.51,0,0,1,267.09,176.21Z" style="fill:#fff"></path></g><path d="M284.2,165.42s-4.4,4.15-5.21,4.1a15.45,15.45,0,0,0-3.84-.09,4.17,4.17,0,0,0-2.94,5.19,7.34,7.34,0,0,0-8.17,7.24" style="fill:#FF725E"></path><path d="M264,181.86a2.26,2.26,0,0,1,0-1,7.12,7.12,0,0,1,.74-2.52,7.22,7.22,0,0,1,2.67-2.92,7.63,7.63,0,0,1,4.81-1.11l-.27.34a4.15,4.15,0,0,1,0-2.56,4.29,4.29,0,0,1,4.69-3c.45,0,.88.06,1.3.1l.61.06c.18,0,.46.07.52,0a8.61,8.61,0,0,0,1.74-1.15c1-.82,1.86-1.52,2.44-2a4.73,4.73,0,0,1,.92-.71,5.84,5.84,0,0,1-.79.86c-.53.52-1.31,1.27-2.34,2.14a8.42,8.42,0,0,1-1.85,1.28,2,2,0,0,1-.68,0l-.61-.05c-.42,0-.84-.07-1.28-.08a3.83,3.83,0,0,0-4.17,2.72,3.58,3.58,0,0,0,0,2.24l.12.38-.4,0a7.24,7.24,0,0,0-7.13,3.67A9.88,9.88,0,0,0,264,181.86Z" style="fill:#263238"></path><path d="M270.94,185a8.29,8.29,0,0,0-.34,1.18,4.31,4.31,0,0,0,.86,3.09,4.17,4.17,0,0,0,1.74,1.38,5.08,5.08,0,0,0,2.54.33,7.06,7.06,0,0,0,4.94-3,7.92,7.92,0,0,0,1.28-2.83l.16-.71.32.66a4.4,4.4,0,0,0,3.84,2.4,4.07,4.07,0,0,0,3.3-1.66,4.79,4.79,0,0,0,.94-2.38c.05-.61,0-1,0-1a.75.75,0,0,1,.08.24,3.18,3.18,0,0,1,.07.73,4.67,4.67,0,0,1-.85,2.56,4.37,4.37,0,0,1-3.57,1.91,4.79,4.79,0,0,1-4.3-2.63l.48-.05a8.52,8.52,0,0,1-1.35,3,7.5,7.5,0,0,1-5.32,3.21,5.39,5.39,0,0,1-2.76-.42,4.56,4.56,0,0,1-2.63-4.9,3.28,3.28,0,0,1,.34-.88C270.86,185.1,270.92,185,270.94,185Z" style="fill:#263238"></path><g style="opacity:0.4"><path d="M241.94,153.92a10.8,10.8,0,0,0-6.13-3.55,7.2,7.2,0,0,0-6.55,2.17,5.48,5.48,0,0,0-.43,6.66,10,10,0,0,0-8.51,1.64,8,8,0,0,0-2.92,8,6.61,6.61,0,0,0,6.59,5,4.08,4.08,0,0,0,2,7.89" style="fill:#fff"></path></g><path d="M244.52,155.64a10.8,10.8,0,0,0-6.13-3.55,7.2,7.2,0,0,0-6.55,2.17,5.48,5.48,0,0,0-.43,6.66,10.06,10.06,0,0,0-8.51,1.63,8,8,0,0,0-2.92,8,6.61,6.61,0,0,0,6.59,5,4.08,4.08,0,0,0,2.05,7.89" style="fill:#FF725E"></path><path d="M228.62,183.37a2.56,2.56,0,0,1-.88.15,4.29,4.29,0,0,1-2.42-.74,4,4,0,0,1-1.84-3.44,4.43,4.43,0,0,1,3-4.06l.08.41a6.81,6.81,0,0,1-6.67-4.52,8.11,8.11,0,0,1,2.91-8.88,10.35,10.35,0,0,1,8.64-1.62l-.26.4a5.43,5.43,0,0,1-.79-4.52,5.82,5.82,0,0,1,2.39-3.45,7.8,7.8,0,0,1,6.71-.91,10.59,10.59,0,0,1,3.9,2.26c.39.36.66.66.84.86a1.76,1.76,0,0,1,.26.33s-.41-.4-1.21-1.06a10.87,10.87,0,0,0-3.88-2.09,7.49,7.49,0,0,0-6.37.95,5.42,5.42,0,0,0-2.19,3.22,5,5,0,0,0,.74,4.11l.42.55-.68-.16a9.88,9.88,0,0,0-8.21,1.54,7.64,7.64,0,0,0-2.75,8.3,6.38,6.38,0,0,0,6.17,4.27l2-.15-1.91.56a4.09,4.09,0,0,0-2.81,3.67,3.73,3.73,0,0,0,1.64,3.23,4.11,4.11,0,0,0,2.28.81C228.31,183.42,228.61,183.34,228.62,183.37Z" style="fill:#263238"></path><g style="opacity:0.30000000000000004"><path d="M262.51,153.64l0-.33a1.87,1.87,0,0,0-.07-.22C262.44,153.28,262.48,153.46,262.51,153.64Z"></path></g><g style="opacity:0.4"><path d="M210.79,191.19a5.86,5.86,0,0,1,1.33-11.61c-2.81-2-5.62-4.36-6.47-7.67s1.32-7.52,4.73-7.51a7.77,7.77,0,0,1,8-8.21,16.65,16.65,0,0,1-.82-6.32,6.08,6.08,0,0,1,3.49-5c2-.75,4.68.42,5,2.53a6.52,6.52,0,0,1,12.27-4.08,6.48,6.48,0,0,1,12.25,3.82c1.31-2.75,5.41-3.13,7.89-1.38a7.42,7.42,0,0,1,1.39,1.29,22,22,0,0,0-6.33-7.66c-4.78-3.49-12.14-4-16.27.24a17.84,17.84,0,0,0-24.06,16.79,11.85,11.85,0,0,0-7.8,21.23,10.88,10.88,0,0,0,3.14,17.3,9.73,9.73,0,0,0,1.33,7.11c.48.29,1,.56,1.47.81A11.76,11.76,0,0,1,210.79,191.19Z" style="fill:#fff"></path></g><g style="opacity:0.30000000000000004"><path d="M249.33,169.58c-2.27,2.16-4.35,3.53-7.08,3.51a7.67,7.67,0,0,1-4.24,9.44,7.27,7.27,0,0,1-3,10.6,5.17,5.17,0,0,1-1.71,9.15,7.31,7.31,0,0,1-3.94,6.42,12.6,12.6,0,0,0,4.22-2.47c3.9-3.34,5.62-8.38,7-13.34s3.47-10.38,5.69-13.33c.9-1.21,1.63-1.64,2.28-1.57a5.54,5.54,0,0,1-1.64-4C246.89,172.25,247.85,171.29,249.33,169.58Z"></path></g><g style="opacity:0.30000000000000004"><path d="M286.77,195.12a4.33,4.33,0,0,1-3.28,2.77c-1.77.19-3.37-1.07-5.14-1.31-1.05-.14-2.13.1-3.2,0a2.8,2.8,0,0,1-2.6-1.53,8.16,8.16,0,0,1-7.6,3.12,8,8,0,0,1-2.69-1,14.62,14.62,0,0,0,2.55,2c2.76,1.69,6.4,2.24,9.28.74a8.66,8.66,0,0,0,16.4-5,6.41,6.41,0,0,0,7.74-9.15l.95-.59a84.69,84.69,0,0,0,10.94-24c.05-.21.11-.42.17-.63a60.49,60.49,0,0,1-15.18,20.06,6.48,6.48,0,0,1-7.75,9.95A11.15,11.15,0,0,1,286.77,195.12Z"></path></g><g style="opacity:0.30000000000000004"><path d="M254.75,148.83a2.25,2.25,0,0,1,1.38.24,5,5,0,0,1,3.12,5.56c-.16.87-.47,1.33-.52,1.3a11.54,11.54,0,0,1,.15-1.34,5.33,5.33,0,0,0-2.9-5.19A12.68,12.68,0,0,1,254.75,148.83Z"></path></g><g style="opacity:0.30000000000000004"><path d="M247.14,142.81c.08-.11,1,.57,1.51,1.88a2.93,2.93,0,0,1,.11,2.4c-.15,0-.14-1.06-.59-2.22S247,142.92,247.14,142.81Z"></path></g><g style="opacity:0.30000000000000004"><path d="M242.17,167.43c0-.08.37-.18.9-.46a5.37,5.37,0,0,0,1.76-1.49,5.29,5.29,0,0,0,1-2.09c.12-.59.12-1,.21-1s.19.38.15,1a4.39,4.39,0,0,1-.92,2.36,4.5,4.5,0,0,1-2,1.51C242.59,167.52,242.18,167.49,242.17,167.43Z"></path></g><g style="opacity:0.30000000000000004"><path d="M240.1,168.83c0-.14.14-.34.24-.64s.1-.57.22-.65.46.3.27.83S240.13,169,240.1,168.83Z"></path></g><g style="opacity:0.30000000000000004"><path d="M238,176.76c-.05-.06.29-.36.72-.94a5.68,5.68,0,0,0,.88-5.24,6.74,6.74,0,0,1-.37-1.12c.05,0,.4.29.72,1a5.15,5.15,0,0,1-.95,5.61C238.5,176.61,238.06,176.81,238,176.76Z"></path></g><g style="opacity:0.30000000000000004"><path d="M236,178.19c-.14,0-.13-.61,0-1.3s.39-1.21.53-1.18.13.61,0,1.3S236.16,178.22,236,178.19Z"></path></g><g style="opacity:0.30000000000000004"><path d="M264.51,186.38c.11-.1.71.44,1.63.67s1.71.09,1.76.23-.8.57-1.89.28S264.38,186.45,264.51,186.38Z"></path></g><g style="opacity:0.30000000000000004"><path d="M274.26,188.84c.11-.1.57.28,1.26.33s1.2-.23,1.3-.12,0,.21-.27.38a1.77,1.77,0,0,1-1.07.26,1.69,1.69,0,0,1-1-.43C274.26,189.06,274.21,188.88,274.26,188.84Z"></path></g><g style="opacity:0.30000000000000004"><path d="M286.73,185.31c.1-.12.48.06,1,.08s.89-.08,1,0-.33.53-1,.48S286.63,185.4,286.73,185.31Z"></path></g><g style="opacity:0.30000000000000004"><path d="M294.59,175.73a45.79,45.79,0,0,0,4.06-2.78,43.74,43.74,0,0,0,3.37-3.59,9.64,9.64,0,0,1-3,4A9.8,9.8,0,0,1,294.59,175.73Z"></path></g></g></svg>
