<svg xmlns="http://www.w3.org/2000/svg" viewBox="0 0 500 500"><g id="freepik--Floor--inject-89"><path id="freepik--floor--inject-89" d="M81.43,243.92c-94.27,54.42-94.27,142.66,0,197.09s247.11,54.43,341.38,0,94.28-142.67,0-197.09S175.7,189.49,81.43,243.92Z" style="fill:#fafafa"></path></g><g id="freepik--Shadow--inject-89"><path id="freepik--shadow--inject-89" d="M390.14,248.05c77.53,44.76,77.52,117.33,0,162.09s-203.22,44.76-280.75,0-77.52-117.33,0-162.09S312.62,203.29,390.14,248.05Z" style="opacity:0.15"></path></g><g id="freepik--Cake--inject-89"><g id="freepik--cake--inject-89"><g id="freepik--Plate--inject-89"><path d="M385.5,237.57c-75-43.28-196.5-43.28-271.47,0h0v-7.8C74.82,252.4,56.16,282.39,58,312c-1.8,29.65,16.86,59.63,56.06,82.26,75,43.28,196.51,43.28,271.48,0S460.47,280.85,385.5,237.57Z" style="fill:#BA68C8"></path><path d="M385.5,237.57c-75-43.28-196.5-43.28-271.47,0h0v-7.8C74.82,252.4,56.16,282.39,58,312c-1.8,29.65,16.86,59.63,56.06,82.26,75,43.28,196.51,43.28,271.48,0S460.47,280.85,385.5,237.57Z" style="fill:#fff;opacity:0.30000000000000004"></path><path d="M385.5,229.77c75,43.29,75,113.46,0,156.74S189,429.78,114,386.51s-75-113.46,0-156.74S310.54,186.49,385.5,229.77Z" style="fill:#fafafa"></path><path d="M249.78,198.4c51.08,0,99.09,11.48,135.18,32.32,35.9,20.73,55.68,48.22,55.68,77.42s-19.78,56.7-55.69,77.43c-36.09,20.83-84.1,32.31-135.19,32.31s-99.1-11.48-135.19-32.32c-35.91-20.73-55.68-48.22-55.68-77.42s19.77-56.7,55.68-77.43c36.09-20.83,84.1-32.31,135.21-32.31h0m0-1.09c-49.12,0-98.25,10.82-135.73,32.46-75,43.28-75,113.46,0,156.74C151.51,408.15,200.63,419,249.76,419S348,408.15,385.5,386.51c75-43.28,75-113.45,0-156.74-37.48-21.64-86.6-32.46-135.74-32.46Z" style="fill:#ebebeb"></path><path d="M157.72,259.08c-51.52,29.75-51.52,78,0,107.72s135,29.74,186.56,0,51.52-78,0-107.71S209.24,229.34,157.72,259.08Z" style="fill:#BA68C8"></path><path d="M157.72,259.08c-51.52,29.75-51.52,78,0,107.72s135,29.74,186.56,0,51.52-78,0-107.71S209.24,229.34,157.72,259.08Z" style="fill:#fff;opacity:0.5"></path><path d="M164.07,264.59c-48,26.7-48,70,0,96.7s125.85,26.71,173.86,0,48-70,0-96.7S212.08,237.88,164.07,264.59Z" style="fill:#fafafa"></path></g><path id="freepik--shadow--inject-89" d="M371.47,353.77c14.42,9,22.25,22.71,1.62,21.06-46.76-3.73-232.67-19.89-274.68-23.39C86,350.4,84.69,342.56,92,324s43.89-74.13,94.48-81.32C186.44,242.71,358,345.37,371.47,353.77Z" style="opacity:0.15"></path><g id="freepik--Slice--inject-89"><path d="M380.88,234.75v131.3a5,5,0,0,1-5.74,5L121.48,336.67a10.65,10.65,0,0,1-9.22-10.55V197.48a5,5,0,0,1,2-4l105.41-78.79a10.1,10.1,0,0,1,13.52,1.27l145.38,113A8.69,8.69,0,0,1,380.88,234.75Z" style="fill:#ebebeb"></path><path d="M172.65,132.34a255.79,255.79,0,0,1,46.6-20.71c4.66-1.56,9.22-2.55,15.74,2.53S379.05,229.38,379.05,229.38a1,1,0,0,1-.85,1.63L115.9,195.45c-3.64-.49-3.64,2-3.64,2h0a12,12,0,0,1,1-4.84C122.92,170.54,142.71,149.62,172.65,132.34Z" style="fill:#fafafa"></path><path d="M225.5,111.44h0c2.91,0,5.71,1.13,8.84,3.56C240.6,119.89,369.92,223.43,378,229.9L116,194.39a7.53,7.53,0,0,0-1-.07,5.44,5.44,0,0,0-1.29.15,10.23,10.23,0,0,1,.49-1.41c9.89-22.55,30.28-43.23,59-59.8a255.5,255.5,0,0,1,46.41-20.62,18.51,18.51,0,0,1,5.91-1.2m0-1.07a19.65,19.65,0,0,0-6.25,1.26,255.79,255.79,0,0,0-46.6,20.71c-29.94,17.28-49.73,38.2-59.41,60.3a12,12,0,0,0-1,4.84s0-2.09,2.75-2.09a7.38,7.38,0,0,1,.89.06L378.2,231h.14a1,1,0,0,0,.71-1.64S241.51,119.24,235,114.16c-3.66-2.85-6.7-3.79-9.49-3.79Z" style="fill:#ebebeb"></path><path d="M375.14,371.05,131.55,338a5.64,5.64,0,0,1-4.88-5.58V309.18a4.5,4.5,0,0,1,5.1-4.46l249.1,33.74v27.59A5,5,0,0,1,375.14,371.05Z" style="fill:#BA68C8"></path><path d="M131.77,304.72a4.5,4.5,0,0,0-5.1,4.46v23.27a5.64,5.64,0,0,0,4.88,5.58l89,12.07c-3.54-.48-17.17-3.79-20.42-4.58-5.92-1.45-7.6-3-10.63-7.23a45.58,45.58,0,0,0-7.75-8.37c-1.44-1.21-3-2.29-4.5-3.36-1-.72-2.95-1.62-3.39-2.89a1.55,1.55,0,0,1,1.07-1.81,4.56,4.56,0,0,1,2.32,0c4.35.82,8.69,1.77,13,2.84a32.22,32.22,0,0,0,10.63.82c7.3-.49,14.84-2.66,22.15-1.37,4.73.84,11.11,3.7,15.86,4.44,10.89,1.7,16-3.07,26.06-5.85Zm93.3,25.37c-2.17-.71-5.18-1.61-7.29-.41a2.59,2.59,0,0,0-1.38,1.92c-.28,3.46,6.8,4.76,9.2,5.12,1.91.28,6.4.07,4.94-3.11C229.65,331.66,227,330.69,225.07,330.09Zm-21,6.41a4.18,4.18,0,0,0,1.88.94,13.78,13.78,0,0,0,2.31.4c1.59.14,2.6-1.19,1.52-2.49a5.29,5.29,0,0,0-3.77-1.74C204.37,333.51,202.47,335,204,336.5Z" style="opacity:0.1"></path><path d="M380.87,328.61,131.55,294.76a5.64,5.64,0,0,1-4.88-5.59V265.91a4.5,4.5,0,0,1,5.1-4.46l249.1,33.74Z" style="fill:#BA68C8"></path><path d="M131.77,261.45a4.5,4.5,0,0,0-5.1,4.46v23.26a5.64,5.64,0,0,0,4.88,5.59L177.2,301c-5-1.34-13.14-5.34-15.68-6.62-4.69-2.36-10-4.93-13.12-9.38a7.55,7.55,0,0,1-1.27-6.65c.89-2.55,3.56-4.14,6.24-4.54,3.7-.54,7.8.56,11.37,1.49,3.84,1,7.68,2.13,11.66,2.38,8.24.53,16.43-2.46,24.68-1,3.63.63,7.17,3.26,10.61,4.68a50.42,50.42,0,0,0,12.21,3.48c7.64,1.07,15.4-.13,23-1.32,3.36-.53,6.68-1.36,10.07-1.64a44,44,0,0,1,10,.74c7.15,1,18.33,2.24,25.27,4.26,6.6,1.92,11.47,4.85,18.1,6.71,5.87,1.64,13.29,3.25,19.38,2.72,5.66-.5,9.46-1.67,15.09-2.72a44.84,44.84,0,0,0,8.12-2.12Zm24.82,21.11a2.47,2.47,0,0,0,.45,2.14,11.55,11.55,0,0,0,9.54,4.44c1.39-.06,3-.2,3.34-1.87.46-2.24-2.29-4-3.81-5-2-1.42-4.5-2.55-7-2.13A3.25,3.25,0,0,0,156.59,282.56ZM179,292.86c-1.06-.79-6-2.51-5.44.41.32,1.76,3,2.23,4.42,2.12a4.63,4.63,0,0,0,.93-.15l.13-.05a1.24,1.24,0,0,0,.74-.73A1.59,1.59,0,0,0,179,292.86Zm120.59,4a11.76,11.76,0,0,0-5.91-1.58c-1.21,0-2.82.44-3.32,1.7a2.35,2.35,0,0,0,.35,2.25,9.37,9.37,0,0,0,4.31,2.75c2,.74,5.71,1.93,7.66.55s-.8-4.13-2.09-5C300.3,297.31,300,297.1,299.62,296.9Z" style="opacity:0.1"></path><path d="M380.87,285.34,131.55,251.49a5.64,5.64,0,0,1-4.88-5.59V222.64a4.5,4.5,0,0,1,5.1-4.46l249.1,33.74Z" style="fill:#BA68C8"></path><path d="M131.77,218.18a4.5,4.5,0,0,0-5.1,4.46V245.9a5.64,5.64,0,0,0,4.88,5.59l27,3.67c-1.64-.65-7.08-3.6-8.59-4.51-8.61-5.22-11.71-8.45-13.17-11.53a9.93,9.93,0,0,1,.32-9.55c5.11-7.82,19.56-1.37,26.23.81,9.47,3.1,18.93,6.8,29,7.61,12,1,24.25-2.23,36,.32,9.7,2.1,18.22,8,27.82,10.46,9.9,2.57,20.29,1.35,29.94-1.64,4.77-1.47,10.62-3.26,15.62-5.94Zm25.91,29.3a2.77,2.77,0,0,0,.49.85c1.38,1.74,5.88,4,8,2.26,1.39-1.16-.3-3.4-1.39-4.1-1.48-1-4.41-2-6.12-1.16a1.85,1.85,0,0,0-1,1.28A1.73,1.73,0,0,0,157.68,247.48Zm-9.81-9.84a8.93,8.93,0,0,0,7.42,3A2.57,2.57,0,0,0,157,240a1.88,1.88,0,0,0,.52-1.23c.21-3.48-4.23-6.36-7.38-6.11C147.77,232.88,146.11,235.45,147.87,237.64Z" style="opacity:0.1"></path><path d="M150.27,307.23c14.84,2,26.51,9.45,40.76,11.72s27.21-.65,34.66,1.62,13.15,6,25.54,4.54c6.61-.79,24.7-.86,33.74.36,0,0-7.45-5.5-62.84-12.63C168.33,305.92,150.27,307.23,150.27,307.23Z" style="fill:#ebebeb"></path><path d="M139,262.43c12.63,1.71,17.31,9,29.67,10.88s23.81-1.13,30-.31c13.77,1.8,17.44,5.49,28,7.2s20.43-3.12,28.5-2c0,0-9.56-6.79-59.37-13.21S139,262.43,139,262.43Z" style="fill:#ebebeb"></path><path d="M290.58,282.59c18.66,2.9,22.26,8.46,37.09,11.29s26-2.38,35.06-1.15c0,0-8.83-6-36.08-9.12S290.58,282.59,290.58,282.59Z" style="fill:#ebebeb"></path><path d="M142.16,219.59c14.46,2,30.24,10.18,46,12s30.67,1.16,45.17,2.93,22.37,9.79,36.67,11.37,29.61-5,40.36-3.5c0,0-35.6-13.57-86.56-19.37S142.16,219.59,142.16,219.59Z" style="fill:#ebebeb"></path><path d="M112.26,200.31c0,15-3.63,43.1-3.63,55.53s.35,23.08.35,32.09-6.86,32-4.64,39.11c2.76,8.85,7.06,8.26,17.14,9.63Z" style="fill:#f0f0f0"></path><path d="M378.59,228.88c15.11,10.36,5.55,23.89,8.66,30.76,3.44,7.62,6.09,20.47-6.38,25.88V270c0-11.11-5.92-18.22-15.26-20.12Z" style="fill:#ebebeb"></path><path d="M183,165l.09-.14.09-.2,0-.15.08-.3,0-.16a2.9,2.9,0,0,0-.73-2.1l-.21-.18-.43-.27-.25-.1-.34-.09-.27,0-.49,0-.26,0a2.7,2.7,0,0,0-.54.26,2.46,2.46,0,0,0-1.06,2.64l.09.26.36.69.29.32.41.28.38.15.75.1,0-.12,0,.16a2.7,2.7,0,0,0,1.2-.39h0a3.12,3.12,0,0,0,.4-.31l.11-.13Z" style="fill:#BA68C8"></path><path d="M164,163.67l-.25.2-.38.43-.16.27-.14.37-.06.31v.48l0,0a2.46,2.46,0,0,0,.74,1.67l.19.15.41.23.24.09.32.07.26,0,.48,0,.25-.06a2.92,2.92,0,0,0,.47-.23,2.32,2.32,0,0,0-2.33-4Z" style="fill:#BA68C8"></path><path d="M167.57,160.85l-.21-.79c0-.13.09-.24.1-.37a2.35,2.35,0,0,0-.73-1.76,2.26,2.26,0,0,0-1.8-.63,2.63,2.63,0,0,0-2,1.22l-.18.38-.09.34,0,.43a2.46,2.46,0,0,0,.73,1.64l.18.63.18.34a2.16,2.16,0,0,0,3,.65,2.13,2.13,0,0,0,.94-2.08Z" style="fill:#BA68C8"></path><path d="M168.88,138.61l-.24.19-.38.44-.16.27-.14.37,0,.06a2.31,2.31,0,0,0-2.61-.28l-.24.2-.38.43-.16.27-.14.37-.06.31v.48l0,0a2.44,2.44,0,0,0,.74,1.67l.19.15.41.23.24.09.32.07.26,0,.47,0,.26,0a3,3,0,0,0,.47-.24,2.31,2.31,0,0,0,1-1.26l.15.12.41.22.24.09.32.08.26,0,.47,0,.26,0a2.92,2.92,0,0,0,.47-.23,2.32,2.32,0,0,0-2.34-4Z" style="fill:#BA68C8"></path><path d="M162.27,162.57l-.06-.35a2.49,2.49,0,0,0-1.17-1.76,2.39,2.39,0,0,0-2-.16l-.35.22-.27.28a2.12,2.12,0,0,0-1.07,2.28,2.3,2.3,0,0,0,.32.82l.21.24.47.36.28.15.38.11.32,0h.17a2.81,2.81,0,0,0,1.13,0l.31-.13.51-.33.24-.23.24-.33.14-.3.15-.59Z" style="fill:#BA68C8"></path><path d="M158.8,178.06l.21.23.46.36.28.15.39.12.31,0h.18a2.63,2.63,0,0,0,1.12,0l.31-.12.51-.34.24-.22.24-.34.15-.3.15-.58,0-.33c0-.12,0-.24-.05-.35a2.45,2.45,0,0,0-1.18-1.76,2.37,2.37,0,0,0-2-.17l-.36.23-.26.27a2.13,2.13,0,0,0-1.08,2.29A2.21,2.21,0,0,0,158.8,178.06Z" style="fill:#BA68C8"></path><path d="M159.61,170.58a2.69,2.69,0,0,0-1.17-2.28l-.42-.18-.83-.13-.45,0-.5.19-.38.27-.52.65-.19.42a2.63,2.63,0,0,0,.57,2.56l.21.18.44.26.25.11.35.08.26,0,.5,0,.27-.06a2.56,2.56,0,0,0,.5-.26A2.33,2.33,0,0,0,159.61,170.58Z" style="fill:#BA68C8"></path><path d="M184,145.69l.44.27.25.1.35.08.26,0,.5,0,.27-.06a2.56,2.56,0,0,0,.5-.26A2.33,2.33,0,0,0,187.7,144a2.71,2.71,0,0,0-1.17-2.28l-.42-.18-.83-.13-.45,0-.51.19-.37.27-.52.65-.19.42a2.63,2.63,0,0,0,.57,2.56Z" style="fill:#BA68C8"></path><path d="M183.58,160.73l.18-.11a2.38,2.38,0,0,0,1.07-1.6,2.51,2.51,0,0,0-.6-2l-.24-.21-.52-.3-.31-.11-.4-.07h-.22l-.28-.29-.34-.22-.45-.16-.41,0-.73.08-.39.14-.34.22-.27.27-.38.58-.13.36-.07.46,0,.38.2.67.12.26a2.31,2.31,0,0,0,1.66,1.05,2.64,2.64,0,0,0,1.3.85l.16,0,.3,0h.17l.22,0,.17,0,.32-.1Z" style="fill:#BA68C8"></path><path d="M193.24,150.34l-.41-.42-.27-.19-.09,0a2.14,2.14,0,0,0-2.09-.22l-.3.21-.46.5-.19.31-.19.56-.07.37a2.28,2.28,0,0,0,.58,1.68l.27.21.57.29.34.09.43,0,.34,0,.62-.2.22-.12a2.18,2.18,0,0,0,.88-2.76Z" style="fill:#BA68C8"></path><path d="M157.53,155.08l-.44-.25-.4-.11-.75,0-.41.08h0a2.87,2.87,0,0,0-1-.29,3.24,3.24,0,0,0-3,1.6l-.11.33-.07.64,0,.35.12.42.16.31.39.51.27.23.32.15a2.53,2.53,0,0,0,1.57,1.09l.3.18.23.09.44.11.25,0a2.3,2.3,0,0,0,1.76-.85l.14-.09.33-.34.2-.33.24-.68h0a2.56,2.56,0,0,0,.42-1.82l-.14-.4-.42-.64Z" style="fill:#BA68C8"></path><path d="M185.56,153.94l.23-.23.25-.33.14-.3.15-.59,0-.33c0-.12,0-.24,0-.35a2.47,2.47,0,0,0-1.17-1.76,2.35,2.35,0,0,0-2-.16l-.35.22-.27.28a2.12,2.12,0,0,0-1.08,2.28,2.62,2.62,0,0,0,.33.82l.21.23.46.37.29.14.38.12.32,0h.17a2.67,2.67,0,0,0,1.13,0l.3-.12Z" style="fill:#BA68C8"></path><path d="M174.09,142.85l-.24.2-.38.43-.17.27-.14.37-.06.31v.48l0,0a2.44,2.44,0,0,0,.74,1.67l.2.15.4.23.24.09.32.07.26,0,.48,0,.25-.06a2.56,2.56,0,0,0,.47-.23,2.32,2.32,0,0,0-2.33-4Z" style="fill:#BA68C8"></path><path d="M186.58,181.51l.13-.24.12-.37h0a2.56,2.56,0,0,0,.08-1.26,2.77,2.77,0,0,0-.14-.48l-.13-.22-.29-.38-.19-.18-.27-.19-.24-.12-.19-.07a2.39,2.39,0,0,0-3.23-.75l-.39.55-.14.63-.14.35a1.88,1.88,0,0,0,.58,1.68l.27.21a2.47,2.47,0,0,0,1.12,1.56,2.33,2.33,0,0,0,2,.16l.24-.12.41-.3.18-.18Z" style="fill:#BA68C8"></path><path d="M179.46,140.23l-.28.1-.17.1a2.42,2.42,0,0,0-.84.89l-.07.09-.16.29-.09.24-.11.46,0,.25a2.4,2.4,0,0,0,1.29,2,2.19,2.19,0,0,0,2.2-.08,2.11,2.11,0,0,0,.94-1.35,2.09,2.09,0,0,0,.15-.62,2.3,2.3,0,0,0-.75-1.91l-.22-.16-.45-.22-.26-.08-.34-.05H180Z" style="fill:#BA68C8"></path><path d="M163.12,153.45l.36.54.24.25.36.24.32.14.63.13h.34l.4-.07.31-.12.51-.32.25-.23.25-.33.15-.32.15-.62,0-.35,0-.16a2.36,2.36,0,0,0-1.06-1.59,2.44,2.44,0,0,0-1.93-.26l-.3.15-.5.37-.22.24-.22.36-.12.3-.11.6v.33l.07.4Z" style="fill:#BA68C8"></path><path d="M175.15,179l.21.38a3.09,3.09,0,0,0,1.34.79l.25-.54v.56h.9l.48-.15.46-.3.33-.39.37-.82.07-.5a3.64,3.64,0,0,0-1.62-2.4l-.2-.06-.4-.08h-.54l-.41.13-.67.39-.3.3-.16.26-.13.35,0,.26-.08.15-.1.49v.43Z" style="fill:#BA68C8"></path><path d="M174.45,172.92a2.19,2.19,0,0,0,.63.1l.35-.06.63-.25.3-.2.4-.42.21-.3a2.35,2.35,0,0,0,.28-1l-.06-.37-.25-.63-.2-.31-.42-.41-.28-.19a2.2,2.2,0,0,0-1.06-.31l-.31.06-.34-.07a2.65,2.65,0,0,0-1.79.81l-.18.3-.07.18-.33.49-.14.67a2.34,2.34,0,0,0,1.12,1.6A2.39,2.39,0,0,0,174.45,172.92Z" style="fill:#BA68C8"></path><polygon points="175.52 199.6 175.87 200.14 176.11 200.38 176.47 200.63 176.79 200.76 177.42 200.9 177.77 200.9 178.03 200.85 178.36 200.72 178.89 200.37 179.14 200.12 179.38 199.76 179.52 199.44 179.65 198.82 179.65 198.47 179.55 197.94 179.42 197.61 179.07 197.08 178.83 196.83 178.47 196.58 178.15 196.45 177.52 196.32 177.17 196.31 176.91 196.36 176.58 196.5 176.05 196.85 175.8 197.09 175.55 197.45 175.42 197.77 175.29 198.4 175.28 198.75 175.39 199.28 175.52 199.6" style="fill:#BA68C8"></polygon><path d="M165.36,199.47l.41.23.23.09.33.07.25,0,.48,0,.25,0a2.28,2.28,0,0,0,.47-.23,2.32,2.32,0,0,0-2.33-4l-.24.19-.38.44-.16.26-.15.37-.06.31v.48l0,0a2.49,2.49,0,0,0,.74,1.66Z" style="fill:#BA68C8"></path><path d="M170,189.08a1.88,1.88,0,0,0,.62.11l.36-.06.63-.25.3-.21.4-.41.2-.3a2.22,2.22,0,0,0,.29-1l-.06-.37-.25-.64-.2-.31-.42-.4-.28-.2a2.35,2.35,0,0,0-1.06-.3l-.31.06-.34-.07a2.65,2.65,0,0,0-1.79.81l-.18.3-.07.18-.33.49-.14.67a2.36,2.36,0,0,0,1.12,1.6A2.39,2.39,0,0,0,170,189.08Z" style="fill:#BA68C8"></path><path d="M180.22,187.07l.3-.32.39-.7.12-.43v-.52l-.06-.35-.24-.59-.19-.29a2.52,2.52,0,0,0-3.33-.52l-.26.25-.38.56-.13.33-.08.43v.34l.13.62.12,0-.13,0,.11.35.14.26.23.31.22.2.45.31.28.12a2.4,2.4,0,0,0,1.22,0l.31,0,.44-.13Z" style="fill:#BA68C8"></path><path d="M182.94,202.26l.23.1.44.11.24,0h.32l.24,0,.43-.13.22-.1.35-.22.18-.16.31-.35.14-.2.14-.3.07-.23.08-.45v-.25a2.23,2.23,0,0,0-1.25-1.79,2.34,2.34,0,0,0-3.28,2.11A2.23,2.23,0,0,0,182.94,202.26Z" style="fill:#BA68C8"></path><path d="M181,193.09l.3.33.43.29.33.14.66.12h.35a2.23,2.23,0,0,0,1.87-2.62,2.3,2.3,0,0,0-.15-.49l-.16-.25-.38-.42L184,190l-.34-.18-.29-.1-.54-.08h-.31l-.26,0-.3.12-.5.3-.24.22-.28.36-.11.16a2.39,2.39,0,0,0-.31,1.09l.1.43Z" style="fill:#BA68C8"></path><path d="M165.09,174.72a2.92,2.92,0,0,0,.47-.23,2.32,2.32,0,0,0-2.33-4l-.25.19-.38.43-.16.27-.14.37-.06.31v.48l0,0a2.44,2.44,0,0,0,.74,1.67l.19.15.41.23.24.09.32.07.26,0,.47,0Z" style="fill:#BA68C8"></path><path d="M149.61,160.8l-.18.1-.3.23-.15.14-.17.21-.11.17-.17.33-.07.19a2.62,2.62,0,0,0,.29,1.81l-.06.08-.14.3-.11.4,0,.33.07.62.1.32a2.48,2.48,0,0,0,2.43,1.31h.07l.47-.15.74-.5.31-.37.23-.51.07-.5-.07-.43H153a2.58,2.58,0,0,0-.18-.78,2.18,2.18,0,0,0-.11-2.7l-.13-.12-.26-.21-.15-.1-.35-.16-.31-.1A2.69,2.69,0,0,0,149.61,160.8Z" style="fill:#BA68C8"></path><path d="M152.84,195.6a3.75,3.75,0,0,0,1.64-1.15l.09-.15.13-.3.05-.17.06-.25,0-.18v-.34l0-.18a2,2,0,0,0-.31-.76l0-.12.11-.63V191a2.27,2.27,0,0,0-1.19-1.64,2.19,2.19,0,0,0-1.92,0l-.25.16-.41.37-.18.24-.18.34-.1.29-.08.55v.3l0,.27.12.29.11.19c-.06.1-.11.21-.17.33l-.08.3,0,.28v.4l0,.19A2.14,2.14,0,0,0,152.84,195.6Z" style="fill:#BA68C8"></path><path d="M152.15,149l-.24.19-.38.43-.16.27-.14.37-.06.31V151l0,0a2.49,2.49,0,0,0,.74,1.67l.2.15.41.23.24.09.32.07.26,0,.47,0,.26-.05a2.32,2.32,0,1,0-1.87-4.23Z" style="fill:#BA68C8"></path><path d="M152.89,173.77a2.48,2.48,0,0,0-2.11-.15l-.15.07-.27.15-.14.09-.17.14-.11.12-.19.24-.1.13a2.51,2.51,0,0,0-.28,1.69,2.35,2.35,0,0,0,1.63,1.81,2.52,2.52,0,0,0,2.51-.64l.12-.15.18-.28.09-.16.08-.23.05-.18.06-.34v-.18a2,2,0,0,0,0-.45A2.42,2.42,0,0,0,152.89,173.77Z" style="fill:#BA68C8"></path><path d="M161.18,193.9a2.44,2.44,0,0,0,1.26.1,2.28,2.28,0,0,0,1.94-2.62l-.37-.57-.4-.28a2,2,0,0,0-.79-.49l0,.07h0l0-.07-.34-.08-.2.08a2,2,0,0,0-.95.07l-.4.25-.13.15h0l-.15.1-.12.2-.16.17-.08.18h0l-.3.44-.13.67A2.2,2.2,0,0,0,161.18,193.9Z" style="fill:#BA68C8"></path><path d="M160.58,186.46l.67-.12a2.14,2.14,0,0,0,.67-3,2.46,2.46,0,0,0-1.17-1,2.22,2.22,0,0,0-2.07.16l-.4.56-.14.64-.15.38a1.87,1.87,0,0,0,.59,1.63,2.11,2.11,0,0,0,1.66.6Z" style="fill:#BA68C8"></path><path d="M154.66,196.06l.15.35.1.17.17.22.14.15.29.24.17.11a2.24,2.24,0,0,0,2.2,0,2.28,2.28,0,0,0,1.12-1.86l-.06-.4-.29-.69-.24-.34-.37-.32-.36-.2-.63-.16-.35,0-.68.1-.44.19-.42.34-.28.38-.3.81,0,.48.05.27Z" style="fill:#BA68C8"></path><path d="M175.33,149.76l-.18.37-.09.34-.05.43a2.54,2.54,0,0,0,.74,1.65l.18.63.18.34a2.15,2.15,0,0,0,2.95.64,2.12,2.12,0,0,0,.94-2.07h-.08l-.21-.79c0-.13.09-.25.1-.38a2.34,2.34,0,0,0-2.54-2.39A2.67,2.67,0,0,0,175.33,149.76Z" style="fill:#BA68C8"></path><path d="M146.13,185.55l.19-.29.08-.16.09-.22,0-.18.05-.34,0-.18c0-.17,0-.32-.05-.45a2.43,2.43,0,0,0-1.17-1.68,2.47,2.47,0,0,0-2.11-.15l-.15.06-.27.16-.13.09-.17.14-.12.12-.19.23-.09.14a2.45,2.45,0,0,0-.29,1.69,2.35,2.35,0,0,0,1.63,1.81,2.5,2.5,0,0,0,2.51-.65Z" style="fill:#BA68C8"></path><path d="M133.13,190.18l-.09-.53-.16-.36-.27-.39-.28-.25-.62-.35-.37-.12a5.47,5.47,0,0,0-1.72.12l-.31.14-.51.35-.24.24-.23.35-.13.3,0,.21a2.74,2.74,0,0,0-.41,1v.32a2.17,2.17,0,0,0-1.22,1h0a2.61,2.61,0,0,0-.22.63v.29l.06.53.08.27.16.33.17.24.37.39.23.17.48.25.31.09.59.07.32,0,.39-.1.3-.14.49-.34.22-.23.19-.32a2.66,2.66,0,0,0,.27-.84H131l.23,0,.43-.14.21-.1a2.38,2.38,0,0,0,.38-.3l.13-.1.21-.25.3-.53.11-.32.05-.37V191l.06-.54Z" style="fill:#BA68C8"></path><path d="M142.41,159.54l-.44.05-.35.11-.42.23a2.56,2.56,0,0,0-1.94.63l-.19.21-.27.46-.11.27-.08.35,0,.28,0,.52.07.27a2.6,2.6,0,0,0,.22.41,2.41,2.41,0,0,0,1.69,1.14,2.45,2.45,0,0,0,1.41-.29h.06a2.52,2.52,0,0,0,2.7-2.21l0-.33a2.44,2.44,0,0,0,.26.06,2.19,2.19,0,0,0,2-.89,2.12,2.12,0,0,0,.37-1.6,2.23,2.23,0,0,0-.09-.63,2,2,0,0,0-.18-.32h0l.13-.58-.11-.68a2.2,2.2,0,0,0-1.37-1,2.42,2.42,0,0,0-1.8.33,2.23,2.23,0,0,0-1,2.59l0,.11-.05.33v.23l-.19-.06Z" style="fill:#BA68C8"></path><path d="M128.61,187.3l.29-.15.46-.37.21-.24.2-.35.11-.3.1-.58V185l-.12-.67-.13-.32-.31-.46v-.1a2.35,2.35,0,0,0-.14-.37l.14,0,.46-.17.27-.17.12-.1,0,0a2.49,2.49,0,0,0,.85-1l.1-.36,0-.68-.06-.36-.15-.4-.18-.29-.4-.44,0,0-.27-.24-.23-.16-.33-.15-.28-.07-.52-.06-.29,0a2.44,2.44,0,0,0-1.6,1.14,2.52,2.52,0,0,0-.64-.32,2.41,2.41,0,0,0-2,.3,4,4,0,0,0-.37.28l-.18.21-.27.45-.1.26-.08.35,0,.28,0,.51.07.27a2.55,2.55,0,0,0,1.17,1.25,2.8,2.8,0,0,0,0,.5,2.67,2.67,0,0,0,1,1.67l.07,0-.09,0A2.29,2.29,0,0,0,128.61,187.3Z" style="fill:#BA68C8"></path><path d="M135.29,179.49l.34-.23.26-.24.26-.36a2.2,2.2,0,0,0,.28-1.54,2.11,2.11,0,0,0-.5-1l0-.05-.2-.25-.3-.26-.26-.16-.53-.21-.3-.06a2.39,2.39,0,0,0-1.88.83,2.3,2.3,0,0,0,.67,3.53A2.38,2.38,0,0,0,135.29,179.49Z" style="fill:#BA68C8"></path><polygon points="178.48 158.63 178.48 158.63 178.48 158.63 178.48 158.63" style="fill:#BA68C8"></polygon><path d="M139.78,196.67l.31.13.62.13h.34l.52-.09.16,0a2.31,2.31,0,0,0,1.12-.68l.2-.35.15-.55h.07l.44-.14.33-.22.31-.32.38-.7.11-.43v-.53l-.06-.34-.24-.59-.19-.28a3.32,3.32,0,0,0-.78-.61,2.37,2.37,0,0,0,.47-2,2.23,2.23,0,0,0-.22-.66l-.1-.17-.24-.3-.14-.14-.21-.16-.18-.11-.35-.17-.2-.06a2.43,2.43,0,0,0-3,2.65l0,.19.11.36.08.18.13.23.12.17.25.28.15.13c.11.07.23.11.34.17l-.2.28-.13.34-.08.42v.08l-.1,0-.31.21-.49.5-.17.23A2.2,2.2,0,0,0,139.78,196.67Z" style="fill:#BA68C8"></path><path d="M141.41,174.34l-.24.2-.38.43-.17.27-.14.37-.06.31v.48l0,0a2.44,2.44,0,0,0,.74,1.67l.2.15.4.23.24.09.33.07.25,0,.48,0,.25-.06a1.87,1.87,0,0,0,.47-.23,2.32,2.32,0,0,0-2.33-4Z" style="fill:#BA68C8"></path><path d="M127.22,176.69l.41.23.24.09.32.08h.26l.48,0,.25,0a2.92,2.92,0,0,0,.47-.23,2.32,2.32,0,0,0-2.33-4l-.25.19-.37.44-.17.27-.14.37-.06.3v.48l0,0a2.43,2.43,0,0,0,.74,1.66Z" style="fill:#BA68C8"></path><path d="M271.71,162.19a2.62,2.62,0,0,0-1.64-1.44,2.35,2.35,0,0,0-2.95,1.88,2.69,2.69,0,0,0,.71,2.21l.33.26.31.18.41.14a2.53,2.53,0,0,0,1.87-.34,2.58,2.58,0,0,0,1.13-1.69v-.45l-.05-.34Z" style="fill:#BA68C8"></path><path d="M265.57,144.52l-.63,0-.48.19,0,.07-.09,0,0-.07-.45.18-.46.44a2,2,0,0,0,0,1.55,1.86,1.86,0,0,0,1.59,1.25,2.33,2.33,0,0,0,.68,1.89l.25.19.54.25.31.08.41,0,.33,0a2.45,2.45,0,0,0,.54-.1,2.65,2.65,0,0,0-.29.29l-.12.28-.13.55,0,.31,0,.39.09.29.25.51.19.25.29.28.29.19.59.22.34.06H270l.34-.07.58-.26.28-.2.18-.2.18-.26.23-.54.07-.31v-.69a2.25,2.25,0,0,0-.34-1l-.27-.26-.58-.38-.36-.13-.61-.07-.42,0a2.35,2.35,0,0,0-.37.14,2.49,2.49,0,0,0,.63-1.08l.05-.43V148l-.06-.29,0-.16a2.4,2.4,0,0,0-1.47-1.39,2.3,2.3,0,0,0-.78-.07l-.05-.12a1.89,1.89,0,0,0-.35-.81l0,0,0,0,0,0a3,3,0,0,0-.31-.31l-.71-.13,0-.08Z" style="fill:#BA68C8"></path><path d="M119.49,195l-.35-.55a2.25,2.25,0,0,0-1-1.14,2.14,2.14,0,0,0-1.69-.08l-.26.12-.24.15-.26.21a2.14,2.14,0,0,0-.61,1.67,6.94,6.94,0,0,1,.87.06l3.63.49a1.8,1.8,0,0,0,.1-.4Z" style="fill:#BA68C8"></path><path d="M214,198.28l-.39.56-.26,1.16.12.67.09.13,0,.09a2.16,2.16,0,0,0,.51.61l.08.12.56.39,1.16.25.67-.12a2.22,2.22,0,0,0,1-1.39,2.26,2.26,0,0,0-.31-1.68A2.39,2.39,0,0,0,214,198.28Z" style="fill:#BA68C8"></path><path d="M138.74,185.32l.36-.24.18-.16.2-.24.13-.19.18-.39,0-.11.21-.16.39-.45.17-.27.14-.39.06-.29v-.55l0-.29a2.41,2.41,0,0,0-2.27-1.7l-.39.08-.65.3-.32.24-.38.47-.09.15-.1,0-.39.27,0,.15H136l-.29.31-.19.3-.22.6-.05.34a2.06,2.06,0,0,0,.05.45.15.15,0,0,0,0,.07l-.26,0-.39.1-.29.14-.49.34-.22.23a2.23,2.23,0,0,0-.19.32,2.41,2.41,0,0,0-.15,2,2.35,2.35,0,0,0,1.4,1.39l.27.06.51,0,.28,0,.34-.09.26-.11.33-.21h0a2.43,2.43,0,0,0,.84-.93,2.3,2.3,0,0,0,.19-.47l0-.31,0-.57v0a3.07,3.07,0,0,0,.79-.11Z" style="fill:#BA68C8"></path><path d="M217.66,188.07a3.06,3.06,0,0,0-.15-.49l-.17-.25-.38-.42-.24-.19-.34-.18-.28-.09-.55-.08h-.3l-.26,0-.3.12-.5.3-.24.21-.28.37-.11.16a2.27,2.27,0,0,0-.31,1.09l.1.42.37.72.29.33.44.29.33.14.65.12h.36A2.23,2.23,0,0,0,217.66,188.07Z" style="fill:#BA68C8"></path><path d="M137.08,193a2.36,2.36,0,0,0-1.9-.25l-.26.17a2.11,2.11,0,0,0-1.14.74l-.1.16-.16.32-.07.18-.06.27,0,.18v.36l0,.19a2.15,2.15,0,0,0,1.24,1.55,2.45,2.45,0,0,0,2.58-.23,2.25,2.25,0,0,0,.85-2.21A2.12,2.12,0,0,0,137.08,193Z" style="fill:#BA68C8"></path><path d="M145.35,172.18a2.31,2.31,0,0,0-2.33-4l-.24.19-.38.43-.17.27-.14.37-.06.31v.48l0,0a2.49,2.49,0,0,0,.74,1.67l.2.15.4.23.24.09.33.07.25,0,.48,0,.25-.05A1.89,1.89,0,0,0,145.35,172.18Z" style="fill:#BA68C8"></path><path d="M195.67,158.83l.05-.38v-.29l-.11-.54-.11-.28a2.42,2.42,0,0,0-2.65-1.13l-.43.24-.63.61-.06.12a2.52,2.52,0,0,0-1.38-.9,2.21,2.21,0,0,0-1.72.29l-.39.56-.13.63-.15.36a1.88,1.88,0,0,0,.22,1.19l-.13.22-.18.46-.05.26,0,.34,0,.27.11.48.1.26a2.93,2.93,0,0,0,.69.8,2.27,2.27,0,0,0-.59-.07l-.45.15L187,163l-.06.07a2.14,2.14,0,0,0-.89,2.17,2.33,2.33,0,0,0,.32.81l.12.15.26.27.15.12.22.15.18.09.34.12.18.05a2.27,2.27,0,0,0,2-.69,2.48,2.48,0,0,0,.64-2.15,2.13,2.13,0,0,0-.69-1.21l.18,0,.55,0,.3-.06.36-.14.26-.15,0-.05a1.36,1.36,0,0,0,.24-.13,2.22,2.22,0,0,0,1-2.13,2.18,2.18,0,0,0,2.16-.08,2.72,2.72,0,0,0,.42-.34l.16-.23.24-.49Z" style="fill:#BA68C8"></path><path d="M178.32,170.23l.14.26.23.3.22.21.46.3.27.12a2.3,2.3,0,0,0,1.22,0l.32,0,.43-.14L182,171l.31-.32.39-.7.11-.43v-.53l-.07-.34-.24-.59-.19-.29a2.5,2.5,0,0,0-3.33-.52l-.26.25-.37.56-.14.33-.08.42v.35l.13.62.13,0-.14.06Z" style="fill:#BA68C8"></path><path d="M168.91,177.4l-.24.19-.37.44-.17.27-.14.37-.05.3v.49l0,0a2.4,2.4,0,0,0,.75,1.66l.19.15.41.23.24.08.32.08h.26l.48,0,.25-.06a2.92,2.92,0,0,0,.47-.23,2.31,2.31,0,0,0-2.36-4Z" style="fill:#BA68C8"></path><path d="M172.73,165.73a2.3,2.3,0,0,0-3.09-.85l-.25.2-.38.43-.16.27-.14.37-.06.31v.48l0,0a2.44,2.44,0,0,0,.74,1.67l.19.15.41.23.24.09.32.07.26,0,.47,0,.26-.06a2.92,2.92,0,0,0,.47-.23A2.31,2.31,0,0,0,172.73,165.73Z" style="fill:#BA68C8"></path><path d="M175.25,166.11a2.44,2.44,0,0,0,.47,0,2,2,0,0,0,.64.13,2.09,2.09,0,0,0,1.9-1l.13-.31.12-.61v-.09l.07-.46,0-.36-.12-.42-.16-.32-.4-.52-.28-.23a2.68,2.68,0,0,0-1.61-.31l-.22.06a2.22,2.22,0,0,0-2.6,1.05l-.08.17-.1.33,0,.18,0,.25v.19l0,.34,0,.19A2.61,2.61,0,0,0,175.25,166.11Z" style="fill:#BA68C8"></path><path d="M147.56,192.11l.34.08.68-.12a2.13,2.13,0,0,0,.66-3,2.51,2.51,0,0,0-1.17-1,2.25,2.25,0,0,0-2.07.16l-.4.56-.14.64-.15.38a1.9,1.9,0,0,0,.59,1.64A2.14,2.14,0,0,0,147.56,192.11Z" style="fill:#BA68C8"></path><path d="M171.74,154.82l-.25.19-.38.44-.16.27-.14.37-.06.3v.49l0,0a2.46,2.46,0,0,0,.74,1.67l.19.15.41.22.24.09.32.08.26,0,.48,0,.25,0a2.92,2.92,0,0,0,.47-.23,2.32,2.32,0,0,0-2.33-4Z" style="fill:#BA68C8"></path><path d="M171.11,147.05l-.24.19-.38.43-.16.27-.15.37-.06.31v.48l0,0a2.49,2.49,0,0,0,.74,1.67l.2.15.41.23.23.09.33.07.25,0,.48,0,.25-.05a2.28,2.28,0,0,0,.47-.23,2.32,2.32,0,0,0-2.33-4Z" style="fill:#BA68C8"></path><path d="M191.74,167.23l-.23.19-.28.39c0,.06,0,.12,0,.17l-.2.3-.14.66a2.27,2.27,0,0,0,1.33,1.66,2.45,2.45,0,0,0,1.44.16,2.25,2.25,0,0,0,1.84-2.64l-.37-.57-.27-.18a2,2,0,0,0-2.18-.7l-.45.2-.28.23,0,0-.16.12Z" style="fill:#BA68C8"></path><path d="M158.94,149.19a2.27,2.27,0,0,0-.94,1.68,2.24,2.24,0,0,0,.66,1.73l.27.19.56.25.32.07.42,0,.33,0,.59-.21.22-.11a2.19,2.19,0,0,0,.88-2.75l-.22-.31-.52-.46-.33-.19L161,149h-.07l-.07,0,.15,0,.3-.11.51-.32.24-.21.24-.32.14-.27a2.43,2.43,0,0,0,.52.77l.19.15.41.23.24.09.32.07.26,0,.47,0,.26-.06a2.27,2.27,0,0,0,.47-.23,2.32,2.32,0,0,0-2.33-4l-.25.2-.38.43-.16.27-.06.17a2.31,2.31,0,0,0-2.23-1.36l-.34.08-.57.27-.28.2-.23.26a2.21,2.21,0,0,0-.69,2.07h0a2.46,2.46,0,0,0,.21.63l.17.24.38.37.23.17.33.16.21.07-.26.05Z" style="fill:#BA68C8"></path><path d="M150,185.39l.54.21.3.06.15.16.36.24.32.14.63.13h.35l.4-.07.34-.15.56-.39.25-.27.24-.39.12-.3.1-.59v-.33c0-.1-.08-.17-.11-.27l.08,0,.45-.45.2-.28a2.7,2.7,0,0,0,.09-.36,1.67,1.67,0,0,0,.16-.12l.16-.24.23-.48.08-.28.05-.38v-.3l-.12-.53-.11-.28a2.43,2.43,0,0,0-2.66-1.11l-.42.23-.62.62-.18.31a2.52,2.52,0,0,0-.45.38l-.2.38-.08.32h0a3.5,3.5,0,0,0-.46-.19l-.44,0-.79.13-.41.17-.41.33-.28.37-.31.79L148,183l0,.12a2.39,2.39,0,0,0,1.33,1.76l.06.07.3.27Z" style="fill:#BA68C8"></path><path d="M181.4,134.83l-.18.09a2.63,2.63,0,0,0-.83.89l-.07.1-.16.29-.09.23-.11.47,0,.25a2.36,2.36,0,0,0,1.29,2,2.19,2.19,0,0,0,2.2-.08,2.14,2.14,0,0,0,.94-1.35,2.25,2.25,0,0,0,.15-.62,2.35,2.35,0,0,0-.75-1.92l-.22-.15-.45-.22-.13,0h.13l.25-.06a2.28,2.28,0,0,0,.47-.23,2.32,2.32,0,0,0,1-2.71,1,1,0,0,0,.13.17l.19.15.41.22.24.09.32.08.26,0,.48,0,.25-.06a2.92,2.92,0,0,0,.47-.23,2.32,2.32,0,0,0-2.33-4l-.25.2-.38.43-.16.27-.14.37-.06.31v.48l0,0a2.32,2.32,0,0,0,.12.68,2.31,2.31,0,0,0-2.81-.47l-.24.2-.38.43-.17.27-.14.37-.06.31v.48l0,0a2.44,2.44,0,0,0,.74,1.67l.2.15.4.23.24.09h0l-.38.07Z" style="fill:#BA68C8"></path><path d="M190.12,137.49l-.39-.05h-.33a2.62,2.62,0,0,0-1.73.66l-.14.16-.21.31-.1.18-.1.25-.05.19-.06.37v.21a2.71,2.71,0,0,0,1.84,2.27,2.27,2.27,0,0,0,1.81-.18l.49.15h.56v.33l.4,1.11.45.5a2.23,2.23,0,0,0,1.7.08,2.19,2.19,0,0,0,1.24-1.15,2.36,2.36,0,0,0-1-3.13l-.67,0-.12,0a.67.67,0,0,0,0-.2,2.59,2.59,0,0,0-1.28-1.76l-.24-.1-.47-.13-.26,0h-.34l-.26,0-.18.06h0l-.31-.12Z" style="fill:#BA68C8"></path><path d="M191.88,129.1l.41.22.23.09.33.08.25,0,.48,0,.25-.05a2.28,2.28,0,0,0,.47-.23,2.32,2.32,0,0,0-2.33-4l-.24.19-.38.44-.16.27-.15.37-.06.3v.49l0,0a2.51,2.51,0,0,0,.74,1.67Z" style="fill:#BA68C8"></path><path d="M190.85,134.64l.1.18.23.3.15.15.2.17.17.1.32.17.19.07a2.27,2.27,0,0,0,1.79-.27,2.39,2.39,0,0,0,1.05-2.41l-.14-.4-.42-.66-.32-.29-.44-.25-.39-.11-.76,0-.41.07a2.56,2.56,0,0,0-.37.2A2.36,2.36,0,0,0,190.85,134.64Z" style="fill:#BA68C8"></path><path d="M236.63,192.39a2.67,2.67,0,0,0,2.77-1.12l.17-.36.09-.33.05-.41a2.81,2.81,0,0,0-.05-.53,2.38,2.38,0,0,0-1.39-1.77,2.69,2.69,0,0,0-2.59.38l-.15.12-.26.27-.11.15L235,189l-.08.17-.12.34,0,.19a2.6,2.6,0,0,0,0,.79A2.35,2.35,0,0,0,236.63,192.39Z" style="fill:#BA68C8"></path><path d="M244.36,160.44l.52.32.31.11.41.07h.34l.55-.12v0a2.51,2.51,0,0,0,1.41-1.1l.11-.27.12-.54,0-.3,0-.38L248,158l-.26-.5-.18-.25-.3-.27a2.1,2.1,0,0,0-3.2.52l-.11.27,0,.16a2.14,2.14,0,0,0,.19,2.32Z" style="fill:#BA68C8"></path><path d="M219.34,162.66l.57.29.33.09.43,0,.35,0,.61-.21.23-.11a2.21,2.21,0,0,0,.88-2.76l-.18-.26-.42-.43-.26-.18-.1-.05a2.11,2.11,0,0,0-2.08-.21l-.3.21-.47.49-.19.32-.19.56-.06.36a2.34,2.34,0,0,0,.57,1.69Z" style="fill:#BA68C8"></path><path d="M242.73,153.15l.15.07a2.16,2.16,0,0,0,2.31.39l.27-.19.43-.44.19-.27.17-.38.07-.34v-.56h0a2.41,2.41,0,0,0-.73-1.64l-.24-.17-.5-.25-.28-.08-.39-.05-.31,0-.55.13-.28.12-.34.22a2.19,2.19,0,0,0-.9,1.59,2.13,2.13,0,0,0,.64,1.67Z" style="fill:#BA68C8"></path><path d="M249.65,131.35a2.12,2.12,0,0,0,3.91-1.4h-.09l-.22-.87-.28-.44-.44-.39L252,128l-1-.07-.55.13-.34.22-.27.26-.38.59-.14.35-.07.46,0,.38.19.67Z" style="fill:#BA68C8"></path><path d="M257.52,163.22a2.57,2.57,0,0,0-2.26-.79,2,2,0,0,0-1.6,2.64l0,.06.06.27.14.3.35.49.24.22a2.34,2.34,0,0,0,2,.29,2.23,2.23,0,0,0,1.39-1.28A2.93,2.93,0,0,0,258,165l0-.21v-.4l0-.21-.07-.27-.08-.2-.19-.35Z" style="fill:#BA68C8"></path><path d="M240.22,165.83l.29,0,.36-.09a2.58,2.58,0,0,0,.44-.22,2.33,2.33,0,0,0,1.05-2.41,2.56,2.56,0,0,0-2.1-2h-.35l-.3,0-.37.1a2.25,2.25,0,0,0-.41.21,2.32,2.32,0,0,0-1.06,2.41,2.55,2.55,0,0,0,2.11,2Z" style="fill:#BA68C8"></path><path d="M250.68,146.06l.5.26.29.1.39.05h.3l.54-.11.35-.15a2.46,2.46,0,0,0,1.34-1.83,2.35,2.35,0,0,0-.8-2l-.29-.18-.59-.23-.34-.06H252l-.33.06-.57.24-.27.18a2.38,2.38,0,0,0-.35,3.5Z" style="fill:#BA68C8"></path><path d="M257.69,151.79l-.25-.51-.19-.24-.29-.27a2.14,2.14,0,0,0-1.75-.49,2.1,2.1,0,0,0-1.46,1l-.11.27,0,.16a2.14,2.14,0,0,0,.18,2.32l.25.22.52.31.3.12.41.07h.35l.54-.12,0,0a2.54,2.54,0,0,0,1.41-1.1l.11-.27.12-.54v-.3l-.05-.38Z" style="fill:#BA68C8"></path><path d="M236.73,138.73l.21.34.22.23.48.35.28.14a2.27,2.27,0,0,0,1.86-.23h0a2.29,2.29,0,0,0,1.65,0l.32-.2.51-.47.21-.3.18-.43.07-.37,0-.68-.09-.37a2.74,2.74,0,0,0-2-1.52l-.47,0-.41.14-.19-.07a2.2,2.2,0,0,0-1.83.25,3,3,0,0,0-1.24,1.91v.32l.12.59Z" style="fill:#BA68C8"></path><path d="M224.83,152.54l.54-.12,0,0a2.46,2.46,0,0,0,1.41-1.09l.11-.28.11-.53,0-.3,0-.38-.09-.3-.25-.5-.19-.25-.29-.27a2.13,2.13,0,0,0-1.75-.48,2,2,0,0,0-1.46,1l-.11.26,0,.17a2.13,2.13,0,0,0,.18,2.32l.24.22.52.31.31.12.41.07Z" style="fill:#BA68C8"></path><path d="M236.28,175.83h.34l.29,0,.37-.09a2.6,2.6,0,0,0,.44-.23,2.32,2.32,0,0,0,1.05-2.4,2.55,2.55,0,0,0-2.11-2h-.35l-.29,0-.37.1a2.74,2.74,0,0,0-.42.21,2.29,2.29,0,0,0-1,2.41A2.54,2.54,0,0,0,236.28,175.83Z" style="fill:#BA68C8"></path><path d="M220.83,178.65l.23.1.43.11.25,0h.32l.24,0,.43-.13.23-.1.34-.22.19-.16.31-.34.13-.21.14-.29.08-.23.08-.45v-.25a2.21,2.21,0,0,0-3.44-1.64,2.25,2.25,0,0,0-1.09,1.93A2.21,2.21,0,0,0,220.83,178.65Z" style="fill:#BA68C8"></path><path d="M225.52,199a2.2,2.2,0,0,0,.58,1,2.34,2.34,0,0,0,1.59.6l.43-.06.2,0,.14-.05.27-.13.14-.09a2.29,2.29,0,0,0,.28-3.57,2.3,2.3,0,0,0-3.57.49l-.12.3-.11.57v.33l.07.4Z" style="fill:#BA68C8"></path><path d="M251.43,177.35l0,.09a2.38,2.38,0,0,0,.51.62l.08.12.56.39,1.16.26.67-.12a2.19,2.19,0,0,0,.68-3.07,2.39,2.39,0,0,0-3.22-.81l-.4.56-.26,1.16.12.67Z" style="fill:#BA68C8"></path><path d="M233.12,150.83a1.79,1.79,0,0,0,.18-.33,2.57,2.57,0,0,0,.57.38,2.34,2.34,0,0,0,1.33.18l.22.2.18.09,0,0a2.2,2.2,0,0,0,2.42.05,2.34,2.34,0,0,0,.45-.37l.17-.25.23-.5L239,150l0-.38,0-.29-.13-.52-.11-.28-.22-.34-.26-.27-.58-.38-.35-.13-.46-.07-.3,0a2.49,2.49,0,0,0-.38-.42,2.52,2.52,0,0,0-3-.37l-.23.19-.36.44-.15.26,0,.11,0,0-.49-.18-.56,0-.44.09-.61.3.05.12-.31,0a2.34,2.34,0,0,0-1,1.75,2.17,2.17,0,0,0,.67,1.64l.12.1.37.23.22.1.18,0,.32.07.18,0A2.37,2.37,0,0,0,233.12,150.83Z" style="fill:#BA68C8"></path><path d="M232.26,182.59v-.44l-.05-.35-.13-.4a2.66,2.66,0,0,0-1.65-1.44,2.37,2.37,0,0,0-1.89.29,2.33,2.33,0,0,0-1.05,1.61,2.68,2.68,0,0,0,.73,2.2l.32.26.32.18.4.14a2.52,2.52,0,0,0,3-2Z" style="fill:#BA68C8"></path><path d="M250.79,136.38l.14-.29.16-.57,0-.31,0-.41-.09-.31-.25-.53-.19-.26-.39-.36-.29-.19-.25-.09a2.34,2.34,0,0,0-.83-2,2.07,2.07,0,0,0-2.55,0l-.26.32-.31.68v0l-.11.23-.08.31,0,.58,0,.31.11.35,0,0v0l.15.38a2.24,2.24,0,0,0,.21,1.86,3.45,3.45,0,0,0,4.78.19Z" style="fill:#BA68C8"></path><path d="M122.59,188.13a2.53,2.53,0,0,0,.18-.44l0-.31,0-.58-.08-.31-.15-.35-.17-.26-.38-.4-.24-.18-.36-.19-.31-.09-.59-.07-.31,0-.4.1-.29.13-.48.34-.23.22c-.08.12-.15.24-.21.35a2.36,2.36,0,0,0,.7,3.08l.3.13.59.15.33,0,.41-.05.29-.09.5-.26-.1-.21.14.21A2.53,2.53,0,0,0,122.59,188.13Z" style="fill:#BA68C8"></path><path d="M255,185.82a2.2,2.2,0,0,0,.58,1,2.36,2.36,0,0,0,1.59.6l.43,0,.2-.06.15-.05.27-.13.14-.08a2.35,2.35,0,0,0,1-1.75,2.26,2.26,0,0,0-.72-1.82,2.31,2.31,0,0,0-1.87-.63,2.39,2.39,0,0,0-1.7,1.12l-.11.29-.12.58v.32l.07.4Z" style="fill:#BA68C8"></path><path d="M134.63,166.72l-.37.06-.41.18-.29.19-.46.46-.16.22-.06.11a2.25,2.25,0,0,0,.46,2.81l.27.16.55.2.31.06h.45l0,0a2.53,2.53,0,0,0,2.77.13,2.29,2.29,0,0,0,1.1-2.31l-.05-.18-.11-.31-.08-.16-.12-.2-.1-.14-.21-.24-.13-.11a2.29,2.29,0,0,0-1.51-.4L136,167l-.1,0v0l-.28-.14-.35-.09Z" style="fill:#BA68C8"></path><path d="M283.88,158.41l-.28-.11-.54-.11h-.3l-.38,0-.28.09-.49.25-.24.18-.19.2-.17.26-.23.54-.07.31,0,.46v.18a2.34,2.34,0,0,0,.36,1l.34.3.74.38.45.09.53,0,.34-.09.58-.28.28-.21a2.24,2.24,0,0,0,0-3.17A2.59,2.59,0,0,0,283.88,158.41Z" style="fill:#BA68C8"></path><path d="M264.93,138.53l.13,0-.09.31a2.39,2.39,0,0,0,1.47,1.36,2,2,0,0,0,1.15,0L264.81,138Z" style="fill:#BA68C8"></path><path d="M173.62,135.7l-.06.31v.48l0,0a2.49,2.49,0,0,0,.74,1.66l.2.15.41.23.23.09.33.07.25,0,.48,0,.25-.05a2.28,2.28,0,0,0,.47-.23,2.32,2.32,0,0,0-2.33-4l-.24.19-.38.44-.16.26Z" style="fill:#BA68C8"></path><path d="M158.66,200.8l.07-.5a3.71,3.71,0,0,0-1.63-2.39l-.21-.06-.39-.08h-.22l-.32,0-.41.12-.67.4-.3.3-.16.27-.12.34,0,.26-.07.15-.1.5v.42l0,.09,4.34.59Z" style="fill:#BA68C8"></path><polygon points="124.82 196.09 124.43 195.82 123.63 195.53 123.16 195.49 122.63 195.59 122.31 195.72 121.78 196.06 121.61 196.23 125.26 196.72 125.16 196.5 124.82 196.09" style="fill:#BA68C8"></polygon><path d="M261.37,160.29l.66.27.38.06.47,0,.38-.11.1,0v0a2.38,2.38,0,0,0,1.17-.76l.15-.25.2-.49.06-.28,0-.37,0-.3-.16-.53-.13-.26a2.67,2.67,0,0,0-.31-.36,2.3,2.3,0,0,0-3.29,3.2Z" style="fill:#BA68C8"></path><path d="M218.72,114.93l-.14.38-.06.3v.48l0,0a2.43,2.43,0,0,0,.74,1.66l.19.15.41.23.24.09.32.07.26,0,.48,0,.25,0a2.92,2.92,0,0,0,.47-.23,2.32,2.32,0,0,0-2.33-4l-.25.19-.38.44Z" style="fill:#BA68C8"></path><path d="M260,139.29a2.21,2.21,0,0,0,.89-2.76l-.18-.26-.41-.43-.26-.19-.1,0a2.14,2.14,0,0,0-2.09-.23l-.3.21-.46.49-.2.32-.19.56-.06.36a2.3,2.3,0,0,0,.56,1.69l.27.21.57.29.34.1.43,0,.34,0,.62-.2Z" style="fill:#BA68C8"></path><path d="M241.37,119.61l-.22.32-.22.59-.08.41a2.28,2.28,0,0,0,.62,1.73l.24.19.51.26.1,0,0,.13h0a2.48,2.48,0,0,0,.67,1.08,3.54,3.54,0,0,0,.39.31l.26.11.51.13.28,0,.36,0,.28-.06.48-.2.23-.14a2.56,2.56,0,0,0,.8-1.1l-5-4Z" style="fill:#BA68C8"></path><path d="M225.29,117.49V118l0,0a2.56,2.56,0,0,0,.74,1.67l.2.15.41.22.24.09.32.08.26,0,.47,0,.26,0a2.92,2.92,0,0,0,.47-.23,2.32,2.32,0,0,0-2.34-4l-.24.19-.38.44-.16.27-.14.37Z" style="fill:#BA68C8"></path><path d="M188.73,174.37a2.26,2.26,0,0,0,1.85-2.64l-.38-.57-.27-.19a2,2,0,0,0-2.18-.69l-.45.19-.28.23,0,0-.17.13,0,0-.23.19-.28.4c0,.05,0,.11,0,.17l-.2.29-.14.67a2.31,2.31,0,0,0,1.33,1.66A2.53,2.53,0,0,0,188.73,174.37Z" style="fill:#BA68C8"></path><path d="M234.85,124.66a2.3,2.3,0,0,0,0,1.38l.17.31.41.48.28.22.39.2.11,0h-.06l-.36.11-.6.35-.28.25a2.11,2.11,0,0,0,2.3,3.42l0-.08.78-.43.37-.37.26-.53.08-.55-.17-1-.26-.49-.29-.28-.32-.2-.35-.12a2.15,2.15,0,0,0,1-.35,2.87,2.87,0,0,0,.4-.31l.17-.22.25-.46.1-.26.06-.35v-.27l-.06-.51-.07-.26a2.55,2.55,0,0,0-1.43-1.4,2.32,2.32,0,0,0-1.79.08l-.28.2-.44.47-.18.29-.17.46Z" style="fill:#BA68C8"></path><path d="M235.68,115a2.49,2.49,0,0,0,.66,1.09,2.2,2.2,0,0,0,.41.31l.25.11.5.13.27,0,.32,0-2.43-1.92,0,.21h0Z" style="fill:#BA68C8"></path><path d="M221.79,122.26l-.24.2-.38.43-.16.27-.15.37-.06.31v.48l0,0a2.49,2.49,0,0,0,.74,1.67l.2.15.4.23.24.09.33.07.25,0,.48,0,.25-.06a2.28,2.28,0,0,0,.47-.23,2.32,2.32,0,0,0-2.33-4Z" style="fill:#BA68C8"></path><path d="M230.75,159.37a2.59,2.59,0,0,0-.05-.56,2.43,2.43,0,0,0-2-2h-.4l-.94.24-.46.28-.48.58-.2.32a2.45,2.45,0,0,0,.13,2.24l.19.26.17.18h0v.32l.15.67.13,0-.09.3a2.36,2.36,0,0,0,1.48,1.36,2.15,2.15,0,0,0,1.76-.26l.12-.09.32-.31.15-.19.09-.16.15-.3.06-.17a2.39,2.39,0,0,0-.43-2.05l.14-.32Z" style="fill:#BA68C8"></path><path d="M228.26,123.11l-.38.43-.17.27-.14.37-.06.31V125l0,0a2.44,2.44,0,0,0,.74,1.67l.2.15.4.23.24.09.33.07.25,0,.48,0,.25,0a2.32,2.32,0,1,0-1.86-4.24Z" style="fill:#BA68C8"></path><path d="M220.4,132.38l-.34-.22-.45-.17-.41-.05-.73.08-.39.13-.34.22-.27.27-.38.58-.14.36-.07.46,0,.38.19.67.12.26a2.3,2.3,0,0,0,1.66,1.06,2.53,2.53,0,0,0,1.29.86l.16,0,.3,0h.17l.22,0,.17,0,.33-.1.17-.08.19-.1a2.41,2.41,0,0,0,1.08-1.6,2.52,2.52,0,0,0-.6-2l-.24-.21-.51-.31-.31-.11-.4-.07h-.23Z" style="fill:#BA68C8"></path><path d="M225.1,131.66l-.39.56-.15.63-.14.36a1.82,1.82,0,0,0,.21,1.19l-.13.22-.18.46-.06.26,0,.34,0,.27.11.49.1.25A2.76,2.76,0,0,0,226,138l.3,0h.56l.29-.06.36-.14.26-.15,0,0,.25-.13a2.28,2.28,0,0,0,1-2.4l-.19-.41-.31-.36a2.2,2.2,0,0,0-.23-1.89,2.51,2.51,0,0,0-1.51-1.05A2.25,2.25,0,0,0,225.1,131.66Z" style="fill:#BA68C8"></path><path d="M199.58,159.15a3,3,0,0,0-1.23,1.92v.32l.13.59.12.3.22.33.22.24.47.34.29.15a2.28,2.28,0,0,0,1.85-.25h0a2.32,2.32,0,0,0,1.66,0l.32-.2.5-.47.21-.31.18-.42.06-.37,0-.69-.09-.36a2.73,2.73,0,0,0-2-1.51l-.46,0-.42.15-.19-.07A2.17,2.17,0,0,0,199.58,159.15Z" style="fill:#BA68C8"></path><path d="M206.91,136.91l.41.23.23.09.33.08h.25l.48,0,.25,0a2.28,2.28,0,0,0,.47-.23,2.32,2.32,0,0,0-2.33-4l-.24.19-.38.44-.16.27-.15.37-.06.3v.48l0,0a2.48,2.48,0,0,0,.74,1.66Z" style="fill:#BA68C8"></path><path d="M203.27,141l-.32-.09-.41,0-.29,0-.54.13-.27.11a2.42,2.42,0,0,0-1.07,2.62l.17.36.45.56.31.25.57.25.41.11a2.2,2.2,0,0,0,1-.1l.33-.2.51-.49.21-.31.22-.58.07-.38a2.3,2.3,0,0,0-.6-1.75l-.26-.19Z" style="fill:#BA68C8"></path><path d="M205.44,152.47l.43,0,.35,0,.61-.2.23-.11a2.21,2.21,0,0,0,.88-2.76l-.19-.27-.41-.42-.26-.19-.1,0a2.13,2.13,0,0,0-2.09-.22l-.3.22-.46.49-.19.31-.19.57-.06.36a2.27,2.27,0,0,0,.57,1.68l.27.21.58.29Z" style="fill:#BA68C8"></path><path d="M193.46,188.17a2.2,2.2,0,0,0-.32-1.67,2.38,2.38,0,0,0-3.22-.79l-.39.56-.26,1.16.12.67.08.13,0,.08a2.42,2.42,0,0,0,.52.62l.08.12.56.39,1.16.25.67-.12A2.21,2.21,0,0,0,193.46,188.17Z" style="fill:#BA68C8"></path><path d="M188.2,195.74l.4.57.28.25.4.24.36.12.6.05.09-.48,0,.47.83-.09.42-.16.43-.31.29-.36.35-.77.07-.46a2,2,0,0,0,0-.24,2.58,2.58,0,0,0-2.51-2.1l-.42,0-.71.26-.35.22-.34.36-.21.37-.22.73,0,.42.1.53Z" style="fill:#BA68C8"></path><path d="M194,178.15v.57h.9l.48-.14.47-.31.32-.38.37-.83.07-.49a3.65,3.65,0,0,0-1.61-2.4l-.21-.07-.39-.07-.22,0-.32,0-.41.12-.67.4-.31.3-.16.26-.12.34,0,.26-.07.16-.11.49v.42l.21.75.21.38a3,3,0,0,0,1.34.79Z" style="fill:#BA68C8"></path><path d="M197.91,150.87l.42.48.27.22.4.2.34.09.59,0v0h0a2.38,2.38,0,0,0,1.24-.38,3.74,3.74,0,0,0,.4-.32l.17-.22.24-.46.1-.26.06-.35v-.27l-.07-.51-.07-.26a2.58,2.58,0,0,0-1.44-1.39,2.32,2.32,0,0,0-1.79.09l-.28.2-.41.45a2.39,2.39,0,0,0,0-.8,2.64,2.64,0,0,0-.72-1.35h0l-.11-.17-.22-.24-.36-.28-.34-.15-.66-.16h-.37l-.39.07-.31.12-.52.33-.25.23-.24.34-.14.29-.16.58,0,.32a2.87,2.87,0,0,0,0,.31,3,3,0,0,0,2.13,2.4l.28,0,.53,0,.28-.05.34-.13.25-.14.42-.33.09-.11a2.36,2.36,0,0,0,.07,1.21Z" style="fill:#BA68C8"></path><path d="M229.8,116.82l-.06.3v.49l0,0a2.46,2.46,0,0,0,.74,1.67l.19.15.41.22.24.09.32.08.26,0,.48,0,.25,0a2.92,2.92,0,0,0,.47-.23,2.32,2.32,0,0,0-.14-4,2.27,2.27,0,0,0,0-2.38,2.3,2.3,0,0,0-3.09-.84l-.25.19-.38.43-.16.27-.14.37-.06.31v.48l0,0a2.44,2.44,0,0,0,.74,1.67l.19.15.25.14-.06.09Z" style="fill:#BA68C8"></path><path d="M229.76,140.29l-.37.53-.14.31-.09.41v.33l.09.62.12.31a2.39,2.39,0,0,0,3.33,1.18l.24-.2.37-.42.16-.26.15-.36.06-.3,0-.56-.06-.38a2.74,2.74,0,0,0-1-1.44l.21-.23.31-.5.12-.3,0-.1a2.15,2.15,0,0,0-.29-2.07l-.28-.24-.58-.33-.35-.11-.59-.05-.36,0a2.28,2.28,0,0,0-1.49,1l-.14.31-.14.62v.35l.07.42.12.32.34.55.17.19a1.4,1.4,0,0,0,.26.16s0,0-.05,0Z" style="fill:#BA68C8"></path><path d="M214.79,117.19a2.29,2.29,0,0,0-3.09-.85l-.25.19-.38.44-.16.27-.14.37-.06.3v.48l0,0a2.46,2.46,0,0,0,.74,1.67l.19.15.41.22.24.09.32.08.26,0,.47,0,.26-.05.05,0,0,0-.16.27-.14.37-.06.31V122l0,0v0h0v0a2.56,2.56,0,0,0-1.23.4l-.3.33-.39.7-.12.43v.5l.1.4.09.19v.1l.17.46.51.7.38.29h0l-.23.43-.1.46,0,.85.14.44.29.46.23.25.52.36.31.14.42.1h.35l.65-.11.33-.13h0a2.43,2.43,0,0,0,1.12-1.91l0,0,.19-.36.09-.28.08-.55v-.3a2.4,2.4,0,0,0-1.18-1.64l0-.11h0a2.93,2.93,0,0,0,0-.36h.13l.26-.06a2.92,2.92,0,0,0,.47-.23,2.32,2.32,0,0,0,.76-3.15,2.3,2.3,0,0,0-2.66-1A2.29,2.29,0,0,0,214.79,117.19Z" style="fill:#BA68C8"></path><path d="M207.9,125.91l-.25.19-.38.44-.16.27-.05.12a2.3,2.3,0,0,0-2,.11l-.24.19-.38.44-.16.27-.15.37-.06.3v.48l0,0a2.48,2.48,0,0,0,.74,1.66l.2.16.4.22.24.09.33.08.25,0,.48,0,.25,0a2.28,2.28,0,0,0,.47-.23,2.35,2.35,0,0,0,.86-1l.18.06.32.08.26,0,.47,0,.26-.05a2.92,2.92,0,0,0,.47-.23,2.32,2.32,0,0,0-2.33-4Z" style="fill:#BA68C8"></path><path d="M202.25,189.35l.29,0,.36-.09a2,2,0,0,0,.44-.23,2.33,2.33,0,0,0,1-2.41,2.55,2.55,0,0,0-2.12-2h-.35l-.3,0-.36.1a2.74,2.74,0,0,0-.42.21,2.33,2.33,0,0,0-1,2.42,2.55,2.55,0,0,0,2.11,2Z" style="fill:#BA68C8"></path><path d="M207.48,157.92l.33.07.25,0,.48,0,.25,0a2.32,2.32,0,1,0-1.86-4.23l-.24.19-.38.43-.16.27L206,155l-.06.31v.48l0,0a2.49,2.49,0,0,0,.74,1.67l.2.15.41.23Z" style="fill:#BA68C8"></path><path d="M208.65,145.86l.24.1.32.07.26,0,.47,0,.26-.06a2.47,2.47,0,0,0,.46-.23,2.3,2.3,0,0,0,1.05-2.38l.46,0,.25,0a2.28,2.28,0,0,0,.47-.23,2.32,2.32,0,0,0-2.33-4l-.24.19-.38.44-.17.27-.14.37-.06.3v.49l0,0a2.74,2.74,0,0,0,0,.32,2.4,2.4,0,0,0-1.24.28l-.24.2-.38.43-.16.27-.15.37-.05.31v.48l0,0a2.51,2.51,0,0,0,.74,1.67l.2.15Z" style="fill:#BA68C8"></path><path d="M206.54,170.59l.16-.24.23-.5.07-.29,0-.38,0-.29-.13-.52-.12-.27-.22-.34-.26-.27-.58-.38-.36-.13-.45-.07-.3,0a2.93,2.93,0,0,0-.38-.41,2.55,2.55,0,0,0-3-.36l-.23.2-.35.43-.15.27-.13.36,0,.3v.55l0,.3a3.06,3.06,0,0,0,1.53,1.86,2.34,2.34,0,0,0,1.33.17l.22.2.19.09,0,0a2.21,2.21,0,0,0,2.42,0A2.06,2.06,0,0,0,206.54,170.59Z" style="fill:#BA68C8"></path><path d="M218.37,142.34l.74.11,0-.12.05.15a2.1,2.1,0,0,0,.41-.06l-.07.32v.35l.11.63.13.32.22.35.28.27.61.38.38.13.47.05.38,0,.66-.21.4-.27a2.32,2.32,0,0,0,.34-3.34l-.25-.21-.51-.3-.31-.1-.4-.06h-.32l-.34.08,0-.16,0-.16a3,3,0,0,0-.72-2.11l-.21-.18-.43-.27-.25-.1-.34-.09-.26,0-.5,0-.26.05a2.7,2.7,0,0,0-.54.26,2.47,2.47,0,0,0-1.08,2.64l.09.26.36.69.28.32.41.28Z" style="fill:#BA68C8"></path><path d="M209.31,168.44l.52.34.32.13.42.09h.33l.61-.11.32-.13.45-.29.25-.22.36-.5.15-.3.1-.41,0-.33-.09-.73s0-.09,0-.12a2.22,2.22,0,0,0,1.89-2.07l-.07-.4-.22-.5v0a2.18,2.18,0,0,0-2.12-1.53l-.45.14-.74.46-.07.09a2.13,2.13,0,0,0-.92,2.06h-.08l-.48.28-.67.74.18.15-.26-.12-.07.15.62.24-.63-.23a2.68,2.68,0,0,0,.12,2.93Z" style="fill:#BA68C8"></path><path d="M212.12,181h.34l.29,0,.36-.09a2.69,2.69,0,0,0,.45-.22,2.31,2.31,0,0,0,1-2.41,2.52,2.52,0,0,0-2.1-2h-.35l-.3,0-.36.1a2.74,2.74,0,0,0-.42.21,2.3,2.3,0,0,0-1,2.41A2.54,2.54,0,0,0,212.12,181Z" style="fill:#BA68C8"></path><path d="M204.69,177l.16-.5,0-.28v-.43a2.27,2.27,0,0,0-2.08-2.23h-.2l-.36,0-.19,0-.25.08-.25.13-.41.29-.19.19-.14.2-.1.17a2.41,2.41,0,0,0,.92,3.13,2.17,2.17,0,0,0,2.93-.57Z" style="fill:#BA68C8"></path><path d="M220.29,153.62l-.39.55-.14.63-.14.35a1.85,1.85,0,0,0,.57,1.68,2.14,2.14,0,0,0,1.67.6l.33.07.68-.11a2.13,2.13,0,0,0,.66-3A2.39,2.39,0,0,0,220.29,153.62Z" style="fill:#BA68C8"></path><path d="M211.31,154.5l.18.34a2.16,2.16,0,0,0,2.95.65,2.13,2.13,0,0,0,.94-2.08h-.08l-.21-.79c0-.13.09-.24.1-.37a2.35,2.35,0,0,0-.73-1.76,2.3,2.3,0,0,0-1.8-.64,2.67,2.67,0,0,0-1.95,1.23l-.18.37-.09.35-.05.43a2.52,2.52,0,0,0,.74,1.64Z" style="fill:#BA68C8"></path><path d="M204.46,119.68l-.21.23-.3.49-.12.29-.08.39v.25a2.29,2.29,0,0,0-3.12-.26l-.2.23-.31.49-.11.29-.08.39v.31l.07.48,0,0a2.44,2.44,0,0,0,1,1.52l.22.12.44.15.25.06h.33l.26,0,.46-.11.24-.09a2.24,2.24,0,0,0,.43-.31,2.33,2.33,0,0,0,.78-1.59,2.36,2.36,0,0,0,.43.39l.21.12.44.16.25.05.33,0,.26,0,.46-.11.25-.09a2.53,2.53,0,0,0,.42-.31,2.31,2.31,0,0,0-2.95-3.56Z" style="fill:#BA68C8"></path><path d="M197.9,182.91l.09.1a2.09,2.09,0,0,0,1.59,1.07H200l.16,0,.22-.05.15,0,.28-.12.15-.08a3,3,0,0,0,1-1.09l.1-.31.07-.59,0-.32-.1-.39-.13-.29-.34-.49-.23-.23a2.74,2.74,0,0,0-2.76-.12,2.19,2.19,0,0,0-1.09,2.08l.09.34Z" style="fill:#BA68C8"></path><path d="M198.23,125.94l-.24.2-.38.43-.16.27-.14.37-.06.3V128l0,0a2.54,2.54,0,0,0,.75,1.67l.19.15.41.22.24.09.32.08.26,0,.47,0,.26-.06a2.92,2.92,0,0,0,.47-.23,2.32,2.32,0,0,0-2.34-4Z" style="fill:#BA68C8"></path><path d="M197.83,201.9l0,.09a2.42,2.42,0,0,0,.52.62l.08.12.56.39,1.16.25.67-.12a2.2,2.2,0,0,0,.66-3.08,2.37,2.37,0,0,0-3.22-.78l-.39.56-.26,1.15.12.68Z" style="fill:#BA68C8"></path><path d="M197.18,132.57l-.27.31-.17.29-.2.57,0,.32a3.1,3.1,0,0,0,0,.45,2.34,2.34,0,0,0,1.94,1.93l-.08.23a2.34,2.34,0,0,0,.57,2.24,2.65,2.65,0,0,0,2.43.69l.23-.09.4-.22.2-.14.23-.22.15-.19.23-.39.09-.22a2.53,2.53,0,0,0-1-2.66,2.35,2.35,0,0,0-.59-.3l0,0,.15-.61,0-.25,0-.54-.11-.38-.22-.41-.25-.29-.57-.43-.35-.15a5.34,5.34,0,0,0-1.73-.1l-.33.1-.55.29Z" style="fill:#BA68C8"></path></g></g></g><g id="freepik--Strawberries--inject-89"><g id="freepik--strawberries--inject-89"><g id="freepik--Leaf--inject-89"><path d="M135.24,298.72c3.69-14.83,13.12-28.61,25.83-35.62a66.53,66.53,0,0,1,23.64-7.25,122.74,122.74,0,0,1,12.56-.93,34.38,34.38,0,0,1,9.89,1.1,1.49,1.49,0,0,1,.84.41c.45.56-.1,1.34-.58,1.88-1.88,2.1-2.67,5.61-3.71,8.21-3.24,8.15-5.74,16.6-9.46,24.54s-8.85,15.5-16.16,20.35c-6.82,4.52-14.92,6.33-22.7,8.43a87.57,87.57,0,0,0-11.75,3.82c-3.25,1.39-5,2.58-7,5.28.21-.3-1.25-3.35-1.4-3.86A51.41,51.41,0,0,1,135.24,298.72Z" style="fill:#37474f"></path><path d="M181.07,262.22a1.9,1.9,0,0,1-.19.21.76.76,0,0,1-.52.3c-.37,0-.59-.44-.55-.81s.24-.7.3-1.06a1.47,1.47,0,0,0-.72-1.46,2,2,0,0,0-2.23.5A6,6,0,0,0,176,262q-1,2.55-2.16,5c-.22.46-.61,1-1.1.86s-.54-.79-.43-1.27.3-1,0-1.43a1,1,0,0,0-1.48,0,3.58,3.58,0,0,0-.77,1.47,12.71,12.71,0,0,1-1.42,2.8,2.42,2.42,0,0,1-.78.81,1,1,0,0,1-1.07-.06,1.44,1.44,0,0,1-.33-.68,15.37,15.37,0,0,1-.42-3,2.44,2.44,0,0,0-.23-1.23,1.47,1.47,0,0,0-1.69-.5,2.89,2.89,0,0,0-1.4,1.23c-1.65,2.57-.76,5.74-1.82,8.51a1.43,1.43,0,0,1-.39.62,1.18,1.18,0,0,1-1.57-.4c-.42-.56-.47-1.35-.93-1.89-.64-.76-1.36-.13-1.7.61a11,11,0,0,0-.8,2.39.8.8,0,0,1-.2.46.74.74,0,0,1-.85,0,3.36,3.36,0,0,1-1.56-1.78,6.06,6.06,0,0,0-.32-.84.94.94,0,0,0-.71-.51,1,1,0,0,0-.67.3c-1.5,1.37-1,4.65-1,6.46.06,2.23.12,4.57-.92,6.61a1.31,1.31,0,0,1-.31.43c-1.25,1-2.78-2.34-3.06-3.19a8.59,8.59,0,0,1,0-5.19,16.15,16.15,0,0,1,4.71-6.77,69.14,69.14,0,0,1,7.76-6,22.78,22.78,0,0,1,2.79-1.73c1.69-.83,3.33-1.67,5.09-2.36,3-1.17,6-2.29,9.15-3.18,1.53-.43,3.07-.81,4.63-1.11a18.26,18.26,0,0,1,4.45-.6c1.13.08,1.95.17,1.42,1.48-.2.51-1.94,4-2.65,2.71-.16-.29,0-.63.12-.94s0-.78-.3-.8a.57.57,0,0,0-.46.3C182,260.47,181.7,261.46,181.07,262.22Z" style="fill:#455a64"></path><path d="M192.36,256.63a24.31,24.31,0,0,1,4-.37,32.21,32.21,0,0,1,3.93,0c.37,0,3.69.2,3.73.51s-.19.3-.36.35L201,258a4.38,4.38,0,0,1-2.51.5c-.25-.07-.48-.2-.73-.25a2,2,0,0,0-1.56.56,6.18,6.18,0,0,1-1.37,1c-1,.43-1.59,0-1.4-1a.82.82,0,0,0,0-.35.28.28,0,0,0-.24-.22.39.39,0,0,0-.2.08,5,5,0,0,0-1.08,1.16,4.3,4.3,0,0,1-1.13,1.12,1.52,1.52,0,0,1-1.51.09.39.39,0,0,1-.18-.18.54.54,0,0,1,0-.28,6.77,6.77,0,0,1,1-2.36A3.79,3.79,0,0,1,192.36,256.63Z" style="fill:#455a64"></path><path d="M142.91,287.7a14.11,14.11,0,0,1,1,2.07A12.57,12.57,0,0,1,145,293.5c0,.42-.07,1-.62,1s-.71-.66-1.07-1c-.1-.09-.26-.16-.37-.08a.36.36,0,0,0-.11.2,3.32,3.32,0,0,0,.16,1.73,19.86,19.86,0,0,1,.3,2.17c0,.43,0,.95-.41,1.11s-.8-.2-1.08-.52l-.8-.94c-.21-.24-.53-.5-.8-.33a.64.64,0,0,0-.21.34,9,9,0,0,0-.25,4.12c.19,1.37.51,2.73.63,4.11a3.91,3.91,0,0,1-.09,1.45c-.21.75-1,.95-1,1.73,0,.61.41,1.17.41,1.79A2,2,0,0,1,139,312c-.33.23-.74.32-1.07.56a2.2,2.2,0,0,0-.74,1.9c0,.72.25,1.41.32,2.11a4.87,4.87,0,0,1-.4,2.44.84.84,0,0,1-.53.57c-.35.08-.65-.26-.82-.59a7.09,7.09,0,0,1-.63-2.53,40.2,40.2,0,0,1-.15-7.44c.55-7.55,2.13-15,5.75-21.68.21-.39.57-.8,1-.75a1,1,0,0,1,.58.34A3.92,3.92,0,0,1,142.91,287.7Z" style="fill:#455a64"></path><path d="M137.29,327.85c1.74-6.76,5.41-13.56,8.77-19.65,13.29-24.06,35.63-38.15,45.65-44.13,5.19-3.09,10.59-6.09,16.36-7.53.3.55-.2,1.27-.65,1.77-1.88,2.1-2.67,5.61-3.71,8.21-3.24,8.15-5.74,16.6-9.46,24.54s-8.85,15.5-16.16,20.35c-6.82,4.52-14.92,6.33-22.7,8.43a87.57,87.57,0,0,0-11.75,3.82,14.48,14.48,0,0,0-6.41,4.55A2.9,2.9,0,0,1,137.29,327.85Z" style="opacity:0.1"></path><path d="M184.67,288.92l1,.14c1.93.29,2.18-.92.39-1.52-1.16-.39-2.4-.47-3.58-.79l-5.63-1.54c-1.13-.31-2.73-1.06-3.06-2.31s.59-2.35,1.59-3.06c2.45-1.74,5.61-2,8.61-2,2.49,0,5.15.27,7.6-.29.72-.17,1.75-.85.73-1.44-.6-.34-2,0-2.69,0a25.08,25.08,0,0,1-7.52-.79c-.39-.1-.85-.28-.92-.67a1,1,0,0,1,.12-.59c.69-1.44,2.26-2.22,3.75-2.8A35,35,0,0,1,195.08,269c.41,0,2-.1,1.69-.94-.24-.62-2.13-.24-2.65-.22a6.47,6.47,0,0,1-3.59-.9c.46-1.11,2.23-2.09,3.17-2.79a44.2,44.2,0,0,1,4-2.66,3.2,3.2,0,0,0,1.08-.76c.86-1.28-1.58-.52-2.06-.42-1.6.32-10.13,5.26-8.8.32a17,17,0,0,1,.8-2.27c-.36-.36-1,0-1.31.39a18.14,18.14,0,0,0-1.9,3,29.58,29.58,0,0,1-2.49,3.67,9.37,9.37,0,0,1-3.85,3.2,1.6,1.6,0,0,1-1.81-.21,1.74,1.74,0,0,1-.09-1.5c.33-1.31.78-2.56,1-3.87.12-.55,1-2.44.4-2.91-.85-.67-2,2.92-2.16,3.51a41.6,41.6,0,0,1-1.68,4.61,15.33,15.33,0,0,1-2.13,3.33,18.92,18.92,0,0,1-2.29,2.7,4.63,4.63,0,0,1-2.14,1.05,3.53,3.53,0,0,1-1.79-.2,2.61,2.61,0,0,1-.66-.39,1.9,1.9,0,0,1-.61-1.28l-.39-4.65c0-.46,0-3.08-1.05-2.63-.46.19-.47,2-.48,2.45,0,.88.08,1.75.14,2.63a23.83,23.83,0,0,1-.73,8.58,7.44,7.44,0,0,1-2.07,3.62,3.52,3.52,0,0,1-3.93.56,5.47,5.47,0,0,1-1.78-2.24,24.36,24.36,0,0,1-2.22-5c-.18-.61-.18-1.59-.64-2.08-.81-.84-.82.38-.75,1a17.62,17.62,0,0,0,1.15,4.68c1,2.54,2.63,5,2.51,7.72a8,8,0,0,1-1.14,3.62,5.18,5.18,0,0,1-2.13,2.19c-1.69.8-2.77-.32-3.7-1.66a27.24,27.24,0,0,1-2.86-5.35.6.6,0,0,0-.23-.33.4.4,0,0,0-.51.22,1.06,1.06,0,0,0,0,.61c.57,3.75,3.74,6.84,3.78,10.62a12.2,12.2,0,0,1-2,6.05c-.33.57-.82,1.23-1.49,1.17a1.6,1.6,0,0,1-1-.75c-1.22-1.68-1.55-3.83-2.44-5.7-.07-.14-.15-.29-.29-.33s-.49.3-.53.59a8.73,8.73,0,0,0,.9,4.23,23.67,23.67,0,0,1,1.43,4.23c1.05,5.26-2.41,9.76-2.88,14.85,1.19-2.53,2.34-5.1,4.91-6.44a10.44,10.44,0,0,1,7-1c1.54.34,3.54,1.5,5.15,1.21,2.13-.39-2-1.67-2.57-1.92-1.09-.48-2.15-1-3.2-1.57a3.71,3.71,0,0,1-1.42-1.11c-.65-1-.22-2.38.43-3.39a9.42,9.42,0,0,1,6.09-4.11c4.74-.91,9.42,1.91,14.24,1.9.34,0,.78-.1.81-.44s-.3-.49-.58-.6c-3.26-1.29-6.74-2-10-3.18-1.07-.39-3.36-1.16-3.28-2.56a2.93,2.93,0,0,1,1-1.89,6.42,6.42,0,0,1,4-1.53,17.91,17.91,0,0,1,4.31.42q5,.91,9.92,2.14c.83.21,3.91.38,1.94-.79a21.83,21.83,0,0,0-3.15-1.22,45.61,45.61,0,0,1-6.45-3.12c-1.2-.71-2.53-1.8-2.31-3.18.18-1.17,1.41-1.87,2.56-2.18,2.74-.76,5.65-.35,8.47.07Z" style="opacity:0.1"></path><path d="M191.71,264.07c2.33-1.39,4.71-2.75,7.14-4,.16.1.18.29-.06.65a3.2,3.2,0,0,1-1.08.76,44.2,44.2,0,0,0-4,2.66c-.94.7-2.71,1.68-3.17,2.79a6.47,6.47,0,0,0,3.59.9c.52,0,2.41-.4,2.65.22.33.84-1.28.91-1.69.94A35,35,0,0,0,185,271.25c-1.49.58-3.06,1.36-3.75,2.8a1,1,0,0,0-.12.59c.07.39.53.57.92.67a25.08,25.08,0,0,0,7.52.79c.68,0,2.09-.38,2.69,0,1,.59,0,1.27-.73,1.44-2.45.56-5.11.28-7.6.29-3,0-6.16.31-8.61,2-1,.71-1.9,1.88-1.59,3.06s1.93,2,3.06,2.31l5.63,1.54c1.18.32,2.42.4,3.58.79,1.79.6,1.54,1.81-.39,1.52l-1-.14-7-1c-2.82-.42-5.73-.83-8.47-.07-1.15.31-2.38,1-2.56,2.18-.22,1.38,1.11,2.47,2.31,3.18a45.61,45.61,0,0,0,6.45,3.12,21.83,21.83,0,0,1,3.15,1.22c2,1.17-1.11,1-1.94.79q-4.92-1.21-9.92-2.14a17.91,17.91,0,0,0-4.31-.42,6.42,6.42,0,0,0-4,1.53,2.93,2.93,0,0,0-1,1.89c-.08,1.4,2.21,2.17,3.28,2.56,3.28,1.22,6.76,1.89,10,3.18.28.11.61.3.58.6s-.47.44-.81.44c-4.82,0-9.5-2.81-14.24-1.9a9.42,9.42,0,0,0-6.09,4.11c-.65,1-1.08,2.37-.43,3.39a3.71,3.71,0,0,0,1.42,1.11c1.05.57,2.11,1.09,3.2,1.57.56.25,4.7,1.53,2.57,1.92-1.61.29-3.61-.87-5.15-1.21a10.44,10.44,0,0,0-7,1c-2.57,1.34-3.72,3.91-4.91,6.44a16.77,16.77,0,0,1,.65-3.21c1.7-3.78,3.69-7.47,5.6-10.93C159.35,284.14,181.69,270.05,191.71,264.07Z" style="fill:#263238"></path><path d="M133.58,335.59c6.88-25.22,21.91-49.22,43.51-64.21A79.17,79.17,0,0,1,197,261c.09,0,.36.07.19.15a107,107,0,0,0-16.46,10.28,153.8,153.8,0,0,0-16,14.37C155.74,295,149.74,304.69,144,316.2a112.26,112.26,0,0,0-7.78,20.34C135.56,339,133,337.72,133.58,335.59Z" style="fill:#455a64"></path></g><g id="freepik--Strawberry--inject-89"><g id="freepik--strawberry--inject-89"><path d="M111.75,353.18a46,46,0,0,1-11.56,1.32,33.08,33.08,0,0,1-6.67-.82C81.69,351,75,341.87,72.94,332.22c-3-13.81,3.6-35.67,7.81-45.28,3.35-7.65,5.08-11.2,8.76-13.07a15.93,15.93,0,0,1,3.85-1.26c5.92-1.08,11.21,3,16.9,7.84l.44.38h0c6.31,5.47,24.2,22.82,27.82,35.92C142.22,330.17,135.2,347.65,111.75,353.18Z" style="fill:#BA68C8"></path><path d="M111.75,353.18a46,46,0,0,1-11.56,1.32,33.08,33.08,0,0,1-6.67-.82C81.69,351,75,341.87,72.94,332.22c-3-13.81,3.6-35.67,7.81-45.28,3.35-7.65,5.08-11.2,8.76-13.07a15.93,15.93,0,0,1,3.85-1.26c5.92-1.08,11.21,3,16.9,7.84l.44.38h0c6.31,5.47,24.2,22.82,27.82,35.92C142.22,330.17,135.2,347.65,111.75,353.18Z" style="fill:#BA68C8"></path><path d="M111.75,353.18a46,46,0,0,1-11.56,1.32,33.08,33.08,0,0,1-6.67-.82C81.69,351,75,341.87,72.94,332.22c-3-13.81,3.6-35.67,7.81-45.28,3.35-7.65,5.08-11.2,8.76-13.07a15.93,15.93,0,0,1,3.85-1.26c5.92-1.08,11.21,3,16.9,7.84l.44.38h0c6.31,5.47,24.2,22.82,27.82,35.92C142.22,330.17,135.2,347.65,111.75,353.18Z" style="fill:#fff;opacity:0.1"></path><path d="M111.75,353.18a46,46,0,0,1-11.56,1.32c-1.85-3.67-3.07-9-2.88-12A7.06,7.06,0,0,1,99,338.08a3.6,3.6,0,0,1,4.34-.82c1.08.67,1.75,2.09,3,2.18,1.51.11,2.36-1.87,2-3.35s-1.45-2.65-2-4.08a5.78,5.78,0,0,1,.83-5.36c1.3-1.69,3.83-3.83,3.82-6.12,0-1.62-1.23-3-1.51-4.58a5.91,5.91,0,0,1,1.32-4.33c.92-1.26,2.08-2.31,3-3.55a4.12,4.12,0,0,0,.91-1.82,6.26,6.26,0,0,0-.1-1.88,32.83,32.83,0,0,0-.43-3.72,4.1,4.1,0,0,0-2.16-2.88,3.76,3.76,0,0,0-1.88-.21,19,19,0,0,1-3.66.46,4.17,4.17,0,0,1-1.47-.42h0a7.93,7.93,0,0,1-3-2.85c-1.09-1.6-1.64-3.18-.48-5a6.84,6.84,0,0,1,3.41-2.54,28.19,28.19,0,0,1,4.19-1,2.93,2.93,0,0,0,2-1,3,3,0,0,0-.21-3,6.73,6.73,0,0,0-1.16-1.44,6.57,6.57,0,0,0-.57-.48l.47.21.22.1.7.28.07,0h0c6.31,5.47,24.2,22.82,27.82,35.92C142.22,330.17,135.2,347.65,111.75,353.18Z" style="fill:#fff;opacity:0.15"></path><path d="M110.7,280.83l-.07,0-.7-.28-.22-.1-.47-.21-.94-.52a4,4,0,0,0-2-.72,2,2,0,0,0-2,1.88c0,.45.16.89.17,1.35a1.09,1.09,0,0,1-.67,1.11,1.73,1.73,0,0,1-.78-.06c-2.44-.47-4.23,1.36-5.84,2.89a16.6,16.6,0,0,0-5,7.72c-.2.73-.27,1.53-1.11,1.87s-1.78,0-2.6.33a3,3,0,0,0-1.6,1.9,11.56,11.56,0,0,0-.18,3.38,19.22,19.22,0,0,1-.84,4.91c-.36,1.29-.62,3.21-1.74,4.13-.64.53-1.5.74-2.15,1.24a3.45,3.45,0,0,0-1,3.7,7.74,7.74,0,0,0,2.26,3.28,3,3,0,0,1,1.11,1.65c.12,1-.83,1.85-1.52,2.66-2.91,3.38-1.44,8.33-.46,12.05,1.47,5.59,3.92,12.37,8.37,16.24,1,.89,1.93,1.72,2.77,2.47C81.69,351,75,341.87,72.94,332.22c-3-13.81,3.6-35.67,7.81-45.28,3.35-7.65,5.08-11.2,8.76-13.07a15.93,15.93,0,0,1,3.85-1.26c5.92-1.08,11.21,3,16.9,7.84Z" style="opacity:0.15"></path><path d="M80.12,290.91a8,8,0,0,0-.63,2.55,3,3,0,0,0,.88,2.66c.83.69,1.42-.06,1.84-.83a4.71,4.71,0,0,0,.22-4.2,1.48,1.48,0,0,0-1-.95A1.39,1.39,0,0,0,80.12,290.91Z" style="fill:#BA68C8"></path><path d="M92.06,281.1a7.31,7.31,0,0,0,.15,2.59A3,3,0,0,0,93.86,286c1,.42,1.35-.45,1.53-1.29a4.65,4.65,0,0,0-1-4.06,1.51,1.51,0,0,0-1.2-.63A1.32,1.32,0,0,0,92.06,281.1Z" style="fill:#BA68C8"></path><path d="M75.72,330.6a.53.53,0,0,0,.72.21,2.3,2.3,0,0,0,1.42-1.51,4,4,0,0,0,0-2.07A7.52,7.52,0,0,0,77,325a.56.56,0,0,0-.2-.23.51.51,0,0,0-.27-.06A1.76,1.76,0,0,0,75,326.1,6.24,6.24,0,0,0,75.72,330.6Z" style="fill:#BA68C8"></path><path d="M111.16,330.35a1,1,0,0,0-.55.74,1.93,1.93,0,0,0,.1.89,4.64,4.64,0,0,0,1.06,1.85,1.34,1.34,0,0,0,.6.42c.9.25.95-.86.82-1.38a4.61,4.61,0,0,0-.75-1.62,2.53,2.53,0,0,0-.88-.87A.51.51,0,0,0,111.16,330.35Z" style="fill:#fafafa"></path><path d="M102.32,306.56a1,1,0,0,0-.64.68,1.91,1.91,0,0,0,0,.89,4.74,4.74,0,0,0,.81,2,1.28,1.28,0,0,0,.54.49c.86.36,1-.74,1-1.28a4.64,4.64,0,0,0-.54-1.7,2.38,2.38,0,0,0-.75-1A.56.56,0,0,0,102.32,306.56Z" style="fill:#fafafa"></path><path d="M92.24,281.28a1,1,0,0,0-.64.68,1.91,1.91,0,0,0,0,.89,4.74,4.74,0,0,0,.81,2,1.28,1.28,0,0,0,.54.49c.86.36,1-.74,1-1.28a4.64,4.64,0,0,0-.54-1.7,2.38,2.38,0,0,0-.75-1A.57.57,0,0,0,92.24,281.28Z" style="fill:#fafafa"></path><path d="M89.85,334.58a1,1,0,0,0-.65.67,2.1,2.1,0,0,0,0,.9,4.88,4.88,0,0,0,.81,2,1.29,1.29,0,0,0,.55.48c.85.36,1-.74,1-1.28a4.64,4.64,0,0,0-.54-1.7,2.47,2.47,0,0,0-.76-1A.49.49,0,0,0,89.85,334.58Z" style="fill:#fafafa"></path><path d="M125.76,330.42a1,1,0,0,0-.7.62,1.92,1.92,0,0,0-.1.89,4.74,4.74,0,0,0,.61,2,1.26,1.26,0,0,0,.49.53c.82.44,1.11-.65,1.11-1.19a4.93,4.93,0,0,0-.37-1.74,2.38,2.38,0,0,0-.66-1A.46.46,0,0,0,125.76,330.42Z" style="fill:#fafafa"></path><path d="M104.32,292.08a1,1,0,0,0-.48.79,2,2,0,0,0,.2.87,4.86,4.86,0,0,0,1.25,1.73,1.49,1.49,0,0,0,.65.36c.93.16.85-.94.67-1.45a4.6,4.6,0,0,0-.92-1.53,2.57,2.57,0,0,0-1-.79A.5.5,0,0,0,104.32,292.08Z" style="fill:#fafafa"></path><path d="M75.39,325.66a1,1,0,0,0-.75.57,1.91,1.91,0,0,0-.18.88,4.79,4.79,0,0,0,.43,2.08,1.32,1.32,0,0,0,.44.58c.78.49,1.16-.56,1.21-1.11a5,5,0,0,0-.22-1.77,2.47,2.47,0,0,0-.56-1.09A.55.55,0,0,0,75.39,325.66Z" style="fill:#fafafa"></path><path d="M106,280.33a.94.94,0,0,0-.36.84,1.8,1.8,0,0,0,.32.83,4.82,4.82,0,0,0,1.49,1.56,1.5,1.5,0,0,0,.69.27c.94,0,.72-1,.47-1.52a5.08,5.08,0,0,0-1.14-1.39,2.52,2.52,0,0,0-1.07-.65A.49.49,0,0,0,106,280.33Z" style="fill:#fafafa"></path><path d="M80.57,291.32a1,1,0,0,0-.86.41,2,2,0,0,0-.35.84,4.79,4.79,0,0,0,0,2.13,1.36,1.36,0,0,0,.31.65c.65.64,1.25-.33,1.41-.86a4.67,4.67,0,0,0,.15-1.78,2.45,2.45,0,0,0-.31-1.19A.51.51,0,0,0,80.57,291.32Z" style="fill:#fafafa"></path><path d="M89.18,297.52a1,1,0,0,0-.76.55,2.12,2.12,0,0,0-.18.89,4.64,4.64,0,0,0,.41,2.08,1.32,1.32,0,0,0,.44.58c.77.5,1.16-.55,1.21-1.09a4.88,4.88,0,0,0-.2-1.78,2.35,2.35,0,0,0-.55-1.09A.46.46,0,0,0,89.18,297.52Z" style="fill:#fafafa"></path><path d="M102.28,340.74a1,1,0,0,0-.56.75,1.88,1.88,0,0,0,.11.88,4.64,4.64,0,0,0,1.06,1.85,1.34,1.34,0,0,0,.6.42c.9.26.94-.85.82-1.38a5,5,0,0,0-.76-1.62,2.37,2.37,0,0,0-.88-.87A.49.49,0,0,0,102.28,340.74Z" style="fill:#fafafa"></path><path d="M115,312.9a1,1,0,0,0-.55.75,1.89,1.89,0,0,0,.1.88,4.89,4.89,0,0,0,1.06,1.85,1.37,1.37,0,0,0,.61.42c.9.25.94-.85.81-1.38a4.78,4.78,0,0,0-.75-1.62,2.53,2.53,0,0,0-.88-.87A.51.51,0,0,0,115,312.9Z" style="fill:#fafafa"></path><path d="M96.19,321.38a1,1,0,0,0-.72.6,2.14,2.14,0,0,0-.12.9,4.83,4.83,0,0,0,.57,2,1.29,1.29,0,0,0,.48.55c.81.45,1.12-.63,1.13-1.17a4.69,4.69,0,0,0-.33-1.75,2.46,2.46,0,0,0-.64-1.06A.53.53,0,0,0,96.19,321.38Z" style="fill:#fafafa"></path><path d="M131.06,317a1,1,0,0,0-.56.74,1.94,1.94,0,0,0,.11.89,4.88,4.88,0,0,0,1,1.85,1.37,1.37,0,0,0,.61.42c.9.25.94-.86.82-1.39a4.86,4.86,0,0,0-.76-1.61,2.56,2.56,0,0,0-.88-.88A.53.53,0,0,0,131.06,317Z" style="fill:#fafafa"></path><path d="M82.92,312.9a1,1,0,0,0-.74.58,1.89,1.89,0,0,0-.16.88,4.73,4.73,0,0,0,.48,2.07A1.28,1.28,0,0,0,83,317c.78.48,1.14-.58,1.17-1.13a4.76,4.76,0,0,0-.25-1.76,2.44,2.44,0,0,0-.59-1.08A.51.51,0,0,0,82.92,312.9Z" style="fill:#fafafa"></path><path d="M119.07,298.15a1,1,0,0,0-.43.81,1.9,1.9,0,0,0,.25.86,4.93,4.93,0,0,0,1.34,1.67,1.44,1.44,0,0,0,.67.32c.93.12.8-1,.59-1.48a4.75,4.75,0,0,0-1-1.48,2.55,2.55,0,0,0-1-.73A.54.54,0,0,0,119.07,298.15Z" style="fill:#fafafa"></path><path d="M115.67,318.34l-.58.1c-1.09.23-.85,1.2-.23,1.76a2.75,2.75,0,0,0,1.56.66,4.88,4.88,0,0,0,4.86-2.92,5.8,5.8,0,0,0-.76-5.54c-1.22-1.72-3.74-1.26-2.87,1.08a9.22,9.22,0,0,1,.62,1.81,3,3,0,0,1-.67,2.31A3.23,3.23,0,0,1,115.67,318.34Z" style="fill:#fff;opacity:0.25"></path><path d="M104.19,311.6a1.64,1.64,0,0,1,.36-1.17,4.27,4.27,0,0,0,.55-2.82,3.14,3.14,0,0,0-1.69-2.25,14.09,14.09,0,0,1-1.6-.65c-1-.68-1.17-2.09-1.09-3.31a4,4,0,0,1,1.3-3.14c1.37-1,3.41-.3,4.9-1.12a2.55,2.55,0,0,0,1.31-2.16c0-.5-.17-1-.12-1.49s.44-1.05,1-1a1,1,0,0,1,.56.23,3.24,3.24,0,0,1,1.12,3.38,8.24,8.24,0,0,1-1.87,3.34c-.41.51-.85,1-1.3,1.47a3.6,3.6,0,0,0-.82,1.06,2.13,2.13,0,0,0,.07,1.57c.2.5.5.94.75,1.42a5.93,5.93,0,0,1,.58,3.84,5.26,5.26,0,0,1-1.53,2.8C106.07,312.13,104.49,312.72,104.19,311.6Z" style="fill:#fff;opacity:0.25"></path><path d="M121.76,302.89a2.44,2.44,0,0,0,.74-2.42,7,7,0,0,0-1.16-2.35,1.24,1.24,0,0,1-.28-.77c0-.49.69-.78,1.19-.67a2.37,2.37,0,0,1,1.22.85,6.07,6.07,0,0,1,1.86,3.32c.19,2-1.66,5.28-4.16,3.9C120,304.08,121.09,303.44,121.76,302.89Z" style="fill:#fff;opacity:0.25"></path><path d="M126.34,337.12a.87.87,0,0,0,.34.42c.77.54,2-.06,2.62-.5a9.5,9.5,0,0,0,4.21-7.72,8,8,0,0,1,.12-2.49,8.93,8.93,0,0,1,2-2.74,6.39,6.39,0,0,0,1.59-3.44,3.78,3.78,0,0,0-1.34-3.35c-.48-.38-1.29-.58-1.7-.11s-.1,1.13,0,1.71a2.91,2.91,0,0,1-1.61,3.17c-.7.33-1.5.38-2.22.66a4.23,4.23,0,0,0-2.49,2.94c-.85,3.48,2.53,7-.89,10.1C126.61,336.13,126.18,336.65,126.34,337.12Z" style="fill:#fff;opacity:0.25"></path></g><path d="M112.09,368a14.76,14.76,0,0,1-5.24-3.55A25.73,25.73,0,0,1,103,359c-.57-1-.57-1.78-1.75-1.34a18.44,18.44,0,0,0-3,1.89c-1.21.75-2.42,1.5-3.68,2.16A29.27,29.27,0,0,1,75,364.42c-2.39-.52.69-1.7,1.38-2.27a18.23,18.23,0,0,0,1.74-1.66c2.84-2.95,5.09-6.25,9.21-7.67,2.62-.9,5.42-.65,8.11-.48a47.08,47.08,0,0,0,8-.38c1.92-.19,4.35-.84,6.07.19a5.2,5.2,0,0,1,2.23,3.87c.32,2.12.2,4.29.34,6.43a11.48,11.48,0,0,0,1.83,6.09A11.57,11.57,0,0,1,112.09,368Z" style="fill:#BA68C8"></path><path d="M112.09,368a14.76,14.76,0,0,1-5.24-3.55A25.73,25.73,0,0,1,103,359c-.57-1-.57-1.78-1.75-1.34a18.44,18.44,0,0,0-3,1.89c-1.21.75-2.42,1.5-3.68,2.16A29.27,29.27,0,0,1,75,364.42c-2.39-.52.69-1.7,1.38-2.27a18.23,18.23,0,0,0,1.74-1.66c2.84-2.95,5.09-6.25,9.21-7.67,2.62-.9,5.42-.65,8.11-.48a47.08,47.08,0,0,0,8-.38c1.92-.19,4.35-.84,6.07.19a5.2,5.2,0,0,1,2.23,3.87c.32,2.12.2,4.29.34,6.43a11.48,11.48,0,0,0,1.83,6.09A11.57,11.57,0,0,1,112.09,368Z" style="opacity:0.45"></path><path d="M136.91,354.85c4.77-.64,11.63-3,15.41-5.71-4.14.12-8.53-2-12.07-3.35a18.58,18.58,0,0,0-9.85-1.11c-3,.58-7.93,2.68-8.87,5.83s6.32,4.15,8.59,4.42A28.07,28.07,0,0,0,136.91,354.85Z" style="fill:#BA68C8"></path><path d="M136.91,354.85c4.77-.64,11.63-3,15.41-5.71-4.14.12-8.53-2-12.07-3.35a18.58,18.58,0,0,0-9.85-1.11c-3,.58-7.93,2.68-8.87,5.83s6.32,4.15,8.59,4.42A28.07,28.07,0,0,0,136.91,354.85Z" style="opacity:0.45"></path><path d="M110.15,352.23c5.26-3.5,13.2-2.6,18.06.83a12.57,12.57,0,0,1,5.44,8.68c-3.42-2.75-8.3-3.16-12.84-3.05-3.46.09-7.12.37-10.17-1.12-1.33-.65-2.6-1.94-2.23-3.36A3.75,3.75,0,0,1,110.15,352.23Z" style="fill:#BA68C8"></path><path d="M110.15,352.23c5.26-3.5,13.2-2.6,18.06.83a12.57,12.57,0,0,1,5.44,8.68c-3.42-2.75-8.3-3.16-12.84-3.05-3.46.09-7.12.37-10.17-1.12-1.33-.65-2.6-1.94-2.23-3.36A3.75,3.75,0,0,1,110.15,352.23Z" style="opacity:0.35000000000000003"></path><path d="M99.69,351.55c-.26-.78-1.31-.95-2.18-1.06-4.05-.5-7.81-2.63-11.91-2.43a10.8,10.8,0,0,0-6.69,2.77,9.91,9.91,0,0,0-3.21,6.25c1.69-2.17,4.87-2.77,7.65-2.46s5.39,1.33,8.15,1.7,5.93,0,7.8-2.08c.51-.56.21-.27.43-1A2.3,2.3,0,0,0,99.69,351.55Z" style="fill:#BA68C8"></path><path d="M99.69,351.55c-.26-.78-1.31-.95-2.18-1.06-4.05-.5-7.81-2.63-11.91-2.43a10.8,10.8,0,0,0-6.69,2.77,9.91,9.91,0,0,0-3.21,6.25c1.69-2.17,4.87-2.77,7.65-2.46s5.39,1.33,8.15,1.7,5.93,0,7.8-2.08c.51-.56.21-.27.43-1A2.3,2.3,0,0,0,99.69,351.55Z" style="opacity:0.35000000000000003"></path><path d="M99.3,354.24c.51-.56.21-.27.43-1a2.3,2.3,0,0,0,0-1.71c-.26-.78-1.31-.95-2.18-1.06-.56-.07-1.12-.17-1.67-.29a10,10,0,0,0-1.6,6.2A7.52,7.52,0,0,0,99.3,354.24Z" style="opacity:0.25"></path><path d="M137.92,343.31a24.83,24.83,0,0,1,2.74-2.48,15,15,0,0,1,7.49-2.69c-.28,0-1-.5-1.27-.62-.48-.22-1-.41-1.46-.59a20.85,20.85,0,0,0-3.22-.83,17.54,17.54,0,0,0-6.5-.12,13.19,13.19,0,0,0-8.75,6.35c-.73,1.32-1.23,3.17,0,4.3s4.61.87,6.23.3a8.06,8.06,0,0,0,2.34-1.39A31.09,31.09,0,0,0,137.92,343.31Z" style="fill:#BA68C8"></path><path d="M137.92,343.31a24.83,24.83,0,0,1,2.74-2.48,15,15,0,0,1,7.49-2.69c-.28,0-1-.5-1.27-.62-.48-.22-1-.41-1.46-.59a20.85,20.85,0,0,0-3.22-.83,17.54,17.54,0,0,0-6.5-.12,13.19,13.19,0,0,0-8.75,6.35c-.73,1.32-1.23,3.17,0,4.3s4.61.87,6.23.3a8.06,8.06,0,0,0,2.34-1.39A31.09,31.09,0,0,0,137.92,343.31Z" style="opacity:0.35000000000000003"></path><path d="M127,346.63c1.35,1.2,4.61.87,6.23.3a8.06,8.06,0,0,0,2.34-1.39c.54-.45,1.05-.93,1.54-1.42a5.56,5.56,0,0,0-2.09-3c-.87-.63-3.36-.88-2.92-2.16.31-.9,3.32-1.72,4.15-2a23.8,23.8,0,0,1,4.56-1.07,15.58,15.58,0,0,0-5.1.09,13.19,13.19,0,0,0-8.75,6.35C126.22,343.65,125.72,345.5,127,346.63Z" style="opacity:0.25"></path><path d="M113.24,346.73l.46-.45c5.35-5.11,18.46-8.4,22.71-.65a12.91,12.91,0,0,1,1.39,6.62,1.46,1.46,0,0,1-.39,1.14c-1.09.91-3.6-.92-4.62-1.28a14.53,14.53,0,0,0-5.49-.81c-3.11.16-6.08,1.39-9.17,1.79-3.34.43-7.5.94-10.54-.41C109.41,351.18,111.6,348.41,113.24,346.73Z" style="fill:#BA68C8"></path><path d="M113.24,346.73l.46-.45c5.35-5.11,18.46-8.4,22.71-.65a12.91,12.91,0,0,1,1.39,6.62,1.46,1.46,0,0,1-.39,1.14c-1.09.91-3.6-.92-4.62-1.28a14.53,14.53,0,0,0-5.49-.81c-3.11.16-6.08,1.39-9.17,1.79-3.34.43-7.5.94-10.54-.41C109.41,351.18,111.6,348.41,113.24,346.73Z" style="opacity:0.25"></path><path d="M111.64,353.53c.24-.66.44-1.34.61-2a7.48,7.48,0,0,0,.28-2.4,3.25,3.25,0,0,0-.35-1.25,53.41,53.41,0,0,1-4.59,4.81A11.3,11.3,0,0,0,111.64,353.53Z" style="opacity:0.25"></path><path d="M98.48,349.4c2.86-3.27,8.3-3.74,11.16-.38,1.36,1.6.79,4.17-.4,5.8a13.15,13.15,0,0,1-3.32,2.87,13.32,13.32,0,0,0-3.34,2.85c-1.12,1.49-1.5,3.34-2.3,5a.86.86,0,0,1-.33.42c-.33.17-.71-.1-1-.36a12.3,12.3,0,0,1-3.09-8.8A11.45,11.45,0,0,1,98.48,349.4Z" style="fill:#BA68C8"></path><path d="M98.48,349.4c2.86-3.27,8.3-3.74,11.16-.38,1.36,1.6.79,4.17-.4,5.8a13.15,13.15,0,0,1-3.32,2.87,13.32,13.32,0,0,0-3.34,2.85c-1.12,1.49-1.5,3.34-2.3,5a.86.86,0,0,1-.33.42c-.33.17-.71-.1-1-.36a12.3,12.3,0,0,1-3.09-8.8A11.45,11.45,0,0,1,98.48,349.4Z" style="opacity:0.25"></path></g><g id="freepik--leaf--inject-89"><path d="M113.82,335.84c-12.42-3.64-26.52-2.63-37.08,3.66a56.3,56.3,0,0,0-15.4,14.19,101.33,101.33,0,0,0-6,8.79,28.44,28.44,0,0,0-3.42,7.7,1.28,1.28,0,0,0-.07.79c.22.57,1,.5,1.63.37,2.34-.48,5.24.45,7.59.8,7.34,1.11,14.59,2.9,22,3.56s15.11.15,21.78-3.12c6.22-3.05,11-8.2,15.86-13a73.67,73.67,0,0,1,7.81-7,12.06,12.06,0,0,1,6.83-2.84c-.3,0-1.91-2.34-2.22-2.67A43.54,43.54,0,0,0,113.82,335.84Z" style="fill:#37474f"></path><path d="M67.56,353.75l.23-.05a.66.66,0,0,0,.44-.25c.16-.27-.08-.62-.36-.75s-.61-.12-.9-.24a1.22,1.22,0,0,1-.76-1.14,1.66,1.66,0,0,1,1.32-1.42,5.3,5.3,0,0,1,2.06.05c1.53.25,3.07.44,4.61.57.43,0,1,0,1.1-.43s-.34-.73-.74-.86-.88-.22-1-.6a.86.86,0,0,1,.64-1.08,3,3,0,0,1,1.4.06,10.28,10.28,0,0,0,2.65.16,2.09,2.09,0,0,0,.93-.22.8.8,0,0,0,.41-.81,1.12,1.12,0,0,0-.36-.53,12,12,0,0,0-2-1.59,2,2,0,0,1-.79-.7,1.24,1.24,0,0,1,.35-1.45,2.43,2.43,0,0,1,1.5-.49c2.58-.12,4.52,1.89,7,2.3a1.18,1.18,0,0,0,.62,0,1,1,0,0,0,.37-1.32c-.23-.54-.78-.92-1-1.48-.28-.8.49-1,1.17-1a9.37,9.37,0,0,1,2.09.44.77.77,0,0,0,.42,0c.25-.07.34-.38.35-.64a2.91,2.91,0,0,0-.64-1.9,5.38,5.38,0,0,1-.48-.59.77.77,0,0,1-.07-.73.85.85,0,0,1,.51-.37c1.64-.51,3.84,1.24,5.14,2A11.46,11.46,0,0,0,99,340.92a1.08,1.08,0,0,0,.44,0c1.29-.47-.52-3-1-3.6a7.38,7.38,0,0,0-3.81-2.21,13.63,13.63,0,0,0-7,.56,58,58,0,0,0-7.68,3.13,18.5,18.5,0,0,0-2.45,1.3c-1.34.88-2.65,1.72-3.91,2.71-2.14,1.7-4.25,3.44-6.23,5.34-1,.93-1.9,1.89-2.79,2.91a15.73,15.73,0,0,0-2.34,3c-.42.85-.71,1.49.47,1.66.47.07,3.73.28,3.12-.78-.14-.24-.47-.25-.74-.31s-.58-.31-.46-.56a.51.51,0,0,1,.42-.21C65.86,353.71,66.73,353.88,67.56,353.75Z" style="fill:#455a64"></path><path d="M58.64,359.62a20.62,20.62,0,0,0-2,2.79A28.25,28.25,0,0,0,55,365.27c-.15.28-1.43,2.78-1.22,3s.3,0,.41-.12l1.78-1.58c.53-.47,1.27-.9,1.44-1.62.06-.21.06-.43.13-.64a1.7,1.7,0,0,1,1.07-.9,5.42,5.42,0,0,0,1.33-.56c.73-.53.65-1.18-.14-1.46a.64.64,0,0,1-.26-.13.22.22,0,0,1-.06-.26.32.32,0,0,1,.14-.12,4.54,4.54,0,0,1,1.31-.3,3.38,3.38,0,0,0,1.3-.34,1.26,1.26,0,0,0,.71-1.07.28.28,0,0,0-.06-.2.4.4,0,0,0-.2-.11,5.87,5.87,0,0,0-2.15-.28A3.2,3.2,0,0,0,58.64,359.62Z" style="fill:#455a64"></path><path d="M102.48,336.74a14,14,0,0,0,1.08,1.63,11.05,11.05,0,0,0,2.26,2.37c.3.21.75.38,1,0s-.18-.8-.25-1.2a.26.26,0,0,1,.09-.3.34.34,0,0,1,.2,0c.53.13.79.51,1.19.86a18.15,18.15,0,0,0,1.47,1.15c.29.2.7.39,1,.17s.2-.67.08-1l-.34-1c-.09-.25-.14-.6.1-.72a.49.49,0,0,1,.34,0,7.42,7.42,0,0,1,3.11,1.58c.93.72,1.78,1.53,2.74,2.21a3.37,3.37,0,0,0,1.1.56c.64.16,1.11-.33,1.68,0s.67.81,1.12,1.06a1.66,1.66,0,0,0,1.48.16c.31-.14.56-.4.87-.54a1.86,1.86,0,0,1,1.71.28c.5.32.91.78,1.4,1.13a4.25,4.25,0,0,0,2,.75.73.73,0,0,0,.64-.15c.21-.22.09-.59-.08-.85a6.29,6.29,0,0,0-1.58-1.55,35.14,35.14,0,0,0-5.38-3.28A45.12,45.12,0,0,0,103.16,335a1,1,0,0,0-1,.41.86.86,0,0,0,0,.57A3.43,3.43,0,0,0,102.48,336.74Z" style="fill:#455a64"></path><path d="M134.24,349.77c-5.69-1.6-12.23-1.83-18.12-2-23.26-.56-43.11,9.76-51.76,14.53-4.48,2.47-9,5.14-12.49,8.74.27.46,1,.4,1.57.28,2.34-.48,5.24.45,7.59.8,7.34,1.11,14.59,2.9,22,3.56s15.11.15,21.78-3.12c6.22-3.05,11-8.2,15.86-13a73.67,73.67,0,0,1,7.81-7,12.17,12.17,0,0,1,6.06-2.74Z" style="opacity:0.1"></path><path d="M85.54,367.79c-.11.25-.21.51-.31.76-.62,1.54-1.61,1.21-1.28-.36.21-1,.68-1.95,1-2.95.43-1.59.85-3.19,1.28-4.78.25-.95.39-2.45-.38-3.22a2.65,2.65,0,0,0-2.92-.14c-2.32,1-3.9,3.22-5.18,5.41A29.32,29.32,0,0,1,74.24,368c-.43.45-1.37.91-1.36-.08,0-.59.86-1.47,1.18-1.95a21.36,21.36,0,0,0,2.64-5.84c.09-.33.15-.74-.11-1a.76.76,0,0,0-.47-.16,5.47,5.47,0,0,0-3.66,1.55,29.9,29.9,0,0,0-5.92,6.38c-.2.29-.94,1.44-1.41.84-.35-.44.73-1.66,1-2a5.56,5.56,0,0,0,.88-3c-1-.14-2.48.74-3.4,1.13a37.37,37.37,0,0,0-3.65,1.79,3,3,0,0,1-1,.47c-1.31.08.29-1.38.57-1.69.92-1,8.18-5.15,4-6.3a15.32,15.32,0,0,0-2-.38c-.12-.42.41-.72.84-.8a16.56,16.56,0,0,1,3-.11,26.14,26.14,0,0,0,3.75-.24,8.05,8.05,0,0,0,4-1.46c.42-.35.81-.9.61-1.41A1.5,1.5,0,0,0,72.6,353c-1.1-.32-2.2-.52-3.27-.89-.45-.15-2.21-.32-2.3-.95-.13-.91,3-.18,3.48-.08a35.57,35.57,0,0,0,4.1.74,13.36,13.36,0,0,0,3.34-.13,15.73,15.73,0,0,0,3-.52A3.89,3.89,0,0,0,82.58,350a2.84,2.84,0,0,0,.62-1.38,2,2,0,0,0,0-.65,1.63,1.63,0,0,0-.67-1l-3.24-2.27c-.32-.22-2.26-1.29-1.47-1.89.33-.26,1.69.53,2,.69.65.37,1.25.81,1.87,1.23a20.14,20.14,0,0,0,6.58,3.13,6.15,6.15,0,0,0,3.53,0,3,3,0,0,0,2.09-2.63A4.59,4.59,0,0,0,93,343a21,21,0,0,0-2.71-3.76c-.38-.39-1.09-.81-1.24-1.36-.28-.95.62-.43,1-.13A15.21,15.21,0,0,1,93,340.62c1.42,1.82,2.52,4.05,4.57,5.13a6.75,6.75,0,0,0,3.13.71,4.28,4.28,0,0,0,2.51-.62c1.31-.89,1-2.16.37-3.41a22.59,22.59,0,0,0-2.69-4.38.47.47,0,0,1-.14-.31c0-.17.2-.29.38-.27a.88.88,0,0,1,.46.23c2.49,2,3.4,5.65,6.15,7.31a10.36,10.36,0,0,0,5.29,1.07c.57,0,1.25-.07,1.49-.58a1.33,1.33,0,0,0-.1-1.08c-.71-1.61-2.14-2.77-3.12-4.22a.45.45,0,0,1-.12-.36c.06-.25.42-.23.66-.13a7.34,7.34,0,0,1,2.7,2.47,21.1,21.1,0,0,0,2.49,2.85c3.39,3,8.16,2.4,12.08,4.23-2.35-.2-4.72-.47-6.8.84a8.85,8.85,0,0,0-3.71,4.73c-.4,1.28-.41,3.23-1.31,4.29-1.2,1.39-.36-2.19-.3-2.7.11-1,.18-2,.21-3a3.11,3.11,0,0,0-.21-1.52,2.75,2.75,0,0,0-2.66-1.13,8,8,0,0,0-5.61,2.7c-2.68,3.07-2.62,7.7-4.68,11.22-.15.25-.42.53-.68.41s-.23-.44-.19-.69c.46-2.93,1.45-5.76,2-8.68.17-1,.59-3-.47-3.49a2.46,2.46,0,0,0-1.81-.07,5.47,5.47,0,0,0-2.82,2.25,15,15,0,0,0-1.53,3.33c-1,2.69-1.87,5.42-2.67,8.17-.21.69-1.4,3-1.41,1.07a18.21,18.21,0,0,1,.46-2.82,38.25,38.25,0,0,0,.46-6.05c0-1.18-.23-2.61-1.33-3.05a2.71,2.71,0,0,0-2.69.94,17.63,17.63,0,0,0-3.57,6.23C87,364.08,86.28,365.93,85.54,367.79Z" style="opacity:0.1"></path><path d="M64.36,362.32c-2,1.11-4,2.27-6,3.52,0,.16.14.26.5.24a3,3,0,0,0,1-.47,37.37,37.37,0,0,1,3.65-1.79c.92-.39,2.39-1.27,3.4-1.13a5.56,5.56,0,0,1-.88,3c-.24.37-1.32,1.59-1,2,.47.6,1.21-.55,1.41-.84a29.9,29.9,0,0,1,5.92-6.38A5.47,5.47,0,0,1,76.12,359a.76.76,0,0,1,.47.16c.26.22.2.63.11,1a21.36,21.36,0,0,1-2.64,5.84c-.32.48-1.17,1.36-1.18,1.95,0,1,.93.53,1.36.08a29.32,29.32,0,0,0,3.46-5.44c1.28-2.19,2.86-4.37,5.18-5.41a2.65,2.65,0,0,1,2.92.14c.77.77.63,2.27.38,3.22-.43,1.59-.85,3.19-1.28,4.78-.27,1-.74,1.93-1,2.95-.33,1.57.66,1.9,1.28.36.1-.25.2-.51.31-.76.74-1.86,1.49-3.71,2.23-5.56A17.63,17.63,0,0,1,91.34,356a2.71,2.71,0,0,1,2.69-.94c1.1.44,1.33,1.87,1.33,3.05a38.25,38.25,0,0,1-.46,6.05,18.21,18.21,0,0,0-.46,2.82c0,1.94,1.2-.38,1.41-1.07.8-2.75,1.7-5.48,2.67-8.17a15,15,0,0,1,1.53-3.33,5.47,5.47,0,0,1,2.82-2.25,2.46,2.46,0,0,1,1.81.07c1.06.53.64,2.54.47,3.49-.51,2.92-1.5,5.75-2,8.68,0,.25,0,.58.19.69s.53-.16.68-.41c2.06-3.52,2-8.15,4.68-11.22a8,8,0,0,1,5.61-2.7,2.75,2.75,0,0,1,2.66,1.13,3.11,3.11,0,0,1,.21,1.52c0,1-.1,2-.21,3-.06.51-.9,4.09.3,2.7.9-1.06.91-3,1.31-4.29a8.85,8.85,0,0,1,3.71-4.73c2.08-1.31,4.45-1,6.8-.84a15,15,0,0,0-2.62-.89c-3.49-.38-7-.49-10.39-.58C92.86,347.23,73,357.55,64.36,362.32Z" style="fill:#263238"></path><path d="M141.48,350.37c-21.38-5.74-45.34-5-65.53,4.39a66.77,66.77,0,0,0-16.1,10.06c-.06.06-.11.29,0,.21a90.64,90.64,0,0,1,14.54-7.65,132.4,132.4,0,0,1,17.36-5.58c10.56-2.56,20.21-2.82,31.07-2.09a95.12,95.12,0,0,1,18.2,3C143.13,353.27,143.29,350.86,141.48,350.37Z" style="fill:#455a64"></path></g><g id="freepik--leaf--inject-89"><path d="M158,346.24c-4.45,2.35-8.92,4.67-13.27,7.18-2.44,1.41-4.91,2.75-7.23,4.35a44.72,44.72,0,0,0-5.88,5.22,70.31,70.31,0,0,0-10.26,12.44c-4.28,6.8-7.55,14.17-11.27,21.28-.4.76-1,2.63-1.82,3a86.52,86.52,0,0,1-1-20.65c.47-6.6,3.72-13.52,7.2-19.09a47.49,47.49,0,0,1,15.17-15.27c2.76-1.7,5.75-3.61,9-3.89a24.19,24.19,0,0,1,10.39.84,20.84,20.84,0,0,1,5.06,2.53C154.77,344.65,157.17,346.68,158,346.24Z" style="fill:#37474f"></path><path d="M158,346.24c-4.45,2.35-8.92,4.67-13.27,7.18-2.44,1.41-4.91,2.75-7.23,4.35a44.72,44.72,0,0,0-5.88,5.22,70.31,70.31,0,0,0-10.26,12.44c-4.28,6.8-7.55,14.17-11.27,21.28-.4.76-1,2.63-1.82,3a86.52,86.52,0,0,1-1-20.65c.47-6.6,3.72-13.52,7.2-19.09a47.49,47.49,0,0,1,15.17-15.27c2.76-1.7,5.75-3.61,9-3.89a24.19,24.19,0,0,1,10.39.84,20.84,20.84,0,0,1,5.06,2.53C154.77,344.65,157.17,346.68,158,346.24Z" style="opacity:0.1"></path><path d="M144.33,353.27c-2.44,1.41-4.92,2.75-7.24,4.35a44.63,44.63,0,0,0-5.87,5.22A70.72,70.72,0,0,0,121,375.28c-4.28,6.8-7.54,14.17-11.27,21.28l-.17.32a48.49,48.49,0,0,1-1.86-9.6c-.32-2.41.36-5,.75-7.4a49.53,49.53,0,0,1,10.53-23.45,71.48,71.48,0,0,1,5.44-5.84,36.52,36.52,0,0,1,6.54-5.37,19.31,19.31,0,0,1,12.18-3.06,27.46,27.46,0,0,1,13,5.07,52.88,52.88,0,0,0-5.85,2.76q-1.49.79-3,1.62C146.85,351.84,144.71,353.41,144.33,353.27Z" style="opacity:0.1"></path><path d="M108.4,401.32c-.39.44-1.31,1.39-1.68.33s.21-3.21.37-4.31l.84-5.64c1.32-8.95,3.29-17.3,7.46-25.39A40.24,40.24,0,0,1,131,349.48,37.2,37.2,0,0,1,145.81,345a25.13,25.13,0,0,1,7.55.12c2.67.56,5.27,1.43,7.9,2.13-2.62.63-10.33,4.62-12.54,6.12-15.38,10.48-25.07,20-33.56,36.47C113.12,393.8,111.36,398,108.4,401.32Z" style="fill:#37474f"></path><path d="M161,347.33c-4.06-.35-8.29,1.09-11.93,3-.86.45-1.73.83-2.58,1.3a4.84,4.84,0,0,1-2.57.74,1.93,1.93,0,0,1-.94-.27,2.64,2.64,0,0,1-.78-1c-.33-.64-.64-1.28-.92-1.94-.18-.41-.8-1.36-1.32-.76a1.25,1.25,0,0,0-.21.64c-.16,1.39,0,2.82-.2,4.22a5.38,5.38,0,0,1-1.47,3.38,4.84,4.84,0,0,1-3.42.85c-1.46-.09-2.88-.53-4.33-.75a3.16,3.16,0,0,0-2.5.4.61.61,0,0,0-.23.38.6.6,0,0,0,.24.43,4.63,4.63,0,0,0,2,.79,7.72,7.72,0,0,1,1.55.62,2.71,2.71,0,0,1,1.29,1.23,1.94,1.94,0,0,1-.17,1.69c-.63,1.09-2.09,1.55-3.17,2.11q-2.52,1.32-5.15,2.48a17.74,17.74,0,0,0-4.51,2.29c-.32.28-.61.77-.31,1.09a.92.92,0,0,0,.86.12l2.47-.5a1.86,1.86,0,0,1,1.47.11,1.41,1.41,0,0,1,.5,1.1,4.22,4.22,0,0,1-1.19,2.66,14.38,14.38,0,0,1-3.81,3.22c-.64.37-1.35.5-2,.85-.82.42-1.65.83-2.46,1.28-.43.25-1.08.5-1.32,1-1,1.94,5.3-.58,4.52,1.61s-3.66,3.42-5.44,4.73c-.33.25-2.58,2-1.12,2.39a1.06,1.06,0,0,0,.5,0,8,8,0,0,0,1.06-.31.73.73,0,0,1,.54,0,.45.45,0,0,1,.22.42,1.11,1.11,0,0,1-.14.47c-1,2.26-2.33,4.38-3.52,6.54a35.36,35.36,0,0,1-3.76,5.6,1.23,1.23,0,0,0,0,.25c.37,1.06,1.29.11,1.68-.33,3-3.33,4.72-7.52,6.76-11.48,8.49-16.47,18.18-26,33.56-36.47C150.85,351.92,158.11,348.15,161,347.33Z" style="opacity:0.1"></path><path d="M174.35,344.52a21,21,0,0,0-8.89.25,41.36,41.36,0,0,0-7.71,2.43,72.94,72.94,0,0,0-14.82,8.66,85.61,85.61,0,0,0-13.44,12.21,90.77,90.77,0,0,0-10.8,15.29c-1.94,3.42-3.78,6.91-5.77,10.31-1,1.71-2,3.41-3,5.11a7.84,7.84,0,0,1-2.82,3.09c-.2.11.09.34.23.31a5.68,5.68,0,0,0,3.16-2.39c1.06-1.31,2-2.7,3-4.09,1.84-2.69,3.45-5.53,5.15-8.31a118.15,118.15,0,0,1,11-15.77c7.54-8.79,16.94-16.44,27.66-21.22a42.78,42.78,0,0,1,8.29-2.79,40.64,40.64,0,0,1,4.4-.68c1.34-.15,2.71-.11,4-.3a1.2,1.2,0,0,0,1.07-1A1,1,0,0,0,174.35,344.52Z" style="fill:#455a64"></path><path d="M109.83,392.84c.24-.22.54-.4.76-.59a11.62,11.62,0,0,0,1.76-1.6,1.2,1.2,0,0,0,.3-.58.52.52,0,0,0-.25-.56c-.33-.16-.69.18-1.06.18a.81.81,0,0,1-.69-.57c-.45-1.21.78-2.79,1.75-3.37a5,5,0,0,0,1.82-1.51.61.61,0,0,0,.12-.34c0-.34-.41-.54-.76-.53a3.24,3.24,0,0,1-1,0c0-.49.51-.82,1-.94a2.36,2.36,0,0,0,1.34-.59c-.27-.66-1.52-.27-1.85-.9a.93.93,0,0,1,.2-.93c1.54-2.19,4.58-2.87,6.36-4.87a.74.74,0,0,0,.18-.29c.12-.42-.46-.73-.91-.72s-1,.15-1.31-.12c.29-1.39,2.8-1.09,3.29-2.42a1.19,1.19,0,0,0-1.15-.22,23.2,23.2,0,0,0-3.55,1.21,5.89,5.89,0,0,0-2.78,2.2,14,14,0,0,0-1.7,3.78c-.93,2.88-1.49,5.86-2.16,8.81s-1.3,5.86-1.73,8.84a1.34,1.34,0,0,0,0,.63c.4,1.21,1.9-1.38,2.08-1.78s.18-.62-.06-.77-.5-.13-.46-.63A1.23,1.23,0,0,1,109.83,392.84Z" style="fill:#455a64"></path><path d="M116.52,367.07c-.21.52-.33,1.18.1,1.51a1.36,1.36,0,0,0,1.2,0c.86-.29,6-2,5.31-3.2-.27-.47-1.08-.43-1.3-.92a.78.78,0,0,1,.34-.9,2.33,2.33,0,0,1,1-.29,33.33,33.33,0,0,0,4.2-.88.75.75,0,0,0,.47-.27.51.51,0,0,0-.06-.61,1.06,1.06,0,0,0-.58-.31c-.71-.17-1.46,0-2.18-.12-.19,0-.41-.13-.46-.32s.2-.45.44-.54a8.11,8.11,0,0,0,2-.59.37.37,0,0,0,.19-.28.35.35,0,0,0-.1-.2c-.34-.42-1-.52-1.23-1s.23-1.09.65-1.48a4.73,4.73,0,0,1,1.13-.82,5.41,5.41,0,0,1,2.41-.27,30.69,30.69,0,0,0,3.18-.08c.37,0,.79-.1,1-.43a.83.83,0,0,0-.27-.94,10.38,10.38,0,0,0-.88-.59.72.72,0,0,1-.33-.58c0-.32.37-.51.68-.58a14.79,14.79,0,0,1,2.58,0,2.28,2.28,0,0,0,2.3-2.15,1.89,1.89,0,0,0-.33-1.25,2.34,2.34,0,0,0-2.46-.5c-2.27.57-4.3,2.22-6.15,3.59a50.7,50.7,0,0,0-5.84,5,33.11,33.11,0,0,0-6.89,9.92Z" style="fill:#455a64"></path></g><g id="freepik--strawberry--inject-89"><path d="M125,315.44c-3.3,4-4.65,8.61-1.93,19.5,3.22,12.88,2.89,26.31,9.74,37.5,7.74,12.68,27.37,18.91,44.54,6.8Z" style="fill:#BA68C8"></path><path d="M128.07,361.11a43.25,43.25,0,0,0,4.72,11.33c7.74,12.68,27.37,18.91,44.54,6.8l-6.24-7.6A43.77,43.77,0,0,1,161.9,376C147.88,380.52,135.47,376.57,128.07,361.11Z" style="opacity:0.1"></path><path d="M179.88,377.24a16.54,16.54,0,0,1-6,3.73,24.69,24.69,0,0,1-9,1.52c-12.32,0-20.4-3.71-26.15-11.72-6.88-9.6-9.53-28.13-12.94-37.44-2.46-6.69-3.67-13.64-1.76-16.57a11.22,11.22,0,0,1,2.34-2.47c4-3.06,10.08-1.44,16.83.7l.51.17h0c7.53,2.46,29.76,11,38.95,21C192,346.44,195.19,364.05,179.88,377.24Z" style="fill:#BA68C8"></path><path d="M179.88,377.24a16.54,16.54,0,0,1-6,3.73,24.69,24.69,0,0,1-9,1.52c-12.32,0-20.4-3.71-26.15-11.72-6.88-9.6-9.53-28.13-12.94-37.44-2.46-6.69-3.67-13.64-1.76-16.57a11.22,11.22,0,0,1,2.34-2.47c4-3.06,10.08-1.44,16.83.7l.51.17h0c7.53,2.46,29.76,11,38.95,21C192,346.44,195.19,364.05,179.88,377.24Z" style="fill:#fff;opacity:0.5"></path><path d="M187.28,367.56c-.07-2.63,1-5.65.45-8.19a3.3,3.3,0,0,0-2.42-2.69c-.37-.07-.81-.08-1-.39a1.1,1.1,0,0,1-.14-.65l-.06-4.07a5.71,5.71,0,0,0-.65-3.12,2,2,0,0,0-2.77-.66c-.39.35-.61.91-1.11,1a1.09,1.09,0,0,1-1.2-.74,3.52,3.52,0,0,1-.11-1.52,18.92,18.92,0,0,0-1-7.2c-.41-1.22-1.32-2.62-2.59-2.42-1.1.18-1.61,1.41-2.06,2.42s-1.4,2.13-2.44,1.77a20.5,20.5,0,0,0-.7-6.67c-.41-1.15-1.48-2.33-2.67-2-2,.48-1.7,4.1-3.69,4.48-1.24.25-2.21-1.06-2.66-2.25a13.94,13.94,0,0,1-.76-2.92,12.06,12.06,0,0,0-.83-4c-.64-1.21-2.24-2.09-3.41-1.37s-1.45,3.09-3,3.34c-1,.17-1.93-.89-2.18-1.92a25,25,0,0,0-.56-3.15c-.39-1-1.59-1.83-2.5-1.27-.61.37-.8,1.18-1.35,1.62-3.68,3-3.63-5.91-6-5.67-.51.05-.73.64-.95,1.11-.73,1.55-1.61,1.63-2.69.38a6.9,6.9,0,0,0-4.52-2.34.74.74,0,0,0-1,.79,5.88,5.88,0,0,0,.94,3.71c.78,1.19,2.39,2.83.76,4-.48.35-1.05.58-1.49,1a1.34,1.34,0,0,0-.4,1.59,1.66,1.66,0,0,0,.83.58c2,.81,4.3.94,6.32,1.78,2.54,1.05-3.52,1.61-3.86,1.72a1.57,1.57,0,0,0-1.19,1.54,1.51,1.51,0,0,0,.75,1.06c2.33,1.45,5.88,1,8.46,1.76,1,.3,2.38,1.73.79,2.17l-4.55,1.26a4.6,4.6,0,0,0-2.11,1,1.59,1.59,0,0,0-.21,2.13,2.35,2.35,0,0,0,1.35.53c2.51.39,5,1,7.51,1.54.48.1,1.1.44.91.89a6.56,6.56,0,0,1-3.2,1c-1.11.21-2.35.79-2.55,1.91-.24,1.42,1.36,2.43,2.74,2.84,2.87.83,6,.93,8.69,2.13.75.33,1.58,1.17,1.11,1.84a1.6,1.6,0,0,1-.66.44,26.34,26.34,0,0,1-5.14,1.58,7.25,7.25,0,0,0-2.64.85,2.1,2.1,0,0,0-1,2.38,2.94,2.94,0,0,0,2.31,1.39,41.26,41.26,0,0,0,7.76.86,7.29,7.29,0,0,1,3.86.69.79.79,0,0,1,.35.35.8.8,0,0,1-.2.75c-.71.91-1.94,1.17-3,1.64s-2.11,1.49-1.79,2.6a2.73,2.73,0,0,0,2,1.54,20,20,0,0,0,7.44.94c1.62-.11,3.29-.4,4.82.14a.94.94,0,0,1,.33,1.72,3.54,3.54,0,0,0-.88,1.17,1.54,1.54,0,0,0,.73,1.63,3.65,3.65,0,0,0,1.84.47c3.24.18,6.41-.75,9.64-.83a11.65,11.65,0,0,1,1.32.05l.43-.36a32.4,32.4,0,0,0,7.43-9C187.31,368,187.29,367.78,187.28,367.56Z" style="fill:#fff;opacity:0.30000000000000004"></path><path d="M184.76,370.26l-6.9-16.51c-.74-1.77-1.54-3.63-3.08-4.77-2.44-1.81-5.64-2.08-8.16-4a30,30,0,0,1-3.88-3.92,49.6,49.6,0,0,0-10.87-8.4c-2.29-1.39-4.53-2.87-6.75-4.37-1.21-.81-2.5-1.49-3.76-2.22a3.79,3.79,0,0,0-1.31-.56,1.35,1.35,0,0,0-1.3.43c-.5.68,0,1.62.57,2.26,4.17,5,8.25,10.3,9.67,16.82a24.33,24.33,0,0,0,.92,3.88,8.4,8.4,0,0,0,.82,1.54c1.56,2.37,4.17,4,6.21,6.1a4.18,4.18,0,0,1,.92,1.21c.52,1.11.15,2.41.25,3.63a6.26,6.26,0,0,0,2.14,4,19.11,19.11,0,0,0,3.85,2.53l12.28,6.68a27.68,27.68,0,0,1,3.5,2.13l.31.22a34.7,34.7,0,0,0,5.06-5.5C185.09,371.06,184.93,370.66,184.76,370.26Z" style="fill:#BA68C8"></path><path d="M179.88,376.74l.18.13a14.75,14.75,0,0,0-4.75-9.15c-1.08-.92-2.31-1.65-3.44-2.51a19.22,19.22,0,0,1-6.27-8.45c-.66-1.77-1.08-3.68-2.29-5.13-2-2.38-5.43-2.79-8.09-4.37-3.73-2.21-5.61-6.47-7.63-10.3-1.8-3.39-4.28-6.9-7.79-8.13,4,4.79,7.82,10,9.19,16.24a24.33,24.33,0,0,0,.92,3.88,8.4,8.4,0,0,0,.82,1.54c1.56,2.37,4.17,4,6.21,6.1a4.18,4.18,0,0,1,.92,1.21c.52,1.11.15,2.41.25,3.63a6.26,6.26,0,0,0,2.14,4,19.11,19.11,0,0,0,3.85,2.53l12.28,6.68A27.68,27.68,0,0,1,179.88,376.74Z" style="opacity:0.1"></path></g></g></g><g id="freepik--Spoon--inject-89"><path id="freepik--shadow--inject-89" d="M473.64,322.93l-163.9,98.85c-15.1-7.88-35.25-8.66-56.74,1.75-22.64,11-42.51,36.17-23.91,46.91s62.27-.74,81.25-13.8c14.62-10.07,16.5-19.62,9.41-27.52l172.6-95.39C498.36,330.26,479.66,319.46,473.64,322.93Z" style="opacity:0.15"></path><g id="freepik--spoon--inject-89"><g id="freepik--tea-spoon--inject-89"><path d="M227.43,455l-.06,0c5.92,4.81,12.7,9.44,28.72,10.18s37.88-2.6,54.57-14.68c16-11.58,14.79-25.26,12.38-31.49-.24-.34-3-5-3.29-5.29l-10-7.34a61.3,61.3,0,0,0-30-5c-22.93,2.23-49.62,17.2-56.93,37.4C220.24,445.89,222.48,451.23,227.43,455Z" style="fill:#37474f"></path><path d="M492.35,321,316.78,418a54,54,0,0,0-11.2-6.47v-2.6L473.64,307.55c5.2-3,19.86,4.65,19.87,9,0,.42,0,2.16,0,2.61A2,2,0,0,1,492.35,321Z" style="fill:#37474f"></path><path d="M473.64,307.55c6-3.47,24.72,7.33,18.71,10.8l-175.57,97a52.28,52.28,0,0,0-11.2-6.47Z" style="fill:#455a64"></path><path d="M317.82,412.65S464.41,332,475.33,326.06c12-6.56,19.28-9.56,11.66-13.95-8.92-5.16-11.1-2.87-11.1-2.87a19.7,19.7,0,0,1,8.37,2.87c4.49,2.87.58,6.71-8.21,10.92S317.82,412.65,317.82,412.65Z" style="fill:#fff;opacity:0.1"></path><path d="M310.34,441.26c-19,13.06-62.64,24.54-81.25,13.8s1.27-35.95,23.91-46.91c22.39-10.84,43.32-9.56,58.6-.73S329.12,428.33,310.34,441.26Z" style="fill:#455a64"></path><path d="M223.61,449.94c3.2-10.62,18.23-24.2,33-31.57,20.89-10.44,38-9.93,49-2.47s10.27,18.24-8.05,30.44a91.36,91.36,0,0,1-11.28,6.26c-20.2,6.78-44.47,9.77-57.14,2.46A15.32,15.32,0,0,1,223.61,449.94Z" style="fill:#fff;opacity:0.05"></path><path d="M288.89,444.28c-13.13,8.75-40.6,17-50,10.58s6-22.93,21-30.42c14.82-7.4,27-7,34.72-1.75S301.87,435.63,288.89,444.28Z" style="fill:#fff;opacity:0.05"></path></g></g></g><g id="freepik--Sparkles--inject-89"><path id="freepik--Shine--inject-89" d="M421.56,201.28a.38.38,0,0,0-.34-.37l-8.17-.9a1.86,1.86,0,0,1-1.64-1.68l-.94-10.43a.38.38,0,0,0-.75,0l-.94,10.43a1.86,1.86,0,0,1-1.64,1.68l-8.17.9a.38.38,0,0,0-.34.37.39.39,0,0,0,.34.38l8.17.9a1.86,1.86,0,0,1,1.64,1.67l.94,10.43a.38.38,0,0,0,.75,0l.94-10.43a1.86,1.86,0,0,1,1.64-1.67l8.17-.9A.39.39,0,0,0,421.56,201.28Zm-8.59.53a2.62,2.62,0,0,0-2.31,2.36l-.56,6.26-.57-6.26a2.62,2.62,0,0,0-2.31-2.36l-4.78-.53,4.78-.53a2.6,2.6,0,0,0,2.31-2.35l.57-6.27.56,6.27a2.6,2.6,0,0,0,2.31,2.35l4.79.53Zm-328.2-5.28-6-.66a1.24,1.24,0,0,1-1.09-1.12l-.7-7.7a.4.4,0,0,0-.4-.37.41.41,0,0,0-.41.37l-.69,7.7a1.25,1.25,0,0,1-1.1,1.12l-6,.66a.42.42,0,0,0-.36.41.4.4,0,0,0,.36.4l6,.67a1.24,1.24,0,0,1,1.1,1.12l.69,7.69a.41.41,0,0,0,.41.37.4.4,0,0,0,.4-.37l.7-7.69A1.24,1.24,0,0,1,78.74,198l6-.67a.4.4,0,0,0,.37-.4A.42.42,0,0,0,84.77,196.53Zm-6,.69a2.18,2.18,0,0,0-1.94,2l-.31,3.41-.31-3.41a2.18,2.18,0,0,0-1.94-2l-2.53-.28,2.53-.28a2.19,2.19,0,0,0,1.94-2h0l.31-3.41.31,3.41a2.19,2.19,0,0,0,1.94,2l2.52.28Zm301.31-29.93-5.25-.58a1.18,1.18,0,0,1-1.05-1.07l-.6-6.69a.24.24,0,0,0-.24-.22.23.23,0,0,0-.24.22l-.61,6.69a1.18,1.18,0,0,1-1.05,1.07l-5.24.58a.24.24,0,0,0,0,.48l5.24.58a1.18,1.18,0,0,1,1.05,1.07l.61,6.69a.23.23,0,0,0,.24.22.24.24,0,0,0,.24-.22l.6-6.69a1.18,1.18,0,0,1,1.05-1.07l5.25-.58a.24.24,0,0,0,0-.48Zm-5.3.58a1.67,1.67,0,0,0-1.48,1.51l-.36,4-.36-4a1.69,1.69,0,0,0-1.48-1.51l-3.08-.34,3.08-.34a1.69,1.69,0,0,0,1.48-1.51l.36-4,.36,4a1.67,1.67,0,0,0,1.48,1.51l3.07.34Zm.74-91.9-9.42-1A2.14,2.14,0,0,1,364.24,73l-1.08-12a.43.43,0,0,0-.43-.39.43.43,0,0,0-.43.39l-1.09,12a2.13,2.13,0,0,1-1.89,1.93l-9.42,1a.43.43,0,0,0-.38.43.42.42,0,0,0,.38.43l9.42,1a2.15,2.15,0,0,1,1.89,1.93l1.09,12a.43.43,0,0,0,.43.4.43.43,0,0,0,.43-.4l1.08-12a2.16,2.16,0,0,1,1.89-1.93l9.42-1a.43.43,0,0,0,.39-.43A.44.44,0,0,0,375.55,76ZM366,77a3,3,0,0,0-2.66,2.71L362.73,87l-.65-7.23A3,3,0,0,0,359.42,77l-5.52-.61,5.52-.61a3,3,0,0,0,2.66-2.71l.65-7.22.65,7.22A3,3,0,0,0,366,75.79l5.51.61ZM151.65,61.53l-5.45-.6a1.13,1.13,0,0,1-1-1l-.63-7a.36.36,0,0,0-.36-.34.38.38,0,0,0-.37.34l-.63,7a1.13,1.13,0,0,1-1,1l-5.44.6a.37.37,0,0,0,0,.73l5.44.61a1.1,1.1,0,0,1,1,1l.63,6.95a.37.37,0,0,0,.37.34.35.35,0,0,0,.36-.34l.63-6.95a1.11,1.11,0,0,1,1-1l5.45-.61a.37.37,0,0,0,0-.73Zm-5.53.6a1.86,1.86,0,0,0-1.64,1.68l-.26,2.88L144,63.81a1.86,1.86,0,0,0-1.64-1.68l-2.14-.23,2.14-.24A1.86,1.86,0,0,0,144,60h0l.26-2.87.26,2.87a1.86,1.86,0,0,0,1.64,1.68l2.13.24Zm307.07,32.4-5.45-.6a1.14,1.14,0,0,1-1-1l-.62-7a.37.37,0,0,0-.74,0l-.63,7a1.12,1.12,0,0,1-1,1l-5.45.6a.37.37,0,0,0,0,.73l5.45.6a1.12,1.12,0,0,1,1,1l.63,6.95a.37.37,0,0,0,.74,0l.62-6.95a1.14,1.14,0,0,1,1-1l5.45-.6a.37.37,0,0,0,0-.73Zm-5.53.6A1.86,1.86,0,0,0,446,96.81l-.26,2.87-.26-2.87a1.86,1.86,0,0,0-1.64-1.68l-2.14-.24,2.14-.23A1.86,1.86,0,0,0,445.5,93h0l.26-2.88L446,93a1.86,1.86,0,0,0,1.64,1.68l2.13.23Zm-153.86,5-5.45-.61a1.12,1.12,0,0,1-1-1l-.62-7a.37.37,0,0,0-.74,0l-.62,7a1.12,1.12,0,0,1-1,1l-5.45.61a.37.37,0,0,0,0,.73l5.45.6a1.14,1.14,0,0,1,1,1l.62,7a.37.37,0,0,0,.74,0l.62-7a1.14,1.14,0,0,1,1-1l5.45-.6a.37.37,0,0,0,0-.73Zm-5.53.6a1.86,1.86,0,0,0-1.64,1.67l-.26,2.88-.26-2.87a1.86,1.86,0,0,0-1.64-1.68l-2.14-.24,2.14-.23a1.86,1.86,0,0,0,1.64-1.68h0l.26-2.88.26,2.88a1.86,1.86,0,0,0,1.64,1.68l2.13.23Zm126.47,31.15-5.45-.6a1.12,1.12,0,0,1-1-1l-.63-6.95a.36.36,0,0,0-.36-.34.38.38,0,0,0-.37.34l-.63,6.95a1.12,1.12,0,0,1-1,1l-5.45.6a.37.37,0,0,0-.33.37.38.38,0,0,0,.33.37l5.45.6a1.11,1.11,0,0,1,1,1l.63,6.95a.37.37,0,0,0,.37.33.35.35,0,0,0,.36-.33l.63-6.95a1.12,1.12,0,0,1,1-1l5.45-.6a.38.38,0,0,0,.33-.37A.37.37,0,0,0,414.74,131.87Zm-5.53.6a1.87,1.87,0,0,0-1.64,1.68l-.26,2.88-.26-2.88a1.87,1.87,0,0,0-1.64-1.68l-2.14-.23,2.14-.24a1.85,1.85,0,0,0,1.64-1.67h0l.26-2.88.26,2.88a1.85,1.85,0,0,0,1.64,1.67l2.13.24ZM251.43,71.93l-7.77-.86a1.76,1.76,0,0,1-1.56-1.58l-.9-9.92a.35.35,0,0,0-.35-.33.36.36,0,0,0-.36.33l-.89,9.92A1.77,1.77,0,0,1,238,71.07l-7.77.86a.36.36,0,0,0-.32.36.37.37,0,0,0,.32.36l7.77.85a1.78,1.78,0,0,1,1.56,1.6l.89,9.91a.36.36,0,0,0,.36.33.35.35,0,0,0,.35-.33l.9-9.91a1.77,1.77,0,0,1,1.56-1.6l7.77-.85a.36.36,0,0,0,0-.72Zm-7.85.86a2.49,2.49,0,0,0-2.2,2.24l-.53,6-.54-6a2.49,2.49,0,0,0-2.19-2.24l-4.55-.5,4.55-.5a2.49,2.49,0,0,0,2.19-2.24l.54-6,.53,6a2.49,2.49,0,0,0,2.2,2.24l4.55.5Zm-124.4,67.75-6.11-.68a1.25,1.25,0,0,1-1.11-1.13l-.7-7.8a.42.42,0,0,0-.41-.38.41.41,0,0,0-.41.38l-.71,7.8a1.25,1.25,0,0,1-1.11,1.13l-6.11.68a.41.41,0,0,0,0,.82l6.11.68a1.25,1.25,0,0,1,1.11,1.13l.71,7.8a.4.4,0,0,0,.41.37.41.41,0,0,0,.41-.37l.7-7.8a1.25,1.25,0,0,1,1.11-1.13l6.11-.68a.41.41,0,0,0,0-.82Zm-5.86.71a2.43,2.43,0,0,0-2.14,2.18l-.33,3.74-.34-3.74a2.42,2.42,0,0,0-2.13-2.18l-2.77-.3,2.77-.31a2.41,2.41,0,0,0,2.13-2.17h0l.34-3.74.33,3.74a2.42,2.42,0,0,0,2.14,2.17l2.77.31ZM78.66,108.72l-9.42-1a2.15,2.15,0,0,1-1.89-1.93l-1.08-12a.44.44,0,0,0-.87,0l-1.08,12a2.14,2.14,0,0,1-1.89,1.93l-9.42,1a.43.43,0,0,0,0,.86l9.42,1a2.13,2.13,0,0,1,1.89,1.93l1.08,12a.44.44,0,0,0,.87,0l1.08-12a2.14,2.14,0,0,1,1.89-1.93l9.42-1a.43.43,0,0,0,0-.86Zm-9.52,1a3,3,0,0,0-2.65,2.71l-.65,7.22-.65-7.22a3,3,0,0,0-2.66-2.71L57,109.15l5.52-.61a3,3,0,0,0,2.66-2.71l.65-7.23.65,7.23a3,3,0,0,0,2.65,2.71l5.52.61Z" style="fill:#BA68C8;opacity:0.2"></path></g></svg>
