<svg xmlns="http://www.w3.org/2000/svg" viewBox="0 0 500 500"><g id="freepik--background-simple--inject-285"><path d="M477.11,232.23c6.13-53.86-12.08-107.94-50.3-146.36C408,67,382.3,49.17,348.15,40.57c-95.77-24.12-157.85-2-188.88,56.66S39.2,145.8,25,247,79.67,459.48,196.37,465.55s101.68-52,165.52-76.94C410.72,369.55,468,312.59,477.11,232.23Z" style="fill:#92E3A9"></path><path d="M477.11,232.23c6.13-53.86-12.08-107.94-50.3-146.36C408,67,382.3,49.17,348.15,40.57c-95.77-24.12-157.85-2-188.88,56.66S39.2,145.8,25,247,79.67,459.48,196.37,465.55s101.68-52,165.52-76.94C410.72,369.55,468,312.59,477.11,232.23Z" style="fill:#fff;opacity:0.7000000000000001"></path></g><g id="freepik--Table--inject-285"><line x1="482.68" y1="312.1" x2="15.77" y2="312.1" style="fill:none;stroke:#263238;stroke-miterlimit:10"></line><line x1="482.68" y1="398.38" x2="15.77" y2="398.38" style="fill:none;stroke:#263238;stroke-miterlimit:10"></line><line x1="475.15" y1="326.86" x2="461.81" y2="326.86" style="fill:none;stroke:#263238;stroke-miterlimit:10"></line><line x1="473.94" y1="335.34" x2="356.95" y2="335.34" style="fill:none;stroke:#263238;stroke-miterlimit:10"></line><line x1="371.5" y1="354.74" x2="389.68" y2="354.74" style="fill:none;stroke:#263238;stroke-miterlimit:10"></line><line x1="17.5" y1="383.84" x2="47.8" y2="383.84" style="fill:none;stroke:#263238;stroke-miterlimit:10"></line><line x1="57.5" y1="379.59" x2="39.32" y2="379.59" style="fill:none;stroke:#263238;stroke-miterlimit:10"></line><line x1="275.12" y1="443.85" x2="461.81" y2="443.85" style="fill:none;stroke:#263238;stroke-miterlimit:10"></line><line x1="477.57" y1="403.84" x2="457.57" y2="403.84" style="fill:none;stroke:#263238;stroke-miterlimit:10"></line><line x1="335.73" y1="451.73" x2="315.73" y2="451.73" style="fill:none;stroke:#263238;stroke-miterlimit:10"></line><line x1="467.27" y1="408.69" x2="414.53" y2="408.69" style="fill:none;stroke:#263238;stroke-miterlimit:10"></line><line x1="97.51" y1="442.63" x2="138.12" y2="442.63" style="fill:none;stroke:#263238;stroke-miterlimit:10"></line><line x1="62.96" y1="442.63" x2="76.9" y2="442.63" style="fill:none;stroke:#263238;stroke-miterlimit:10"></line></g><g id="freepik--Clouds--inject-285"><path d="M174.67,84.55S165,60.36,146.13,57s-23.7,10.16-27.57,17.9-14-4.36-19.83-2.42-7.26,9.67-10.16,12.09-9.19-3.39-15,.48-5.33,8.23-7.26,8.71-7.26-1.93-9.67,0-3.39,5.8-3.39,5.8H195.47S195,90.84,192.08,87,181,87.94,174.67,84.55Z" style="fill:none;stroke:#263238;stroke-linecap:round;stroke-linejoin:round"></path><path d="M226.87,127.72s-4.9-12.25-14.45-14-12,5.14-14,9.06-7.1-2.21-10-1.23-3.67,4.9-5.14,6.13-4.66-1.72-7.59.24-2.7,4.16-3.68,4.41-3.67-1-4.9,0a6.28,6.28,0,0,0-1.71,2.94h72s-.24-4.41-1.71-6.37S230.06,129.43,226.87,127.72Z" style="fill:none;stroke:#263238;stroke-linecap:round;stroke-linejoin:round"></path><path d="M439,253.19s-4.9-12.24-14.45-14-12,5.15-14,9.06-7.1-2.2-10-1.22-3.68,4.9-5.14,6.12-4.66-1.71-7.6.25-2.69,4.16-3.67,4.4-3.67-1-4.9,0a6.28,6.28,0,0,0-1.71,2.94h72s-.25-4.4-1.71-6.36S442.21,254.91,439,253.19Z" style="fill:none;stroke:#263238;stroke-linecap:round;stroke-linejoin:round"></path></g><g id="freepik--Plant--inject-285"><path d="M343.74,166.48c0-.22,0-.43,0-.65C343.68,166.26,343.68,166.49,343.74,166.48Z" style="fill:#92E3A9"></path><path d="M352.52,260.71l.62.62Z" style="fill:#92E3A9"></path><path d="M283.72,132.7c.07-.23.29-1,.62-2.16C283.6,132.25,283.34,133.1,283.72,132.7Z" style="fill:#92E3A9"></path><path d="M353.14,261.33l.47.45Z" style="fill:#92E3A9"></path><path d="M446.42,153.92l-.29-.4C446.29,153.81,446.39,154,446.42,153.92Z" style="fill:#92E3A9"></path><path d="M459.28,114.49c-.26-1-.51-2-.77-3.06A11.77,11.77,0,0,0,459.28,114.49Z" style="fill:#92E3A9"></path><path d="M462.31,101.27c.23-1.09-.34-3.55-1.05-6.35C461.65,99.29,462,102,462.31,101.27Z" style="fill:#92E3A9"></path><path d="M494.61,210.26l-.67-.12Z" style="fill:#92E3A9"></path><path d="M435.48,171.31a233.79,233.79,0,0,1-14.27-44.83c-1.28-7.85-2.24-16-2.82-24.45q6.36,16.31,13.75,31.42,6.89,10.19,14,20.07c-2.05-3.74-14-31.87-14.22-33.81-.68-1.57-4.11-12-4.64-13.71s-7-17.09-6.94-17.15c-.24-.83-.46-1.67-.7-2.5.36-.63.71-1.24,1-1.83,4.39,4.88,14,16,16.27,20.17,2.75,5.62,14.06,32.19,15.23,33.34.56,1.84,15.71,34.91,16.1,34.44,0,0-4.58-9.93-8.48-21.11S452.41,128,452,126.49c-1.08-2.86-16.28-32.93-17.8-35.67-1-1.57-5.93-8.32-9.85-13.56.89-4,1.86-15.63,3.22-25.79,4.05,5.38,8.06,10.8,12,16.31l13.86,26c1.31,4.63,2.69,9.21,4.11,13.75.33,1.32.67,2.62,1,3.93C456.6,102,451.88,73.51,450,68.08c-2.86-6.17-13.51-15.39-14.69-17.5-.63-1.26-3.62-5.72-6.09-9.32a21.79,21.79,0,0,1,2-6.27,25,25,0,0,0,2.44-4.71q3.66,8.2,7.34,16.39s9.2,12.3,10.21,14.61,7.37,19.92,8,24.77a85.69,85.69,0,0,0,2,8.87c-.92-10.37-2.05-29.92-3.09-33.7-2.06-5-14.2-24.92-14.41-30.12s-2.41-8.92-3.09-12.24a39.94,39.94,0,0,0-1.6-5.32c.55-2.07.89-3.63.89-3.63a389.64,389.64,0,0,0-74.18,2.74,272.26,272.26,0,0,0-30.9,8c-16.18,5.11-33.6,12.91-40.53,18.71C280,50.8,266.61,71.28,263.07,87.05c-4.77,16.26-10.55,54.74-9.89,54.39a283.56,283.56,0,0,1,9.67-32.21c6-16.84,15.08-35.36,17.46-38.83,4-7.07,24.92-30.23,30.79-34,5.24-4.15,29.6-11.15,33.08-12.29,3.08-2.28,50.44-9.29,50.67-8.45-.23-.24-31.39,10.47-45.14,16.21-14.93,4.91-49.6,28.92-49,29.19a339.29,339.29,0,0,0-34.13,61.62,275,275,0,0,1,16.8-26.91c10-14.32,23.88-30.37,31.43-36.65,14.09-13.27,52.24-29.23,52.57-28.81q11.89-4.7,24.41-8.74c-9.19,3.95-52.64,27.39-64.16,38.62-14.59,11.62-29,29.88-31,33-2.52,2.91-10.08,29.47-12.33,37.41,3.48-8.11,17.68-35.7,26.42-43.21,7.92-9.27,47.32-39.42,52.47-41.94,3.72-3.1,25.94-16,26.18-15.91a370.37,370.37,0,0,0-38,29.19c-18.3,15.71-33.9,33.87-37.79,39.7-5.73,8-10.35,20.67-12.79,28.5A162.59,162.59,0,0,0,283.94,150C263.51,185.27,264,202.73,264,202.73a125,125,0,0,1,23.84-48.11c2.75-3.41,5.56-6.78,8.36-10a1.63,1.63,0,0,0-.05.22,2.57,2.57,0,0,0,.21-.41c16.3-19,32-34.36,32-34.36l13.18-14.79s-53.39,61.93-65.8,94.17-9.49,48.77-9.49,48.77,5.07-33.87,24.82-60,31.61-39.86,31.61-39.86-25.77,34.53-28,55.94,2.85,53.29,2.85,53.29-.74-33.14,3.42-49.95c3-12.17,11-25.36,15.15-31.73-.19,1.21-.37,2.43-.53,3.65-4.71,11.56-12.93,33.55-12.32,44.64.31,5.81,3.15,12.8,6.23,19.24-1-8.45-.92-17.57.42-22.76,1.73-6.7,3.67-13.42,5-17.85a68.52,68.52,0,0,0,4.7,20.1c7.5,18.11,19.13,34,32.94,47.81-5.93-6.08-34.73-38-33.11-83.94A301.65,301.65,0,0,1,337.33,119q6.63-13.83,15-27.86-5.28,21.87-8.59,43.24-.24,15.81,0,31.45c.58-5.44,8.64-43.91,9.86-46.11.19-1,1.11-4.18,2.13-7.64-.37,9.83,1,19.86,3.9,27.05.72,2.16,1.72,4.76,2.88,7.57a49.89,49.89,0,0,0-1,7.23c-.75,2.36-9.09,48.38-8.34,48.17,0,0,2.48-13.85,6.58-28.51,1.82-6.88,4-13.94,5.88-19.69,5.35,12,11.73,24.69,11.91,24.33a221.28,221.28,0,0,1-8.16-24.85c-.54-2-1.06-4-1.55-6.07,1-3,1.75-5.06,2-5.69.39-1.52,1.59-9.3,2.92-18.34a256.8,256.8,0,0,0,5,37,217.1,217.1,0,0,1-1.25-24.65c0-13.57,1.73-30,3.75-37.37,2.6-12.39,15.22-33.58,19.39-39.91q.07,3.45.14,6.92c-5,10.71-9.72,22-10.87,28-4.14,13.9-5.24,32-5.1,34.81-.31,3,6.68,23.29,8.77,29.36a192.28,192.28,0,0,1-3.13-30.65c2.33-5.17,5.67-12.39,9-19.72a129.65,129.65,0,0,0-1.51,16.81c-.08,7.66,2.6,17.79,4.53,23.87a126.6,126.6,0,0,0-.52,22.26c2.67,31.61,10.74,42.55,10.74,42.55a97.28,97.28,0,0,1-6.19-41.31c.24-3.4.53-6.8.87-10.13a1.78,1.78,0,0,0,.07.17s0-.13-.05-.36c1.95-19.37,5.16-36.18,5.16-36.18l1.83-15.29s-6.52,63.26-.09,89.35,15.63,35.34,15.63,35.34-11.83-23.86-10.84-49.31,2.44-39.5,2.44-39.5-1.09,33.5,7,48.16S453,226.22,453,226.22s-15.22-20.82-20-33.39c-3.49-9.11-4.28-21.07-4.44-27,.41.86.84,1.72,1.28,2.57,2.14,9.47,6.67,27.16,12,34,2.79,3.57,7.71,6.77,12.54,9.51-4.36-5-8.4-10.8-9.86-14.71-1.87-5-3.62-10.2-4.75-13.61a53.38,53.38,0,0,0,11.94,10.73c12.84,8.22,27.33,13.18,42.28,15.85C487.45,208.91,454.89,201.36,435.48,171.31ZM398.87,36.5c.05,1.1.09,2.21.13,3.31q-3.53,3-6.94,6.16A213,213,0,0,0,376.6,63.86c-.11-3-.19-5-.21-4.94Q386.88,47.58,398.87,36.5Zm-84.91,76c8.11-12.78,17.45-24.81,18.36-25.65,1.33-2.1,25.7-24.77,31-28,4.14-3.48,26.18-24.11,26.57-24,.07,0-12.45,12.2-23.66,26-3.19,3.8-6.26,7.71-9.12,11.5C347.47,80.41,330.07,95.69,314,112.47Zm53.87-36.23c-2,3.08-3.78,6.1-5.29,8.9.84-3.66,1.49-6.47,1.52-6.48,1-2.79,1.95-5.6,3-8.41C367.07,70.24,367.4,72.64,367.83,76.24Zm2.1,31.34c-.62,4.06-2.92,15.54-5,26.07a111.18,111.18,0,0,1-1.75-12.82c-.61-6.28,2.46-30.37,4.5-35.4a12.19,12.19,0,0,1,.92-2.09C369.57,92.26,370.47,103.21,369.93,107.58Zm20.41-42.22c-4.08,5.43-9.43,17.34-13.28,26.83.07-.58.12-1,.15-1.27.14-2.18-.1-11.59-.36-19.65,3-4,5.77-7.41,6.51-8.4.51-1.51,8.49-9.52,15.89-16.57l.18,5.7C396,56.89,392.58,61.83,390.34,65.36Zm-.78,60.3-.15.42a35.25,35.25,0,0,1,.76-8c.48-4.93,3.91-17.29,7.38-28.54l-2.22,18.57Q392.32,116.92,389.56,125.66Zm21.06-47.08a16.68,16.68,0,0,0,.22-1.68c.05-.13.1-.26.15-.37.78-2.91,3.51-15.53,5.1-22.5l.47-.58c-.83,5-2.17,13.93-2.84,23-.32,3.5-.53,7-.67,10.41-2,7.06-4.39,14.57-5.86,17.44a87.71,87.71,0,0,0-3.82,9.26c.11-3,.25-5.06.33-5.43-.07-1.45,3.05-16.3,5.39-25.35C409.82,81,410.35,79.54,410.62,78.58Zm-7.23,54.13c-.3-6.89-.21-13.8-.05-18.53,1.6-2.77,3.51-6,5.52-9.41C407,113.11,405,122.85,403.39,132.71Z" style="fill:#92E3A9"></path><path d="M393.1,159.07l-.57-1.65C392.82,158.84,393,159.49,393.1,159.07Z" style="fill:#92E3A9"></path><path d="M494.61,210.26l.5.08Z" style="fill:#92E3A9"></path></g><g id="freepik--sauce-2--inject-285"><path d="M451.18,322.47a38.26,38.26,0,0,1-2.06,12.19,37.68,37.68,0,0,1-2.21,5.18,40.84,40.84,0,0,1-72.15,0,38.15,38.15,0,0,1-2.23-5.21,38.6,38.6,0,0,1-2.06-12.2Z" style="fill:#fff;stroke:#263238;stroke-linecap:round;stroke-linejoin:round"></path><ellipse cx="410.82" cy="322.83" rx="40.41" ry="20.38" style="fill:#fff;stroke:#263238;stroke-linecap:round;stroke-linejoin:round"></ellipse><path d="M449.53,322.83a10.93,10.93,0,0,1-1,4.41,14.54,14.54,0,0,1-3.14,4.41L445,332l-.36.33-.38.33c-.32.27-.64.54-1,.79s-.69.53-1.05.78c-.18.12-.36.25-.54.36-.37.25-.73.48-1.11.7s-.86.51-1.29.75l-.86.45c-.59.31-1.19.6-1.78.87a64.25,64.25,0,0,1-19,4.71l-.16,0a69.6,69.6,0,0,1-25.35-2.19,51.22,51.22,0,0,1-11-4.54.1.1,0,0,1-.05,0,27.44,27.44,0,0,1-2.35-1.57h0a22,22,0,0,1-2.38-2h0a17,17,0,0,1-1.57-1.77h0a16.63,16.63,0,0,1-1.56-2.87c-5.93-14,15.55-23.66,37.61-23.76,14.18.19,33.15,3.84,38.23,16.45h0A10,10,0,0,1,449.53,322.83Z" style="fill:#fff;stroke:#263238;stroke-linecap:round;stroke-linejoin:round"></path><path d="M448.52,327.24a15.88,15.88,0,0,1-3.14,4.41L445,332l-.36.33-.38.33c-.32.27-.64.54-1,.79s-.69.53-1.05.78c-.18.12-.36.25-.54.36-.37.25-.73.48-1.11.7s-.86.51-1.29.75l-.86.45c-.59.31-1.19.6-1.78.87a62,62,0,0,1-19,4.71l-.16,0a72.66,72.66,0,0,1-25.35-2.19c-1-.27-1.9-.54-2.83-.85a42.48,42.48,0,0,1-8.15-3.69.1.1,0,0,1-.05,0,27.44,27.44,0,0,1-2.35-1.57h0a22,22,0,0,1-2.38-2h0a17,17,0,0,1-1.57-1.77h0a16.63,16.63,0,0,1-1.56-2.87c8.32-17.51,55.38-19.84,71.24-5.06h0A16,16,0,0,1,448.52,327.24Z" style="fill:#263238;stroke:#263238;stroke-linecap:round;stroke-linejoin:round"></path></g><g id="freepik--poke-bowl--inject-285"><ellipse cx="195.06" cy="434.07" rx="45.31" ry="17.99" style="fill:#fff;stroke:#263238;stroke-linecap:round;stroke-linejoin:round"></ellipse><path d="M353.46,295.89a149.57,149.57,0,0,1-8.06,47.61,151.13,151.13,0,0,1-8.63,20.22c-25.85,50.14-79.1,84.69-140.88,84.69S80.94,413.79,55.08,363.64a150,150,0,0,1-16.75-68Z" style="fill:#fff;stroke:#263238;stroke-linecap:round;stroke-linejoin:round"></path><path d="M345,344.48c-39.09,34.81-91.41,56.12-149.07,56.12S86,379.23,46.9,344.39c-.16-.35-.33-.71-.49-1.07a150.22,150.22,0,0,0,8.67,20.32c36.94,29.88,86.35,48.21,140.8,48.21s103.94-18.28,140.89-48.13a151.69,151.69,0,0,0,8.61-20.17C345.24,343.86,345.09,344.16,345,344.48Z" style="fill:#263238;stroke:#263238;stroke-linecap:round;stroke-linejoin:round"></path><ellipse cx="195.89" cy="297.3" rx="157.76" ry="79.56" style="fill:#fff;stroke:#263238;stroke-linecap:round;stroke-linejoin:round"></ellipse><path d="M347,297.31a38.64,38.64,0,0,1-.54,6.45q-.06.44-.15.87a40.93,40.93,0,0,1-1.67,6.18,45.76,45.76,0,0,1-2.2,5.13,52.07,52.07,0,0,1-3.92,6.58c-.26.39-.53.77-.81,1.15h0a67.5,67.5,0,0,1-6.5,7.59l-.23.23c-.87.87-1.77,1.74-2.71,2.6-.59.54-1.17,1-1.79,1.6h0l-.22.19c-.69.59-1.4,1.18-2.12,1.76-1.93,1.55-4,3.07-6.1,4.54q-2.2,1.53-4.56,3l-1.64,1-.72.44c-.94.56-1.89,1.11-2.86,1.65-1.73,1-3.51,1.92-5.33,2.83s-3.82,1.89-5.81,2.79l-.28.13-2,.87-1.42.63q-2.58,1.11-5.27,2.14l-1.45.56-.91.35-2.66,1h0l-1.19.42-2.28.78c-1.18.4-2.36.78-3.56,1.16q-5.49,1.74-11.28,3.24c-1.53.4-3.07.78-4.63,1.15l-3,.69c-6.16,1.38-12.55,2.56-19.12,3.52-2.35.34-4.73.66-7.13.94a292.42,292.42,0,0,1-35,2.07c-27.29,0-52.89-3.65-75-10l-1.92-.56-.44-.13-1.33-.41L116,362l-1.18-.38-1.49-.48h0l-.63-.22-.29-.09-.55-.19-.43-.14c-1.08-.37-2.15-.75-3.21-1.13l-1.26-.46-1.24-.46L104.4,358l-.35-.14-1.06-.41-.18-.07-1.22-.49c-1.08-.43-2.14-.87-3.19-1.32-2.09-.89-4.14-1.82-6.14-2.77q-6.51-3.09-12.26-6.54a1.2,1.2,0,0,0-.21-.13c-2.1-1.28-4.12-2.58-6.05-3.92l-1.93-1.37c-.4-.28-.79-.57-1.18-.86h0A88.85,88.85,0,0,1,61.31,332h0a68.6,68.6,0,0,1-6.15-6.89,0,0,0,0,1,0,0c-6.69-8.61-10.36-18-10.36-27.78,0-42.09,67.65-76.21,151.11-76.21,41.35,0,78.82,8.38,106.1,22q6.17,3.06,11.61,6.46,2.31,1.45,4.5,3c1,.67,1.94,1.36,2.87,2.06s2,1.51,3,2.29c1.12.89,2.21,1.81,3.26,2.74l0,0a74.68,74.68,0,0,1,8.13,8.32,59,59,0,0,1,5.61,8,49,49,0,0,1,2.8,5.62c.52,1.25,1,2.52,1.38,3.79v0c.26.84.5,1.68.71,2.53a39,39,0,0,1,1.12,8.06C347,296.37,347,296.84,347,297.31Z" style="fill:#fff;stroke:#263238;stroke-linecap:round;stroke-linejoin:round"></path><path d="M156.31,282.72c.23-.9-.44-1.28-3.41-3.51-1.36-1-17.38-7.27-34.29-13.73h.13s-2-2.65-1.93-3.59,1.46-1,3.84-.9,2.86-.93,2.27-1.91-2.1-.74-2.1-.74,2.91-2.3,1.49-3.27a4.34,4.34,0,0,0-3.26-.46,1,1,0,0,0-.94-1.4c-1.37-.18-2.28,1.47-2.28,1.47l-1.16,3s-.68,0-.62-4.19-2.9-5.51-4.72-4.73a5.63,5.63,0,0,0-2.47,1.79s-.28-2.42-1.26-1.83-.36,2.28-.36,2.28-2.33-1.84-3.47-1.11,1.34,2.43,1.34,2.43-3.91-.15-2.79,1.36,4.87,1.82,5.56,2-3.7.49-2.62,1.48a4.24,4.24,0,0,0,2.78.89s-.9,1.91,1.13,1.78,5.59-.22,6.3.27c.51.34,1.85,2.92,2.58,4.37C97,257.22,77.66,250,77.66,250S80,239.66,79.4,237.17s-.13-3.67-1.82-4.75-2.42,1.39-2.42,1.39a3.94,3.94,0,0,0-3.56-1.64c-2.58.06-.86,1.87-1.25,2.05s-1.89-1.29-4.06-.07,1.63,3.3,1.63,3.3-1.75-.08-2.17,1.22,4.16,4.24,5,5.21,2.91,6.3,2.91,6.3-2.69-1-4.86-1.67-4.92-2.52-7.47-5.42-2.1-5.32-3.74-6.16a1.38,1.38,0,0,0-2.11.84,3.52,3.52,0,0,0-2.36-1.46c-1.84-.44-2.45,1.88-2.45,1.88a1.86,1.86,0,0,0-2.76.57c-1,1.77,4.64,5,4.64,5a46.16,46.16,0,0,0-5.78-2.5c-1.53-.37-1.67-.34-3.06,1.11s1.24,3.49,1.24,3.49-1.89,1.17-1.84,2.64,1.8,1.55,1.8,1.55-2.79,1.16-.78,3.37,9.65-1.16,9.65-1.16l-3.16,3.48a3.52,3.52,0,0,0-2.68,3.4c-.3,3,5.25,1.26,5.25,1.26s-3,2.17-2.49,4.21,3.63.68,3.63.68l.09,2.52c.09,2.52,5.92,2,8.42-4.34s11.49-10.34,11.49-10.34a11,11,0,0,1-2.6,8c-3.16,3.48-3.92,2.33-4.79,5s3.73,1.09,3.73,1.09-1.54,4.05-.78,7.31,5.64-1.34,5.64-1.34a6.09,6.09,0,0,0-.11,5.94c1.71,3.1,3.64-3.56,3.64-3.56l1.72,1c1.72,1,1.35-4.87,1.35-4.87L83.9,271c1.82-.72.21-5.53-4.18-9.46-1.65-1.48-2.27-2.47-2.41-3.13,0,0-1.14-2.91-.39-4.63s3.53-.87,3.53-.87,22.68,7.85,26.79,9.4c1.12.41,4.94,2.06,9.93,4.27h0s2,2.65,1.93,3.58-1.46,1-3.84.9-2.86.94-2.27,1.91,2.1.75,2.1.75-2.91,2.29-1.49,3.26a4.34,4.34,0,0,0,3.26.46,1,1,0,0,0,.94,1.4c1.37.18,2.28-1.47,2.28-1.47l1.16-3s.68,0,.62,4.2,2.9,5.5,4.72,4.73a5.68,5.68,0,0,0,2.47-1.8s.28,2.42,1.26,1.83.36-2.27.36-2.27,2.33,1.84,3.47,1.1-1.34-2.43-1.34-2.43,3.91.16,2.79-1.36-4.87-1.81-5.56-2,3.7-.5,2.62-1.49a4.24,4.24,0,0,0-2.78-.89s.9-1.9-1.13-1.78-5.59.22-6.3-.26a21.23,21.23,0,0,1-2.45-4.14c13.4,6,32.45,14.6,33.31,15.38A1.86,1.86,0,0,0,156.31,282.72Z" style="fill:#92E3A9;stroke:#263238;stroke-linecap:round;stroke-linejoin:round"></path><ellipse cx="76.5" cy="286.77" rx="20.59" ry="21.25" style="fill:#92E3A9;stroke:#263238;stroke-linecap:round;stroke-linejoin:round"></ellipse><ellipse cx="80.04" cy="286.33" rx="20.59" ry="21.25" style="fill:#fff;stroke:#263238;stroke-linecap:round;stroke-linejoin:round"></ellipse><ellipse cx="115.46" cy="263.3" rx="20.59" ry="21.25" style="fill:#92E3A9;stroke:#263238;stroke-linecap:round;stroke-linejoin:round"></ellipse><ellipse cx="119" cy="262.86" rx="20.59" ry="21.25" style="fill:#fff;stroke:#263238;stroke-linecap:round;stroke-linejoin:round"></ellipse><ellipse cx="150.43" cy="261.53" rx="20.59" ry="21.25" style="fill:#92E3A9;stroke:#263238;stroke-linecap:round;stroke-linejoin:round"></ellipse><ellipse cx="153.98" cy="261.09" rx="20.59" ry="21.25" style="fill:#fff;stroke:#263238;stroke-linecap:round;stroke-linejoin:round"></ellipse><ellipse cx="102.18" cy="278.8" rx="20.59" ry="21.25" style="fill:#92E3A9;stroke:#263238;stroke-linecap:round;stroke-linejoin:round"></ellipse><ellipse cx="105.72" cy="278.36" rx="20.59" ry="21.25" style="fill:#fff;stroke:#263238;stroke-linecap:round;stroke-linejoin:round"></ellipse><path d="M73.74,342.18a11.43,11.43,0,0,0,1.54-.13,13.88,13.88,0,0,0,1.53-.32A13.25,13.25,0,0,0,80,340.38a16.61,16.61,0,0,0,7.23-10.09c.14-.51.27-1,.37-1.57a25.53,25.53,0,0,0-.48-11.85C84,305.55,74.38,298.33,65.59,300.73l-.54.16c-8.32,2.67-12.68,13.29-9.91,24.2a0,0,0,0,0,0,0A68.6,68.6,0,0,0,61.3,332h0a88.85,88.85,0,0,0,9.31,7.94h0c.39.29.78.58,1.18.86" style="fill:#92E3A9;stroke:#263238;stroke-linecap:round;stroke-linejoin:round"></path><path d="M89.8,329.3a16,16,0,0,1-.52,1.57c-1.73,4.59-5,8.12-9.28,9.51l-.57.17a13.09,13.09,0,0,1-5.31.33,13.63,13.63,0,0,1-2.72-.65h0c-.25-.08-.51-.17-.76-.27h0A88.85,88.85,0,0,1,61.31,332h0a26.56,26.56,0,0,1-3.4-7.58c-2.7-9.87.47-19.6,7.15-23.52a13,13,0,0,1,3.16-1.33c8.8-2.41,18.44,4.82,21.54,16.14A25.12,25.12,0,0,1,89.8,329.3Z" style="fill:#fff;stroke:#263238;stroke-linecap:round;stroke-linejoin:round"></path><ellipse cx="94.65" cy="315.11" rx="20.59" ry="21.25" style="fill:#92E3A9;stroke:#263238;stroke-linecap:round;stroke-linejoin:round"></ellipse><ellipse cx="98.19" cy="314.66" rx="20.59" ry="21.25" style="fill:#fff;stroke:#263238;stroke-linecap:round;stroke-linejoin:round"></ellipse><path d="M118.55,362.8l-1.33-.41L116,362l-1.18-.38-1.49-.48h0l-.92-.31-.55-.19-.43-.14c-1.08-.37-2.15-.75-3.21-1.13l-1.26-.46-1.24-.46L104.4,358l-.35-.14-1.06-.41-.18-.07-1.22-.49c-1.08-.43-2.14-.87-3.19-1.32-2.09-.89-4.14-1.82-6.14-2.77q-6.51-3.09-12.26-6.54a1.2,1.2,0,0,0-.21-.13,2.5,2.5,0,0,1,.31-.34,1.21,1.21,0,0,1,.16-.16c3.58-3.38,12.77-3.21,22.22.73a43.78,43.78,0,0,1,6.59,3.41l.06,0C115.54,353.88,119.36,359,118.55,362.8Z" style="fill:#fff;stroke:#263238;stroke-linecap:round;stroke-linejoin:round"></path><path d="M119.35,362.25a4,4,0,0,1-.36.68l-.44-.13-1.33-.41L116,362l-1.18-.38-1.49-.48h0l-.63-.22-.29-.09-.55-.19-.43-.14c-1.08-.37-2.15-.75-3.21-1.13l-1.26-.46-1.24-.46L104.4,358l-.35-.14-1.06-.41-.18-.07-1.22-.49c-1.08-.43-2.14-.87-3.19-1.32-2.09-.89-4.14-1.82-6.14-2.77q-6.51-3.09-12.26-6.54a2,2,0,0,1,.12-.34l0-.09a1.24,1.24,0,0,1,.1-.2c2.39-4.77,12.67-5.1,23.29-.67a43.7,43.7,0,0,1,5.92,3c.22.13.44.26.65.4C117.06,352.74,121,358.32,119.35,362.25Z" style="fill:#fff;stroke:#263238;stroke-linecap:round;stroke-linejoin:round"></path><path d="M109.47,347.94a4.55,4.55,0,0,1-.36,1.71l0,.09a1.24,1.24,0,0,1-.1.2c-1.88,3.77-8.69,4.76-16.71,2.83q-6.51-3.09-12.26-6.54a1.2,1.2,0,0,0-.21-.13c-2.1-1.28-4.12-2.58-6.05-3.92l-1.93-1.37a6.87,6.87,0,0,1-.41-.58h0c-1.74-2.49-2.35-4.92-1.51-6.93a4.86,4.86,0,0,1,1.21-1.71c2.8-2.64,9-3.1,16.14-1.29.68.17,1.36.36,2,.58,1.32.41,2.67.9,4,1.46C103,336.36,109.65,343,109.47,347.94Z" style="fill:#92E3A9;stroke:#263238;stroke-linecap:round;stroke-linejoin:round"></path><ellipse cx="90.56" cy="340.06" rx="9.9" ry="21.25" transform="translate(-258.17 292.81) rotate(-67.37)" style="fill:#fff;stroke:#263238;stroke-linecap:round;stroke-linejoin:round"></ellipse><path d="M120.23,278.05s33.84,5.05,37.81,5.52c3,.35,8.26-19.59,50.47-27.72s55,7.37,55,7.37a5.29,5.29,0,0,0,5.11-2c2-2.67,9.57-8,9.4-12.71s-53.43-15.88-94-5.07S129.81,266.48,120.23,278.05Z" style="fill:#92E3A9;stroke:#263238;stroke-linecap:round;stroke-linejoin:round"></path><path d="M120.23,278.05s33.84,5.05,37.81,5.52c3,.35,8.26-19.59,50.47-27.72s55,7.37,55,7.37a5.29,5.29,0,0,0,5.11-2c2-2.67,9.57-8,9.4-12.71s-53.43-15.88-94-5.07S129.81,266.48,120.23,278.05Z" style="fill:#fff;stroke:#263238;stroke-linecap:round;stroke-linejoin:round;opacity:0.33"></path><path d="M120.23,278.05s33.84,5.05,37.81,5.52c3,.35,8.26-19.59,50.47-27.72s55,7.37,55,7.37a5.29,5.29,0,0,0,5.11-2c2-2.67,9.57-8,9.4-12.71s-53.43-15.88-94-5.07S129.81,266.48,120.23,278.05Z" style="fill:none;stroke:#263238;stroke-linecap:round;stroke-linejoin:round"></path><path d="M262.6,257.44l.95,5.78a5,5,0,0,0,3.66-.81,16.35,16.35,0,0,0,2.46-2.6,25.8,25.8,0,0,0,6.53-6.23c2.32-3.5,1.64-3.28,1.86-5.09s0-4.48-.95-5.78-2,4.18-5.47,6.62A95.59,95.59,0,0,0,262.6,257.44Z" style="fill:#92E3A9;stroke:#263238;stroke-linecap:round;stroke-linejoin:round"></path><path d="M119.28,272.27s35.73,7.62,37.8,5.52,8.26-19.59,50.47-27.72,55.05,7.37,55.05,7.37a5.3,5.3,0,0,0,5.11-2c2-2.68,9.56-8.05,9.4-12.72s-53.43-15.88-94-5.07S128.86,260.7,119.28,272.27Z" style="fill:#92E3A9;stroke:#263238;stroke-linecap:round;stroke-linejoin:round"></path><path d="M119.28,272.27s35.73,7.62,37.8,5.52,8.26-19.59,50.47-27.72,55.05,7.37,55.05,7.37a5.3,5.3,0,0,0,5.11-2c2-2.68,9.56-8.05,9.4-12.72s-53.43-15.88-94-5.07S128.86,260.7,119.28,272.27Z" style="fill:#fff;stroke:#263238;stroke-linecap:round;stroke-linejoin:round;opacity:0.72"></path><path d="M119.28,272.27s35.73,7.62,37.8,5.52,8.26-19.59,50.47-27.72,55.05,7.37,55.05,7.37a5.3,5.3,0,0,0,5.11-2c2-2.68,9.56-8.05,9.4-12.72s-53.43-15.88-94-5.07S128.86,260.7,119.28,272.27Z" style="fill:none;stroke:#263238;stroke-linecap:round;stroke-linejoin:round"></path><path d="M120.23,278.05l-1-5.78,37.8,5.52,1,5.78a3.91,3.91,0,0,1-1.92.28c-.67-.2-20.41-2.78-20.41-2.78Z" style="fill:#92E3A9;stroke:#263238;stroke-linecap:round;stroke-linejoin:round"></path><path d="M120.23,278.05l-1-5.78,37.8,5.52,1,5.78a3.91,3.91,0,0,1-1.92.28c-.67-.2-20.41-2.78-20.41-2.78Z" style="fill:#fff;stroke:#263238;stroke-linecap:round;stroke-linejoin:round;opacity:0.27"></path><path d="M120.23,278.05l-1-5.78,37.8,5.52,1,5.78a3.91,3.91,0,0,1-1.92.28c-.67-.2-20.41-2.78-20.41-2.78Z" style="fill:none;stroke:#263238;stroke-linecap:round;stroke-linejoin:round"></path><path d="M297,311.83c-.31,3.33-2.41,8.16-4.24,11.56a65.27,65.27,0,0,1-1.59,8.26,11.32,11.32,0,0,1-.76,9.25,27.8,27.8,0,0,1-8.25,9.13,46.67,46.67,0,0,1-16.75,13,128.55,128.55,0,0,1-20.22,7.4A316.12,316.12,0,0,1,201,373.52c-28.63,0-55.49-3.7-78.67-10.17-13.74-8-22.07-17.82-24.74-24.85a23,23,0,0,1-1.13-5.67,11,11,0,0,1-3.58-4.17c-.95-2.07,1.75-5.07,3.6-6.8.1-1.39.24-2.81.42-4.25a35.7,35.7,0,0,1-2.13-8.84c-.37-4.39,3-4.1,4.48-3.76.06-.24.13-.48.19-.72A10.49,10.49,0,0,1,99,296c1-2.61,5.51-7.36,9.7-11.38a73.46,73.46,0,0,1,8.18-9.25,37.27,37.27,0,0,1,2.82-7.43c2-3.91,6.91-3.35,9.73-2.66A127.23,127.23,0,0,1,150.19,254s-5.58-.82-4.18-2.86c1.19-1.72,16.73-2.72,21.61-3l1.39-.33c-.13-.83.06-3.56,7.59-4.84,8.94-1.54,20.22,3.08,20.22,3.08S210.94,243,213.76,243c1.48,0,.11,1.54-1.53,3a110,110,0,0,1,12.62,2.06c2.35-.11,9.76-.32,12.91.53a5.06,5.06,0,0,1,3.65,4.18c4.14,1.45,8.17,3.08,12,4.84,2.64-.4,9.6-1.09,10.74,2.21l1.41,4.08-.2.23c.72.48,1.44.95,2.12,1.44a57,57,0,0,1,13.71,14.19c3.73,2.48,10.38,7.36,10.72,10.65a5.82,5.82,0,0,1-2.26,5.5,63.79,63.79,0,0,1,3.12,10.77C294.73,307.28,297.32,308.68,297,311.83Z" style="fill:#fff;stroke:#263238;stroke-linecap:round;stroke-linejoin:round"></path><path d="M147.43,322.54s-11.29,11.22-9.88,14.79,9.88-3.57,11.76-7.14" style="fill:#fff;stroke:#263238;stroke-linecap:round;stroke-linejoin:round"></path><path d="M190.71,321.52s-11.29,11.22-9.88,14.79,9.88-3.57,11.76-7.14" style="fill:#fff;stroke:#263238;stroke-linecap:round;stroke-linejoin:round"></path><path d="M247.16,296s-11.29,11.22-9.88,14.79,9.88-3.57,11.77-7.14" style="fill:#fff;stroke:#263238;stroke-linecap:round;stroke-linejoin:round"></path><path d="M268.33,335.8S257,347,258.45,350.59s9.88-3.57,11.77-7.14" style="fill:#fff;stroke:#263238;stroke-linecap:round;stroke-linejoin:round"></path><path d="M210,335s15-3.46,15.44-7.31-10.19-2.36-13.48-.32" style="fill:#fff;stroke:#263238;stroke-linecap:round;stroke-linejoin:round"></path><path d="M179,372.22s15-3.46,15.44-7.32-10.19-2.35-13.48-.31" style="fill:#fff;stroke:#263238;stroke-linecap:round;stroke-linejoin:round"></path><path d="M172.58,348.46s-11.22-11.3-14.39-9.49,4.07,10.39,7.51,12.14" style="fill:#fff;stroke:#263238;stroke-linecap:round;stroke-linejoin:round"></path><path d="M250.68,335.71s-11.23-11.3-14.4-9.49,4.08,10.39,7.51,12.14" style="fill:#fff;stroke:#263238;stroke-linecap:round;stroke-linejoin:round"></path><path d="M169.76,328.57s-11.22-11.3-14.39-9.49,4.07,10.39,7.51,12.13" style="fill:#fff;stroke:#263238;stroke-linecap:round;stroke-linejoin:round"></path><path d="M173.52,298s-11.22-11.3-14.39-9.48,4.08,10.38,7.51,12.13" style="fill:#fff;stroke:#263238;stroke-linecap:round;stroke-linejoin:round"></path><path d="M143.82,308.55s-15.25-1.55-16.75,2,9.07,5.54,12.78,4.66" style="fill:#fff;stroke:#263238;stroke-linecap:round;stroke-linejoin:round"></path><path d="M129.25,297.71s9.89-12.68,8.07-16-9.38,4.89-10.83,8.69" style="fill:#fff;stroke:#263238;stroke-linecap:round;stroke-linejoin:round"></path><path d="M228.05,366.06s9.88-12.68,8.07-16-9.39,4.9-10.84,8.7" style="fill:#fff;stroke:#263238;stroke-linecap:round;stroke-linejoin:round"></path><path d="M277.44,330.36s9.89-12.68,8.08-16-9.39,4.9-10.84,8.7" style="fill:#fff;stroke:#263238;stroke-linecap:round;stroke-linejoin:round"></path><path d="M167.81,359s-15.25-1.55-16.74,2,9.07,5.55,12.77,4.67" style="fill:#fff;stroke:#263238;stroke-linecap:round;stroke-linejoin:round"></path><path d="M206.86,350.37s-15.25-1.55-16.74,2,9.07,5.55,12.77,4.67" style="fill:#fff;stroke:#263238;stroke-linecap:round;stroke-linejoin:round"></path><path d="M271.36,317.43s-15.25-1.56-16.74,2,9.07,5.55,12.77,4.67" style="fill:#fff;stroke:#263238;stroke-linecap:round;stroke-linejoin:round"></path><path d="M111.81,309.74s4.33,15.93,7.9,16.13,1.39-11.19-.74-14.59" style="fill:#fff;stroke:#263238;stroke-linecap:round;stroke-linejoin:round"></path><path d="M121.22,339.83s4.32,15.93,7.9,16.13,1.39-11.19-.74-14.59" style="fill:#fff;stroke:#263238;stroke-linecap:round;stroke-linejoin:round"></path><path d="M98.52,256.49s35.86,7.74,40.08,8.53c3.14.58,10.54-18.88,56.51-23.63s58.42,11.76,58.42,11.76a6,6,0,0,0,5.66-1.61c2.35-2.51,10.94-7.26,11.17-11.93S214.41,219.5,170,227,109.79,245.71,98.52,256.49Z" style="fill:#92E3A9;stroke:#263238;stroke-linecap:round;stroke-linejoin:round"></path><path d="M98.52,256.49s35.86,7.74,40.08,8.53c3.14.58,10.54-18.88,56.51-23.63s58.42,11.76,58.42,11.76a6,6,0,0,0,5.66-1.61c2.35-2.51,10.94-7.26,11.17-11.93S214.41,219.5,170,227,109.79,245.71,98.52,256.49Z" style="fill:#fff;stroke:#263238;stroke-linecap:round;stroke-linejoin:round;opacity:0.33"></path><path d="M98.52,256.49s35.86,7.74,40.08,8.53c3.14.58,10.54-18.88,56.51-23.63s58.42,11.76,58.42,11.76a6,6,0,0,0,5.66-1.61c2.35-2.51,10.94-7.26,11.17-11.93S214.41,219.5,170,227,109.79,245.71,98.52,256.49Z" style="fill:none;stroke:#263238;stroke-linecap:round;stroke-linejoin:round"></path><path d="M253,247.31l.53,5.84a5.8,5.8,0,0,0,4-.52,17,17,0,0,0,2.87-2.39,27.69,27.69,0,0,0,7.53-5.7c2.79-3.31,2.05-3.15,2.44-4.93s.41-4.47-.53-5.85-2.52,4-6.43,6.18A100.18,100.18,0,0,0,253,247.31Z" style="fill:#92E3A9;stroke:#263238;stroke-linecap:round;stroke-linejoin:round"></path><path d="M98,250.65s37.68,10.46,40.08,8.52,10.54-18.88,56.52-23.62S253,247.31,253,247.31a6,6,0,0,0,5.66-1.61c2.35-2.51,10.95-7.26,11.17-11.94s-55.95-20.11-100.38-12.57S109.26,239.86,98,250.65Z" style="fill:#92E3A9;stroke:#263238;stroke-linecap:round;stroke-linejoin:round"></path><path d="M98,250.65s37.68,10.46,40.08,8.52,10.54-18.88,56.52-23.62S253,247.31,253,247.31a6,6,0,0,0,5.66-1.61c2.35-2.51,10.95-7.26,11.17-11.94s-55.95-20.11-100.38-12.57S109.26,239.86,98,250.65Z" style="fill:#fff;stroke:#263238;stroke-linecap:round;stroke-linejoin:round;opacity:0.72"></path><path d="M98,250.65s37.68,10.46,40.08,8.52,10.54-18.88,56.52-23.62S253,247.31,253,247.31a6,6,0,0,0,5.66-1.61c2.35-2.51,10.95-7.26,11.17-11.94s-55.95-20.11-100.38-12.57S109.26,239.86,98,250.65Z" style="fill:none;stroke:#263238;stroke-linecap:round;stroke-linejoin:round"></path><path d="M98.52,256.49,98,250.65l40.08,8.52.53,5.85a4.53,4.53,0,0,1-2.08.13c-.71-.25-21.66-4.41-21.66-4.41Z" style="fill:#92E3A9;stroke:#263238;stroke-linecap:round;stroke-linejoin:round"></path><path d="M98.52,256.49,98,250.65l40.08,8.52.53,5.85a4.53,4.53,0,0,1-2.08.13c-.71-.25-21.66-4.41-21.66-4.41Z" style="fill:#fff;stroke:#263238;stroke-linecap:round;stroke-linejoin:round;opacity:0.27"></path><path d="M98.52,256.49,98,250.65l40.08,8.52.53,5.85a4.53,4.53,0,0,1-2.08.13c-.71-.25-21.66-4.41-21.66-4.41Z" style="fill:none;stroke:#263238;stroke-linecap:round;stroke-linejoin:round"></path><path d="M86.89,239.68s37.13,11.22,41.5,12.4c3.26.88,12.93-19.22,61.91-20.46S250.85,249,250.85,249a6.35,6.35,0,0,0,6.12-1.24c2.72-2.48,12.25-6.82,12.93-11.78s-57.15-26-104.77-21.7S99.82,229.14,86.89,239.68Z" style="fill:#92E3A9;stroke:#263238;stroke-linecap:round;stroke-linejoin:round"></path><path d="M86.89,239.68s37.13,11.22,41.5,12.4c3.26.88,12.93-19.22,61.91-20.46S250.85,249,250.85,249a6.35,6.35,0,0,0,6.12-1.24c2.72-2.48,12.25-6.82,12.93-11.78s-57.15-26-104.77-21.7S99.82,229.14,86.89,239.68Z" style="fill:#fff;stroke:#263238;stroke-linecap:round;stroke-linejoin:round;opacity:0.33"></path><path d="M86.89,239.68s37.13,11.22,41.5,12.4c3.26.88,12.93-19.22,61.91-20.46S250.85,249,250.85,249a6.35,6.35,0,0,0,6.12-1.24c2.72-2.48,12.25-6.82,12.93-11.78s-57.15-26-104.77-21.7S99.82,229.14,86.89,239.68Z" style="fill:none;stroke:#263238;stroke-linecap:round;stroke-linejoin:round"></path><path d="M250.85,242.72V249a6.11,6.11,0,0,0,4.26-.22,18.21,18.21,0,0,0,3.25-2.31,29.56,29.56,0,0,0,8.5-5.44c3.26-3.3,2.46-3.18,3-5s.86-4.72,0-6.26-3,4.06-7.38,6A107,107,0,0,0,250.85,242.72Z" style="fill:#92E3A9;stroke:#263238;stroke-linecap:round;stroke-linejoin:round"></path><path d="M86.89,233.42s38.78,14.26,41.5,12.4,12.93-19.22,61.91-20.46,60.55,17.36,60.55,17.36a6.35,6.35,0,0,0,6.12-1.24c2.72-2.48,12.25-6.82,12.93-11.78s-57.15-26-104.77-21.71S99.82,222.88,86.89,233.42Z" style="fill:#92E3A9;stroke:#263238;stroke-linecap:round;stroke-linejoin:round"></path><path d="M86.89,233.42s38.78,14.26,41.5,12.4,12.93-19.22,61.91-20.46,60.55,17.36,60.55,17.36a6.35,6.35,0,0,0,6.12-1.24c2.72-2.48,12.25-6.82,12.93-11.78s-57.15-26-104.77-21.71S99.82,222.88,86.89,233.42Z" style="fill:#fff;stroke:#263238;stroke-linecap:round;stroke-linejoin:round;opacity:0.72"></path><path d="M86.89,233.42s38.78,14.26,41.5,12.4,12.93-19.22,61.91-20.46,60.55,17.36,60.55,17.36a6.35,6.35,0,0,0,6.12-1.24c2.72-2.48,12.25-6.82,12.93-11.78s-57.15-26-104.77-21.71S99.82,222.88,86.89,233.42Z" style="fill:none;stroke:#263238;stroke-linecap:round;stroke-linejoin:round"></path><path d="M86.89,239.68v-6.26l41.5,12.4v6.26a4.8,4.8,0,0,1-2.2,0c-.73-.33-22.45-6.49-22.45-6.49Z" style="fill:#92E3A9;stroke:#263238;stroke-linecap:round;stroke-linejoin:round"></path><path d="M86.89,239.68v-6.26l41.5,12.4v6.26a4.8,4.8,0,0,1-2.2,0c-.73-.33-22.45-6.49-22.45-6.49Z" style="fill:#fff;stroke:#263238;stroke-linecap:round;stroke-linejoin:round;opacity:0.27"></path><path d="M86.89,239.68v-6.26l41.5,12.4v6.26a4.8,4.8,0,0,1-2.2,0c-.73-.33-22.45-6.49-22.45-6.49Z" style="fill:none;stroke:#263238;stroke-linecap:round;stroke-linejoin:round"></path><path d="M297.37,252.08s-1.81,7-1.13,7.68,17.17,7.91,17.85,7.46,7.68-11.52,7-14.24a41,41,0,0,1-.9-4.51Z" style="fill:#92E3A9;stroke:#263238;stroke-linecap:round;stroke-linejoin:round"></path><polygon points="302.57 241.92 297.37 252.08 314.31 259.76 320.19 248.47 302.57 241.92" style="fill:#92E3A9;stroke:#263238;stroke-linecap:round;stroke-linejoin:round"></polygon><line x1="314.31" y1="259.76" x2="313.86" y2="264.05" style="fill:none;stroke:#263238;stroke-linecap:round;stroke-linejoin:round"></line><path d="M284.38,296.22l-2.21,6a2.27,2.27,0,0,0,1.06,2.92c1.14.56,2.54,1.08,3.47.8l.56-.18a2.76,2.76,0,0,0,1.72-1.52l3.48-7.71Z" style="fill:#fff;stroke:#263238;stroke-linecap:round;stroke-linejoin:round"></path><path d="M289.16,294.85s-6.16.46-4.79,2.36,9.19.26,7.93-1A5.33,5.33,0,0,0,289.16,294.85Z" style="fill:#fff;stroke:#263238;stroke-linecap:round;stroke-linejoin:round"></path><path d="M288.7,295.71s-3.08.22-2.4,1.18,4.6.13,4-.5A2.66,2.66,0,0,0,288.7,295.71Z" style="fill:#fff;stroke:#263238;stroke-linecap:round;stroke-linejoin:round"></path><polygon points="309.03 255.37 299.44 263.24 305.95 269.4 315.19 263.24 309.03 255.37" style="fill:#92E3A9;stroke:#263238;stroke-linecap:round;stroke-linejoin:round"></polygon><polygon points="299.44 263.24 296.39 273.27 304.87 279.24 305.95 269.4 299.44 263.24" style="fill:#92E3A9;stroke:#263238;stroke-linecap:round;stroke-linejoin:round"></polygon><polygon points="315.19 263.24 317.29 275.16 304.87 279.24 305.95 269.4 315.19 263.24" style="fill:#92E3A9;stroke:#263238;stroke-linecap:round;stroke-linejoin:round"></polygon><polygon points="310.16 273.21 300.57 281.08 307.08 287.25 316.32 281.08 310.16 273.21" style="fill:#92E3A9;stroke:#263238;stroke-linecap:round;stroke-linejoin:round"></polygon><polygon points="300.57 281.08 297.52 291.12 306 297.09 307.08 287.25 300.57 281.08" style="fill:#92E3A9;stroke:#263238;stroke-linecap:round;stroke-linejoin:round"></polygon><polygon points="316.32 281.08 318.42 293 306 297.09 307.08 287.25 316.32 281.08" style="fill:#92E3A9;stroke:#263238;stroke-linecap:round;stroke-linejoin:round"></polygon><polygon points="285.08 277.05 275.5 284.93 282 291.09 291.25 284.93 285.08 277.05" style="fill:#92E3A9;stroke:#263238;stroke-linecap:round;stroke-linejoin:round"></polygon><polygon points="275.5 284.93 272.44 294.96 280.93 300.93 282 291.09 275.5 284.93" style="fill:#92E3A9;stroke:#263238;stroke-linecap:round;stroke-linejoin:round"></polygon><polygon points="291.25 284.93 293.35 296.84 280.93 300.93 282 291.09 291.25 284.93" style="fill:#92E3A9;stroke:#263238;stroke-linecap:round;stroke-linejoin:round"></polygon><polygon points="337.05 266.51 327.46 274.38 333.97 280.54 343.21 274.38 337.05 266.51" style="fill:#92E3A9;stroke:#263238;stroke-linecap:round;stroke-linejoin:round"></polygon><polygon points="327.46 274.38 324.4 284.41 332.89 290.38 333.97 280.54 327.46 274.38" style="fill:#92E3A9;stroke:#263238;stroke-linecap:round;stroke-linejoin:round"></polygon><polygon points="345.31 286.3 339.35 288.26 335.72 289.46 335.71 289.46 333.99 290.03 333.41 290.22 332.89 290.39 333.17 287.83 333.6 283.85 333.96 280.55 334.78 280 340.95 275.89 343.21 274.38 344.52 281.8 345.13 285.3 345.14 285.32 345.31 286.3" style="fill:#92E3A9;stroke:#263238;stroke-linecap:round;stroke-linejoin:round"></polygon><polygon points="293.45 239.4 283.86 247.27 290.37 253.44 299.61 247.27 293.45 239.4" style="fill:#92E3A9;stroke:#263238;stroke-linecap:round;stroke-linejoin:round"></polygon><polygon points="283.86 247.27 280.81 257.31 289.29 263.28 290.37 253.44 283.86 247.27" style="fill:#92E3A9;stroke:#263238;stroke-linecap:round;stroke-linejoin:round"></polygon><polygon points="299.61 247.27 301.71 259.19 289.29 263.28 290.37 253.44 299.61 247.27" style="fill:#92E3A9;stroke:#263238;stroke-linecap:round;stroke-linejoin:round"></polygon><polygon points="290.51 300.84 280.93 308.72 287.43 314.88 296.68 308.72 290.51 300.84" style="fill:#92E3A9;stroke:#263238;stroke-linecap:round;stroke-linejoin:round"></polygon><polygon points="280.93 308.72 277.87 318.75 286.36 324.72 287.43 314.88 280.93 308.72" style="fill:#92E3A9;stroke:#263238;stroke-linecap:round;stroke-linejoin:round"></polygon><polygon points="296.68 308.72 298.77 320.63 286.36 324.72 287.43 314.88 296.68 308.72" style="fill:#92E3A9;stroke:#263238;stroke-linecap:round;stroke-linejoin:round"></polygon><polygon points="278.77 258.6 269.18 266.48 275.69 272.64 284.93 266.48 278.77 258.6" style="fill:#92E3A9;stroke:#263238;stroke-linecap:round;stroke-linejoin:round"></polygon><polygon points="269.18 266.48 266.12 276.51 274.61 282.48 275.69 272.64 269.18 266.48" style="fill:#92E3A9;stroke:#263238;stroke-linecap:round;stroke-linejoin:round"></polygon><polygon points="284.93 266.48 287.03 278.39 274.61 282.48 275.69 272.64 284.93 266.48" style="fill:#92E3A9;stroke:#263238;stroke-linecap:round;stroke-linejoin:round"></polygon><polygon points="335.01 282.7 325.42 290.57 331.93 296.74 341.17 290.57 335.01 282.7" style="fill:#92E3A9;stroke:#263238;stroke-linecap:round;stroke-linejoin:round"></polygon><polygon points="325.42 290.57 322.37 300.6 330.85 306.58 331.93 296.74 325.42 290.57" style="fill:#92E3A9;stroke:#263238;stroke-linecap:round;stroke-linejoin:round"></polygon><polygon points="341.17 290.57 343.27 302.49 330.85 306.58 331.93 296.74 341.17 290.57" style="fill:#92E3A9;stroke:#263238;stroke-linecap:round;stroke-linejoin:round"></polygon><polygon points="324.62 256.27 315.03 264.14 321.53 270.31 330.78 264.14 324.62 256.27" style="fill:#92E3A9;stroke:#263238;stroke-linecap:round;stroke-linejoin:round"></polygon><polygon points="315.03 264.14 311.97 274.17 320.46 280.15 321.53 270.31 315.03 264.14" style="fill:#92E3A9;stroke:#263238;stroke-linecap:round;stroke-linejoin:round"></polygon><polygon points="330.78 264.14 332.88 276.06 320.46 280.15 321.53 270.31 330.78 264.14" style="fill:#92E3A9;stroke:#263238;stroke-linecap:round;stroke-linejoin:round"></polygon><polygon points="294.57 284.73 284.99 292.61 291.49 298.77 300.73 292.61 294.57 284.73" style="fill:#92E3A9;stroke:#263238;stroke-linecap:round;stroke-linejoin:round"></polygon><polygon points="284.99 292.61 281.93 302.64 290.42 308.61 291.49 298.77 284.99 292.61" style="fill:#92E3A9;stroke:#263238;stroke-linecap:round;stroke-linejoin:round"></polygon><polygon points="300.73 292.61 302.83 304.52 290.42 308.61 291.49 298.77 300.73 292.61" style="fill:#92E3A9;stroke:#263238;stroke-linecap:round;stroke-linejoin:round"></polygon><path d="M323.2,269l-8,5s-3.77,13.05-3.3,13.36l11.47,7.7s12.26-8.8,12.42-9.43a52,52,0,0,0-2.2-9.9C333,274.62,323.2,269,323.2,269Z" style="fill:#92E3A9;stroke:#263238;stroke-linecap:round;stroke-linejoin:round"></path><path d="M332.32,276.51s-3.93,4.87-7.23,4.87-8.8-5-8.8-5" style="fill:none;stroke:#263238;stroke-linecap:round;stroke-linejoin:round"></path><line x1="324.3" y1="282.01" x2="324.44" y2="292.58" style="fill:none;stroke:#263238;stroke-linecap:round;stroke-linejoin:round"></line><path d="M312.81,303.3l-8,5s-3.77,13-3.3,13.36l11.47,7.7s12.26-8.8,12.42-9.43a52.78,52.78,0,0,0-2.2-9.9C322.56,309,312.81,303.3,312.81,303.3Z" style="fill:#92E3A9;stroke:#263238;stroke-linecap:round;stroke-linejoin:round"></path><path d="M321.93,310.84s-3.93,4.88-7.23,4.88-8.8-5-8.8-5" style="fill:none;stroke:#263238;stroke-linecap:round;stroke-linejoin:round"></path><line x1="313.91" y1="316.34" x2="314.05" y2="326.92" style="fill:none;stroke:#263238;stroke-linecap:round;stroke-linejoin:round"></line><path d="M311.81,346.19l-.72.44c-.94.56-1.89,1.11-2.86,1.65-1.73,1-3.51,1.92-5.33,2.83s-3.82,1.89-5.81,2.79" style="fill:#92E3A9;stroke:#263238;stroke-linecap:round;stroke-linejoin:round"></path><path d="M294.82,354.9,290.43,352a12.32,12.32,0,0,1,.62-3.52,1.05,1.05,0,0,0,.05-.19c.41-1.64.93-3.58,1.4-5.29.16-.59.32-1.15.47-1.66.22-.82.42-1.52.56-2s.2-.7.2-.7l2.81-1.76L299,335.3l.14-.1,1.44-.91L301,334l.74-.47s9.75,5.66,10.38,6.76a30.78,30.78,0,0,1,1.33,4.86" style="fill:#92E3A9;stroke:#263238;stroke-linecap:round;stroke-linejoin:round"></path><path d="M310.86,341.11s-3.93,4.88-7.23,4.88-8.8-5-8.8-5" style="fill:none;stroke:#263238;stroke-linecap:round;stroke-linejoin:round"></path><line x1="302.9" y1="351.11" x2="302.84" y2="346.62" style="fill:none;stroke:#263238;stroke-linecap:round;stroke-linejoin:round"></line><path d="M286.68,358.23l1.45-.56q2.69-1,5.27-2.14l1.42-.63" style="fill:#92E3A9;stroke:#263238;stroke-linecap:round;stroke-linejoin:round"></path><path d="M281.91,360l1.19-.42h0l2.66-1" style="fill:none;stroke:#263238;stroke-linecap:round;stroke-linejoin:round"></path><path d="M279.63,360.75l-.07-.05-6.3-4.22a5.56,5.56,0,0,1,.3-2.15c.36-1.61,1-3.87,1.53-5.95.76-2.8,1.47-5.26,1.47-5.26l.86-.54,7.15-4.49s4.85,2.82,7.93,4.87c.47.3.9.6,1.26.86a5.11,5.11,0,0,1,1.19,1,10.27,10.27,0,0,1,.61,1.83c.56,2.11,1.25,5.39,1.5,7.05l0,.17" style="fill:#92E3A9;stroke:#263238;stroke-linecap:round;stroke-linejoin:round"></path><path d="M293.69,345.63s-3.93,4.87-7.23,4.87-8.8-5-8.8-5" style="fill:none;stroke:#263238;stroke-linecap:round;stroke-linejoin:round"></path><polyline points="285.67 351.13 285.69 352.32 285.69 352.41 285.69 352.69 285.77 358.58" style="fill:none;stroke:#263238;stroke-linecap:round;stroke-linejoin:round"></polyline><path d="M292.71,313.69l-8,5s-3.77,13-3.3,13.36l11.48,7.7s12.25-8.8,12.41-9.43a51.24,51.24,0,0,0-2.2-9.9C302.45,319.35,292.71,313.69,292.71,313.69Z" style="fill:#92E3A9;stroke:#263238;stroke-linecap:round;stroke-linejoin:round"></path><path d="M301.82,321.23s-3.93,4.88-7.23,4.88-8.8-5-8.8-5" style="fill:none;stroke:#263238;stroke-linecap:round;stroke-linejoin:round"></path><line x1="293.81" y1="326.74" x2="293.95" y2="337.31" style="fill:none;stroke:#263238;stroke-linecap:round;stroke-linejoin:round"></line><path d="M278.4,277.16s-1.81,7-1.13,7.68,17.16,7.9,17.84,7.45,7.68-11.52,7-14.23a44,44,0,0,1-.9-4.52Z" style="fill:#92E3A9;stroke:#263238;stroke-linecap:round;stroke-linejoin:round"></path><polygon points="283.59 266.99 278.4 277.15 295.34 284.84 301.21 273.54 283.59 266.99" style="fill:#92E3A9;stroke:#263238;stroke-linecap:round;stroke-linejoin:round"></polygon><line x1="295.34" y1="284.84" x2="294.89" y2="289.13" style="fill:none;stroke:#263238;stroke-linecap:round;stroke-linejoin:round"></line><path d="M290.37,315.56s-1.81,7-1.13,7.68,17.17,7.9,17.84,7.45,7.68-11.52,7-14.23a42.73,42.73,0,0,1-.91-4.52Z" style="fill:#92E3A9;stroke:#263238;stroke-linecap:round;stroke-linejoin:round"></path><polygon points="295.56 305.39 290.37 315.56 307.31 323.24 313.18 311.94 295.56 305.39" style="fill:#92E3A9;stroke:#263238;stroke-linecap:round;stroke-linejoin:round"></polygon><line x1="307.31" y1="323.24" x2="306.86" y2="327.53" style="fill:none;stroke:#263238;stroke-linecap:round;stroke-linejoin:round"></line><path d="M277,334.08s-1.81,7-1.13,7.68,17.17,7.91,17.85,7.46,7.68-11.52,7-14.24a41,41,0,0,1-.9-4.51Z" style="fill:#92E3A9;stroke:#263238;stroke-linecap:round;stroke-linejoin:round"></path><polygon points="282.24 323.92 277.04 334.08 293.98 341.76 299.86 330.47 282.24 323.92" style="fill:#92E3A9;stroke:#263238;stroke-linecap:round;stroke-linejoin:round"></polygon><line x1="293.98" y1="341.76" x2="293.53" y2="346.05" style="fill:none;stroke:#263238;stroke-linecap:round;stroke-linejoin:round"></line><path d="M286.68,358.23a3.13,3.13,0,0,0,.07-1.33,40.85,40.85,0,0,1-.9-4.52l-.16,0-12.13,1.92L263,356s-1.8,7-1.13,7.68a25,25,0,0,0,2.89,1.47q5.79-1.5,11.28-3.24" style="fill:#92E3A9;stroke:#263238;stroke-linecap:round;stroke-linejoin:round"></path><path d="M281.91,360l1.19-.42h0l2.66-1" style="fill:none;stroke:#263238;stroke-linecap:round;stroke-linejoin:round"></path><polyline points="276.07 361.91 263.03 356 268.23 345.83 275.09 348.38 285.69 352.32 285.85 352.38 285.69 352.69 281.98 359.83 281.96 359.87 281.91 359.97" style="fill:#92E3A9;stroke:#263238;stroke-linecap:round;stroke-linejoin:round"></polyline><path d="M347,297.31a38.64,38.64,0,0,1-.54,6.45c-1-.37-2.06-.82-3.19-1.28l-2.44-1.05a86.18,86.18,0,0,1-8.45-3.94c-.13-.13-.16-.47-.14-1a12.28,12.28,0,0,1,.18-1.62c.27-1.72.77-3.82,1-4.69.06-.26.1-.41.1-.41l2.2-.35h0l4.06-.65h0l6.06-1a39,39,0,0,1,1.12,8.06C347,296.37,347,296.84,347,297.31Z" style="fill:#92E3A9;stroke:#263238;stroke-linecap:round;stroke-linejoin:round"></path><path d="M347,295.91l-5.28-2.39-2.93-1.33L334,290l-.48-.22,2-3.83.31-.6h0l.52-1,2.41-4.72,5,1.87.77.29.61,3.5v0c.26.84.5,1.68.71,2.53A39,39,0,0,1,347,295.91Z" style="fill:#92E3A9;stroke:#263238;stroke-linecap:round;stroke-linejoin:round"></path><path d="M344.64,310.81a45.76,45.76,0,0,1-2.2,5.13,52.07,52.07,0,0,1-3.92,6.58l-.62-.28a36.58,36.58,0,0,1-4.39-2.16c-.51-.51.4-4.65.87-6.63.15-.63.26-1.05.26-1.05l3.19-.51,1.9-.3Z" style="fill:#92E3A9;stroke:#263238;stroke-linecap:round;stroke-linejoin:round"></path><path d="M346.31,304.63a40.93,40.93,0,0,1-1.67,6.18,45.76,45.76,0,0,1-2.2,5.13L338.22,314l-.23-.1-3.35-1.52,1.18-2.31,1.65-3.22,1.52-3,0,0,.83-1.62,1.4.52h0l.57.22Z" style="fill:#92E3A9;stroke:#263238;stroke-linecap:round;stroke-linejoin:round"></path><path d="M313.45,345.19q2.35-1.45,4.56-3c2.14-1.47,4.17-3,6.1-4.54.22-.52.4-1,.54-1.46a4.41,4.41,0,0,0,.28-2.12,41,41,0,0,1-.9-4.51l-7.23,1.14L302,333.05l-.82.13s-.06.22-.15.59q0,.12-.06.27c-.07.28-.15.61-.23,1h0c-.21.89-.44,2-.6,3-.24,1.39-.35,2.62-.09,2.88a75.78,75.78,0,0,0,7.41,3.5c1.44.63,2.93,1.26,4.32,1.83" style="fill:#92E3A9;stroke:#263238;stroke-linecap:round;stroke-linejoin:round"></path><polygon points="306.41 323.01 301.21 333.18 318.15 340.86 324.03 329.56 306.41 323.01" style="fill:#92E3A9;stroke:#263238;stroke-linecap:round;stroke-linejoin:round"></polygon><line x1="318.15" y1="340.86" x2="318.01" y2="342.2" style="fill:none;stroke:#263238;stroke-linecap:round;stroke-linejoin:round"></line><path d="M319.73,290l-7.84-2.68-9.1,5.39a10.65,10.65,0,0,1,0,6.33,61.9,61.9,0,0,1-3.16,6.55l6.78,7.23,9-2.49a19.27,19.27,0,0,0,4.07-7.9C320.64,297.71,319.73,290,319.73,290Z" style="fill:#92E3A9;stroke:#263238;stroke-linecap:round;stroke-linejoin:round"></path><path d="M311.89,287.35s2.42,6.3-.06,10.59-4.07,5.42-4.07,5.42l-5.19,1.35" style="fill:#92E3A9;stroke:#263238;stroke-linecap:round;stroke-linejoin:round"></path><line x1="307.76" y1="303.36" x2="314.54" y2="308.78" style="fill:none;stroke:#263238;stroke-linecap:round;stroke-linejoin:round"></line><path d="M301.21,251l-7.85-2.68-9.09,5.39a10.65,10.65,0,0,1,0,6.33,61.9,61.9,0,0,1-3.16,6.55l6.77,7.23,9-2.49a19.27,19.27,0,0,0,4.07-7.9C302.11,258.63,301.21,251,301.21,251Z" style="fill:#92E3A9;stroke:#263238;stroke-linecap:round;stroke-linejoin:round"></path><path d="M293.36,248.27s2.43,6.3-.06,10.59-4.06,5.42-4.06,5.42l-5.2,1.35" style="fill:#92E3A9;stroke:#263238;stroke-linecap:round;stroke-linejoin:round"></path><line x1="289.24" y1="264.28" x2="296.02" y2="269.7" style="fill:none;stroke:#263238;stroke-linecap:round;stroke-linejoin:round"></line><path d="M337.72,310.74l-9-3.06-10.38,6.16a12.15,12.15,0,0,1,0,7.22,69.22,69.22,0,0,1-3.62,7.48l7.74,8.25L332.82,334a22.06,22.06,0,0,0,4.64-9C338.75,319.51,337.72,310.74,337.72,310.74Z" style="fill:#92E3A9;stroke:#263238;stroke-linecap:round;stroke-linejoin:round"></path><path d="M328.76,307.68s2.77,7.19-.07,12.09-4.64,6.19-4.64,6.19l-5.93,1.55" style="fill:#92E3A9;stroke:#263238;stroke-linecap:round;stroke-linejoin:round"></path><line x1="324.05" y1="325.96" x2="331.79" y2="332.15" style="fill:none;stroke:#263238;stroke-linecap:round;stroke-linejoin:round"></line><path d="M338.21,314l4.38-7-3.19-10.08a10.67,10.67,0,0,1-6.16-1.43,61.66,61.66,0,0,1-5.67-4.56l-8.57,5,.37,9.37a19.32,19.32,0,0,0,6.79,5.74C330.52,313.18,338.21,314,338.21,314Z" style="fill:#92E3A9;stroke:#263238;stroke-linecap:round;stroke-linejoin:round"></path><path d="M342.59,307s-6.68.94-10.3-2.46-4.36-5.18-4.36-5.18l-.14-5.37" style="fill:#92E3A9;stroke:#263238;stroke-linecap:round;stroke-linejoin:round"></path><line x1="327.93" y1="299.36" x2="321.12" y2="304.73" style="fill:none;stroke:#263238;stroke-linecap:round;stroke-linejoin:round"></line><path d="M302.86,270.61s.95,7.3,1.91,7.93,5.42,1.28,7-.31.34-8.89.34-8.89Z" style="fill:#fff;stroke:#263238;stroke-linecap:round;stroke-linejoin:round"></path><path d="M307.07,268.08s-5.06.84-4.21,2.53,9.26,1.26,9.26-1.27S307.07,268.08,307.07,268.08Z" style="fill:#fff;stroke:#263238;stroke-linecap:round;stroke-linejoin:round"></path><path d="M307.23,268.78s-2.85.48-2.37,1.43,5.22.71,5.22-.72S307.23,268.78,307.23,268.78Z" style="fill:#fff;stroke:#263238;stroke-linecap:round;stroke-linejoin:round"></path><path d="M332.31,308.56s.95,7.3,1.91,7.94,5.42,1.28,7-.32.34-8.88.34-8.88Z" style="fill:#fff;stroke:#263238;stroke-linecap:round;stroke-linejoin:round"></path><path d="M336.52,306s-5,.84-4.21,2.52,9.26,1.27,9.26-1.26S336.52,306,336.52,306Z" style="fill:#fff;stroke:#263238;stroke-linecap:round;stroke-linejoin:round"></path><path d="M336.68,306.74s-2.84.47-2.37,1.42,5.22.71,5.22-.71S336.68,306.74,336.68,306.74Z" style="fill:#fff;stroke:#263238;stroke-linecap:round;stroke-linejoin:round"></path><path d="M304.74,345.62c-.14-1.71-.38-3.12-.38-3.12l-2.06.28-5.11.7-2.09.28s.15,1.12.38,2.52c.16,1,.36,2,.58,3q2.69-1,5.27-2.14" style="fill:#fff;stroke:#263238;stroke-linecap:round;stroke-linejoin:round"></path><path d="M299.31,341.24s-5.06.84-4.21,2.52,9.26,1.27,9.26-1.26S299.31,341.24,299.31,341.24Z" style="fill:#fff;stroke:#263238;stroke-linecap:round;stroke-linejoin:round"></path><path d="M299.47,341.94s-2.85.47-2.37,1.42,5.22.71,5.22-.71S299.47,341.94,299.47,341.94Z" style="fill:#fff;stroke:#263238;stroke-linecap:round;stroke-linejoin:round"></path><path d="M303.48,286.44s.95,7.3,1.91,7.93,5.42,1.28,7-.31.34-8.89.34-8.89Z" style="fill:#fff;stroke:#263238;stroke-linecap:round;stroke-linejoin:round"></path><path d="M307.69,283.91s-5.05.84-4.21,2.53,9.26,1.26,9.26-1.27S307.69,283.91,307.69,283.91Z" style="fill:#fff;stroke:#263238;stroke-linecap:round;stroke-linejoin:round"></path><path d="M307.85,284.61s-2.84.48-2.37,1.43,5.22.71,5.22-.72S307.85,284.61,307.85,284.61Z" style="fill:#fff;stroke:#263238;stroke-linecap:round;stroke-linejoin:round"></path><path d="M283.7,246.88s.95,7.3,1.91,7.94,5.42,1.27,7-.32.33-8.89.33-8.89Z" style="fill:#fff;stroke:#263238;stroke-linecap:round;stroke-linejoin:round"></path><path d="M287.91,244.35s-5.05.84-4.21,2.53,9.26,1.26,9.26-1.27S287.91,244.35,287.91,244.35Z" style="fill:#fff;stroke:#263238;stroke-linecap:round;stroke-linejoin:round"></path><path d="M288.07,245.05s-2.84.48-2.37,1.43,5.22.71,5.22-.71S288.07,245.05,288.07,245.05Z" style="fill:#fff;stroke:#263238;stroke-linecap:round;stroke-linejoin:round"></path><path d="M316.59,308.56l-6.67,4.55a2.82,2.82,0,0,0-1.06,3.75c.75,1.41,1.8,3,2.95,3.35l.7.23a3.48,3.48,0,0,0,2.87-.29l9.19-5.32Z" style="fill:#fff;stroke:#263238;stroke-linecap:round;stroke-linejoin:round"></path><path d="M322.47,310.66s-6.62-4-6.62-1.1,9.19,7,8.82,4.77A6.7,6.7,0,0,0,322.47,310.66Z" style="fill:#fff;stroke:#263238;stroke-linecap:round;stroke-linejoin:round"></path><path d="M321.37,311.19s-3.31-2-3.31-.55,4.59,3.49,4.41,2.39A3.34,3.34,0,0,0,321.37,311.19Z" style="fill:#fff;stroke:#263238;stroke-linecap:round;stroke-linejoin:round"></path><path d="M340.83,281.46l-3.36-7.34a2.84,2.84,0,0,0-3.52-1.67c-1.52.5-3.23,1.28-3.8,2.35l-.35.65a3.53,3.53,0,0,0-.19,2.88l3.7,9.95Z" style="fill:#fff;stroke:#263238;stroke-linecap:round;stroke-linejoin:round"></path><path d="M337.77,286.91s5.1-5.84,2.2-6.34-8.43,7.88-6.19,7.89A6.69,6.69,0,0,0,337.77,286.91Z" style="fill:#fff;stroke:#263238;stroke-linecap:round;stroke-linejoin:round"></path><path d="M337.43,285.73s2.55-2.92,1.1-3.17-4.22,3.95-3.1,3.95A3.3,3.3,0,0,0,337.43,285.73Z" style="fill:#fff;stroke:#263238;stroke-linecap:round;stroke-linejoin:round"></path><path d="M300.6,309l-3.36-7.34a2.84,2.84,0,0,0-3.52-1.67c-1.51.5-3.23,1.28-3.8,2.34l-.35.66a3.53,3.53,0,0,0-.19,2.88l3.7,9.94Z" style="fill:#fff;stroke:#263238;stroke-linecap:round;stroke-linejoin:round"></path><path d="M297.54,314.4s5.1-5.84,2.2-6.34-8.42,7.88-6.19,7.89A6.69,6.69,0,0,0,297.54,314.4Z" style="fill:#fff;stroke:#263238;stroke-linecap:round;stroke-linejoin:round"></path><path d="M297.2,313.22s2.55-2.92,1.1-3.17-4.22,3.95-3.1,3.95A3.3,3.3,0,0,0,297.2,313.22Z" style="fill:#fff;stroke:#263238;stroke-linecap:round;stroke-linejoin:round"></path><path d="M278.51,343.77l6.76-4.42a2.83,2.83,0,0,0,1.13-3.73c-.71-1.42-1.73-3-2.88-3.41l-.69-.24a3.5,3.5,0,0,0-2.88.23l-9.29,5.13Z" style="fill:#fff;stroke:#263238;stroke-linecap:round;stroke-linejoin:round"></path><path d="M272.67,341.54s6.53,4.18,6.59,1.24-9-7.17-8.71-5A6.65,6.65,0,0,0,272.67,341.54Z" style="fill:#fff;stroke:#263238;stroke-linecap:round;stroke-linejoin:round"></path><path d="M273.78,341s3.27,2.1,3.3.62-4.52-3.58-4.36-2.48A3.32,3.32,0,0,0,273.78,341Z" style="fill:#fff;stroke:#263238;stroke-linecap:round;stroke-linejoin:round"></path><path d="M260.44,357.49l5.39-3.52a2.25,2.25,0,0,0,.9-3c-.57-1.13-1.39-2.39-2.29-2.71l-.56-.2a2.82,2.82,0,0,0-2.29.18l-7.41,4.09Z" style="fill:#fff;stroke:#263238;stroke-linecap:round;stroke-linejoin:round"></path><path d="M255.79,355.72s5.2,3.33,5.25,1-7.2-5.72-7-3.95A5.33,5.33,0,0,0,255.79,355.72Z" style="fill:#fff;stroke:#263238;stroke-linecap:round;stroke-linejoin:round"></path><path d="M256.67,355.31s2.61,1.67,2.63.5-3.6-2.86-3.48-2A2.67,2.67,0,0,0,256.67,355.31Z" style="fill:#fff;stroke:#263238;stroke-linecap:round;stroke-linejoin:round"></path><path d="M251.78,258.23c-.53-.89-1.27-.83-4.95-1-1.7-.08-17.22,3.85-33.5,8.11l.08-.08s-3.38-1-4-1.9.21-1.69,1.9-3,1.21-2.42.07-2.9a1.77,1.77,0,0,0-2,.57s.21-3.59-1.49-3.59a3.1,3.1,0,0,0-2.53,1.48s-.64-1.27-1.69-.63-.43,2.53-.43,2.53l1.48,3.18s-.42.42-3.59-3.18-6.14-3-6.77-1.27a5.3,5.3,0,0,0-.31,2.93s-2-1.87-2.23-.81,1.48,2.11,1.48,2.11-3-.21-3.17,1.06,2.75,1.27,2.75,1.27-2.75,2.11-.85,2.75,4.66-1.27,5.29-1.48-2.11,2.54-.63,2.75a3.21,3.21,0,0,0,2.53-.85s.85,2.12,2.12.85,3.59-3.39,4.44-3.39a29.18,29.18,0,0,1,5.06,2.2c-18.35,4.82-36.82,9.83-36.82,9.83s-6.3-10-8.57-11.78-2.88-3-4.83-2.94-.59,2.55-.59,2.55a3.51,3.51,0,0,0-3.63.66c-1.7,1.53.84,2.07.71,2.45s-2.24,0-2.78,2.26,3.6,1.84,3.6,1.84a1.81,1.81,0,0,0-.54,2.26c.71,1.33,6,1.18,7.3,1.54a65.17,65.17,0,0,1,6.73,3.62s-2.59.67-4.53,1.39-5.22.7-9.14-.28-5.45-3.26-7.19-3-.78,1.92-.78,1.92a3.35,3.35,0,0,0-2.7.13c-1.57.68-.22,3-.22,3a1.43,1.43,0,0,0-1.42,2.06c.65,2.07,6.93,1.56,6.93,1.56a38.69,38.69,0,0,0-5.78,1.21c-1.31.57-1.39.67-1.22,2.69s3.49,2.22,3.49,2.22a4.17,4.17,0,0,0,.76,3.27,1.78,1.78,0,0,0,2.39.27s-1,2.57,2,3.28,5.62-6.5,5.62-6.5l.51,4.73s-1.31,1.7.77,4.39,4.49-1.95,4.49-1.95-.34,3.53,1.52,5,3-1.52,3-1.52l2,2.07c2,2.07,5.5-1.72,2.38-8.47s-.12-15.27-.12-15.27,3.84,3.51,4.35,8.24-.87,4.21.59,7,3.32-1.23,3.32-1.23a21.32,21.32,0,0,0,5,6.6c3,2.3,2.78-4.37,2.78-4.37a8.49,8.49,0,0,0,4.43,5c3.51,1.63-.25-5.07-.25-5.07l1.91-.15c1.9-.16-2.8-4.87-2.8-4.87l.68-1.65c.68-1.64-4.06-4.76-10-5.55a8.44,8.44,0,0,1-4-1.24s-3-1.79-3.78-3.67,1.72-2.76,1.72-2.76,21.21-6.39,25.15-7.45c1.07-.29,4.89-1.1,9.92-2.1l0,0s3.38,1.06,4,1.9-.21,1.7-1.9,3-1.22,2.42-.08,2.91a1.79,1.79,0,0,0,2-.58s-.21,3.6,1.48,3.6a3.12,3.12,0,0,0,2.54-1.48s.63,1.26,1.69.63.42-2.54.42-2.54l-1.48-3.17s.42-.42,3.6,3.17,6.13,3,6.76,1.27a5.15,5.15,0,0,0,.31-2.92s2,1.86,2.23.81-1.48-2.12-1.48-2.12,3,.21,3.17-1.06-2.75-1.26-2.75-1.26,2.75-2.12.85-2.75-4.65,1.26-5.29,1.48,2.12-2.54.64-2.75a3.25,3.25,0,0,0-2.54.84s-.85-2.11-2.12-.84-3.59,3.38-4.44,3.38a26.63,26.63,0,0,1-4.78-2.06c13.53-2.69,32.91-6.34,34.08-6.18A1.47,1.47,0,0,0,251.78,258.23Z" style="fill:#92E3A9;stroke:#263238;stroke-linecap:round;stroke-linejoin:round"></path></g><g id="freepik--sauce-1--inject-285"><path d="M431.93,397.77a55.19,55.19,0,0,1-3,17.55,56.35,56.35,0,0,1-3.18,7.45,58.74,58.74,0,0,1-103.8,0,54.4,54.4,0,0,1-3.2-7.49,55.12,55.12,0,0,1-3-17.56Z" style="fill:#fff;stroke:#263238;stroke-linecap:round;stroke-linejoin:round"></path><ellipse cx="373.86" cy="398.3" rx="58.13" ry="29.32" style="fill:#fff;stroke:#263238;stroke-linecap:round;stroke-linejoin:round"></ellipse><path d="M429.55,398.3a15.88,15.88,0,0,1-1.44,6.34,20.91,20.91,0,0,1-4.53,6.34c-.16.17-.33.34-.51.5l-.52.48-.54.48q-.69.58-1.41,1.14c-.5.39-1,.76-1.52,1.11l-.78.53c-.52.35-1.05.68-1.59,1s-1.24.73-1.86,1.08l-1.24.65c-.85.44-1.7.86-2.55,1.25a93,93,0,0,1-27.4,6.78l-.23,0A99.83,99.83,0,0,1,347,422.85a73.12,73.12,0,0,1-15.8-6.53l-.07-.05c-1.19-.71-2.29-1.46-3.38-2.26h0a31.27,31.27,0,0,1-3.43-2.92h0a26.39,26.39,0,0,1-2.26-2.54,0,0,0,0,1,0,0,23.83,23.83,0,0,1-2.25-4.13c-8.53-20.1,22.37-34,54.12-34.19,20.4.28,47.69,5.52,55,23.66h0A14.37,14.37,0,0,1,429.55,398.3Z" style="fill:#fff;stroke:#263238;stroke-linecap:round;stroke-linejoin:round"></path><path d="M428.11,404.64a22.72,22.72,0,0,1-4.53,6.34l-.51.5-.52.48-.54.48c-.46.39-.93.78-1.41,1.14s-1,.76-1.52,1.11l-.78.53c-.52.35-1.05.68-1.59,1s-1.24.73-1.86,1.08l-1.24.65c-.85.44-1.7.86-2.55,1.25a89.46,89.46,0,0,1-27.4,6.78l-.23,0A104.29,104.29,0,0,1,347,422.85c-1.38-.38-2.74-.78-4.07-1.22a60.82,60.82,0,0,1-11.73-5.31l-.07-.05c-1.19-.71-2.29-1.46-3.38-2.26h0a31.27,31.27,0,0,1-3.43-2.92h0a26.39,26.39,0,0,1-2.26-2.54,0,0,0,0,1,0,0,23.83,23.83,0,0,1-2.25-4.13c12-25.2,79.68-28.55,102.5-7.28h0A23.12,23.12,0,0,1,428.11,404.64Z" style="fill:#92E3A9;stroke:#263238;stroke-linecap:round;stroke-linejoin:round"></path></g><g id="freepik--Chopsticks--inject-285"><path d="M327.4,211.28a7.35,7.35,0,0,0-1.91,1.71c-25.3,31.63-49,64.68-73.47,96.95-24.79,32.69-79.56,105-82.16,108.38a17.15,17.15,0,0,0-3.4,6.07c-.54,2.27,0,5,2,6.24,3.4,2.17,7.58-1.16,10.13-4.29,5.63-6.89,106.56-148.28,151.85-211.72.65-.9,1.32-2,1-3C330.87,210,329,210.27,327.4,211.28Z" style="fill:#fff;stroke:#263238;stroke-linecap:round;stroke-linejoin:round"></path><path d="M326.52,209.7a7.39,7.39,0,0,0-1.91,1.72c-25.3,31.62-49,64.67-73.47,97C226.35,341.06,171.58,413.31,169,416.75a17.11,17.11,0,0,0-3.4,6.06c-.54,2.27.06,5,2,6.25,3.4,2.16,7.58-1.17,10.13-4.29,5.63-6.9,106.56-148.28,151.86-211.73.64-.9,1.31-2,1-3C330,208.38,328.13,208.7,326.52,209.7Z" style="fill:#fff;stroke:#263238;stroke-linecap:round;stroke-linejoin:round"></path><path d="M336.33,214.72a7.12,7.12,0,0,0-1.73,1.83c-22.05,33.06-42.42,67.37-63.6,101-21.46,34-68.87,109.32-71.12,112.89a16.73,16.73,0,0,0-2.81,6.22c-.34,2.26.48,4.87,2.51,5.93,3.5,1.83,7.31-1.78,9.53-5.05,4.92-7.22,91.6-154,130.49-219.81.55-.93,1.12-2.06.68-3.05C339.6,213.13,337.81,213.6,336.33,214.72Z" style="fill:#fff;stroke:#263238;stroke-linecap:round;stroke-linejoin:round"></path><path d="M335.45,213.14a7.32,7.32,0,0,0-1.73,1.84c-22.05,33.05-42.41,67.36-63.6,101L199,428.86a16.76,16.76,0,0,0-2.81,6.21c-.34,2.27.48,4.87,2.51,5.93,3.5,1.84,7.31-1.78,9.53-5,4.92-7.22,91.6-154,130.49-219.81.55-.94,1.12-2.06.68-3.05C338.72,211.55,336.93,212,335.45,213.14Z" style="fill:#fff;stroke:#263238;stroke-linecap:round;stroke-linejoin:round"></path></g></svg>